<?xml version="1.0" encoding="UTF-8" standalone="no"?>
<svg
   xmlns:dc="http://purl.org/dc/elements/1.1/"
   xmlns:cc="http://creativecommons.org/ns#"
   xmlns:rdf="http://www.w3.org/1999/02/22-rdf-syntax-ns#"
   xmlns:svg="http://www.w3.org/2000/svg"
   xmlns="http://www.w3.org/2000/svg"
   xmlns:sodipodi="http://sodipodi.sourceforge.net/DTD/sodipodi-0.dtd"
   xmlns:inkscape="http://www.inkscape.org/namespaces/inkscape"
   id="f65dcaaa-a43f-44d9-8793-dc16a3dce27d"
   data-name="Layer 1"
   width="932"
   height="476.81476"
   viewBox="0 0 932 476.81476"
   version="1.1"
   sodipodi:docname="nube.svg"
   inkscape:version="0.92.4 (5da689c313, 2019-01-14)"
   inkscape:export-filename="D:\Tech\code\Web\React\Projects\react-app\public\images\imgMsg.png"
   inkscape:export-xdpi="96"
   inkscape:export-ydpi="96">
  <metadata
     id="metadata87">
    <rdf:RDF>
      <cc:Work
         rdf:about="">
        <dc:format>image/svg+xml</dc:format>
        <dc:type
           rdf:resource="http://purl.org/dc/dcmitype/StillImage" />
        <dc:title>circuit_board</dc:title>
      </cc:Work>
    </rdf:RDF>
  </metadata>
  <defs
     id="defs85" />
  <sodipodi:namedview
     pagecolor="#ffffff"
     bordercolor="#666666"
     borderopacity="1"
     objecttolerance="10"
     gridtolerance="10"
     guidetolerance="10"
     inkscape:pageopacity="0"
     inkscape:pageshadow="2"
     inkscape:window-width="939"
     inkscape:window-height="706"
     id="namedview83"
     showgrid="false"
     inkscape:zoom="0.6035889"
     inkscape:cx="618.68666"
     inkscape:cy="313.20571"
     inkscape:window-x="313"
     inkscape:window-y="0"
     inkscape:window-maximized="0"
     inkscape:current-layer="f65dcaaa-a43f-44d9-8793-dc16a3dce27d"
     showborder="true" />
  <title
     id="title2">circuit_board</title>
  <g
     id="g876"
     transform="translate(-1.6567568,-39.762163)">
    <g
       transform="matrix(0.90790496,0,0,0.81983933,124.35443,32.281207)"
       id="g859">
      <path
         style="opacity:0.65399996;fill:#333333;fill-opacity:1;stroke:#333333;stroke-width:9.39263725;stroke-miterlimit:4;stroke-dasharray:none;stroke-dashoffset:0;stroke-opacity:1"
         d="m 626.5704,173.86381 c -15.90007,-3.14572 -28.08016,-12.39184 -35.26526,-26.77049 -14.60439,-29.22597 2.09049,-70.922529 34.97637,-87.355799 28.26236,-14.12287 60.59427,-9.29744 84.21193,12.56835 9.07848,8.40507 19.88313,25.51102 19.88313,31.479009 0,1.3545 1.9117,2.04676 4.88872,2.22052 29.70496,1.73379 61.34167,22.21819 66.42908,43.60978 2.2949,9.64964 4.22842,9.37589 9.0349,8.16916 2.73365,-0.68633 10.9346,-1.21682 18.22433,-1.17889 10.99293,0.0572 14.66725,0.80812 21.53784,4.4016 4.55608,2.38294 10.4735,6.63876 13.14982,9.45737 l 4.86613,5.12476 -117.52559,-0.18152 c -64.63902,-0.0998 -120.62416,-0.79457 -124.4114,-1.54385 z"
         id="path3805"
         inkscape:connector-curvature="0"
         sodipodi:nodetypes="ssssssscssccss" />
      <path
         style="opacity:0.65399996;fill:#999999;fill-opacity:1;stroke:#b3b3b3;stroke-width:9.39263725;stroke-miterlimit:4;stroke-dasharray:none;stroke-dashoffset:0;stroke-opacity:1"
         d="m 626.5704,173.86381 c -31.30408,-5.2983 -49.70786,-38.11153 -40.48507,-72.18329 7.26208,-26.828266 31.54156,-49.669903 59.07256,-55.574246 11.64349,-2.497081 31.58063,-0.935446 42.84431,3.355907 17.8975,6.818773 37.09493,25.06851 45.04728,42.823488 2.88203,6.434623 3.68227,7.044227 9.28903,7.076161 8.4709,0.04824 26.42102,6.65823 36.02491,13.26587 11.08804,7.62878 21.26896,18.64413 26.54296,28.71841 l 4.45605,8.51186 h 17.60163 c 14.91873,0 18.75712,0.56939 25.18226,3.73559 8.51941,4.19823 20.58222,13.98328 23.14761,18.77678 1.66232,3.10606 -0.65472,3.16358 -119.72061,2.97249 -66.77864,-0.10718 -124.82996,-0.77274 -129.00292,-1.47902 z"
         id="path849"
         inkscape:connector-curvature="0" />
    </g>
  </g>
  <g
     id="g871"
     transform="translate(87.808109,-36.44865)">
    <path
       style="opacity:0.65399996;fill:#333333;fill-opacity:1;stroke:#333333;stroke-width:9.39263725;stroke-miterlimit:4;stroke-dasharray:none;stroke-dashoffset:0;stroke-opacity:1"
       d="m 586.80823,448.88543 c -15.90007,-3.14572 -28.08016,-12.39184 -35.26526,-26.77049 -14.60439,-29.22597 2.09049,-70.92253 34.97637,-87.3558 28.26236,-14.12287 60.59427,-9.29744 84.21193,12.56835 9.07848,8.40507 19.88313,25.51102 19.88313,31.47901 0,1.3545 1.90663,2.22052 4.88872,2.22052 26.23737,0 56.05498,19.57485 66.42908,43.60978 3.93068,9.10669 4.22842,9.37589 9.0349,8.16916 2.73365,-0.68633 10.9346,-1.21682 18.22433,-1.17889 10.99293,0.0572 14.66725,0.80812 21.53784,4.4016 4.55608,2.38294 10.4735,6.63876 13.14982,9.45737 l 4.86613,5.12476 -117.52559,-0.18152 c -64.63902,-0.0998 -120.62416,-0.79457 -124.4114,-1.54385 z"
       id="path847"
       inkscape:connector-curvature="0" />
    <path
       inkscape:connector-curvature="0"
       id="path851"
       d="m 586.80823,448.88543 c -31.30408,-5.2983 -49.70786,-38.11152 -40.48506,-72.18329 7.26207,-26.82826 31.54155,-49.6699 59.07256,-55.57424 11.64349,-2.49708 31.58062,-0.93545 42.8443,3.3559 17.8975,6.81878 37.09494,25.06851 45.04728,42.82349 2.88203,6.43463 3.68227,7.04423 9.28903,7.07616 8.47091,0.0482 26.42103,6.65823 36.02491,13.26588 11.08805,7.62877 21.26897,18.64412 26.54297,28.71841 l 4.45605,8.51185 h 17.60163 c 14.91873,0 18.75712,0.5694 25.18225,3.7356 8.51941,4.19822 20.58223,13.98328 23.14761,18.77678 1.66233,3.10605 -0.65471,3.16358 -119.7206,2.97248 -66.77865,-0.10717 -124.82997,-0.77273 -129.00293,-1.47902 z"
       style="opacity:0.65399996;fill:#999999;fill-opacity:1;stroke:#b3b3b3;stroke-width:9.39263725;stroke-miterlimit:4;stroke-dasharray:none;stroke-dashoffset:0;stroke-opacity:1" />
  </g>
  <g
     id="g867"
     transform="matrix(0.9262112,0,0,0.86659821,91.403729,58.223473)">
    <path
       inkscape:connector-curvature="0"
       id="path3801"
       d="m 58.683234,463.87167 c 9.720806,-8.82792 20.547965,-12.22604 35.644805,-11.18718 6.537421,0.44986 13.377291,1.28509 15.199731,1.85606 2.81545,0.88209 4.0408,-0.59999 8.15201,-9.86 5.66913,-12.76903 17.86961,-25.95601 30.14857,-32.5863 9.25809,-4.9991 25.05663,-9.58087 33.03609,-9.58087 4.808,0 5.64931,-0.91192 11.19687,-12.13666 27.99039,-56.6347 106.35361,-56.38172 133.48589,0.43093 5.64211,11.81411 5.98597,13.4858 5.98597,29.10167 0,14.02439 -0.57393,17.64167 -3.73892,23.56478 -4.76783,8.92276 -13.47624,17.63117 -22.399,22.399 l -6.99721,3.73892 -123.42838,0.3728 -123.428382,0.37279 z"
       style="opacity:0.65399996;fill:#333333;fill-opacity:1;stroke:#333333;stroke-width:9.39263725;stroke-miterlimit:4;stroke-dasharray:none;stroke-dashoffset:0;stroke-opacity:1" />
    <path
       inkscape:connector-curvature="0"
       id="path853"
       d="m 50.09699,461.17364 c 15.40353,-14.02205 19.50269,-15.58683 40.7882,-15.57015 l 18.42198,0.0144 4.67027,-8.92011 c 10.81185,-20.65034 31.55057,-35.93365 54.57765,-40.22077 5.4673,-1.01788 10.84216,-2.09132 11.94413,-2.38541 1.10198,-0.29409 3.83823,-4.15519 6.08056,-8.58021 17.93139,-35.3859 56.72568,-52.88963 92.63772,-41.79753 22.04936,6.81036 38.30877,21.72046 49.30049,45.20925 5.06361,10.82066 5.22565,11.84476 4.62956,29.26005 -0.61389,17.9353 -0.65858,18.10606 -7.22265,27.60384 -4.14732,6.0009 -10.49734,12.2114 -17.0659,16.69096 l -10.46096,7.13406 -128.70661,-0.0717 -128.70661,-0.0717 z"
       style="opacity:0.65399996;fill:#999999;fill-opacity:1;stroke:#b3b3b3;stroke-width:9.39263725;stroke-miterlimit:4;stroke-dasharray:none;stroke-dashoffset:0;stroke-opacity:1" />
  </g>
  <g
     id="g863"
     transform="translate(-49.702703,36.44865)">
    <path
       inkscape:connector-curvature="0"
       id="path3803"
       d="M 170.07978,97.67013 73.239905,96.84175 80.433847,90.68463 C 90.441439,82.11938 101.0499,78.89468 115.86588,79.91422 c 6.53741,0.44986 13.37729,1.28509 15.19972,1.85606 2.81545,0.88209 4.0408,-0.6 8.15201,-9.86 5.66913,-12.76904 17.86962,-25.95602 30.14858,-32.58631 9.25808,-4.9991 25.05662,-9.58087 33.03608,-9.58087 4.808,0 5.64931,-0.91192 11.19688,-12.13666 14.18477,-28.70093 38.32899,-42.53631 74.23043,-42.53631 33.4595,0 56.67967,14.00214 70.34883,42.42149 l 5.89272,12.25148 h 7.16529 c 11.28703,0 27.73808,5.928 38.56037,13.89491 10.13403,7.46026 21.81097,22.80022 25.22104,33.13284 l 1.85579,5.62313 7.80139,-2.42433 c 10.38517,-3.22725 24.40111,-1.92285 35.45496,3.29965 9.13549,4.31614 19.34815,11.8643 17.90725,13.23521 -1.34177,1.27661 -222.91843,2.06413 -327.95744,1.16562 z"
       style="opacity:0.65399996;fill:#333333;fill-opacity:1;stroke:#333333;stroke-width:9.39263725;stroke-miterlimit:4;stroke-dasharray:none;stroke-dashoffset:0;stroke-opacity:1" />
    <path
       inkscape:connector-curvature="0"
       id="path855"
       d="M 143.41262,104.78645 61.029081,103.93483 71.036105,95.65105 C 87.80848,81.76693 90.61522,80.73817 111.6776,80.75467 l 18.42198,0.0144 4.67028,-8.92012 c 10.81185,-20.65033 31.55056,-35.93365 54.57765,-40.22076 5.46729,-1.01789 10.80182,-2.07584 11.85451,-2.35102 1.05268,-0.27518 4.39361,-5.1526 7.42427,-10.83871 15.39338,-28.88092 40.36229,-42.92813 76.22387,-42.88263 34.60579,0.0439 58.13206,13.69512 73.08656,42.4088 l 6.13441,11.77847 9.97015,0.90407 c 11.21008,1.01649 28.1371,8.20708 38.33695,16.28552 6.90328,5.46749 20.07854,22.81612 22.83652,30.07019 1.56537,4.11725 1.98109,4.25353 7.94768,2.60542 10.19108,-2.81502 25.83331,-0.72833 37.46482,4.99785 12.66357,6.23425 20.97668,14.23446 17.94404,17.26864 -3.6906,3.69246 -157.57923,4.95407 -355.15867,2.91164 z"
       style="opacity:0.65399996;fill:#999999;fill-opacity:1;stroke:#b3b3b3;stroke-width:9.39263725;stroke-miterlimit:4;stroke-dasharray:none;stroke-dashoffset:0;stroke-opacity:1" />
  </g>
</svg>
