<?xml version="1.0" encoding="UTF-8" standalone="no"?>
<!-- Generated by IcoMoon.io -->

<svg
   xmlns:dc="http://purl.org/dc/elements/1.1/"
   xmlns:cc="http://creativecommons.org/ns#"
   xmlns:rdf="http://www.w3.org/1999/02/22-rdf-syntax-ns#"
   xmlns:svg="http://www.w3.org/2000/svg"
   xmlns="http://www.w3.org/2000/svg"
   xmlns:sodipodi="http://sodipodi.sourceforge.net/DTD/sodipodi-0.dtd"
   xmlns:inkscape="http://www.inkscape.org/namespaces/inkscape"
   version="1.1"
   width="32"
   height="32"
   viewBox="0 0 32 32"
   id="svg6"
   sodipodi:docname="cloud.svg"
   inkscape:version="0.92.4 (5da689c313, 2019-01-14)">
  <metadata
     id="metadata12">
    <rdf:RDF>
      <cc:Work
         rdf:about="">
        <dc:format>image/svg+xml</dc:format>
        <dc:type
           rdf:resource="http://purl.org/dc/dcmitype/StillImage" />
      </cc:Work>
    </rdf:RDF>
  </metadata>
  <defs
     id="defs10" />
  <sodipodi:namedview
     pagecolor="#ffffff"
     bordercolor="#666666"
     borderopacity="1"
     objecttolerance="10"
     gridtolerance="10"
     guidetolerance="10"
     inkscape:pageopacity="0"
     inkscape:pageshadow="2"
     inkscape:window-width="1366"
     inkscape:window-height="715"
     id="namedview8"
     showgrid="false"
     inkscape:zoom="14.75"
     inkscape:cx="15.166292"
     inkscape:cy="13.752533"
     inkscape:window-x="-8"
     inkscape:window-y="-8"
     inkscape:window-maximized="1"
     inkscape:current-layer="svg6" />
  <title
     id="title2">cloud</title>
  <g
     id="g2737"
     transform="matrix(0.85805085,0,0,0.88474576,2.7118644,1.5728814)"
     style="fill:#ffffff">
    <path
       id="path4"
       d="m 25,10 c -0.332,0 -0.66,0.023 -0.987,0.07 C 22.146,7.526 19.199,6 16,6 12.801,6 9.855,7.526 7.987,10.07 7.66,10.023 7.332,10 7,10 3.141,10 0,13.141 0,17 0,20.859 3.141,24 7,24 7.856,24 8.693,23.844 9.482,23.542 11.292,25.12 13.594,26 16,26 18.409,26 20.708,25.12 22.518,23.542 23.307,23.844 24.144,24 25,24 c 3.859,0 7,-3.141 7,-7 0,-3.859 -3.141,-7 -7,-7 z m 0,12 C 23.93,22 22.943,21.656 22.129,21.083 20.662,22.851 18.477,24 16,24 13.523,24 11.338,22.852 9.871,21.083 9.058,21.656 8.07,22 7,22 4.238,22 2,19.762 2,17 2,14.238 4.238,12 7,12 7.676,12 8.316,12.138 8.902,12.38 10.229,9.792 12.893,8 16,8 19.107,8 21.771,9.792 23.096,12.38 23.683,12.138 24.325,12 25,12 c 2.762,0 5,2.238 5,5 0,2.762 -2.238,5 -5,5 z"
       inkscape:connector-curvature="0"
       style="fill:#ffffff" />
    <path
       inkscape:connector-curvature="0"
       id="path913"
       d="M 14.061017,23.676927 C 12.850523,23.357567 11.66095,22.699896 10.746436,21.844412 L 9.8899349,21.043197 8.9864644,21.465982 C 6.9017028,22.441559 4.4287585,21.775637 3.0109135,19.856864 2.3363628,18.943993 2.0834577,17.993459 2.1575891,16.649676 c 0.072501,-1.314227 0.4782757,-2.221491 1.4105043,-3.153719 0.9403473,-0.940348 1.9034228,-1.32799 3.3064829,-1.330875 0.6338983,-0.0013 1.3661017,0.04281 1.6271186,0.09802 0.4692919,0.09928 0.4821421,0.08946 1.1540429,-0.881356 2.6777302,-3.8690095 8.1732082,-4.4262222 11.6428682,-1.180526 0.482458,0.451316 1.074903,1.128674 1.316547,1.505241 0.416884,0.649659 0.460749,0.678896 0.857861,0.571785 0.230181,-0.06209 0.967664,-0.109433 1.63885,-0.105216 0.949295,0.006 1.364617,0.07289 1.869934,0.301307 0.958654,0.433347 2.025592,1.508681 2.486111,2.505676 0.337863,0.73145 0.389718,1.006087 0.389718,2.064051 0,1.073924 -0.04749,1.317062 -0.395825,2.026512 -1.229368,2.50384 -4.184757,3.539446 -6.637185,2.325752 l -0.673883,-0.333501 -0.801466,0.725284 c -0.934652,0.845812 -2.304117,1.602671 -3.430936,1.896171 -0.987775,0.257283 -2.867817,0.253696 -3.857315,-0.0074 z"
       style="opacity:0.65399996;fill:#ffffff;fill-opacity:1;stroke:#00f5f2;stroke-width:0.76871747;stroke-miterlimit:4;stroke-dasharray:none;stroke-dashoffset:0;stroke-opacity:1" />
  </g>
  <path
     style="opacity:0.65399996;fill:#ffffff;fill-opacity:1;stroke:#ffffff;stroke-width:0.38435873;stroke-miterlimit:4;stroke-dasharray:none;stroke-dashoffset:0;stroke-opacity:1"
     d="M 15.314197,22.257159 C 14.743042,22.172996 13.836036,21.818257 13.21533,21.436272 12.893296,21.23809 12.360443,20.807177 11.957522,20.419095 l -0.699073,-0.673329 -0.61632,0.309535 c -0.7710633,0.387251 -1.2395659,0.510811 -1.9368542,0.510811 -1.0717265,0 -1.8694937,-0.342996 -2.6791076,-1.151868 -0.8322323,-0.83147 -1.0994111,-1.519642 -1.0926101,-2.814234 0.00665,-1.265706 0.3076651,-2.026057 1.1294192,-2.852858 0.8515379,-0.856768 1.6270459,-1.106072 3.1489273,-1.012292 1.2635894,0.07786 1.2695374,0.07743 1.4653384,-0.106036 0.0965,-0.09042 0.34608,-0.408475 0.554619,-0.70678 1.034892,-1.480366 2.36689,-2.3818321 4.011875,-2.7151488 0.819618,-0.1660759 2.061498,-0.1089359 2.871477,0.1321193 1.464683,0.4358996 2.70754,1.3662505 3.680942,2.7553985 0.534998,0.763499 0.55217,0.772017 1.353188,0.671192 0.365995,-0.04607 0.982846,-0.06688 1.39837,-0.04719 0.678913,0.03218 0.785771,0.05617 1.23019,0.276249 0.824507,0.408292 1.672347,1.363836 2.017176,2.273425 0.177546,0.46833 0.249306,1.613752 0.13866,2.213276 -0.125855,0.681923 -0.503205,1.354887 -1.086718,1.938039 -0.787562,0.787077 -1.625233,1.144335 -2.686824,1.145902 -0.677047,9.96e-4 -1.163284,-0.122614 -1.859764,-0.472798 -0.297716,-0.149688 -0.575427,-0.27216 -0.617138,-0.27216 -0.04171,0 -0.33906,0.246273 -0.660776,0.547274 -1.112752,1.041099 -2.334719,1.704473 -3.482947,1.890801 -0.492747,0.07996 -1.67873,0.07929 -2.225375,-0.0013 z"
     id="path2739"
     inkscape:connector-curvature="0" />
  <path
     style="opacity:0.65399996;fill:#ffffff;fill-opacity:1;stroke:#ffffff;stroke-width:0.38435873;stroke-miterlimit:4;stroke-dasharray:none;stroke-dashoffset:0;stroke-opacity:1"
     d="m 15.069025,22.227592 c -1.149209,-0.249931 -1.96667,-0.73356 -3.311539,-1.959184 l -0.512649,-0.467194 -0.659612,0.308778 C 9.7042857,20.522379 9.4312713,20.590566 8.6713765,20.587983 7.9365205,20.585485 7.3949553,20.433977 6.7730714,20.056913 6.015733,19.597719 5.2840492,18.675295 5.0327006,17.86285 4.8513334,17.276609 4.8671957,15.936797 5.0629984,15.303736 c 0.1897757,-0.613575 0.5804422,-1.198631 1.1470833,-1.717855 0.8405108,-0.770175 1.3806774,-0.921821 3.07438,-0.863099 0.9859563,0.03418 1.2194763,0.02415 1.3359173,-0.05741 0.07761,-0.05436 0.316874,-0.350626 0.531701,-0.65837 1.224445,-1.754047 2.739488,-2.6938183 4.671839,-2.897914 1.253641,-0.1324099 2.651843,0.1841258 3.776746,0.8550085 0.683768,0.4077935 1.716905,1.4046775 2.244849,2.1660765 0.460606,0.664283 0.594866,0.739386 1.132648,0.633584 0.22881,-0.04502 0.801479,-0.06688 1.367985,-0.05223 0.93421,0.02416 0.992499,0.03411 1.412537,0.241311 0.820886,0.404927 1.634617,1.295573 2.012372,2.202585 0.153199,0.367841 0.182257,0.551924 0.207805,1.316436 0.03261,0.975789 -0.03515,1.342726 -0.362125,1.961191 -0.42207,0.798325 -1.027703,1.388578 -1.826715,1.780327 -1.151671,0.564653 -2.299215,0.512983 -3.643645,-0.16406 l -0.472233,-0.237813 -0.382739,0.345868 c -1.304739,1.179047 -2.454071,1.861373 -3.481576,2.066918 -0.643102,0.128648 -2.156071,0.130471 -2.740803,0.0033 z"
     id="path2741"
     inkscape:connector-curvature="0" />
  <path
     style="opacity:0.65399996;fill:#ffffff;fill-opacity:1;stroke:#00ffff;stroke-width:0.38435873;stroke-miterlimit:4;stroke-dasharray:none;stroke-dashoffset:0;stroke-opacity:1"
     d="m 14.862667,22.333042 c -1.061247,-0.286149 -1.922046,-0.79797 -3.040609,-1.807911 l -0.612029,-0.552596 -0.384395,0.194372 c -0.778008,0.393407 -1.3353864,0.534798 -2.1082224,0.534798 -1.1189301,0 -1.8564172,-0.289882 -2.6819624,-1.054191 -0.7850356,-0.726805 -1.1625685,-1.489228 -1.2572645,-2.53903 -0.056142,-0.622394 0.042996,-1.545843 0.2200325,-2.049542 0.2855304,-0.812385 1.1688835,-1.797887 1.9372466,-2.161266 0.6332807,-0.299494 1.026591,-0.353436 2.2911161,-0.31422 0.9218271,0.02859 1.1575331,0.01684 1.2721101,-0.06342 0.07735,-0.05418 0.364583,-0.393941 0.638295,-0.75503 1.022686,-1.349156 2.010794,-2.0867089 3.432697,-2.5622663 0.547535,-0.183124 0.637123,-0.1927749 1.79661,-0.1935426 1.427407,-9.451e-4 1.726767,0.06078 2.789014,0.5750648 1.070868,0.5184591 1.921456,1.2580491 2.781113,2.4181921 0.198553,0.267956 0.399383,0.511876 0.446287,0.542044 0.0469,0.03017 0.741213,0.055 1.542908,0.05518 l 1.457627,3.32e-4 0.417763,0.218303 c 1.080004,0.56436 2.029859,1.739159 2.25177,2.785034 0.104761,0.49374 0.09439,1.735972 -0.01802,2.158128 -0.22769,0.855116 -1.041883,1.913185 -1.844571,2.39708 -0.663028,0.399702 -1.178576,0.539398 -1.99803,0.5414 -0.799506,0.002 -1.154086,-0.07961 -1.976582,-0.45466 l -0.523598,-0.238757 -0.459452,0.406237 c -1.059988,0.937215 -1.943954,1.492496 -2.900131,1.821774 -0.499772,0.172106 -0.638222,0.188463 -1.762711,0.208248 -1.039701,0.01829 -1.292379,0.002 -1.707015,-0.109754 z"
     id="path2743"
     inkscape:connector-curvature="0" />
  <path
     style="opacity:0.65399996;fill:#ffffff;fill-opacity:1;stroke:#00ffff;stroke-width:0.38435873;stroke-miterlimit:4;stroke-dasharray:none;stroke-dashoffset:0;stroke-opacity:1"
     d="M 15.112054,22.603438 C 14.036709,22.398675 12.94433,21.788094 11.740568,20.71896 L 11.18264,20.223432 10.859211,20.385349 C 10.076322,20.777288 9.6486853,20.871468 8.6713765,20.867185 7.8666556,20.863658 7.702779,20.842857 7.3144222,20.69494 5.948023,20.174509 4.8826051,18.912019 4.6294965,17.513377 4.4640623,16.599213 4.607236,15.325101 4.9511487,14.650977 5.3406094,13.887571 6.1888464,13.028344 6.8741655,12.703046 7.4471907,12.43105 7.9175479,12.363042 9.24315,12.36052 l 1.15704,-0.0022 0.542373,-0.681963 c 0.697559,-0.877089 1.428415,-1.574217 2.068107,-1.9726626 0.713346,-0.4443235 1.649521,-0.7912522 2.363174,-0.8757471 0.621073,-0.073534 2.049694,-0.025956 2.619566,0.087241 0.471768,0.093709 1.877053,0.7906046 2.408118,1.1942107 0.503731,0.382832 1.230359,1.139927 1.727476,1.799908 l 0.338983,0.45004 1.442611,0.0017 1.442611,0.0017 0.388348,0.196037 c 1.273868,0.643047 2.292506,1.896922 2.526914,3.11046 0.130573,0.675988 0.05451,1.993833 -0.141768,2.456215 -0.510525,1.202666 -1.51722,2.195366 -2.620046,2.583618 -0.505868,0.178092 -1.620653,0.245906 -2.192617,0.133379 -0.228568,-0.04497 -0.664051,-0.186553 -0.96774,-0.314633 -0.30369,-0.12808 -0.578909,-0.232873 -0.611599,-0.232873 -0.03269,0 -0.247175,0.164195 -0.476634,0.364877 -0.961642,0.84104 -2.028495,1.49036 -2.962893,1.803312 -0.367026,0.122924 -0.633599,0.150656 -1.657696,0.172448 -0.671186,0.01428 -1.357627,-2.03e-4 -1.525424,-0.03212 z M 18.04261,22.33358 c 0.93075,-0.238046 1.960495,-0.83929 3.040135,-1.775062 0.429076,-0.371899 0.64382,-0.51585 0.723771,-0.48517 0.06252,0.02399 0.287138,0.127648 0.499143,0.230344 0.664587,0.321931 1.121779,0.427763 1.857243,0.429921 0.539286,0.0016 0.781279,-0.03184 1.183032,-0.163408 1.19215,-0.390403 2.237371,-1.422273 2.64716,-2.613345 0.194332,-0.564835 0.194466,-2.000441 2.72e-4,-2.629254 -0.283278,-0.917148 -1.211141,-2.010215 -2.115613,-2.492294 -0.359864,-0.191805 -0.514722,-0.23135 -1.035101,-0.264324 -0.336586,-0.02133 -0.978055,-0.01732 -1.425513,0.0089 -0.447457,0.02623 -0.864937,0.03244 -0.927731,0.0138 -0.0628,-0.01863 -0.312025,-0.299413 -0.553846,-0.623952 C 21.366309,11.20577 20.503518,10.36882 19.838059,9.9350613 17.984017,8.7265642 15.604391,8.5914923 13.611096,9.5816076 12.649545,10.059232 11.892399,10.736632 10.995132,11.922044 l -0.461852,0.610169 -1.4902738,0.03868 c -1.8802994,0.0488 -2.0942417,0.115999 -2.9603367,0.929822 -0.8982777,0.844063 -1.2523494,1.601439 -1.322136,2.828109 -0.077121,1.355583 0.2179112,2.219302 1.0613889,3.107265 0.7975088,0.839569 1.5519683,1.223948 2.5596484,1.30408 0.8427186,0.06701 1.2414582,-0.02599 2.5063052,-0.584598 l 0.352094,-0.155498 0.485748,0.45823 c 1.043246,0.984145 2.068693,1.608721 3.074035,1.872322 0.702747,0.184261 2.527457,0.185924 3.242857,0.003 z"
     id="path2745"
     inkscape:connector-curvature="0" />
  <path
     style="opacity:0.65399996;fill:#ffffff;fill-opacity:1;stroke:#00ffff;stroke-width:0.38435873;stroke-miterlimit:4;stroke-dasharray:none;stroke-dashoffset:0;stroke-opacity:1"
     d="m 14.647657,22.674424 c -0.909432,-0.267768 -1.952369,-0.898811 -3.053862,-1.847782 l -0.433513,-0.373486 -0.510171,0.221781 C 9.9783033,20.966983 9.3778788,21.061065 8.4120163,21.025628 7.4774843,20.991342 7.1041392,20.870194 6.3230574,20.347774 5.1030608,19.531791 4.40019,18.181634 4.40019,16.654103 c 0,-1.217703 0.298614,-2.127178 0.9480002,-2.887279 0.6899245,-0.80755 1.3363353,-1.251748 2.0869387,-1.434094 0.3699561,-0.08987 1.4999768,-0.168883 2.4596044,-0.171971 l 0.4436957,-0.0014 0.268169,-0.354283 c 0.482412,-0.637325 1.670955,-1.8140656 2.168119,-2.1465892 0.575742,-0.38508 1.329145,-0.7106749 2.089177,-0.9028707 0.484715,-0.1225743 0.693489,-0.1350334 1.771693,-0.1057304 1.022712,0.027795 1.292783,0.057456 1.654431,0.1816992 0.550433,0.1891007 1.560442,0.6953864 2.042375,1.0237788 0.419284,0.2857023 1.613179,1.4911473 1.962971,1.9819613 l 0.229507,0.322034 h 1.414489 c 1.390786,0 1.420417,0.003 1.768168,0.177592 1.272629,0.639025 2.307494,1.821264 2.663447,3.042747 0.157505,0.540491 0.157574,1.862003 1.36e-4,2.476569 -0.369982,1.444179 -1.85071,2.862043 -3.261253,3.122796 -0.222183,0.04107 -0.770207,0.06238 -1.217832,0.04734 -0.742914,-0.02495 -0.871944,-0.04958 -1.480111,-0.282493 l -0.666247,-0.255157 -0.491892,0.406879 c -0.966452,0.799421 -1.928671,1.375168 -2.871943,1.718435 -0.338871,0.12332 -0.574343,0.14427 -1.846043,0.164242 -1.26917,0.01993 -1.513286,0.0065 -1.888126,-0.10386 z m 3.668036,-0.606946 c 0.830864,-0.294581 1.780547,-0.888132 2.744109,-1.715066 0.615149,-0.527925 0.600823,-0.525665 1.321621,-0.208416 1.449751,0.638089 2.786271,0.54302 3.933776,-0.279816 0.566161,-0.405974 1.059333,-0.986925 1.34645,-1.5861 0.378372,-0.789614 0.409465,-2.357649 0.06276,-3.165076 -0.343697,-0.800424 -1.201172,-1.725774 -1.987603,-2.144938 l -0.420667,-0.224213 -1.374936,0.0105 c -0.756215,0.0058 -1.447636,-0.01714 -1.536493,-0.05093 -0.08886,-0.03378 -0.388977,-0.345448 -0.666933,-0.692588 -1.695425,-2.1174193 -3.402938,-2.9887662 -5.642673,-2.8794654 -0.987451,0.048188 -1.525844,0.1921726 -2.440678,0.6527168 -0.816411,0.4109966 -1.470418,0.9572216 -2.151145,1.7966296 -0.271108,0.334303 -0.599702,0.722417 -0.730211,0.862475 l -0.237288,0.25465 -1.355932,0.04155 c -0.7974997,0.02444 -1.5202488,0.08146 -1.75491,0.138466 -0.4776108,0.116021 -0.8796155,0.39724 -1.484554,1.038506 -0.7403378,0.784797 -0.9978241,1.503087 -0.9978241,2.783553 0,1.203111 0.2719991,1.849612 1.1445741,2.720486 0.8437944,0.842149 1.5530746,1.145714 2.6769662,1.145714 0.5717516,0 0.9856447,-0.108748 1.8570868,-0.487939 l 0.627779,-0.273167 0.374068,0.329706 c 1.293861,1.140411 1.986775,1.59761 2.930941,1.933894 0.766898,0.273148 2.990004,0.27248 3.761715,-0.0011 z"
     id="path2747"
     inkscape:connector-curvature="0" />
  <path
     style="opacity:0.65399996;fill:#ffffff;fill-opacity:1;stroke:#00ffff;stroke-width:0.38435873;stroke-miterlimit:4;stroke-dasharray:none;stroke-dashoffset:0;stroke-opacity:1"
     d="m 15.243861,22.926415 c -1.062121,-0.09636 -2.357371,-0.761409 -3.589434,-1.842996 -0.279661,-0.245506 -0.53237,-0.44708 -0.561575,-0.447942 -0.02921,-8.61e-4 -0.198306,0.07201 -0.375778,0.161943 -0.634956,0.321757 -1.0633338,0.405998 -2.0456975,0.40229 C 7.8723044,21.19671 7.6943636,21.17456 7.2696036,21.025312 5.8815138,20.537591 4.7084888,19.237259 4.3646869,17.80513 4.220552,17.204727 4.255878,15.646787 4.4254943,15.123412 4.8625202,13.774904 6.0683674,12.554925 7.34042,12.174323 7.5925294,12.098891 8.0482409,12.06668 8.9954396,12.057341 l 1.3071144,-0.01289 0.286106,-0.403812 c 0.828016,-1.168669 1.718862,-1.9656334 2.794581,-2.5000777 1.245537,-0.6188141 2.167371,-0.7793877 3.736693,-0.6508914 1.188057,0.097278 2.008085,0.3908758 3.15255,1.1287186 0.527021,0.3397738 1.563247,1.3544795 2.024052,1.9820175 l 0.32429,0.441627 1.418548,0.0078 1.418547,0.0078 0.505032,0.250408 c 0.957239,0.474623 1.836544,1.390811 2.318807,2.416068 0.341511,0.726031 0.450009,1.558645 0.337729,2.591727 -0.06446,0.593044 -0.115569,0.767145 -0.392146,1.335682 -0.267314,0.549493 -0.411362,0.747081 -0.903274,1.238993 -1.027438,1.027437 -2.12884,1.434935 -3.567947,1.320073 -0.63838,-0.05095 -1.154049,-0.184643 -1.616924,-0.4192 -0.382481,-0.193818 -0.240695,-0.255213 -1.123726,0.486588 -0.903102,0.758662 -2.213628,1.45311 -3.00658,1.593187 -0.461869,0.08159 -2.111415,0.114553 -2.765031,0.05525 z m 2.591163,-0.392602 c 0.803382,-0.09822 2.124936,-0.817405 3.333329,-1.813992 l 0.530874,-0.437823 0.655566,0.238415 c 1.101516,0.400596 1.854127,0.473367 2.751524,0.266048 1.316199,-0.304071 2.607326,-1.504848 3.029358,-2.817368 0.221828,-0.689886 0.220771,-2.042392 -0.0021,-2.691117 -0.369045,-1.07419 -1.359747,-2.19249 -2.405226,-2.715009 L 25.327686,12.362722 H 23.890285 22.452884 L 22.064281,11.855366 C 21.850549,11.57632 21.363495,11.050049 20.98194,10.685874 20.237732,9.9755684 19.520792,9.5237184 18.467987,9.1014603 17.942484,8.8906922 17.887096,8.8829198 16.687258,8.8515746 15.542601,8.821671 15.30977,8.8391611 14.569682,9.0106457 c -0.04268,0.00989 -0.188434,0.068751 -0.765245,0.3090384 -0.490484,0.2043263 -1.098436,0.5802041 -1.301686,0.8047919 -0.06797,0.0751 -0.153741,0.136551 -0.190608,0.136551 -0.0924,0 -1.161267,1.153484 -1.742461,1.880405 L 10.40019,12.35342 9.1120544,12.38558 c -1.9135299,0.04778 -2.3710407,0.216274 -3.349283,1.233513 -0.9020506,0.93801 -1.203621,1.786314 -1.1401744,3.20726 0.042224,0.945636 0.038429,0.927632 0.3487374,1.654686 0.059604,0.139653 0.1017904,0.261686 0.093748,0.271187 -0.00804,0.0095 0.035498,0.07829 0.096758,0.152866 0.06126,0.07458 0.2319992,0.290704 0.3794213,0.480284 0.3076017,0.395566 0.9347484,0.88837 1.4535996,1.142221 1.0088652,0.493592 2.4613759,0.460953 3.7369167,-0.08397 l 0.467179,-0.199584 0.621534,0.522573 c 0.993444,0.835266 1.988608,1.443661 2.78309,1.701445 0.587958,0.190774 1.977518,0.219047 3.231444,0.06575 z"
     id="path2749"
     inkscape:connector-curvature="0" />
</svg>
