<?xml version="1.0" encoding="UTF-8" standalone="no"?>
<!-- Generated by IcoMoon.io -->

<svg
   xmlns:dc="http://purl.org/dc/elements/1.1/"
   xmlns:cc="http://creativecommons.org/ns#"
   xmlns:rdf="http://www.w3.org/1999/02/22-rdf-syntax-ns#"
   xmlns:svg="http://www.w3.org/2000/svg"
   xmlns="http://www.w3.org/2000/svg"
   xmlns:sodipodi="http://sodipodi.sourceforge.net/DTD/sodipodi-0.dtd"
   xmlns:inkscape="http://www.inkscape.org/namespaces/inkscape"
   version="1.1"
   width="32"
   height="32"
   viewBox="0 0 32 32"
   id="svg6"
   sodipodi:docname="cloudy.svg"
   inkscape:version="0.92.4 (5da689c313, 2019-01-14)">
  <metadata
     id="metadata12">
    <rdf:RDF>
      <cc:Work
         rdf:about="">
        <dc:format>image/svg+xml</dc:format>
        <dc:type
           rdf:resource="http://purl.org/dc/dcmitype/StillImage" />
      </cc:Work>
    </rdf:RDF>
  </metadata>
  <defs
     id="defs10" />
  <sodipodi:namedview
     pagecolor="#ffffff"
     bordercolor="#666666"
     borderopacity="1"
     objecttolerance="10"
     gridtolerance="10"
     guidetolerance="10"
     inkscape:pageopacity="0"
     inkscape:pageshadow="2"
     inkscape:window-width="1366"
     inkscape:window-height="715"
     id="namedview8"
     showgrid="false"
     inkscape:zoom="14.75"
     inkscape:cx="10.54679"
     inkscape:cy="14.912089"
     inkscape:window-x="-8"
     inkscape:window-y="-8"
     inkscape:window-maximized="1"
     inkscape:current-layer="svg6" />
  <title
     id="title2">cloudy</title>
  <g
     id="g1860"
     transform="matrix(0.875,0,0,0.86863996,2.5084746,1.4237288)">
    <path
       id="path4"
       d="m 13,4 c 0.552,0 1,-0.448 1,-1 V 1 C 14,0.448 13.552,0 13,0 12.448,0 12,0.448 12,1 v 2 c 0,0.552 0.448,1 1,1 z m 7.777,2.635 1.414,-1.414 c 0.391,-0.391 0.391,-1.023 0,-1.414 -0.391,-0.391 -1.023,-0.391 -1.414,0 l -1.414,1.414 c -0.391,0.391 -0.391,1.023 0,1.414 0.391,0.391 1.023,0.391 1.414,0 z M 1,14 H 3 C 3.552,14 4,13.552 4,13 4,12.448 3.552,12 3,12 H 1 c -0.552,0 -1,0.448 -1,1 0,0.552 0.448,1 1,1 z m 21,-1 c 0,0.552 0.448,1 1,1 h 2 c 0.552,0 1,-0.448 1,-1 0,-0.552 -0.448,-1 -1,-1 h -2 c -0.552,0 -1,0.448 -1,1 z M 5.221,6.635 c 0.391,0.391 1.024,0.391 1.414,0 0.39,-0.391 0.391,-1.023 0,-1.414 L 5.221,3.807 C 4.83,3.416 4.198,3.416 3.807,3.807 3.416,4.198 3.416,4.83 3.807,5.221 Z M 25,16 c -0.332,0 -0.66,0.023 -0.987,0.07 C 22.965,14.64 21.568,13.549 19.984,12.851 19.903,9.062 16.808,5.999 13,5.999 c -3.859,0 -7,3.141 -7,7 0,1.09 0.271,2.109 0.719,3.027 C 2.992,16.178 0,19.237 0,22.999 c 0,3.859 3.141,7 7,7 0.856,0 1.693,-0.156 2.482,-0.458 1.81,1.578 4.112,2.458 6.518,2.458 2.409,0 4.708,-0.88 6.518,-2.458 0.789,0.302 1.626,0.458 2.482,0.458 3.859,0 7,-3.141 7,-7 0,-3.859 -3.141,-7 -7,-7 z M 13,8 c 2.488,0 4.535,1.823 4.919,4.203 C 17.293,12.078 16.653,12 16,12 13.129,12 10.469,13.238 8.602,15.328 8.231,14.63 8,13.846 8,13 8,10.238 10.238,8 13,8 Z M 25,28 C 23.93,28 22.943,27.656 22.129,27.083 20.662,28.851 18.477,30 16,30 13.523,30 11.338,28.852 9.871,27.083 9.058,27.656 8.07,28 7,28 4.238,28 2,25.762 2,23 c 0,-2.762 2.238,-5 5,-5 0.484,0 0.941,0.091 1.383,0.221 0.176,0.049 0.354,0.089 0.52,0.158 C 9.176,17.844 9.52,17.354 9.902,16.895 11.363,15.137 13.536,14 16.001,14 c 0.633,0 1.24,0.091 1.828,0.232 0.66,0.156 1.284,0.393 1.865,0.706 1.456,0.773 2.651,1.971 3.404,3.441 C 23.685,18.137 24.327,18 25.002,18 c 2.762,0 5,2.238 5,5 0,2.762 -2.238,5 -5,5 z"
       inkscape:connector-curvature="0" />
    <path
       inkscape:connector-curvature="0"
       id="path822"
       d="M 14.938694,29.854327 C 13.285655,29.600693 11.871006,28.912561 10.632252,27.759531 L 9.8702313,27.050245 9.0503699,27.432766 C 6.4894037,28.627628 3.6598443,27.52008 2.4281197,24.840678 2.2130957,24.372931 2.1459264,23.945664 2.1403511,23.010169 c -0.00622,-1.04441 0.044424,-1.331274 0.351328,-1.98985 1.0267457,-2.203264 3.5856084,-3.439249 5.7356858,-2.770458 0.5991392,0.186365 0.6876028,0.18707 0.7887757,0.0063 0.8549193,-1.527656 2.6729374,-3.086797 4.2957054,-3.684017 0.915143,-0.336796 1.195129,-0.375209 2.715273,-0.372518 1.412762,0.0025 1.828817,0.05302 2.499276,0.303503 1.66063,0.620401 3.145712,1.789481 4.101171,3.228506 l 0.460652,0.693793 0.702391,-0.182198 c 1.397253,-0.362443 2.754613,-0.117704 3.991851,0.719752 3.122607,2.113617 2.726382,6.848649 -0.708947,8.472175 -1.45708,0.688612 -3.145551,0.629696 -4.499418,-0.157002 l -0.436075,-0.253391 -0.751966,0.722518 c -1.658691,1.593737 -4.257518,2.443059 -6.44736,2.107061 z"
       style="opacity:0.65399996;fill:#00ffff;fill-opacity:1;stroke:#00ffff;stroke-width:0.76871747;stroke-miterlimit:4;stroke-dasharray:none;stroke-dashoffset:0;stroke-opacity:1" />
    <path
       inkscape:connector-curvature="0"
       id="path824"
       d="M 8.3446093,14.572611 C 7.9439585,13.534156 8.0178599,12.077647 8.526043,10.996764 c 1.0284706,-2.18751 3.376233,-3.3455611 5.621965,-2.7730759 1.75392,0.4471118 3.153645,1.8080339 3.570948,3.4719559 l 0.08313,0.331475 -1.870535,0.0042 c -1.741001,0.0039 -1.952803,0.03335 -3.058497,0.425049 -1.461171,0.517622 -2.480268,1.114229 -3.4990439,2.048435 l -0.7797087,0.714984 z"
       style="opacity:0.65399996;fill:#ffff00;fill-opacity:1;stroke:#ffff00;stroke-width:0.76871747;stroke-miterlimit:4;stroke-dasharray:none;stroke-dashoffset:0;stroke-opacity:1" />
  </g>
  <path
     style="opacity:0.65399996;fill:#ffffff;fill-opacity:1;stroke:#ffffff;stroke-width:0.38435873;stroke-miterlimit:4;stroke-dasharray:none;stroke-dashoffset:0;stroke-opacity:1"
     d="m 15.663331,27.402208 c -1.489856,-0.193797 -2.950513,-0.908758 -4.028482,-1.97186 l -0.47839,-0.471791 -0.557058,0.275954 C 9.8582699,25.601649 9.2157864,25.734443 8.3877648,25.691629 6.2916777,25.58325 4.5875576,24.006046 4.3296773,21.93577 c -0.2677231,-2.149293 1.1103286,-4.160749 3.220232,-4.700372 0.6786113,-0.173559 1.3821566,-0.170053 2.1521767,0.01073 0.586487,0.137691 0.619528,0.138868 0.686358,0.02445 0.499151,-0.854563 1.247227,-1.707537 1.997557,-2.277665 0.576872,-0.438327 1.656777,-0.969165 2.34384,-1.152136 0.775786,-0.206599 2.251465,-0.254418 3.02359,-0.09798 1.132651,0.229484 2.112551,0.67317 3.026457,1.370341 0.62365,0.47575 1.095804,0.991182 1.563216,1.706498 0.309286,0.473324 0.393122,0.559703 0.51376,0.529338 0.07929,-0.01996 0.327214,-0.08333 0.550943,-0.140836 0.223729,-0.0575 0.666102,-0.104576 0.983051,-0.104607 1.211648,-1.22e-4 2.15613,0.390698 3.022484,1.250674 0.600122,0.595705 0.882989,1.039563 1.124319,1.764214 0.13104,0.393479 0.157728,0.6136 0.156179,1.288136 -0.0016,0.708352 -0.02574,0.881754 -0.186491,1.34091 -0.247628,0.707316 -0.645911,1.318848 -1.174261,1.802985 -1.370006,1.255361 -3.335215,1.51029 -4.979954,0.646003 l -0.471558,-0.247796 -0.530257,0.506605 c -1.183795,1.13099 -2.488493,1.754601 -4.077327,1.948852 -0.643932,0.07873 -0.993955,0.07831 -1.610661,-0.0019 z"
     id="path1862"
     inkscape:connector-curvature="0" />
  <path
     style="opacity:0.65399996;fill:#ffffff;fill-opacity:1;stroke:#ffffff;stroke-width:0.38435873;stroke-miterlimit:4;stroke-dasharray:none;stroke-dashoffset:0;stroke-opacity:1"
     d="m 15.549146,27.4041 c -1.486067,-0.234431 -2.760545,-0.866356 -3.889802,-1.92868 l -0.528745,-0.497404 -0.539362,0.264558 C 10.294588,25.388081 9.8700411,25.553146 9.6478001,25.609386 9.1293048,25.740595 8.1266354,25.740538 7.6084915,25.60925 6.3712764,25.295833 5.2571421,24.410571 4.7443878,23.333528 4.389641,22.58838 4.2912064,22.157361 4.2965703,21.372656 c 0.00837,-1.225081 0.3924782,-2.131727 1.2790585,-3.019112 0.6074166,-0.607968 1.2318164,-0.965612 2.0016695,-1.146517 0.6309959,-0.148275 1.4891536,-0.133917 2.161751,0.03617 0.3082467,0.07795 0.5686087,0.131339 0.5785817,0.118644 0.01,-0.01269 0.09388,-0.152637 0.186466,-0.310984 0.898923,-1.537457 2.546992,-2.779256 4.29354,-3.235126 2.841351,-0.741626 6.005381,0.531411 7.607795,3.060971 0.26436,0.417316 0.343207,0.497329 0.457502,0.464267 0.794814,-0.229921 0.980062,-0.253819 1.729565,-0.223125 0.612996,0.0251 0.879916,0.06876 1.238464,0.202581 1.318371,0.492041 2.306771,1.510801 2.714612,2.797996 0.213841,0.674908 0.214247,1.898934 8.54e-4,2.576271 -0.404807,1.284907 -1.485094,2.372384 -2.799638,2.818273 -0.611366,0.207373 -1.645281,0.253497 -2.319585,0.103478 -0.277568,-0.06175 -0.743606,-0.232313 -1.03564,-0.379023 l -0.530971,-0.266744 -0.620983,0.590822 c -1.262461,1.201141 -2.739024,1.820938 -4.475872,1.878776 -0.447458,0.0149 -0.994025,-0.0014 -1.214594,-0.03617 z"
     id="path1864"
     inkscape:connector-curvature="0" />
  <path
     style="opacity:0.65399996;fill:#ffffff;fill-opacity:1;stroke:#ffffff;stroke-width:0.38435873;stroke-miterlimit:4;stroke-dasharray:none;stroke-dashoffset:0;stroke-opacity:1"
     d="M 15.780688,27.469122 C 15.038755,27.39568 14.134799,27.132028 13.43354,26.78454 12.773263,26.45736 11.836861,25.770277 11.430009,25.314454 l -0.2921,-0.327259 -0.305729,0.187787 c -0.168151,0.103282 -0.549797,0.272442 -0.848102,0.37591 C 9.5066586,25.716488 9.3442748,25.738835 8.6281458,25.737497 7.9280664,25.736189 7.7369047,25.710333 7.2576707,25.552128 6.1763252,25.195152 5.2580081,24.413835 4.7324388,23.403624 4.3915278,22.74835 4.2572687,22.184079 4.2572687,21.406555 c 0,-1.001219 0.267109,-1.822307 0.8520313,-2.619131 0.5788001,-0.788483 1.6158196,-1.44842 2.6083579,-1.659901 0.6266592,-0.133523 1.5478039,-0.09154 2.149443,0.09796 l 0.4253961,0.133991 0.108573,-0.213749 c 0.348854,-0.686794 1.454343,-1.87609 2.227076,-2.395911 3.008628,-2.023919 7.106446,-1.368586 9.381641,1.500336 0.209589,0.264282 0.454759,0.620192 0.544823,0.79091 l 0.163753,0.310398 0.412518,-0.138663 c 0.328256,-0.110339 0.585625,-0.138631 1.259977,-0.138507 0.748072,1.35e-4 0.910191,0.02193 1.382383,0.18587 0.621838,0.215888 0.956727,0.402836 1.442574,0.8053 0.655783,0.543236 1.158348,1.316381 1.422618,2.188552 0.167618,0.55319 0.166276,1.739842 -0.0026,2.305085 -0.426302,1.426814 -1.624296,2.633269 -3.02463,3.045987 -0.995284,0.293339 -2.195088,0.178042 -3.17526,-0.305135 l -0.565092,-0.278561 -0.519654,0.502775 c -1.51086,1.46179 -3.485735,2.151323 -5.570499,1.944959 z"
     id="path1866"
     inkscape:connector-curvature="0" />
  <path
     style="opacity:0.65399996;fill:#ffffff;fill-opacity:1;stroke:#ffffff;stroke-width:0.38435873;stroke-miterlimit:4;stroke-dasharray:none;stroke-dashoffset:0;stroke-opacity:1"
     d="M 15.177611,27.50947 C 13.750159,27.18545 12.667276,26.618698 11.61966,25.647334 l -0.509746,-0.472642 -0.562918,0.259714 c -0.741002,0.341876 -1.0637202,0.412827 -1.8777383,0.412827 -0.890126,0 -1.2646636,-0.08359 -2.0411119,-0.455562 C 6.0929821,25.135293 5.891095,24.990098 5.4341689,24.532974 4.4987394,23.597138 4.0670034,22.471501 4.1440253,21.169267 c 0.07205,-1.218165 0.4420185,-2.029748 1.3296537,-2.916798 0.6302816,-0.629866 1.2431812,-0.99294 1.9992193,-1.184311 0.5368554,-0.135891 1.6762695,-0.13189 2.2915282,0.008 0.3249555,0.07391 0.4929495,0.08673 0.5089165,0.03882 0.072,-0.216008 0.788905,-1.132869 1.232524,-1.5763 0.957306,-0.956901 2.238595,-1.668857 3.475098,-1.930962 2.289373,-0.485283 4.779947,0.224918 6.466018,1.843822 0.350932,0.336951 1.119147,1.294364 1.304875,1.626241 0.05004,0.08941 0.104231,0.08879 0.467753,-0.0054 0.541344,-0.140277 1.820706,-0.141865 2.354142,-0.0029 1.473363,0.383762 2.845571,1.775504 3.189714,3.235121 0.118888,0.504241 0.132387,1.59554 0.02596,2.0986 -0.297171,1.404657 -1.417317,2.654484 -2.881999,3.215651 -0.384439,0.147291 -0.613629,0.184244 -1.313179,0.211724 -0.969099,0.03807 -1.387779,-0.04074 -2.193068,-0.412805 l -0.491836,-0.227241 -0.471107,0.43165 c -0.97468,0.893048 -1.991526,1.463254 -3.148296,1.765434 -0.820969,0.21446 -2.427272,0.277342 -3.11233,0.121839 z"
     id="path1868"
     inkscape:connector-curvature="0" />
  <path
     style="opacity:0.65399996;fill:#ffffff;fill-opacity:1;stroke:#ffffff;stroke-width:0.38435873;stroke-miterlimit:4;stroke-dasharray:none;stroke-dashoffset:0;stroke-opacity:1"
     d="m 15.639351,27.611972 c -1.445937,-0.182841 -2.937026,-0.908564 -4.123285,-2.006831 l -0.416427,-0.385538 -0.550666,0.251716 C 9.7819679,25.821927 9.1861101,25.937711 8.3908577,25.890675 7.4044042,25.83233 6.7616284,25.599584 5.900057,24.988766 5.1284097,24.4417 4.4604107,23.438994 4.2136726,22.457402 c -0.164551,-0.654629 -0.1017874,-1.90799 0.126435,-2.524851 0.5026916,-1.358721 1.6144069,-2.424353 2.9660043,-2.843056 0.4140063,-0.128252 0.6533259,-0.156563 1.2881356,-0.152383 0.4534032,0.003 0.955675,0.04854 1.2002832,0.10885 l 0.4206223,0.103717 0.289292,-0.447327 c 0.357976,-0.55353 1.165719,-1.408597 1.750819,-1.853395 0.569811,-0.433175 1.784398,-1.031519 2.474577,-1.219056 0.458162,-0.124493 0.726581,-0.147691 1.728813,-0.149412 1.018704,-0.0017 1.26482,0.01926 1.740833,0.14864 1.741172,0.473228 3.172689,1.461452 4.184283,2.888548 l 0.451644,0.637152 0.320095,-0.105975 c 0.476888,-0.157886 1.954732,-0.15222 2.489586,0.0095 1.446079,0.437362 2.71002,1.700515 3.119243,3.117299 0.135534,0.469234 0.155985,1.792258 0.03579,2.315602 -0.190942,0.831412 -0.835727,1.810518 -1.597358,2.425587 -0.7613,0.614803 -1.524621,0.902911 -2.574628,0.971768 -0.747947,0.04905 -1.359841,-0.06849 -2.171583,-0.41714 l -0.57387,-0.246439 -0.537589,0.497541 c -0.971988,0.899579 -2.170025,1.526457 -3.39492,1.776407 -0.648962,0.132426 -1.736581,0.185607 -2.310829,0.112993 z"
     id="path1870"
     inkscape:connector-curvature="0" />
  <path
     style="opacity:0.65399996;fill:#ffffff;fill-opacity:1;stroke:#ffffff;stroke-width:0.38435873;stroke-miterlimit:4;stroke-dasharray:none;stroke-dashoffset:0;stroke-opacity:1"
     d="m 15.260969,27.577353 c -1.351573,-0.245238 -2.659923,-0.9197 -3.785366,-1.951379 L 11.068824,25.253085 10.693553,25.44209 C 9.926932,25.828199 9.4285084,25.931424 8.4749815,25.901564 7.470236,25.8701 6.9104109,25.708079 6.1942726,25.241496 5.044513,24.492399 4.2960534,23.341484 4.1191919,22.050622 c -0.3163115,-2.308668 1.1109219,-4.453485 3.36136,-5.051382 0.5240212,-0.139223 1.6363847,-0.140133 2.2327472,-0.0018 0.2531094,0.0587 0.4689269,0.098 0.4795939,0.08733 0.01067,-0.01067 0.14082,-0.198302 0.289228,-0.416967 1.241394,-1.829074 3.255748,-3.061401 5.259809,-3.21781 1.962541,-0.153168 3.654007,0.323896 5.142486,1.450395 0.713316,0.539845 1.56133,1.506238 1.918059,2.185809 0.0054,0.01023 0.188313,-0.02791 0.406538,-0.08475 0.469994,-0.122417 1.784843,-0.138885 2.253518,-0.02822 0.174986,0.04132 0.605929,0.212503 0.957649,0.380412 0.532822,0.254367 0.732297,0.398096 1.195859,0.861657 0.461991,0.461991 0.608427,0.664843 0.863273,1.195859 0.168798,0.351721 0.339984,0.801164 0.380412,0.998762 0.106865,0.522311 0.09074,1.613275 -0.0308,2.084114 -0.328252,1.271594 -1.249005,2.397895 -2.438064,2.982334 -0.659036,0.323925 -1.176367,0.441733 -1.948423,0.443701 -0.765654,0.002 -1.364242,-0.127043 -2.05435,-0.442709 l -0.477349,-0.218346 -0.465756,0.432665 c -1.394863,1.295763 -3.147802,1.995081 -4.963077,1.979971 -0.404312,-0.0034 -0.953733,-0.04579 -1.220934,-0.09427 z"
     id="path1872"
     inkscape:connector-curvature="0" />
  <path
     style="opacity:0.65399996;fill:#ffffff;fill-opacity:1;stroke:#ffffff;stroke-width:0.38435873;stroke-miterlimit:4;stroke-dasharray:none;stroke-dashoffset:0;stroke-opacity:1"
     d="m 15.407807,27.703963 c -0.07458,-0.01894 -0.379661,-0.0957 -0.677966,-0.170575 -1.116474,-0.280235 -2.242183,-0.902979 -3.170023,-1.753659 l -0.458157,-0.420057 -0.597412,0.241873 C 9.6599983,25.943357 9.3102025,26.003223 8.3635494,25.967916 7.6459536,25.941152 7.4755804,25.910647 7.0010272,25.723956 5.7742247,25.241328 4.7885462,24.275584 4.2680466,23.04625 4.1070205,22.665933 4.0881359,22.527301 4.0651904,21.557086 c -0.022065,-0.933001 -0.00747,-1.128073 0.1141098,-1.525424 0.4110196,-1.343277 1.6340549,-2.549188 3.0709688,-3.027971 0.4411655,-0.146997 0.6428464,-0.173408 1.3242083,-0.173408 0.4882892,0 0.9492857,0.03871 1.1744869,0.09863 0.3590938,0.09554 0.3738928,0.09402 0.4724018,-0.04846 0.880945,-1.274206 2.187886,-2.409989 3.411685,-2.964885 0.962569,-0.43645 1.361769,-0.505568 2.8934,-0.500967 1.311639,0.0039 1.424159,0.01456 2,0.188704 1.159316,0.350605 2.445398,1.150443 3.273868,2.03608 0.304285,0.325282 0.96183,1.1749 1.064033,1.374846 0.0041,0.0079 0.173765,-0.02983 0.377116,-0.08394 0.498986,-0.132791 1.815967,-0.130866 2.331481,0.0034 1.217249,0.317053 2.4277,1.305178 2.980109,2.432747 0.329815,0.673213 0.447969,1.197614 0.447969,1.988207 0,1.344716 -0.405078,2.324564 -1.354008,3.275225 -0.46337,0.464215 -0.692638,0.635096 -1.154466,0.860463 -0.785729,0.383425 -1.261432,0.49249 -2.148085,0.49249 -0.820679,0 -1.273861,-0.09364 -1.960971,-0.405191 l -0.449973,-0.204027 -0.550994,0.480259 c -0.968916,0.84453 -1.949128,1.361487 -3.226872,1.701832 -0.377599,0.100578 -0.784232,0.142077 -1.561411,0.15935 -0.577966,0.01284 -1.111864,0.0079 -1.18644,-0.01109 z"
     id="path1874"
     inkscape:connector-curvature="0" />
  <path
     style="opacity:0.65399996;fill:#ffffff;fill-opacity:1;stroke:#ffffff;stroke-width:0.38435873;stroke-miterlimit:4;stroke-dasharray:none;stroke-dashoffset:0;stroke-opacity:1"
     d="M 15.232123,27.707978 C 13.919673,27.470339 12.587759,26.786609 11.475999,25.779795 11.070351,25.412437 11.032567,25.405802 10.600157,25.625983 9.8259547,26.020203 8.5945829,26.157618 7.6450949,25.955752 6.5922903,25.731921 5.5155471,25.045774 4.8843454,24.196483 4.5210583,23.707675 4.1718871,22.981298 4.0506768,22.462212 3.9346066,21.965138 3.9511055,20.824095 4.082559,20.257279 c 0.3698333,-1.59469 1.8711618,-3.053327 3.5011166,-3.401559 0.547159,-0.116898 1.8497467,-0.09348 2.2987075,0.04134 0.2122519,0.06373 0.2480179,0.05528 0.3389829,-0.08012 0.549976,-0.818639 1.390398,-1.709183 2.071976,-2.195547 0.519823,-0.370938 1.813049,-0.995134 2.4026,-1.159653 0.361468,-0.10087 0.684404,-0.122175 1.796611,-0.118526 1.276324,0.0042 1.391359,0.01529 1.959348,0.189098 1.6747,0.512471 2.968365,1.423159 4.017841,2.828397 l 0.434108,0.581266 0.421469,-0.08833 c 0.505133,-0.10586 1.408368,-0.115731 2.014691,-0.02202 0.280166,0.0433 0.675273,0.183004 1.084746,0.383542 0.545901,0.267353 0.737396,0.40931 1.25639,0.931376 0.654486,0.658358 0.997853,1.210422 1.226449,1.971878 0.174643,0.58174 0.173732,2.087509 -0.0016,2.61017 -0.486195,1.449499 -1.700562,2.673464 -3.113515,3.138124 -0.335116,0.110205 -0.607869,0.138821 -1.367743,0.143499 -1.005878,0.0062 -1.187687,-0.02874 -2.05656,-0.395177 l -0.429442,-0.18111 -0.418016,0.363899 c -0.98962,0.861503 -1.69971,1.282692 -2.756999,1.63531 -1.088726,0.363103 -2.456352,0.469537 -3.531617,0.274844 z"
     id="path1876"
     inkscape:connector-curvature="0" />
  <path
     style="opacity:0.65399996;fill:#ffffff;fill-opacity:1;stroke:#ffffff;stroke-width:0.38435873;stroke-miterlimit:4;stroke-dasharray:none;stroke-dashoffset:0;stroke-opacity:1"
     d="M 15.066721,27.714014 C 13.744051,27.41 12.464755,26.733631 11.438671,25.795848 l -0.372514,-0.340457 -0.434331,0.197157 c -0.7729831,0.350885 -1.1522213,0.416081 -2.20707,0.37943 -0.7300509,-0.02537 -1.0404807,-0.06576 -1.3447879,-0.175004 -1.8646919,-0.669387 -3.157836,-2.465924 -3.1625095,-4.393608 -0.00509,-2.100301 1.31975,-3.922436 3.3021199,-4.541606 0.523299,-0.163446 0.6190489,-0.171943 1.559322,-0.138379 0.5509832,0.01967 1.0781834,0.05564 1.1715559,0.07995 0.1498266,0.039 0.2045806,-0.0052 0.4661366,-0.376064 0.643987,-0.913173 1.569079,-1.761908 2.482739,-2.277814 1.408002,-0.79504 2.733941,-1.071485 4.359555,-0.908925 2.105707,0.210568 4.063164,1.36561 5.330333,3.145281 0.27871,0.391432 0.351716,0.455456 0.472425,0.414298 0.263052,-0.08969 2.139354,-0.114482 2.471539,-0.03265 0.173415,0.04272 0.603646,0.217043 0.956068,0.387386 0.538069,0.260074 0.735065,0.404012 1.229137,0.898083 0.493482,0.493482 0.638412,0.691709 0.898663,1.229137 0.392419,0.810357 0.448073,1.06441 0.450114,2.05471 0.0019,0.936047 -0.103906,1.42826 -0.448415,2.085438 -0.642215,1.225077 -1.787027,2.1469 -3.075351,2.476325 -0.940987,0.24061 -2.376718,0.0984 -3.188703,-0.315843 -0.144937,-0.07394 -0.31405,-0.134439 -0.375806,-0.134439 -0.06176,0 -0.299412,0.173363 -0.528124,0.385252 -0.835808,0.774328 -1.991223,1.406522 -3.152981,1.725178 -0.671329,0.184137 -2.597456,0.240969 -3.231065,0.09533 z"
     id="path1878"
     inkscape:connector-curvature="0" />
  <path
     style="opacity:0.65399996;fill:#ffffff;fill-opacity:1;stroke:#00ffff;stroke-width:0.38435873;stroke-miterlimit:4;stroke-dasharray:none;stroke-dashoffset:0;stroke-opacity:1"
     d="m 15.407807,27.817187 c -1.479189,-0.24371 -2.851402,-0.931929 -4.080639,-2.046601 L 11.04314,25.513029 10.597846,25.714934 C 9.7126709,26.116292 8.6827356,26.220145 7.564752,26.020775 5.9727695,25.736876 4.451127,24.278936 4.0202405,22.62465 c -0.1398279,-0.536835 -0.1385854,-1.876277 0.00225,-2.428649 0.3328711,-1.305528 1.256996,-2.415602 2.5552265,-3.06938 0.7185505,-0.361857 1.2206813,-0.452428 2.2538158,-0.406529 0.4847458,0.02154 0.9728814,0.0561 1.0847458,0.07681 0.1851534,0.03428 0.2246654,0.006 0.4406774,-0.315848 0.356928,-0.531744 1.169152,-1.364807 1.777892,-1.823506 0.643136,-0.484618 1.705618,-1.016008 2.459396,-1.230044 0.480064,-0.136314 0.694254,-0.154019 1.864407,-0.154112 1.155334,-9.3e-5 1.391393,0.01887 1.872089,0.150349 1.794662,0.490888 3.226475,1.504538 4.36405,3.089521 0.20209,0.281572 0.258559,0.321115 0.406076,0.28436 0.09424,-0.02348 0.600861,-0.05993 1.125824,-0.081 1.101994,-0.04423 1.378333,0.01214 2.329664,0.475253 0.470995,0.229283 0.695782,0.397375 1.193718,0.892645 0.505316,0.50261 0.66356,0.713351 0.897688,1.195504 0.427597,0.880572 0.511715,1.289345 0.472482,2.296021 -0.05275,1.353488 -0.441258,2.233823 -1.407953,3.190343 -0.590619,0.584401 -1.448964,1.076438 -2.17735,1.248139 -0.958612,0.225972 -2.245428,0.09435 -3.19679,-0.32699 l -0.39169,-0.173471 -0.442913,0.401387 c -0.904544,0.819733 -2.042236,1.438076 -3.200433,1.739453 -0.513026,0.133496 -0.867167,0.176393 -1.607174,0.194677 -0.522033,0.0129 -1.101695,-0.0017 -1.288135,-0.0324 z"
     id="path1880"
     inkscape:connector-curvature="0" />
  <path
     style="opacity:0.65399996;fill:#00ffff;fill-opacity:1;stroke:#00ffff;stroke-width:0.38435873;stroke-miterlimit:4;stroke-dasharray:none;stroke-dashoffset:0;stroke-opacity:1"
     d="M 15.064563,29.067734 C 13.651961,28.819518 12.187534,28.15986 11.11489,27.288585 l -0.292917,-0.237927 -0.486744,0.144465 C 8.5921114,27.71248 6.7115133,27.410699 5.1705187,26.366339 4.5825093,25.967834 3.8597872,25.215346 3.482641,24.608943 1.7314455,21.793247 2.5283961,18.188754 5.3044426,16.369198 c 0.8259602,-0.541374 2.0598915,-0.962643 2.8196609,-0.962643 0.1467148,0 0.2666138,-0.02288 0.2664421,-0.05085 -1.695e-4,-0.02797 -0.091232,-0.284579 -0.2023561,-0.570251 -1.2955706,-3.330579 0.7307419,-7.0718576 4.3159625,-7.9687703 0.70027,-0.1751863 2.189293,-0.1552841 2.903655,0.03881 2.488659,0.6761762 4.2409,2.7526686 4.541504,5.3819093 l 0.04461,0.390172 0.368241,0.174206 c 0.943384,0.446293 2.369564,1.586376 2.910053,2.326287 l 0.203389,0.278434 0.542373,-0.04063 c 1.065424,-0.07981 2.413455,0.238244 3.419109,0.806714 0.984275,0.556384 2.029164,1.715138 2.517226,2.791536 0.458412,1.011007 0.63533,2.567038 0.408741,3.594974 -0.415092,1.883096 -1.596422,3.405758 -3.306364,4.261699 -1.316467,0.65898 -3.016367,0.803146 -4.406679,0.373721 l -0.427948,-0.132179 -0.627466,0.450867 c -0.99491,0.714894 -1.932573,1.14378 -3.197225,1.462406 -0.724492,0.182533 -2.533683,0.232542 -3.332807,0.09212 z m 3.199869,-1.181503 c 1.114794,-0.272715 2.319597,-0.900432 3.252559,-1.694621 l 0.482067,-0.410362 0.399768,0.16244 c 0.855905,0.347785 2.233185,0.48268 3.09039,0.30268 0.81505,-0.171148 1.879723,-0.800088 2.542095,-1.501706 0.874332,-0.92614 1.232945,-1.807957 1.288597,-3.168616 0.0419,-1.024519 -0.05435,-1.510035 -0.468817,-2.364736 C 28.611665,18.717572 28.46193,18.521645 27.886055,17.948568 27.311949,17.377252 27.110388,17.224509 26.60837,16.98034 25.669801,16.523842 25.355292,16.465861 24.084285,16.515015 l -1.086234,0.04201 -0.353823,-0.46395 c -0.444602,-0.582983 -1.286199,-1.39071 -1.843004,-1.768828 -0.569774,-0.386927 -1.674271,-0.903806 -2.34257,-1.096269 -0.489886,-0.141083 -0.683431,-0.156362 -2,-0.157888 -1.339884,-0.0016 -1.4987,0.0111 -1.966101,0.156669 -0.621768,0.193644 -1.581294,0.648863 -2.15897,1.02426 -0.522264,0.339388 -1.652753,1.423328 -2.016476,1.933445 l -0.265232,0.371984 -0.9859785,-0.04197 c -1.1835641,-0.05039 -1.721101,0.02779 -2.4239973,0.352553 -1.3001865,0.600723 -2.2447954,1.606691 -2.7134677,2.889726 -0.171263,0.468849 -0.1816035,0.565052 -0.1809732,1.683702 6.509e-4,1.152003 0.00634,1.200216 0.1961853,1.661017 0.5235182,1.270731 1.4124248,2.234718 2.5656958,2.782403 1.1819053,0.561285 2.7784654,0.589634 4.0597816,0.07209 l 0.424244,-0.171359 0.298474,0.251655 c 1.209636,1.019891 2.478368,1.669795 3.810883,1.95211 0.636265,0.134804 2.430031,0.07686 3.16171,-0.102135 z M 10.691259,14.535469 c 1.170698,-1.06319 2.024557,-1.562995 3.496209,-2.046501 l 0.677966,-0.222743 1.840516,-0.03072 1.840516,-0.03072 -0.16393,-0.612551 C 17.952503,9.9853351 16.841173,8.8138478 15.272214,8.3135439 13.181355,7.6468187 10.949953,8.5412142 9.8111851,10.502445 9.354697,11.288628 9.1368223,12.401636 9.2626726,13.304512 c 0.072484,0.520016 0.5348529,1.898653 0.6367722,1.898653 0.031132,0 0.3874482,-0.300463 0.7918142,-0.667696 z"
     id="path1882"
     inkscape:connector-curvature="0" />
  <path
     style="opacity:0.65399996;fill:#00ffff;fill-opacity:1;stroke:#00ffff;stroke-width:0.38435873;stroke-miterlimit:4;stroke-dasharray:none;stroke-dashoffset:0;stroke-opacity:1"
     d="M 15.004745,29.059859 C 13.64278,28.813991 12.115413,28.128104 11.160809,27.333681 l -0.314795,-0.261972 -0.668256,0.176272 C 9.2792041,27.485001 8.1009947,27.498704 7.2178848,27.282406 5.0951816,26.762497 3.4852694,25.25468 2.7900492,23.135368 2.6147805,22.601078 2.6008147,22.477604 2.598343,21.440453 2.595373,20.195002 2.664775,19.827908 3.0686372,18.952831 3.6624444,17.666184 4.6613401,16.630219 5.9162814,15.999509 6.4445549,15.734008 7.3412292,15.475384 7.8960897,15.428481 8.3184701,15.392781 8.3951581,15.368041 8.3641238,15.277523 8.3437101,15.217982 8.2347796,14.905856 8.1220561,14.58391 7.140659,11.780972 8.4604911,8.6494816 11.189409,7.3061757 c 0.966827,-0.4759193 1.521008,-0.5992342 2.692974,-0.5992342 1.194117,0 1.739264,0.1250469 2.745763,0.6298285 1.811144,0.9083295 3.032967,2.6335636 3.291236,4.647282 l 0.0781,0.608943 0.59175,0.3177 c 0.849688,0.456181 1.574499,1.018997 2.296693,1.783382 l 0.630663,0.667507 0.894761,0.01104 c 0.684209,0.0084 1.030368,0.04688 1.471033,0.163341 2.179712,0.576054 3.862102,2.249388 4.408153,4.384427 0.776586,3.036423 -0.969061,6.213771 -3.95848,7.205044 -1.203882,0.3992 -2.524189,0.426703 -3.658929,0.07622 l -0.446037,-0.137766 -0.536743,0.39797 c -1.060394,0.786234 -2.458703,1.385179 -3.735165,1.599902 -0.78624,0.13226 -2.212341,0.131338 -2.950437,-0.0019 z m 3.325444,-1.212735 c 1.070223,-0.271484 2.165947,-0.830209 2.991319,-1.525315 0.710628,-0.598472 0.614068,-0.567502 1.143227,-0.366667 0.939034,0.356399 2.214157,0.464554 3.077637,0.261042 1.836227,-0.432775 3.387221,-2.064271 3.702217,-3.894375 0.30297,-1.760229 -0.126741,-3.137186 -1.367318,-4.381401 -0.519814,-0.521337 -0.717296,-0.668009 -1.255037,-0.932131 -0.972821,-0.477821 -1.317203,-0.542952 -2.574322,-0.486867 l -1.05481,0.04706 -0.389079,-0.507977 C 21.587584,14.733442 20.16407,13.7581 18.526078,13.266427 17.946643,13.092499 17.843707,13.083296 16.458654,13.08158 c -1.412792,-0.0018 -1.475352,0.004 -2.033898,0.186586 -0.660256,0.215849 -1.463503,0.604223 -2.101695,1.01618 -0.564841,0.364608 -1.538663,1.28672 -1.965641,1.861264 l -0.33248,0.447387 -0.9515103,-0.06176 c -1.1510649,-0.07472 -1.8086623,0.02769 -2.5460922,0.396515 -1.2803724,0.64037 -2.2000448,1.687558 -2.6532919,3.021181 -0.184653,0.543317 -0.1841731,2.376589 7.634e-4,2.915254 0.5435209,1.583116 1.8775398,2.887504 3.3665807,3.291801 0.5581903,0.151557 1.5987316,0.19927 2.2130361,0.101475 0.2913085,-0.04638 0.7584662,-0.172839 1.0381272,-0.281031 l 0.508474,-0.196714 0.169492,0.137256 c 1.52163,1.232232 2.82485,1.891705 4.135593,2.092749 0.727944,0.111653 2.269757,0.02876 3.024077,-0.162594 z M 10.57027,14.620481 c 1.15106,-1.057646 2.123601,-1.638365 3.5833,-2.139643 l 0.644067,-0.221181 1.847458,-0.02619 c 2.148919,-0.03046 1.970556,0.06899 1.640913,-0.914932 C 17.843843,9.9987598 17.063224,9.1344108 15.763342,8.5252818 13.960454,7.6804433 11.912536,8.1034794 10.504032,9.6116915 9.5512624,10.631908 9.1051362,11.953188 9.2711973,13.262946 c 0.073084,0.57643 0.5198834,1.940219 0.6356461,1.940219 0.016104,0 0.3146456,-0.262208 0.6634266,-0.582684 z"
     id="path1884"
     inkscape:connector-curvature="0" />
  <path
     style="opacity:0.65399996;fill:#00ffff;fill-opacity:1;stroke:#00ffff;stroke-width:0.38435873;stroke-miterlimit:4;stroke-dasharray:none;stroke-dashoffset:0;stroke-opacity:1"
     d="m 15.770662,29.161254 c -1.563625,-0.122898 -3.202729,-0.747815 -4.477055,-1.706901 l -0.498825,-0.375426 -0.570457,0.165228 C 8.2289059,27.82211 5.9769902,27.24509 4.4067185,25.753489 1.9989966,23.466389 1.8967689,19.707163 4.176576,17.290448 5.1810948,16.225605 6.5271547,15.560582 8.060446,15.371618 L 8.3741021,15.332963 8.1844832,14.844335 C 7.4906518,13.056405 7.7140516,10.994491 8.7750829,9.3932738 9.4206333,8.4190642 10.567843,7.4870191 11.62124,7.0809262 c 1.096987,-0.4228973 2.372789,-0.5287924 3.51538,-0.2917866 2.601538,0.5396324 4.554931,2.7160296 4.819463,5.3696634 l 0.04458,0.447164 0.442282,0.2181 c 0.967471,0.477081 1.971994,1.252134 2.618192,2.020099 l 0.424586,0.504593 0.977993,0.01917 c 0.826912,0.01621 1.069968,0.0469 1.573372,0.198718 2.189288,0.660238 3.704752,2.221361 4.292578,4.421909 0.09575,0.358424 0.124303,0.700383 0.12125,1.451901 -0.0035,0.868254 -0.02548,1.053816 -0.18797,1.589041 -0.52219,1.720015 -1.624663,3.032727 -3.194118,3.803234 -1.395321,0.685016 -3.016078,0.819052 -4.462067,0.369009 l -0.405995,-0.12636 -0.277834,0.223228 c -1.719004,1.381146 -3.895308,2.04004 -6.152266,1.862649 z m 2.590487,-1.337382 c 1.099009,-0.302936 2.245935,-0.91088 3.114454,-1.650858 l 0.508475,-0.433221 0.474576,0.184865 c 0.261017,0.101676 0.688136,0.223068 0.949153,0.269759 0.623285,0.111495 1.668197,0.109709 2.135593,-0.0036 1.520923,-0.368874 2.944846,-1.642498 3.491762,-3.123196 0.1625,-0.439945 0.192233,-0.637069 0.220612,-1.462631 0.03941,-1.146441 -0.01857,-1.461885 -0.427259,-2.324639 -0.26679,-0.5632 -0.383604,-0.720132 -0.963841,-1.294855 -0.700265,-0.693614 -1.190502,-1.0025 -2.050088,-1.29171 -0.400871,-0.134875 -0.548907,-0.146121 -1.63884,-0.124506 l -1.198162,0.02376 -0.334786,-0.440678 c -1.059563,-1.394699 -2.605127,-2.447 -4.246458,-2.891209 -1.051204,-0.284498 -3.128102,-0.241791 -4.099503,0.0843 -0.691937,0.232276 -1.730124,0.774316 -2.279196,1.189975 -0.542259,0.410499 -1.438312,1.312108 -1.742449,1.753249 l -0.219531,0.318424 -1.1086722,-0.03363 c -1.2346795,-0.03745 -1.6113193,0.0166 -2.308425,0.331255 -1.4273217,0.644262 -2.5704692,2.054661 -2.82458,3.484926 -0.3249581,1.829031 0.2119158,3.474782 1.518125,4.65371 0.8129664,0.733749 1.6249122,1.096039 2.6974641,1.203608 0.9881203,0.0991 1.8359682,-0.01702 2.6061941,-0.356941 l 0.360832,-0.159245 0.541964,0.441136 c 1.015777,0.826799 2.043324,1.371032 3.157379,1.672286 0.60592,0.163849 0.718356,0.17259 1.898305,0.147595 1.00198,-0.02123 1.357347,-0.05499 1.766902,-0.167882 z M 11.655595,13.674895 c 0.544833,-0.401674 1.396802,-0.830939 2.300761,-1.159242 l 0.705688,-0.256294 1.919597,-0.02437 1.919598,-0.02437 -0.04623,-0.215587 C 18.126823,10.464452 17.248536,9.2935388 15.95018,8.6556363 15.073902,8.2251076 14.629533,8.1297957 13.680742,8.1688691 c -0.85534,0.035225 -1.43848,0.2016938 -2.126492,0.6070495 -1.389787,0.8188213 -2.2769896,2.3616154 -2.2808595,3.9662824 -0.00149,0.6181 0.089219,1.046819 0.3874495,1.831197 l 0.2374319,0.624471 0.6635731,-0.602915 c 0.364965,-0.331603 0.857153,-0.745629 1.09375,-0.920059 z"
     id="path1886"
     inkscape:connector-curvature="0" />
  <path
     style="opacity:0.65399996;fill:#00ffff;fill-opacity:1;stroke:#00ffff;stroke-width:0.38435873;stroke-miterlimit:4;stroke-dasharray:none;stroke-dashoffset:0;stroke-opacity:1"
     d="M 15.170519,29.14066 C 13.545022,28.8476 11.969392,28.141544 11.019523,27.280557 l -0.184894,-0.167594 -0.391377,0.113563 C 9.4656299,27.510192 8.2997283,27.567408 7.391244,27.376303 4.8998951,26.852231 2.9418717,24.805975 2.5546958,22.321809 c -0.105907,-0.679512 -0.039733,-1.864564 0.1394176,-2.496703 0.664625,-2.345155 2.6593285,-4.102549 5.0318573,-4.43322 0.3097556,-0.04317 0.5715859,-0.08372 0.5818451,-0.09011 0.010259,-0.0064 -0.045421,-0.160853 -0.123733,-0.343249 C 7.7377633,13.919005 7.6263771,12.450834 7.9068891,11.30486 8.4521642,9.0772501 10.195881,7.3374647 12.438224,6.7837396 c 0.832068,-0.2054711 2.056251,-0.2054711 2.888318,0 1.516313,0.3744388 2.85205,1.317646 3.695295,2.6093668 0.532222,0.8152826 0.955995,2.0455516 0.962102,2.7931096 0.0012,0.149152 0.02463,0.304241 0.05202,0.344642 0.0274,0.0404 0.248115,0.173156 0.490488,0.29501 0.962207,0.483754 1.874401,1.20433 2.632702,2.079669 l 0.358851,0.414237 0.826257,-1.36e-4 c 0.493256,-6.8e-5 1.017974,0.04193 1.301954,0.104239 2.615696,0.573954 4.553525,2.715824 4.848224,5.358713 0.339299,3.042855 -1.813991,5.972104 -4.843056,6.588298 -0.831387,0.169126 -1.963188,0.144545 -2.769804,-0.06016 l -0.661821,-0.167956 -0.558518,0.402731 c -0.992578,0.715712 -2.105561,1.220025 -3.304281,1.497223 -0.756787,0.175002 -2.467352,0.227574 -3.18644,0.09793 z m 2.290807,-1.331861 c 1.374652,-0.151031 2.6545,-0.736069 4.035668,-1.844766 l 0.462068,-0.370913 0.724373,0.236172 c 0.620379,0.202266 0.846034,0.241217 1.571829,0.27132 1.251177,0.05189 2.019605,-0.186263 3.002992,-0.930705 1.237816,-0.937052 1.878364,-2.252973 1.878364,-3.858852 0,-0.81605 -0.09015,-1.209713 -0.447678,-1.954894 -0.255027,-0.53154 -0.396777,-0.723559 -0.933834,-1.265 -0.543222,-0.547655 -0.723622,-0.682231 -1.269896,-0.947328 -0.869357,-0.421884 -1.165746,-0.473682 -2.481956,-0.433758 l -1.101676,0.03342 -0.404819,-0.523298 c -1.003168,-1.296765 -2.28096,-2.196847 -3.911213,-2.755071 -0.514932,-0.176321 -0.587244,-0.182939 -2.059097,-0.18845 -1.741763,-0.0065 -1.848529,0.01368 -3.039001,0.574908 -1.139783,0.537336 -2.108215,1.315346 -2.948243,2.368533 l -0.405562,0.508475 H 8.8046243 c -1.3266727,0 -1.329926,3.39e-4 -1.8412721,0.207971 -1.3100267,0.531864 -2.2983881,1.519202 -2.8269035,2.823975 -0.1479984,0.365372 -0.1768987,0.560155 -0.2039862,1.374833 -0.018338,0.551534 -1.152e-4,1.119561 0.043503,1.355932 0.1610504,0.872775 0.8957543,2.003124 1.7223983,2.649929 0.9593478,0.750638 1.7953269,1.007198 3.1331716,0.961564 0.72012,-0.02456 0.8939743,-0.05593 1.5137186,-0.273125 l 0.700158,-0.245374 0.587977,0.462472 c 1.18668,0.933381 2.27162,1.481818 3.430067,1.733901 0.511945,0.111401 1.531146,0.123358 2.39787,0.02813 z M 11.695271,13.502252 c 0.608038,-0.421383 1.354086,-0.798063 2.228709,-1.125276 l 0.670267,-0.250761 1.812188,-0.04207 c 0.996703,-0.02314 1.830882,-0.06077 1.85373,-0.08362 0.07362,-0.07362 -0.178745,-0.815843 -0.467061,-1.37363 -0.720058,-1.3930527 -2.313965,-2.3389834 -3.94122,-2.3389834 -0.691557,0 -1.201639,0.1279257 -1.935603,0.4854378 -0.813501,0.3962547 -1.62452,1.2065153 -2.0249311,2.0230366 -0.3134095,0.639107 -0.4805824,1.31161 -0.4823661,1.940459 -0.00119,0.419986 0.2308644,1.469724 0.4303112,1.946576 l 0.1087111,0.259916 0.6282059,-0.550457 c 0.345513,-0.302751 0.849089,-0.703533 1.119059,-0.890628 z"
     id="path1888"
     inkscape:connector-curvature="0" />
  <path
     style="opacity:0.65399996;fill:#00ffff;fill-opacity:1;stroke:#00ffff;stroke-width:0.38435873;stroke-miterlimit:4;stroke-dasharray:none;stroke-dashoffset:0;stroke-opacity:1"
     d="M 3.0630737,13.479679 C 2.742279,13.340005 2.5603492,13.064526 2.5603492,12.71845 c 0,-0.243494 0.04174,-0.342516 0.231914,-0.550179 l 0.2319141,-0.253242 1.121184,-0.02148 c 0.9147269,-0.01752 1.1628282,-0.0017 1.347336,0.08584 0.6398509,0.303629 0.6029082,1.226107 -0.060198,1.503171 -0.3053089,0.127566 -2.0747605,0.12541 -2.3694259,-0.0029 z"
     id="path1890"
     inkscape:connector-curvature="0" />
  <path
     style="opacity:0.65399996;fill:#00ffff;fill-opacity:1;stroke:#00ffff;stroke-width:0.38435873;stroke-miterlimit:4;stroke-dasharray:none;stroke-dashoffset:0;stroke-opacity:1"
     d="M 3.0630737,13.479679 C 2.7475406,13.342296 2.5599341,13.063586 2.5627516,12.736395 c 0.00292,-0.339448 0.1120747,-0.549954 0.3750502,-0.723309 0.1759774,-0.116005 0.3257729,-0.131113 1.3038803,-0.131508 1.2240791,-4.95e-4 1.4222106,0.04937 1.6056551,0.404113 0.2413965,0.46681 0.056633,0.999883 -0.4148376,1.196876 -0.3053089,0.127566 -2.0747605,0.12541 -2.3694259,-0.0029 z"
     id="path1892"
     inkscape:connector-curvature="0" />
  <path
     style="opacity:0.65399996;fill:#00ffff;fill-opacity:1;stroke:#00ffff;stroke-width:0.38435873;stroke-miterlimit:4;stroke-dasharray:none;stroke-dashoffset:0;stroke-opacity:1"
     d="M 2.9805586,13.462635 C 2.709359,13.32898 2.5434639,13.031161 2.5482207,12.686492 c 0.00455,-0.329566 0.10413,-0.509574 0.3723876,-0.673142 0.1908487,-0.116369 0.3463237,-0.131712 1.3346561,-0.131712 0.9883324,0 1.1438075,0.01534 1.3346562,0.131712 0.2738602,0.166984 0.3828579,0.371121 0.3828579,0.717035 0,0.336748 -0.1620597,0.596485 -0.4605439,0.738125 -0.3300933,0.15664 -2.2107722,0.152275 -2.531676,-0.0059 z"
     id="path1894"
     inkscape:connector-curvature="0" />
  <path
     style="opacity:0.65399996;fill:#00ffff;fill-opacity:1;stroke:#00ffff;stroke-width:0.38435873;stroke-miterlimit:4;stroke-dasharray:none;stroke-dashoffset:0;stroke-opacity:1"
     d="M 7.2722136,7.2830972 C 6.9661411,7.0861283 5.7039075,5.768476 5.6475489,5.5871012 5.4580547,4.9772663 6.0733066,4.3645409 6.6897099,4.5492198 c 0.306577,0.091853 1.7340877,1.5084085 1.8050677,1.7912155 0.179157,0.7138182 -0.6202992,1.3302415 -1.222564,0.9426619 z"
     id="path1896"
     inkscape:connector-curvature="0" />
  <path
     style="opacity:0.65399996;fill:#00ffff;fill-opacity:1;stroke:#00ffff;stroke-width:0.38435873;stroke-miterlimit:4;stroke-dasharray:none;stroke-dashoffset:0;stroke-opacity:1"
     d="M 7.3400102,7.3284894 C 7.1280006,7.2128757 5.8162343,5.9022843 5.7081161,5.698057 5.4867063,5.2798298 5.7067135,4.7461899 6.1738484,4.568397 6.6110499,4.4019969 6.8319615,4.521395 7.7009341,5.3937548 8.3898596,6.0853657 8.4726526,6.1943854 8.5077651,6.4561685 8.554818,6.806974 8.4090279,7.123148 8.1220478,7.2926713 7.9035402,7.4217469 7.5414363,7.4383316 7.3400102,7.3284894 Z"
     id="path1898"
     inkscape:connector-curvature="0" />
  <path
     style="opacity:0.65399996;fill:#00ffff;fill-opacity:1;stroke:#00ffff;stroke-width:0.38435873;stroke-miterlimit:4;stroke-dasharray:none;stroke-dashoffset:0;stroke-opacity:1"
     d="M 6.9443116,7.011218 C 6.7144882,6.7937828 6.4076659,6.5115794 6.2624844,6.3840993 5.5558526,5.7636249 5.4193971,5.2409716 5.8432753,4.7784404 6.0575363,4.5446412 6.1040638,4.5251987 6.449304,4.5251987 h 0.37395 l 0.7327494,0.7118644 c 0.8798025,0.8547261 0.9694235,0.9756176 0.9700008,1.3084515 9.203e-4,0.5307131 -0.3379888,0.86104 -0.8834105,0.86104 -0.2488647,0 -0.3274444,-0.044488 -0.6982821,-0.3953366 z"
     id="path1900"
     inkscape:connector-curvature="0" />
  <path
     style="opacity:0.65399996;fill:#00ffff;fill-opacity:1;stroke:#00ffff;stroke-width:0.38435873;stroke-miterlimit:4;stroke-dasharray:none;stroke-dashoffset:0;stroke-opacity:1"
     d="M 13.299332,4.599775 13.068824,4.3692665 v -1.2 -1.2 l 0.226512,-0.2265122 c 0.252641,-0.2526415 0.497688,-0.3394285 0.767315,-0.2717565 0.09915,0.024884 0.282197,0.1471747 0.406779,0.2717565 l 0.226512,0.2265122 v 1.2 1.2 L 14.465434,4.599775 c -0.203042,0.2030422 -0.272516,0.2305085 -0.583051,0.2305085 -0.310535,0 -0.380009,-0.027466 -0.583051,-0.2305085 z"
     id="path1902"
     inkscape:connector-curvature="0" />
  <path
     style="opacity:0.65399996;fill:#00ffff;fill-opacity:1;stroke:#00ffff;stroke-width:0.38435873;stroke-miterlimit:4;stroke-dasharray:none;stroke-dashoffset:0;stroke-opacity:1"
     d="m 13.633767,4.8220102 c -0.118095,-0.033268 -0.293518,-0.1541364 -0.38983,-0.2685967 -0.173275,-0.205925 -0.175113,-0.220223 -0.175113,-1.3619391 0,-1.2888065 0.04582,-1.4574112 0.447945,-1.6482311 0.273559,-0.1298124 0.457669,-0.1298124 0.731228,0 0.420063,0.1993329 0.481844,0.4082093 0.481844,1.6290819 0,0.9251271 -0.01788,1.1150873 -0.119589,1.2702422 -0.222612,0.3396059 -0.598879,0.485816 -0.976485,0.3794428 z"
     id="path1904"
     inkscape:connector-curvature="0" />
  <path
     style="opacity:0.65399996;fill:#00ffff;fill-opacity:1;stroke:#00ffff;stroke-width:0.38435873;stroke-miterlimit:4;stroke-dasharray:none;stroke-dashoffset:0;stroke-opacity:1"
     d="M 13.492688,4.7749231 C 13.077519,4.5534405 13.037242,4.4299704 13.013143,3.3048597 c -0.02556,-1.1932519 0.03815,-1.4741375 0.387741,-1.709386 0.286459,-0.1927684 0.645013,-0.199493 0.943206,-0.01769 0.373049,0.2274415 0.434386,0.4809006 0.408449,1.6878101 -0.02532,1.1780352 -0.07294,1.3248872 -0.494542,1.5249501 -0.287466,0.136412 -0.487996,0.1323188 -0.765309,-0.015621 z"
     id="path1906"
     inkscape:connector-curvature="0" />
  <path
     style="opacity:0.65399996;fill:#00ffff;fill-opacity:1;stroke:#00ffff;stroke-width:0.38435873;stroke-miterlimit:4;stroke-dasharray:none;stroke-dashoffset:0;stroke-opacity:1"
     d="M 19.74126,7.3408697 C 19.493089,7.240474 19.238315,6.8744588 19.238315,6.6183252 c 0,-0.3567853 0.127236,-0.538381 0.926356,-1.3221354 0.792534,-0.7772946 0.985412,-0.8780866 1.411332,-0.7375201 0.402713,0.1329072 0.664676,0.6306031 0.541317,1.0284315 -0.05946,0.1917725 -1.414974,1.5889114 -1.672248,1.723606 -0.202046,0.1057799 -0.486732,0.1179805 -0.703812,0.030162 z"
     id="path1908"
     inkscape:connector-curvature="0" />
  <path
     style="opacity:0.65399996;fill:#00ffff;fill-opacity:1;stroke:#00ffff;stroke-width:0.38435873;stroke-miterlimit:4;stroke-dasharray:none;stroke-dashoffset:0;stroke-opacity:1"
     d="M 19.631442,7.2893532 C 19.352059,7.1160683 19.210684,6.8014882 19.257001,6.4561685 19.292114,6.1943854 19.374907,6.0853657 20.063832,5.3937548 20.932805,4.521395 21.153716,4.4019969 21.590918,4.568397 c 0.4469,0.1700915 0.685475,0.7069389 0.48744,1.0968519 -0.107971,0.2125847 -1.415688,1.5291897 -1.633286,1.6443863 -0.242723,0.1284977 -0.587617,0.1199002 -0.81363,-0.020282 z"
     id="path1910"
     inkscape:connector-curvature="0" />
  <path
     style="opacity:0.65399996;fill:#00ffff;fill-opacity:1;stroke:#00ffff;stroke-width:0.38435873;stroke-miterlimit:4;stroke-dasharray:none;stroke-dashoffset:0;stroke-opacity:1"
     d="M 19.628998,7.3004266 C 19.26153,7.1010407 19.11911,6.4941432 19.354073,6.1288795 c 0.06367,-0.098974 0.446584,-0.500291 0.850928,-0.8918164 l 0.735171,-0.7118644 h 0.37462 c 0.346014,0 0.392342,0.019337 0.606699,0.2532417 0.186214,0.2031951 0.232079,0.3087994 0.232079,0.5343706 0,0.3967423 -0.16881,0.6305396 -1.019685,1.4122399 -0.700786,0.6438141 -0.75778,0.6813536 -1.030555,0.6787893 -0.158809,-0.00149 -0.372258,-0.048029 -0.474332,-0.1034136 z"
     id="path1912"
     inkscape:connector-curvature="0" />
  <path
     style="opacity:0.65399996;fill:#00ffff;fill-opacity:1;stroke:#00ffff;stroke-width:0.38435873;stroke-miterlimit:4;stroke-dasharray:none;stroke-dashoffset:0;stroke-opacity:1"
     d="m 22.317311,13.479679 c -0.644012,-0.280403 -0.677696,-1.200164 -0.05478,-1.495758 0.309617,-0.146923 2.184323,-0.146923 2.49394,0 0.630837,0.299352 0.587816,1.223903 -0.06973,1.498646 -0.305309,0.127566 -2.074761,0.12541 -2.369426,-0.0029 z"
     id="path1914"
     inkscape:connector-curvature="0" />
  <path
     style="opacity:0.65399996;fill:#00ffff;fill-opacity:1;stroke:#00ffff;stroke-width:0.38435873;stroke-miterlimit:4;stroke-dasharray:none;stroke-dashoffset:0;stroke-opacity:1"
     d="m 22.317311,13.479679 c -0.458661,-0.199701 -0.637662,-0.734171 -0.399882,-1.193988 0.183444,-0.354742 0.381576,-0.404608 1.605655,-0.404113 0.978107,3.95e-4 1.127903,0.0155 1.30388,0.131508 0.569889,0.375674 0.490666,1.205877 -0.140227,1.469481 -0.305309,0.127566 -2.074761,0.12541 -2.369426,-0.0029 z"
     id="path1916"
     inkscape:connector-curvature="0" />
  <path
     style="opacity:0.65399996;fill:#00ffff;fill-opacity:1;stroke:#ffffff;stroke-width:0.38435873;stroke-miterlimit:4;stroke-dasharray:none;stroke-dashoffset:0;stroke-opacity:1"
     d="m 22.241609,13.465935 c -0.290559,-0.143274 -0.449621,-0.403488 -0.449621,-0.73555 0,-0.345914 0.108997,-0.550051 0.382858,-0.717035 0.190848,-0.116369 0.346323,-0.131712 1.334656,-0.131712 0.988332,0 1.143807,0.01534 1.334656,0.131712 0.2673,0.162984 0.378749,0.362974 0.378749,0.679647 0,0.341364 -0.174957,0.641943 -0.449478,0.772212 -0.331902,0.157498 -2.212791,0.158037 -2.53182,7.26e-4 z"
     id="path1918"
     inkscape:connector-curvature="0" />
  <path
     style="opacity:0.65399996;fill:#ffff00;fill-opacity:1;stroke:#ffffff;stroke-width:0.38435873;stroke-miterlimit:4;stroke-dasharray:none;stroke-dashoffset:0;stroke-opacity:1"
     d="M 9.9192396,14.242824 C 9.7201968,13.572574 9.5989548,12.759969 9.6442279,12.399601 9.8635556,10.653784 11.056214,9.2372891 12.797637,8.654364 c 0.581694,-0.1947164 1.638521,-0.1658999 2.344299,0.063922 1.212248,0.3947432 2.150379,1.247183 2.622751,2.383184 0.321832,0.773968 0.499619,0.683642 -1.449877,0.736612 l -1.70545,0.04634 -0.756827,0.295925 c -1.434686,0.560973 -2.340266,1.101974 -3.373647,2.015446 l -0.454344,0.401624 z"
     id="path1920"
     inkscape:connector-curvature="0" />
  <path
     style="opacity:0.65399996;fill:#ffff00;fill-opacity:1;stroke:#ffff00;stroke-width:0.38435873;stroke-miterlimit:4;stroke-dasharray:none;stroke-dashoffset:0;stroke-opacity:1"
     d="M 10.023001,13.830283 C 9.975667,13.634521 9.920682,13.195477 9.9008109,12.854631 c -0.043582,-0.74755 0.1129341,-1.362929 0.5247091,-2.06301 0.488134,-0.8299056 1.540517,-1.6603096 2.43527,-1.9215997 0.473035,-0.138138 1.480194,-0.1395928 2.005008,-0.0029 1.065441,0.2775121 2.089603,1.0937517 2.567448,2.0462117 0.135161,0.269408 0.245747,0.531484 0.245747,0.582392 0,0.07424 -0.306876,0.101206 -1.550808,0.136256 l -1.550809,0.0437 -0.62544,0.238677 c -1.368931,0.522404 -2.242319,1.012573 -3.240776,1.818814 -0.30858,0.249173 -0.570289,0.453043 -0.581577,0.453043 -0.01129,0 -0.05925,-0.16017 -0.106582,-0.355932 z"
     id="path1922"
     inkscape:connector-curvature="0" />
  <path
     style="opacity:0.65399996;fill:#ffff00;fill-opacity:1;stroke:#ffff00;stroke-width:0.38435873;stroke-miterlimit:4;stroke-dasharray:none;stroke-dashoffset:0;stroke-opacity:1"
     d="M 9.9790192,13.695269 C 9.8180149,12.983311 9.8180637,12.23259 9.9791459,11.745538 10.426001,10.394417 11.363417,9.4132515 12.699952,8.8977496 c 0.510026,-0.1967169 1.532792,-0.2172916 2.19095,-0.044075 1.12019,0.2948167 2.094014,1.090448 2.590738,2.1166784 0.154191,0.318558 0.268915,0.590628 0.254944,0.6046 -0.01397,0.01397 -0.741968,0.0476 -1.617768,0.07473 l -1.592365,0.04932 -0.813559,0.333173 c -1.373968,0.562674 -2.339047,1.13812 -3.329052,1.985006 l -0.278203,0.237986 z"
     id="path1924"
     inkscape:connector-curvature="0" />
  <path
     style="opacity:0.65399996;fill:#ffff00;fill-opacity:1;stroke:#ffff00;stroke-width:0.38435873;stroke-miterlimit:4;stroke-dasharray:none;stroke-dashoffset:0;stroke-opacity:1"
     d="M 10.000525,14.203165 C 9.8501128,14.035228 9.7464958,13.388909 9.7485402,12.631391 c 0.00304,-1.127199 0.3891938,-1.954998 1.3274168,-2.8456004 0.561908,-0.533388 1.229655,-0.942945 1.773314,-1.0876465 0.367201,-0.097735 1.572096,-0.099626 2.021842,-0.00317 1.049078,0.2249869 2.259349,1.2009691 2.743993,2.2128009 0.236141,0.493012 0.249461,0.670652 0.05797,0.773133 -0.08306,0.04445 -0.762167,0.09546 -1.644068,0.123499 l -1.50256,0.04777 -0.890867,0.375456 c -1.083853,0.45679 -1.741135,0.826709 -2.480237,1.395883 -0.591675,0.455641 -0.941183,0.697624 -1.008219,0.698045 -0.02219,1.4e-4 -0.08816,-0.05314 -0.146603,-0.11839 z"
     id="path1926"
     inkscape:connector-curvature="0" />
  <path
     style="opacity:0.65399996;fill:#ffff00;fill-opacity:1;stroke:#ffff00;stroke-width:0.38435873;stroke-miterlimit:4;stroke-dasharray:none;stroke-dashoffset:0;stroke-opacity:1"
     d="M 9.9417207,14.270961 C 9.8267739,13.976985 9.683952,13.104853 9.6813585,12.681078 c -0.0035,-0.571263 0.112771,-1.036616 0.4194345,-1.678763 0.507058,-1.0617706 1.690818,-2.0501499 2.802085,-2.3395981 0.901243,-0.2347441 2.143134,-0.063256 3.006542,0.4151633 0.652562,0.3615885 1.402356,1.1459928 1.719689,1.7990698 0.281062,0.578431 0.310839,0.762969 0.13463,0.834338 -0.06525,0.02643 -0.78983,0.07532 -1.610169,0.108646 -1.642121,0.06671 -1.68875,0.07648 -2.888502,0.604915 -0.908656,0.400224 -1.681395,0.869678 -2.501329,1.519605 -0.354237,0.280789 -0.667704,0.51107 -0.696593,0.511737 -0.02889,6.66e-4 -0.08533,-0.08269 -0.1254253,-0.18523 z"
     id="path1928"
     inkscape:connector-curvature="0" />
  <path
     style="opacity:0.65399996;fill:#ffff00;fill-opacity:1;stroke:#ffff00;stroke-width:0.38435873;stroke-miterlimit:4;stroke-dasharray:none;stroke-dashoffset:0;stroke-opacity:1"
     d="M 9.9492197,14.387812 C 9.8214034,14.148985 9.6141901,13.084014 9.6126639,12.658087 c -0.0035,-0.976741 0.4940911,-2.095429 1.2802651,-2.878305 0.849337,-0.8457744 1.862414,-1.2884816 2.948519,-1.2884816 1.629694,0 3.140187,0.929427 3.838677,2.3619896 0.278933,0.572073 0.296967,0.824349 0.06667,0.932509 -0.105351,0.04948 -0.746753,0.0938 -1.694915,0.117114 l -1.525424,0.03751 -0.677966,0.276871 c -1.368671,0.558944 -2.198827,1.045206 -3.178995,1.862088 -0.294209,0.245198 -0.560085,0.445814 -0.590835,0.445814 -0.03075,0 -0.088995,-0.06182 -0.1294353,-0.137387 z"
     id="path1930"
     inkscape:connector-curvature="0" />
</svg>
