<?xml version="1.0" encoding="UTF-8" standalone="no"?>
<!-- Generated by IcoMoon.io -->

<svg
   xmlns:dc="http://purl.org/dc/elements/1.1/"
   xmlns:cc="http://creativecommons.org/ns#"
   xmlns:rdf="http://www.w3.org/1999/02/22-rdf-syntax-ns#"
   xmlns:svg="http://www.w3.org/2000/svg"
   xmlns="http://www.w3.org/2000/svg"
   xmlns:sodipodi="http://sodipodi.sourceforge.net/DTD/sodipodi-0.dtd"
   xmlns:inkscape="http://www.inkscape.org/namespaces/inkscape"
   version="1.1"
   width="32"
   height="32"
   viewBox="0 0 32 32"
   id="svg6"
   sodipodi:docname="cloudy.svg"
   inkscape:version="0.92.4 (5da689c313, 2019-01-14)">
  <metadata
     id="metadata12">
    <rdf:RDF>
      <cc:Work
         rdf:about="">
        <dc:format>image/svg+xml</dc:format>
        <dc:type
           rdf:resource="http://purl.org/dc/dcmitype/StillImage" />
      </cc:Work>
    </rdf:RDF>
  </metadata>
  <defs
     id="defs10" />
  <sodipodi:namedview
     pagecolor="#ffffff"
     bordercolor="#666666"
     borderopacity="1"
     objecttolerance="10"
     gridtolerance="10"
     guidetolerance="10"
     inkscape:pageopacity="0"
     inkscape:pageshadow="2"
     inkscape:window-width="1366"
     inkscape:window-height="715"
     id="namedview8"
     showgrid="false"
     inkscape:zoom="7.375"
     inkscape:cx="16"
     inkscape:cy="16"
     inkscape:window-x="-8"
     inkscape:window-y="-8"
     inkscape:window-maximized="1"
     inkscape:current-layer="svg6" />
  <title
     id="title2">cloudy</title>
  <path
     d="M13 4c0.552 0 1-0.448 1-1v-2c0-0.552-0.448-1-1-1s-1 0.448-1 1v2c0 0.552 0.448 1 1 1zM20.777 6.635l1.414-1.414c0.391-0.391 0.391-1.023 0-1.414s-1.023-0.391-1.414 0l-1.414 1.414c-0.391 0.391-0.391 1.023 0 1.414s1.023 0.391 1.414 0zM1 14h2c0.552 0 1-0.448 1-1s-0.448-1-1-1h-2c-0.552 0-1 0.448-1 1s0.448 1 1 1zM22 13c0 0.552 0.448 1 1 1h2c0.552 0 1-0.448 1-1s-0.448-1-1-1h-2c-0.552 0-1 0.448-1 1zM5.221 6.635c0.391 0.391 1.024 0.391 1.414 0s0.391-1.023 0-1.414l-1.414-1.414c-0.391-0.391-1.023-0.391-1.414 0s-0.391 1.023 0 1.414l1.414 1.414zM25 16c-0.332 0-0.66 0.023-0.987 0.070-1.048-1.43-2.445-2.521-4.029-3.219-0.081-3.789-3.176-6.852-6.984-6.852-3.859 0-7 3.141-7 7 0 1.090 0.271 2.109 0.719 3.027-3.727 0.152-6.719 3.211-6.719 6.973 0 3.859 3.141 7 7 7 0.856 0 1.693-0.156 2.482-0.458 1.81 1.578 4.112 2.458 6.518 2.458 2.409 0 4.708-0.88 6.518-2.458 0.789 0.302 1.626 0.458 2.482 0.458 3.859 0 7-3.141 7-7s-3.141-7-7-7zM13 8c2.488 0 4.535 1.823 4.919 4.203-0.626-0.125-1.266-0.203-1.919-0.203-2.871 0-5.531 1.238-7.398 3.328-0.371-0.698-0.602-1.482-0.602-2.328 0-2.762 2.238-5 5-5zM25 28c-1.070 0-2.057-0.344-2.871-0.917-1.467 1.768-3.652 2.917-6.129 2.917s-4.662-1.148-6.129-2.917c-0.813 0.573-1.801 0.917-2.871 0.917-2.762 0-5-2.238-5-5s2.238-5 5-5c0.484 0 0.941 0.091 1.383 0.221 0.176 0.049 0.354 0.089 0.52 0.158 0.273-0.535 0.617-1.025 0.999-1.484 1.461-1.758 3.634-2.895 6.099-2.895 0.633 0 1.24 0.091 1.828 0.232 0.66 0.156 1.284 0.393 1.865 0.706 1.456 0.773 2.651 1.971 3.404 3.441 0.587-0.242 1.229-0.379 1.904-0.379 2.762 0 5 2.238 5 5s-2.238 5-5 5z"
     id="path4" />
  <path
     style="opacity:0.65399996;fill:#00ffff;fill-opacity:1;stroke:#00ffff;stroke-width:0.76871747;stroke-miterlimit:4;stroke-dasharray:none;stroke-dashoffset:0;stroke-opacity:1"
     d="M 14.938694,29.854327 C 13.285655,29.600693 11.871006,28.912561 10.632252,27.759531 L 9.8702313,27.050245 9.0503699,27.432766 C 6.4894037,28.627628 3.6598443,27.52008 2.4281197,24.840678 2.2130957,24.372931 2.1459264,23.945664 2.1403511,23.010169 c -0.00622,-1.04441 0.044424,-1.331274 0.351328,-1.98985 1.0267457,-2.203264 3.5856084,-3.439249 5.7356858,-2.770458 0.5991392,0.186365 0.6876028,0.18707 0.7887757,0.0063 0.8549193,-1.527656 2.6729374,-3.086797 4.2957054,-3.684017 0.915143,-0.336796 1.195129,-0.375209 2.715273,-0.372518 1.412762,0.0025 1.828817,0.05302 2.499276,0.303503 1.66063,0.620401 3.145712,1.789481 4.101171,3.228506 l 0.460652,0.693793 0.702391,-0.182198 c 1.397253,-0.362443 2.754613,-0.117704 3.991851,0.719752 3.122607,2.113617 2.726382,6.848649 -0.708947,8.472175 -1.45708,0.688612 -3.145551,0.629696 -4.499418,-0.157002 l -0.436075,-0.253391 -0.751966,0.722518 c -1.658691,1.593737 -4.257518,2.443059 -6.44736,2.107061 z"
     id="path822"
     inkscape:connector-curvature="0" />
  <path
     style="opacity:0.65399996;fill:#ffff00;fill-opacity:1;stroke:#ffff00;stroke-width:0.76871747;stroke-miterlimit:4;stroke-dasharray:none;stroke-dashoffset:0;stroke-opacity:1"
     d="M 8.3446093,14.572611 C 7.9439585,13.534156 8.0178599,12.077647 8.526043,10.996764 c 1.0284706,-2.18751 3.376233,-3.3455611 5.621965,-2.7730759 1.75392,0.4471118 3.153645,1.8080339 3.570948,3.4719559 l 0.08313,0.331475 -1.870535,0.0042 c -1.741001,0.0039 -1.952803,0.03335 -3.058497,0.425049 -1.461171,0.517622 -2.480268,1.114229 -3.4990439,2.048435 l -0.7797087,0.714984 z"
     id="path824"
     inkscape:connector-curvature="0" />
</svg>
