<?xml version="1.0" encoding="UTF-8" standalone="no"?>
<!-- Generated by IcoMoon.io -->

<svg
   xmlns:dc="http://purl.org/dc/elements/1.1/"
   xmlns:cc="http://creativecommons.org/ns#"
   xmlns:rdf="http://www.w3.org/1999/02/22-rdf-syntax-ns#"
   xmlns:svg="http://www.w3.org/2000/svg"
   xmlns="http://www.w3.org/2000/svg"
   xmlns:sodipodi="http://sodipodi.sourceforge.net/DTD/sodipodi-0.dtd"
   xmlns:inkscape="http://www.inkscape.org/namespaces/inkscape"
   version="1.1"
   width="32"
   height="32"
   viewBox="0 0 32 32"
   id="svg6"
   sodipodi:docname="cloud.svg"
   inkscape:version="0.92.4 (5da689c313, 2019-01-14)">
  <metadata
     id="metadata12">
    <rdf:RDF>
      <cc:Work
         rdf:about="">
        <dc:format>image/svg+xml</dc:format>
        <dc:type
           rdf:resource="http://purl.org/dc/dcmitype/StillImage" />
      </cc:Work>
    </rdf:RDF>
  </metadata>
  <defs
     id="defs10" />
  <sodipodi:namedview
     pagecolor="#ffffff"
     bordercolor="#666666"
     borderopacity="1"
     objecttolerance="10"
     gridtolerance="10"
     guidetolerance="10"
     inkscape:pageopacity="0"
     inkscape:pageshadow="2"
     inkscape:window-width="1366"
     inkscape:window-height="715"
     id="namedview8"
     showgrid="false"
     inkscape:zoom="7.375"
     inkscape:cx="-6.0338983"
     inkscape:cy="16"
     inkscape:window-x="-8"
     inkscape:window-y="-8"
     inkscape:window-maximized="1"
     inkscape:current-layer="svg6" />
  <title
     id="title2">cloud</title>
  <path
     d="M25 10c-0.332 0-0.66 0.023-0.987 0.070-1.867-2.544-4.814-4.070-8.013-4.070s-6.145 1.526-8.013 4.070c-0.327-0.047-0.655-0.070-0.987-0.070-3.859 0-7 3.141-7 7s3.141 7 7 7c0.856 0 1.693-0.156 2.482-0.458 1.81 1.578 4.112 2.458 6.518 2.458 2.409 0 4.708-0.88 6.518-2.458 0.789 0.302 1.626 0.458 2.482 0.458 3.859 0 7-3.141 7-7s-3.141-7-7-7zM25 22c-1.070 0-2.057-0.344-2.871-0.917-1.467 1.768-3.652 2.917-6.129 2.917s-4.662-1.148-6.129-2.917c-0.813 0.573-1.801 0.917-2.871 0.917-2.762 0-5-2.238-5-5s2.238-5 5-5c0.676 0 1.316 0.138 1.902 0.38 1.327-2.588 3.991-4.38 7.098-4.38s5.771 1.792 7.096 4.38c0.587-0.242 1.229-0.38 1.904-0.38 2.762 0 5 2.238 5 5s-2.238 5-5 5z"
     id="path4" />
  <path
     style="opacity:0.65399996;fill:#00ffff;fill-opacity:1;stroke:#00f5f2;stroke-width:0.76871747;stroke-miterlimit:4;stroke-dasharray:none;stroke-dashoffset:0;stroke-opacity:1"
     d="M 14.061017,23.676927 C 12.850523,23.357567 11.66095,22.699896 10.746436,21.844412 L 9.8899349,21.043197 8.9864644,21.465982 C 6.9017028,22.441559 4.4287585,21.775637 3.0109135,19.856864 2.3363628,18.943993 2.0834577,17.993459 2.1575891,16.649676 c 0.072501,-1.314227 0.4782757,-2.221491 1.4105043,-3.153719 0.9403473,-0.940348 1.9034228,-1.32799 3.3064829,-1.330875 0.6338983,-0.0013 1.3661017,0.04281 1.6271186,0.09802 0.4692919,0.09928 0.4821421,0.08946 1.1540429,-0.881356 2.6777302,-3.8690095 8.1732082,-4.4262222 11.6428682,-1.180526 0.482458,0.451316 1.074903,1.128674 1.316547,1.505241 0.416884,0.649659 0.460749,0.678896 0.857861,0.571785 0.230181,-0.06209 0.967664,-0.109433 1.63885,-0.105216 0.949295,0.006 1.364617,0.07289 1.869934,0.301307 0.958654,0.433347 2.025592,1.508681 2.486111,2.505676 0.337863,0.73145 0.389718,1.006087 0.389718,2.064051 0,1.073924 -0.04749,1.317062 -0.395825,2.026512 -1.229368,2.50384 -4.184757,3.539446 -6.637185,2.325752 l -0.673883,-0.333501 -0.801466,0.725284 c -0.934652,0.845812 -2.304117,1.602671 -3.430936,1.896171 -0.987775,0.257283 -2.867817,0.253696 -3.857315,-0.0074 z"
     id="path913"
     inkscape:connector-curvature="0" />
</svg>
