<?xml version="1.0" encoding="UTF-8" standalone="no"?>
<!-- Generated by IcoMoon.io -->

<svg
   xmlns:dc="http://purl.org/dc/elements/1.1/"
   xmlns:cc="http://creativecommons.org/ns#"
   xmlns:rdf="http://www.w3.org/1999/02/22-rdf-syntax-ns#"
   xmlns:svg="http://www.w3.org/2000/svg"
   xmlns="http://www.w3.org/2000/svg"
   xmlns:sodipodi="http://sodipodi.sourceforge.net/DTD/sodipodi-0.dtd"
   xmlns:inkscape="http://www.inkscape.org/namespaces/inkscape"
   version="1.1"
   width="32"
   height="32"
   viewBox="0 0 32 32"
   id="svg842"
   sodipodi:docname="lightning.svg"
   inkscape:version="0.92.4 (5da689c313, 2019-01-14)">
  <metadata
     id="metadata848">
    <rdf:RDF>
      <cc:Work
         rdf:about="">
        <dc:format>image/svg+xml</dc:format>
        <dc:type
           rdf:resource="http://purl.org/dc/dcmitype/StillImage" />
      </cc:Work>
    </rdf:RDF>
  </metadata>
  <defs
     id="defs846" />
  <sodipodi:namedview
     pagecolor="#ffffff"
     bordercolor="#666666"
     borderopacity="1"
     objecttolerance="10"
     gridtolerance="10"
     guidetolerance="10"
     inkscape:pageopacity="0"
     inkscape:pageshadow="2"
     inkscape:window-width="1366"
     inkscape:window-height="715"
     id="namedview844"
     showgrid="false"
     inkscape:zoom="7.375"
     inkscape:cx="16"
     inkscape:cy="16"
     inkscape:window-x="-8"
     inkscape:window-y="-8"
     inkscape:window-maximized="1"
     inkscape:current-layer="svg842" />
  <title
     id="title838">lightning</title>
  <path
     d="M12 24l2 2-2 6 6-6-2-2 2-4-6 4zM32 8.427c0-3.072-2.5-5.57-5.573-5.57-0.15 0-0.298 0.005-0.447 0.017-1.445-1.802-3.624-2.874-5.98-2.874-2.355 0-4.535 1.072-5.98 2.874-0.148-0.012-0.298-0.017-0.449-0.017-3.070 0-5.57 2.499-5.57 5.57 0 0.322 0.043 0.633 0.094 0.94-0.034 0.044-0.074 0.085-0.107 0.13-0.327-0.047-0.655-0.070-0.987-0.070-3.859 0-7 3.141-7 7s3.141 7 7 7c0.856 0 1.693-0.156 2.482-0.458 0.069 0.060 0.151 0.102 0.221 0.16l1.77-1.18c-0.59-0.418-1.141-0.883-1.602-1.438-0.813 0.572-1.801 0.915-2.871 0.915-2.762 0-5-2.237-5-5 0-2.76 2.238-5 5-5 0.676 0 1.316 0.138 1.902 0.38 0.035-0.068 0.078-0.125 0.113-0.19 0.352-0.642 0.785-1.229 1.292-1.753 1.443-1.493 3.448-2.438 5.693-2.438 3.107 0 5.771 1.792 7.096 4.38 0.353-0.146 0.729-0.24 1.117-0.302l0.787-0.078c0.771 0 1.492 0.19 2.145 0.5 0.707 0.339 1.314 0.836 1.79 1.45 0.656 0.845 1.065 1.896 1.065 3.050 0 2.763-2.238 5-5 5-1.070 0-2.057-0.344-2.871-0.915-0.875 1.055-2.027 1.848-3.322 2.348l-0.374 0.746 1.141 1.141c1.066-0.415 2.064-1.012 2.944-1.777 0.789 0.302 1.626 0.458 2.482 0.458 3.859 0 7-3.141 7-7 0-1.604-0.565-3.068-1.479-4.25 0.911-0.992 1.479-2.301 1.479-3.75zM29.098 10.779c-1.155-0.84-2.563-1.352-4.098-1.352-0.332 0-0.66 0.023-0.987 0.070-1.867-2.543-4.814-4.070-8.013-4.070-2.133 0-4.145 0.691-5.809 1.897 0.467-1.428 1.796-2.467 3.379-2.467 0.484 0 0.941 0.098 1.359 0.271 0.949-1.849 2.852-3.128 5.070-3.128s4.122 1.279 5.068 3.128c0.421-0.173 0.88-0.271 1.359-0.271 1.974 0 3.573 1.599 3.573 3.57 0 0.906-0.348 1.723-0.902 2.352z"
     id="path840" />
  <path
     style="fill:none;stroke:#000000;stroke-width:1px;stroke-linecap:butt;stroke-linejoin:miter;stroke-opacity:1"
     d="m 9.872,20.511 2.941559,3.150017"
     id="path3659"
     inkscape:connector-curvature="0" />
  <path
     style="fill:none;stroke:#000000;stroke-width:1px;stroke-linecap:butt;stroke-linejoin:miter;stroke-opacity:1"
     d="m 16,24 2.434,-0.396 c 0.363638,-0.01498 0.727589,-0.01078 1.091424,-0.01078 0.01644,0 0.201209,0.0022 0.20339,0 0.01598,-0.01598 -0.01598,-0.05182 0,-0.0678 0.01598,-0.01598 0.0452,0 0.0678,0 0.0226,0 0.0452,0 0.0678,0"
     id="path3661"
     inkscape:connector-curvature="0" />
  <path
     style="opacity:0.65399996;fill:#ffffff;fill-opacity:1;stroke:#ffffff;stroke-width:0.38435873;stroke-miterlimit:4;stroke-dasharray:none;stroke-dashoffset:0;stroke-opacity:1"
     d="m 17.20854,21.684594 c 0.468893,-0.937209 0.80721,-1.686625 0.751816,-1.665368 -0.05539,0.02126 -1.155537,0.742301 -2.444763,1.602322 -1.289226,0.860019 -2.357258,1.563672 -2.373405,1.563672 -0.01615,0 -0.67496,-0.686633 -1.464028,-1.525852 L 10.243491,20.133516 9.9717797,20.366091 C 8.9496922,21.24096 7.1454687,21.607897 5.7501957,21.224663 4.846875,20.976552 4.2049917,20.598039 3.5034908,19.899801 3.0027725,19.401412 2.8348812,19.179259 2.6047895,18.710644 1.8921446,17.259241 1.8604913,15.696994 2.516189,14.337763 c 0.6515434,-1.35062 1.6872715,-2.240432 3.1284754,-2.687729 0.7380702,-0.22907 1.9780163,-0.225561 2.7406237,0.0078 0.5111078,0.156371 0.5407811,0.158455 0.6101695,0.04285 0.6391031,-1.064806 1.4997194,-2.0542972 2.3432144,-2.6941039 0.578076,-0.4384818 1.78366,-1.0322283 2.516973,-1.239603 2.705119,-0.7649828 5.515002,-0.066912 7.563602,1.8790569 0.55615,0.528289 1.24574,1.403004 1.470043,1.864687 0.161216,0.331831 0.141085,0.329388 0.924866,0.112231 0.684006,-0.189514 1.858012,-0.177186 2.506085,0.02632 1.750525,0.549684 3.047185,1.882828 3.505169,3.603796 0.1746,0.656095 0.159852,1.783948 -0.03218,2.460961 -0.677316,2.387894 -2.868069,3.883315 -5.324236,3.634359 -0.644575,-0.06533 -1.461883,-0.336961 -1.974437,-0.656191 l -0.336548,-0.209608 -0.548983,0.527045 c -0.694147,0.666409 -1.359678,1.134315 -2.191481,1.540736 -0.35983,0.175813 -0.684745,0.357771 -0.722033,0.404351 -0.05124,0.064 -2.003063,0.43394 -2.289515,0.43394 -0.02749,0 0.33365,-0.766807 0.802543,-1.704016 z"
     id="path3663"
     inkscape:connector-curvature="0" />
</svg>
