<?xml version="1.0" encoding="UTF-8" standalone="no"?>
<!-- Generated by IcoMoon.io -->

<svg
   xmlns:dc="http://purl.org/dc/elements/1.1/"
   xmlns:cc="http://creativecommons.org/ns#"
   xmlns:rdf="http://www.w3.org/1999/02/22-rdf-syntax-ns#"
   xmlns:svg="http://www.w3.org/2000/svg"
   xmlns="http://www.w3.org/2000/svg"
   xmlns:sodipodi="http://sodipodi.sourceforge.net/DTD/sodipodi-0.dtd"
   xmlns:inkscape="http://www.inkscape.org/namespaces/inkscape"
   version="1.1"
   width="32"
   height="32"
   viewBox="0 0 32 32"
   id="svg842"
   sodipodi:docname="lightning.svg"
   inkscape:version="0.92.4 (5da689c313, 2019-01-14)">
  <metadata
     id="metadata848">
    <rdf:RDF>
      <cc:Work
         rdf:about="">
        <dc:format>image/svg+xml</dc:format>
        <dc:type
           rdf:resource="http://purl.org/dc/dcmitype/StillImage" />
      </cc:Work>
    </rdf:RDF>
  </metadata>
  <defs
     id="defs846" />
  <sodipodi:namedview
     pagecolor="#ffffff"
     bordercolor="#666666"
     borderopacity="1"
     objecttolerance="10"
     gridtolerance="10"
     guidetolerance="10"
     inkscape:pageopacity="0"
     inkscape:pageshadow="2"
     inkscape:window-width="1366"
     inkscape:window-height="715"
     id="namedview844"
     showgrid="false"
     inkscape:zoom="7.375"
     inkscape:cx="16"
     inkscape:cy="16"
     inkscape:window-x="-8"
     inkscape:window-y="-8"
     inkscape:window-maximized="1"
     inkscape:current-layer="svg842" />
  <title
     id="title838">lightning</title>
  <path
     d="M12 24l2 2-2 6 6-6-2-2 2-4-6 4zM32 8.427c0-3.072-2.5-5.57-5.573-5.57-0.15 0-0.298 0.005-0.447 0.017-1.445-1.802-3.624-2.874-5.98-2.874-2.355 0-4.535 1.072-5.98 2.874-0.148-0.012-0.298-0.017-0.449-0.017-3.070 0-5.57 2.499-5.57 5.57 0 0.322 0.043 0.633 0.094 0.94-0.034 0.044-0.074 0.085-0.107 0.13-0.327-0.047-0.655-0.070-0.987-0.070-3.859 0-7 3.141-7 7s3.141 7 7 7c0.856 0 1.693-0.156 2.482-0.458 0.069 0.060 0.151 0.102 0.221 0.16l1.77-1.18c-0.59-0.418-1.141-0.883-1.602-1.438-0.813 0.572-1.801 0.915-2.871 0.915-2.762 0-5-2.237-5-5 0-2.76 2.238-5 5-5 0.676 0 1.316 0.138 1.902 0.38 0.035-0.068 0.078-0.125 0.113-0.19 0.352-0.642 0.785-1.229 1.292-1.753 1.443-1.493 3.448-2.438 5.693-2.438 3.107 0 5.771 1.792 7.096 4.38 0.353-0.146 0.729-0.24 1.117-0.302l0.787-0.078c0.771 0 1.492 0.19 2.145 0.5 0.707 0.339 1.314 0.836 1.79 1.45 0.656 0.845 1.065 1.896 1.065 3.050 0 2.763-2.238 5-5 5-1.070 0-2.057-0.344-2.871-0.915-0.875 1.055-2.027 1.848-3.322 2.348l-0.374 0.746 1.141 1.141c1.066-0.415 2.064-1.012 2.944-1.777 0.789 0.302 1.626 0.458 2.482 0.458 3.859 0 7-3.141 7-7 0-1.604-0.565-3.068-1.479-4.25 0.911-0.992 1.479-2.301 1.479-3.75zM29.098 10.779c-1.155-0.84-2.563-1.352-4.098-1.352-0.332 0-0.66 0.023-0.987 0.070-1.867-2.543-4.814-4.070-8.013-4.070-2.133 0-4.145 0.691-5.809 1.897 0.467-1.428 1.796-2.467 3.379-2.467 0.484 0 0.941 0.098 1.359 0.271 0.949-1.849 2.852-3.128 5.070-3.128s4.122 1.279 5.068 3.128c0.421-0.173 0.88-0.271 1.359-0.271 1.974 0 3.573 1.599 3.573 3.57 0 0.906-0.348 1.723-0.902 2.352z"
     id="path840" />
  <path
     style="opacity:0.65399996;fill:#00ffff;fill-opacity:1;stroke:#00ffff;stroke-width:0.76871747;stroke-miterlimit:4;stroke-dasharray:none;stroke-dashoffset:0;stroke-opacity:1"
     d="M 28.223927,10.19325 C 27.220244,9.6694456 26.066155,9.3830508 24.959052,9.3830508 H 24.049658 L 23.190931,8.4817868 C 21.000854,6.1832251 17.911676,5.0649817 14.828981,5.4548673 13.572645,5.613763 11.774238,6.2172517 10.968933,6.7501776 c -0.289311,0.1914567 -0.551356,0.3227671 -0.582322,0.291801 -0.120582,-0.1205821 0.783797,-1.196301 1.266583,-1.5065448 0.965422,-0.6203911 1.932077,-0.7520658 3.085789,-0.4203363 0.209961,0.060371 0.329927,-0.031329 0.531365,-0.4061633 0.718039,-1.3361232 2.613759,-2.4788373 4.327291,-2.6084314 1.912592,-0.144649 3.976374,0.8446218 4.974056,2.3843066 0.40005,0.617383 0.483505,0.6790909 0.798538,0.5904489 0.19349,-0.054443 0.720872,-0.096563 1.171958,-0.0936 2.08518,0.013696 3.744307,2.0713896 3.308533,4.1033307 -0.142096,0.6625698 -0.582685,1.525524 -0.770765,1.509648 -0.05703,-0.0048 -0.442242,-0.185438 -0.856032,-0.401387 z"
     id="path1396"
     inkscape:connector-curvature="0" />
  <path
     style="opacity:0.65399996;fill:#00ffff;fill-opacity:1;stroke:#00ffff;stroke-width:5.6692915;stroke-miterlimit:4;stroke-dasharray:none;stroke-dashoffset:0;stroke-opacity:1"
     id="path1400"
     d="m 21.206703,15.816333 c 0.0024,-0.314307 0.06242,-0.669048 -0.03996,-0.974359 -0.30962,-0.923343 -1.06668,-1.543396 -1.755095,-2.177651 -1.224454,-0.928289 -2.61807,-1.732775 -4.158828,-1.977252 -0.220098,-0.03492 -0.4441,-0.03776 -0.66615,-0.05665 0.304824,-0.429249 -1.40842,0.430188 -1.097171,0.22413 0.373418,-0.247216 0.762214,-0.488228 1.187647,-0.628097 0.158269,-0.05203 -0.247805,0.224625 -0.353111,0.353727 -0.248047,0.304096 -0.294286,0.473523 -0.448592,0.825702 -0.130162,0.460124 -0.335425,0.986045 -0.141681,1.461331 0.118139,0.289812 0.212697,0.31068 0.458561,0.511937 0.792329,0.447908 1.742553,0.713258 2.657123,0.712099 0.178586,-2.26e-4 0.356283,-0.02519 0.534424,-0.03778 0.359791,-0.0665 0.536226,-0.07449 0.865167,-0.224408 0.108539,-0.04947 0.41267,-0.239331 0.307706,-0.182669 -2.323505,1.254272 -1.572359,1.081337 -1.149801,0.44841 0.220738,-0.525294 0.195653,-1.121922 0.173132,-1.681202 -0.108876,-0.95134 -0.569206,-1.208927 -1.408786,-1.526215 -0.143849,-0.02492 -0.286265,-0.06038 -0.431546,-0.07476 -0.302451,-0.02995 -0.612233,-0.02391 -0.906905,0.06149 -0.159414,0.0462 -0.601232,0.277843 -0.459897,0.190829 1.736035,-1.0688069 1.289479,-0.738326 0.675824,-0.192625 -0.62907,0.64448 -1.162084,1.380254 -1.536576,2.201399 -0.193935,0.425238 -0.225355,0.575168 -0.358328,1.009033 -0.133375,0.501624 -0.226454,1.049132 0.04182,1.527854 0.169023,0.301608 0.313867,0.379428 0.579636,0.604669 0.329015,0.197636 0.590324,0.373298 0.952254,0.512729 0.981839,0.378246 2.050181,0.455963 3.089031,0.50424 0.580785,-0.0276 0.913425,0.0051 1.458674,-0.197021 0.18835,-0.06981 0.713831,-0.367895 0.530346,-0.286146 -0.409777,0.182571 -0.770631,0.498871 -1.210092,0.588998 -0.162736,0.03337 0.212507,-0.257423 0.295373,-0.401402 0.08568,-0.148876 0.138138,-0.31455 0.207207,-0.471826 0.190212,-0.703042 0.404275,-1.602409 -0.08548,-2.244682 -0.108304,-0.142032 -0.255432,-0.249732 -0.383147,-0.374598 -1.089402,-0.82679 -2.45029,-1.04095 -3.779331,-1.141253 -0.593016,-0.008 -1.187474,0.0074 -1.764558,0.148916 0,0 1.555163,-1.177261 1.555163,-1.177261 v 0 c 0.573453,-0.08769 1.15376,-0.0927 1.732798,-0.05738 1.360799,0.146458 2.749354,0.385087 3.864184,1.237475 0.364183,0.347266 0.499169,0.39093 0.673512,0.85591 0.234767,0.626138 0.05011,1.335531 -0.08978,1.95632 -0.08457,0.229375 -0.251063,0.789283 -0.46956,0.955298 -0.05961,0.04529 -1.804933,1.314227 -2.557108,1.534254 -0.539167,0.157718 -0.889071,0.123163 -1.452238,0.133368 -1.067725,-0.06444 -2.180812,-0.137762 -3.191992,-0.523165 -0.339268,-0.12931 -0.686289,-0.355355 -0.995583,-0.540629 -0.304236,-0.254493 -0.454967,-0.330806 -0.650476,-0.673505 -0.295803,-0.518498 -0.226512,-1.111338 -0.07028,-1.658873 0.136535,-0.439298 0.179048,-0.619967 0.372335,-1.050513 0.37382,-0.83268 0.899857,-1.587649 1.512306,-2.261614 0.961384,-0.961477 0.51348,-0.588482 2.553327,-1.6907635 0.272497,-0.1472503 0.665112,-0.2059119 0.970627,-0.2102126 0.40323,-0.00568 0.533969,0.04851 0.920889,0.1374229 0.916924,0.3754962 1.395575,0.6656552 1.545393,1.7024602 0.03426,0.586485 0.06603,1.19812 -0.09762,1.768119 -0.43118,0.883225 -1.153595,0.978259 -2.170097,1.573296 -0.360096,0.210792 -0.778711,0.271812 -1.186163,0.311821 -0.180097,0.0042 -0.360276,0.01942 -0.540289,0.01253 -0.958229,-0.03666 -1.92295,-0.316549 -2.754843,-0.78645 -0.117315,-0.09717 -0.251057,-0.177385 -0.351946,-0.291521 -0.477554,-0.540258 -0.24291,-1.299112 -0.06903,-1.903174 0.147468,-0.377353 0.190656,-0.555059 0.429873,-0.891235 0.591588,-0.831372 1.444571,-1.111906 2.416856,-1.6176394 0.16607,-0.086382 0.357711,-0.117835 0.543345,-0.1419399 0.190575,-0.024746 0.384344,-0.00232 0.576515,-0.00348 0.219988,0.030028 0.442379,0.04589 0.659965,0.090083 1.53777,0.3123253 2.90377,1.1589543 4.130526,2.1022333 0.721461,0.642675 1.555013,1.291545 1.965898,2.199554 0.13092,0.289317 0.09445,0.652077 0.134576,0.960275 0,0 -1.789984,0.912043 -1.789984,0.912043 z"
     inkscape:connector-curvature="0" />
  <path
     style="opacity:0.65399996;fill:#00ffff;fill-opacity:1;stroke:#00ffff;stroke-width:5.6692915;stroke-miterlimit:4;stroke-dasharray:none;stroke-dashoffset:0;stroke-opacity:1"
     id="path1402"
     d="m 5.7341165,14.692109 c -0.5571706,-0.03185 -1.0296277,-0.02747 -1.5696626,0.136297 -0.7035203,0.303068 -0.7928277,0.352524 1.1989403,-0.707817 0.065469,-0.03485 -0.1203892,0.08707 -0.1759288,0.136224 -0.1561999,0.138243 -0.2549984,0.293108 -0.3497713,0.475751 -0.1380773,0.316129 -0.1525224,0.660092 -0.1600933,0.999493 -8.827e-4,0.352689 -0.010556,0.706179 0.012797,1.058261 0.076041,0.429219 0.260325,0.80779 0.5744314,1.10951 0.3363854,0.229403 0.7484296,0.224175 1.1399672,0.238825 0.3698692,0.0049 0.7546001,0.01242 1.1096208,-0.107465 0.081554,-0.02754 0.3507095,-0.148891 0.4343734,-0.185983 0.7260548,-0.455309 -0.2410792,0.154524 -1.3985971,0.785294 -0.039993,0.02179 0.070363,-0.05831 0.1010792,-0.09193 0.096825,-0.106007 0.1288385,-0.224517 0.1617739,-0.360155 0.045821,-0.289354 0.037127,-0.58359 0.033884,-0.875511 0.011744,-0.253077 -0.011241,-0.497762 -0.062234,-0.74478 -0.060578,-0.25841 -0.1742075,-0.487684 -0.3504472,-0.68542 -0.08745,-0.06744 -0.1912935,-0.166594 -0.3135727,-0.156031 -0.052755,0.0046 -0.1647479,0.131406 -0.1182492,0.106074 0.5577141,-0.303838 1.1010356,-0.63338 1.6515535,-0.95007 -0.2111422,0.147336 -0.2218206,0.441911 -0.2436047,0.676693 0.00594,0.167485 -0.00668,0.09001 0.031451,0.233366 0,0 -1.7574726,0.958099 -1.7574726,0.958099 v 0 c -0.057717,-0.191956 -0.038282,-0.09221 -0.055938,-0.299685 0.014962,-0.282358 0.032411,-0.567524 0.1548049,-0.827878 0.9759398,-0.572763 1.5551321,-1.529221 2.3599391,-0.770029 0.1902736,0.228738 0.3320015,0.479369 0.4085019,0.768781 0.053634,0.259859 0.092585,0.515146 0.074006,0.782219 0.00299,0.303751 0.00952,0.608396 -0.01907,0.911233 -0.012989,0.09641 -0.026067,0.225937 -0.056097,0.3194 -0.017855,0.05557 -0.099473,0.23317 -0.1514532,0.266333 -1.4318216,0.913494 -1.2272555,0.809544 -2.0022381,1.17741 C 5.8687928,19.27172 5.3725975,19.320604 4.8072859,19.288668 4.3644209,19.266546 3.9224558,19.240023 3.5722025,18.934099 3.250002,18.58383 3.0399828,18.171542 2.9300106,17.707504 c -0.040685,-0.35671 -0.021844,-0.716329 -0.028737,-1.074925 0.00673,-0.362243 0.011507,-0.730347 0.1322245,-1.076416 0.059887,-0.147368 0.092873,-0.250277 0.1839283,-0.383802 0.040714,-0.0597 0.2547465,-0.307192 0.3118686,-0.341979 1.7340675,-1.056036 1.2505743,-0.871846 2.1867705,-1.190498 0.5420899,-0.117403 1.0902415,-0.124655 1.6433218,-0.128603 0,0 -1.6252711,1.180828 -1.6252708,1.180828 z"
     inkscape:connector-curvature="0" />
  <path
     style="opacity:0.65399996;fill:#00ffff;fill-opacity:1;stroke:#00ffff;stroke-width:5.6692915;stroke-miterlimit:4;stroke-dasharray:none;stroke-dashoffset:0;stroke-opacity:1"
     id="path1406"
     d="m 13.263715,19.163827 c 0.29888,0.198093 0.594368,0.407462 0.915938,0.567981 0.303926,0.136271 0.5675,0.128644 0.885104,0.08149 0.321582,-0.05025 0.648175,-0.04488 0.972694,-0.05181 0.236692,-0.02645 0.469247,-0.06013 0.68253,-0.172398 0.05,-0.02632 0.194394,-0.115291 0.145207,-0.08748 -0.524821,0.296786 -1.048108,0.596277 -1.572163,0.894415 0.282019,-0.215645 0.501215,-0.502133 0.700611,-0.79298 0.03388,-0.04715 0.06776,-0.09431 0.101647,-0.141462 0,0 1.828744,-0.784044 1.828744,-0.784044 v 0 c -0.03672,0.04342 -0.07343,0.08683 -0.110149,0.130252 -0.200647,0.302389 -0.40962,0.598749 -0.668094,0.854996 -0.976279,0.577009 -1.634577,1.225753 -2.709775,1.268463 -0.327014,0.0097 -0.652932,0.02979 -0.977104,0.07577 -0.329339,0.0238 -0.645026,-0.03918 -0.942836,-0.186568 -0.318537,-0.179358 -0.617786,-0.390791 -0.939625,-0.56493 0,0 1.687271,-1.091696 1.687271,-1.091696 z"
     inkscape:connector-curvature="0" />
  <path
     style="opacity:0.65399996;fill:#00ffff;fill-opacity:1;stroke:#00ffff;stroke-width:5.6692915;stroke-miterlimit:4;stroke-dasharray:none;stroke-dashoffset:0;stroke-opacity:1"
     id="path1408"
     d="m 18.12667,21.194372 c 0.347168,-0.245105 0.630717,-0.585445 0.87279,-0.932608 0.164173,-0.275405 0.278252,-0.577687 0.389731,-0.877438 0,0 1.814302,-0.83974 1.814302,-0.83974 v 0 c -0.130362,0.308422 -0.236069,0.627862 -0.394811,0.92418 -0.228196,0.367648 -0.518996,0.68087 -0.807057,1.002258 0,0 -1.874955,0.723348 -1.874955,0.723348 z"
     inkscape:connector-curvature="0" />
  <path
     style="opacity:0.65399996;fill:#00ffff;fill-opacity:1;stroke:#00ffff;stroke-width:5.6692915;stroke-miterlimit:4;stroke-dasharray:none;stroke-dashoffset:0;stroke-opacity:1"
     id="path1410"
     d="m 26.096488,15.535016 c -0.110732,0.38277 -0.297939,0.733334 -0.472594,1.089147 -0.186033,0.332366 -0.330899,0.68086 -0.411683,1.052966 -0.02126,0.260252 -0.14043,0.593738 0.02641,0.821973 0.322974,0.196269 0.701567,0.242896 1.070022,0.281523 0.165619,-0.0072 0.212398,0.0043 0.365249,-0.0512 0.05024,-0.01824 0.190699,-0.09649 0.14409,-0.07034 -2.538476,1.424529 -1.793618,1.237783 -1.361956,0.607355 0.180311,-0.322966 0.194235,-0.697582 0.277052,-1.050563 0.09305,-0.303476 0.162747,-0.6115 0.199225,-0.926703 0.05195,-0.366595 -0.0072,-0.726756 -0.110989,-1.078553 -0.09702,-0.310579 -0.220655,-0.608701 -0.429208,-0.86001 -0.176555,-0.182032 -0.381666,-0.31098 -0.6115,-0.414149 -0.304919,-0.110123 -0.635083,-0.106586 -0.95503,-0.117094 -0.534299,-0.05073 -1.053185,0.05349 -1.574432,0.152589 -0.07134,0.02007 -0.142673,0.04014 -0.21401,0.06021 0,0 1.570626,-1.200577 1.570626,-1.200577 v 0 c 0.07242,-0.01561 0.144838,-0.03123 0.217258,-0.04685 0.530122,-0.09148 1.060436,-0.159558 1.60014,-0.120054 0.349032,0.01 0.704749,0.01296 1.025477,0.169874 0.246909,0.127575 0.46909,0.279996 0.653617,0.49123 0.219443,0.276328 0.356214,0.598065 0.454941,0.935989 0.107618,0.369571 0.205235,0.751681 0.161759,1.139303 -0.03045,0.326372 -0.08997,0.647855 -0.195575,0.959097 -0.107257,0.362335 -0.107452,0.747415 -0.252815,1.100317 -0.46883,0.90472 -1.566108,1.529349 -2.578609,1.463172 -0.414319,-0.05891 -0.855946,-0.125429 -1.179343,-0.413453 -0.03149,-0.04918 -0.07133,-0.09392 -0.09446,-0.147548 -0.10701,-0.248175 -0.007,-0.55858 -8.92e-4,-0.81585 0.07097,-0.390489 0.204899,-0.76027 0.401053,-1.106521 0.172791,-0.340343 0.370677,-0.677982 0.459001,-1.05187 0,0 1.817175,-0.853413 1.817175,-0.853413 z"
     inkscape:connector-curvature="0" />
</svg>
