<?xml version="1.0" encoding="UTF-8" standalone="no"?>
<!-- Generated by IcoMoon.io -->

<svg
   xmlns:dc="http://purl.org/dc/elements/1.1/"
   xmlns:cc="http://creativecommons.org/ns#"
   xmlns:rdf="http://www.w3.org/1999/02/22-rdf-syntax-ns#"
   xmlns:svg="http://www.w3.org/2000/svg"
   xmlns="http://www.w3.org/2000/svg"
   xmlns:sodipodi="http://sodipodi.sourceforge.net/DTD/sodipodi-0.dtd"
   xmlns:inkscape="http://www.inkscape.org/namespaces/inkscape"
   version="1.1"
   width="32"
   height="32"
   viewBox="0 0 32 32"
   id="svg842"
   sodipodi:docname="lightning.svg"
   inkscape:version="0.92.4 (5da689c313, 2019-01-14)">
  <metadata
     id="metadata848">
    <rdf:RDF>
      <cc:Work
         rdf:about="">
        <dc:format>image/svg+xml</dc:format>
        <dc:type
           rdf:resource="http://purl.org/dc/dcmitype/StillImage" />
      </cc:Work>
    </rdf:RDF>
  </metadata>
  <defs
     id="defs846" />
  <sodipodi:namedview
     pagecolor="#ffffff"
     bordercolor="#666666"
     borderopacity="1"
     objecttolerance="10"
     gridtolerance="10"
     guidetolerance="10"
     inkscape:pageopacity="0"
     inkscape:pageshadow="2"
     inkscape:window-width="1366"
     inkscape:window-height="715"
     id="namedview844"
     showgrid="false"
     inkscape:zoom="20.85965"
     inkscape:cx="21.026302"
     inkscape:cy="13.832162"
     inkscape:window-x="-8"
     inkscape:window-y="-8"
     inkscape:window-maximized="1"
     inkscape:current-layer="svg842" />
  <title
     id="title838">lightning</title>
  <path
     d="M12 24l2 2-2 6 6-6-2-2 2-4-6 4zM32 8.427c0-3.072-2.5-5.57-5.573-5.57-0.15 0-0.298 0.005-0.447 0.017-1.445-1.802-3.624-2.874-5.98-2.874-2.355 0-4.535 1.072-5.98 2.874-0.148-0.012-0.298-0.017-0.449-0.017-3.070 0-5.57 2.499-5.57 5.57 0 0.322 0.043 0.633 0.094 0.94-0.034 0.044-0.074 0.085-0.107 0.13-0.327-0.047-0.655-0.070-0.987-0.070-3.859 0-7 3.141-7 7s3.141 7 7 7c0.856 0 1.693-0.156 2.482-0.458 0.069 0.060 0.151 0.102 0.221 0.16l1.77-1.18c-0.59-0.418-1.141-0.883-1.602-1.438-0.813 0.572-1.801 0.915-2.871 0.915-2.762 0-5-2.237-5-5 0-2.76 2.238-5 5-5 0.676 0 1.316 0.138 1.902 0.38 0.035-0.068 0.078-0.125 0.113-0.19 0.352-0.642 0.785-1.229 1.292-1.753 1.443-1.493 3.448-2.438 5.693-2.438 3.107 0 5.771 1.792 7.096 4.38 0.353-0.146 0.729-0.24 1.117-0.302l0.787-0.078c0.771 0 1.492 0.19 2.145 0.5 0.707 0.339 1.314 0.836 1.79 1.45 0.656 0.845 1.065 1.896 1.065 3.050 0 2.763-2.238 5-5 5-1.070 0-2.057-0.344-2.871-0.915-0.875 1.055-2.027 1.848-3.322 2.348l-0.374 0.746 1.141 1.141c1.066-0.415 2.064-1.012 2.944-1.777 0.789 0.302 1.626 0.458 2.482 0.458 3.859 0 7-3.141 7-7 0-1.604-0.565-3.068-1.479-4.25 0.911-0.992 1.479-2.301 1.479-3.75zM29.098 10.779c-1.155-0.84-2.563-1.352-4.098-1.352-0.332 0-0.66 0.023-0.987 0.070-1.867-2.543-4.814-4.070-8.013-4.070-2.133 0-4.145 0.691-5.809 1.897 0.467-1.428 1.796-2.467 3.379-2.467 0.484 0 0.941 0.098 1.359 0.271 0.949-1.849 2.852-3.128 5.070-3.128s4.122 1.279 5.068 3.128c0.421-0.173 0.88-0.271 1.359-0.271 1.974 0 3.573 1.599 3.573 3.57 0 0.906-0.348 1.723-0.902 2.352z"
     id="path840" />
  <path
     style="fill:none;stroke:#000000;stroke-width:1px;stroke-linecap:butt;stroke-linejoin:miter;stroke-opacity:1"
     d="M 9.872,20.511 12,24"
     id="path827"
     inkscape:connector-curvature="0" />
  <path
     style="fill:none;stroke:#000000;stroke-width:1px;stroke-linecap:butt;stroke-linejoin:miter;stroke-opacity:1"
     d="M 14.237288,23.864407 18.808,22.858"
     id="path829"
     inkscape:connector-curvature="0" />
  <path
     style="fill:none;stroke:#000000;stroke-width:1px;stroke-linecap:butt;stroke-linejoin:miter;stroke-opacity:1"
     d="M 14.237288,23.864407 9.483,22.969"
     id="path831"
     inkscape:connector-curvature="0" />
  <path
     style="opacity:0.65399996;fill:#ffffff;fill-opacity:1;stroke:#b3b3b3;stroke-width:0.76871747;stroke-miterlimit:4;stroke-dasharray:none;stroke-dashoffset:0;stroke-opacity:1"
     d="m 12.464997,22.980576 c -0.327725,-0.04951 -1.103617,-0.819029 -0.912455,-0.904958 0.03729,-0.01676 -0.08475,-0.212803 -0.271186,-0.435649 -0.186441,-0.222846 -0.459638,-0.631139 -0.607106,-0.907317 -0.147467,-0.276179 -0.316476,-0.502144 -0.375576,-0.502144 -0.0591,0 -0.3437173,0.149148 -0.632485,0.331439 -0.9120163,0.57573 -1.8055819,0.794362 -2.9658173,0.725656 -1.3146628,-0.07785 -2.1077924,-0.420769 -3.0633,-1.324448 C 2.5685255,18.952568 2.1302582,17.926614 2.129443,16.433898 2.1288909,15.423041 2.1806282,15.173008 2.5503006,14.4 c 0.5057012,-1.057453 1.3435238,-1.915067 2.3572622,-2.412946 0.6524234,-0.320425 0.909273,-0.366715 2.0348101,-0.366715 0.7084746,0 1.4467979,0.05009 1.6407185,0.1113 0.3201026,0.101046 0.3928843,0.0485 0.7900652,-0.570457 1.3707094,-2.1360658 4.1275684,-3.6731359 6.5861654,-3.6720776 2.5955,0.00112 5.419374,1.5510488 6.644068,3.6467106 0.397436,0.680082 0.41768,0.693641 0.881356,0.590297 0.261017,-0.05818 1.023729,-0.105193 1.694915,-0.104484 1.128311,0.0012 1.284435,0.03595 2.070283,0.460896 3.543183,1.915967 3.547171,6.780872 0.0071,8.700238 -0.81352,0.441081 -0.925981,0.464696 -2.213008,0.464696 -1.213691,0 -1.437826,-0.04022 -2.136601,-0.383347 l -0.780667,-0.383347 -0.800061,0.72233 c -0.440034,0.397282 -1.147533,0.905381 -1.572222,1.129109 -0.690812,0.363924 -0.78726,0.383714 -0.915475,0.187846 -0.129885,-0.198421 -0.224753,-0.20036 -1.012431,-0.02069 -0.478014,0.109036 -0.899209,0.168156 -0.935986,0.131378 -0.03678,-0.03678 0.215322,-0.628746 0.560223,-1.315484 0.3449,-0.686738 0.598558,-1.277147 0.563687,-1.31202 -0.03487,-0.03487 -1.121459,0.642676 -2.414636,1.505664 -1.293177,0.862987 -2.443028,1.559926 -2.555226,1.548752 -0.112197,-0.01117 -0.373051,-0.04586 -0.579675,-0.07707 z"
     id="path833"
     inkscape:connector-curvature="0" />
  <path
     style="opacity:0.65399996;fill:#ffffff;fill-opacity:1;stroke:#ffffff;stroke-width:0.76871747;stroke-miterlimit:4;stroke-dasharray:none;stroke-dashoffset:0;stroke-opacity:1"
     d="m 12.705085,22.565684 c -0.288673,-0.06183 -0.745763,-0.41458 -0.745763,-0.575524 0,-0.177548 -1.245644,-1.961411 -1.45204,-2.079439 -0.136287,-0.07794 -0.5460785,0.04244 -1.2401594,0.364307 C 8.0250888,20.850991 7.2562365,20.98024 6.2159985,20.787941 5.1561188,20.592012 4.6500062,20.328262 3.8972914,19.579595 2.9292039,18.616715 2.6990495,18.076319 2.6299351,16.603881 2.5759494,15.453749 2.601202,15.288579 2.9354924,14.605314 3.3790647,13.698685 4.2844504,12.766646 5.1096118,12.367192 5.646768,12.107159 5.9206932,12.073611 7.315698,12.097006 c 0.8760272,0.01469 1.6615507,0.02023 1.7456078,0.01231 0.084057,-0.0079 0.454961,-0.428491 0.8242309,-0.9346 1.1382183,-1.5600059 2.9009953,-2.6865007 4.8738833,-3.1146339 2.768362,-0.6007573 6.041334,0.9127753 7.625654,3.5263589 0.169527,0.279661 0.379525,0.516197 0.466663,0.525636 0.08714,0.0094 0.896445,0.0034 1.798458,-0.01347 1.451661,-0.02711 1.706281,0.0032 2.216871,0.263658 0.828042,0.422436 1.737909,1.309286 2.154587,2.100083 0.316503,0.600678 0.360095,0.839349 0.360095,1.971545 0,1.132197 -0.04359,1.370868 -0.360095,1.971546 -0.411949,0.78182 -1.324627,1.676668 -2.128195,2.086618 -0.449481,0.229308 -0.793946,0.279595 -1.877886,0.274143 -1.154551,-0.0058 -1.433394,-0.05547 -2.140996,-0.381286 L 22.061017,20.01031 21.18986,20.749134 c -1.338745,1.135385 -1.682752,1.299863 -2.732147,1.306305 l -0.908638,0.0056 0.391565,-0.775795 c 0.21536,-0.426681 0.391563,-0.96058 0.391563,-1.186435 0,-0.707015 -0.503106,-0.538359 -2.756732,0.924135 -2.405422,1.561002 -2.513657,1.619177 -2.870386,1.542767 z"
     id="path835"
     inkscape:connector-curvature="0" />
  <path
     style="opacity:0.65399996;fill:#ffffff;fill-opacity:1;stroke:#ffffff;stroke-width:0.76871747;stroke-miterlimit:4;stroke-dasharray:none;stroke-dashoffset:0;stroke-opacity:1"
     d="m 12.264407,22.444146 c -0.167797,-0.117049 -0.305085,-0.275891 -0.305085,-0.352981 0,-0.211436 -1.255337,-2.005439 -1.491864,-2.132024 C 10.33212,19.88671 9.9117506,20.019379 9.2458132,20.344694 8.2894788,20.811871 8.1556918,20.840323 6.9423729,20.834563 5.8729928,20.829487 5.5540838,20.776041 5.0644864,20.519846 4.1755531,20.054688 3.3300627,19.204549 2.9172623,18.360815 2.602762,17.718 2.5474539,17.431945 2.5465185,16.443323 2.545568,15.438811 2.5959253,15.184233 2.9181386,14.564623 3.4235223,13.59278 4.0747235,12.902142 4.9351115,12.425502 5.6269664,12.042226 5.7208529,12.027119 7.4108678,12.027119 H 9.1674983 L 9.674544,11.349153 c 1.163475,-1.5556727 2.95741,-2.8056819 4.664751,-3.2503878 2.823392,-0.7354003 6.126873,0.594299 7.906773,3.1825908 l 0.51284,0.745763 h 1.824445 1.824445 l 0.794851,0.474576 c 3.053619,1.8232 3.054171,6.039127 0.0011,7.864407 -0.768325,0.459333 -0.837532,0.474437 -2.154682,0.470234 -1.212038,-0.0039 -1.438217,-0.04464 -2.068218,-0.372881 -0.389101,-0.202697 -0.777157,-0.36854 -0.8624,-0.36854 -0.08524,0 -0.49339,0.309281 -0.906994,0.687292 -0.986084,0.901225 -2.05946,1.520565 -2.295616,1.324573 -0.105939,-0.08792 -0.414337,-0.108737 -0.785779,-0.05304 -0.33627,0.05043 -0.611401,0.0557 -0.611401,0.01172 0,-0.04399 0.186601,-0.449627 0.414669,-0.901426 0.903515,-1.789854 0.295065,-1.813545 -2.373183,-0.0924 -2.551682,1.645948 -2.473293,1.600533 -2.74858,1.592445 -0.133132,-0.0039 -0.379347,-0.10288 -0.547143,-0.219929 z"
     id="path837"
     inkscape:connector-curvature="0" />
  <path
     style="opacity:0.65399996;fill:#ffffff;fill-opacity:1;stroke:#ffffff;stroke-width:0.76871747;stroke-miterlimit:4;stroke-dasharray:none;stroke-dashoffset:0;stroke-opacity:1"
     d="m 12.128814,22.672673 c -0.242373,-0.147778 -0.441599,-0.345855 -0.442725,-0.440171 -0.0035,-0.297352 -1.360788,-2.028872 -1.531148,-1.953386 -1.8347426,0.812971 -1.9110424,0.832748 -3.2125681,0.832748 -1.1375405,0 -1.3788796,-0.04456 -2.0643263,-0.381156 C 3.9083755,20.254542 2.8290525,19.080133 2.5279377,18.173561 2.4015789,17.793131 2.3053251,17.023629 2.2976859,16.332811 2.2863595,15.308567 2.3323812,15.052779 2.6332415,14.467797 3.129701,13.502498 3.9505275,12.624494 4.7924872,12.158142 5.4842175,11.775001 5.6010667,11.755017 7.2571799,11.73663 l 1.7385359,-0.0193 0.7221383,-0.875482 c 1.2342179,-1.4963028 2.5733789,-2.4065621 4.3235469,-2.93882 2.93572,-0.8928056 6.347179,0.3458588 8.315135,3.019137 l 0.591094,0.802944 1.793981,0.01541 c 1.714916,0.01473 1.822976,0.03245 2.451857,0.4021 0.837317,0.492162 1.581919,1.236764 2.07408,2.07408 0.364635,0.620355 0.386689,0.746807 0.386689,2.217197 0,1.451707 -0.02538,1.602502 -0.367811,2.184987 -0.495198,0.842352 -1.500549,1.811303 -2.261615,2.179728 -0.888787,0.430255 -2.985913,0.42101 -4.123794,-0.01818 l -0.787119,-0.303805 -0.704406,0.562881 c -1.507657,1.204747 -1.647832,1.269651 -2.881996,1.334428 -1.395827,0.07326 -1.498951,-0.04955 -0.961594,-1.145203 0.406769,-0.829385 0.461439,-1.201944 0.159366,-1.086028 -0.110086,0.04224 -1.010086,0.588594 -2,1.21411 -2.789805,1.762848 -2.835756,1.779661 -3.596454,1.315855 z"
     id="path839"
     inkscape:connector-curvature="0" />
  <path
     style="opacity:0.65399996;fill:#ffffff;fill-opacity:1;stroke:#ffffff;stroke-width:0.76871747;stroke-miterlimit:4;stroke-dasharray:none;stroke-dashoffset:0;stroke-opacity:1"
     d="m 12.54862,22.982308 c -0.405505,-0.0769 -0.772336,-0.480353 -1.542466,-1.696476 L 10.343522,20.23946 9.4506427,20.657288 C 8.4064145,21.145942 7.4952507,21.288103 6.2441559,21.157573 5.1303708,21.041367 4.4417672,20.70004 3.577485,19.835758 2.5773252,18.835598 2.2742184,18.115314 2.217512,16.604004 2.173895,15.441544 2.2002601,15.28673 2.5800706,14.475094 3.0758078,13.415728 3.9934274,12.464029 4.9473473,12.019901 5.5730538,11.728582 5.8436574,11.690633 7.3035793,11.68946 l 1.6493418,-0.0013 0.6959357,-0.874595 C 11.107522,8.9804119 13.334685,7.7286998 15.476161,7.5384745 c 2.408202,-0.2139183 5.257166,1.1394509 6.852518,3.2552135 l 0.674442,0.894448 1.766236,0.0013 c 1.695439,0.0012 1.793412,0.01686 2.444202,0.390244 0.861439,0.494236 1.90052,1.601307 2.277465,2.426487 0.419159,0.91759 0.418105,2.940174 -0.002,3.860066 -0.3943,0.863351 -1.538264,2.047932 -2.385383,2.470069 -0.59677,0.297384 -0.867526,0.343385 -2.021086,0.343385 -1.1062,0 -1.472736,-0.05719 -2.162168,-0.337326 l -0.830164,-0.337326 -0.518764,0.468672 c -0.28532,0.257771 -0.861238,0.696063 -1.279815,0.973983 -0.742334,0.492881 -0.79099,0.505014 -1.978474,0.493358 -0.669582,-0.0066 -1.242599,-0.03712 -1.273368,-0.06789 -0.03077,-0.03077 0.118186,-0.424144 0.331012,-0.874164 0.212826,-0.45002 0.430454,-0.955268 0.483617,-1.122771 0.09008,-0.283825 0.07502,-0.29312 -0.221254,-0.136581 -0.174854,0.09239 -1.202662,0.729648 -2.284017,1.416141 -2.03212,1.290079 -2.306788,1.420183 -2.800533,1.326555 z"
     id="path841"
     inkscape:connector-curvature="0" />
  <path
     style="opacity:0.65399996;fill:#ffffff;fill-opacity:1;stroke:#ffffff;stroke-width:0.76871747;stroke-miterlimit:4;stroke-dasharray:none;stroke-dashoffset:0;stroke-opacity:1"
     d="m 12.244257,22.959887 c -0.207527,-0.05809 -0.526504,-0.419309 -0.881356,-0.998059 -0.305867,-0.498857 -0.679318,-1.069966 -0.829892,-1.269129 l -0.27377,-0.362116 -0.8203933,0.414133 C 8.2312324,21.354317 7.1965708,21.507467 5.9880952,21.255493 1.8397137,20.39053 0.6421867,15.026648 4.0271186,12.472018 5.17151,11.608338 6.5076347,11.328017 8.2408083,11.58798 l 0.688266,0.103235 0.521592,-0.757328 C 10.500906,9.408986 12.296388,8.1621506 14.128814,7.6852455 c 1.180595,-0.3072605 3.251854,-0.2121405 4.436987,0.203763 1.601093,0.5618785 3.411688,1.9934963 4.123917,3.2607375 l 0.306721,0.545739 0.820425,-0.10537 c 2.128807,-0.273409 3.487811,0.133165 4.688423,1.402634 1.033868,1.093164 1.414266,2.018735 1.414266,3.441149 0,0.974477 -0.05819,1.278236 -0.376659,1.966102 -0.448319,0.968343 -1.410362,2.0005 -2.280263,2.446452 -1.313918,0.673574 -3.138284,0.684288 -4.467958,0.02624 l -0.628872,-0.311225 -0.730358,0.645859 c -0.750299,0.663493 -2.099052,1.46386 -2.466852,1.46386 -0.113855,0 -0.227664,-0.06196 -0.252908,-0.137699 -0.03032,-0.09096 -0.272149,-0.09543 -0.71249,-0.01317 -1.162116,0.217107 -1.249845,0.04237 -0.61256,-1.220085 0.227899,-0.451465 0.394488,-0.880463 0.370201,-0.953328 -0.02429,-0.07287 -1.031536,0.511814 -2.238328,1.299289 -2.210925,1.442706 -2.460346,1.542657 -3.278249,1.313692 z"
     id="path843"
     inkscape:connector-curvature="0" />
  <path
     style="opacity:0.65399996;fill:#ffffff;fill-opacity:1;stroke:#ffffff;stroke-width:0.76871747;stroke-miterlimit:4;stroke-dasharray:none;stroke-dashoffset:0;stroke-opacity:1"
     d="M 28.223927,10.19325 C 27.220244,9.6694456 26.066155,9.3830508 24.959052,9.3830508 H 24.049658 L 23.190931,8.4817868 C 21.000854,6.1832251 17.911676,5.0649817 14.828981,5.4548673 13.572645,5.613763 11.774238,6.2172517 10.968933,6.7501776 c -0.289311,0.1914567 -0.551356,0.3227671 -0.582322,0.291801 -0.120582,-0.1205821 0.783797,-1.196301 1.266583,-1.5065448 0.965422,-0.6203911 1.932077,-0.7520658 3.085789,-0.4203363 0.209961,0.060371 0.329927,-0.031329 0.531365,-0.4061633 0.718039,-1.3361232 2.613759,-2.4788373 4.327291,-2.6084314 1.912592,-0.144649 3.976374,0.8446218 4.974056,2.3843066 0.40005,0.617383 0.483505,0.6790909 0.798538,0.5904489 0.19349,-0.054443 0.720872,-0.096563 1.171958,-0.0936 2.08518,0.013696 3.744307,2.0713896 3.308533,4.1033307 -0.142096,0.6625698 -0.582685,1.525524 -0.770765,1.509648 -0.05703,-0.0048 -0.442242,-0.185438 -0.856032,-0.401387 z"
     id="path845"
     inkscape:connector-curvature="0" />
  <path
     style="opacity:0.65399996;fill:#ffffff;fill-opacity:1;stroke:#ffffff;stroke-width:0.76871747;stroke-miterlimit:4;stroke-dasharray:none;stroke-dashoffset:0;stroke-opacity:1"
     d="M 28.298305,10.251525 C 27.270209,9.6852651 26.116791,9.3831338 24.981681,9.3827547 L 24.094915,9.3824586 22.942373,8.2628014 C 20.948663,6.3259775 18.76787,5.4338353 16.027119,5.4338353 c -1.72229,0 -3.057433,0.3141697 -4.49297,1.0572311 -0.549206,0.2842796 -1.049389,0.539403 -1.111518,0.5669411 -0.06213,0.027538 -0.02157,-0.1245024 0.09013,-0.3378676 0.260903,-0.4983718 0.981489,-1.17534 1.563517,-1.4688739 0.610322,-0.3078039 1.781578,-0.4169118 2.344996,-0.2184474 0.408825,0.1440085 0.473264,0.1308366 0.656696,-0.1342324 0.48046,-0.6942917 1.569319,-1.7726449 2.109661,-2.0893062 2.468485,-1.4466289 5.87893,-0.6619195 7.426609,1.708789 0.290884,0.4455724 0.49558,0.6333978 0.633222,0.5810364 0.111864,-0.042555 0.515384,-0.1105314 0.896711,-0.1510581 1.800753,-0.1913806 3.459733,1.144345 3.775922,3.0401762 0.105989,0.6354962 -0.166594,1.7663487 -0.568425,2.3581975 l -0.239802,0.353201 z"
     id="path847"
     inkscape:connector-curvature="0" />
  <path
     style="opacity:0.65399996;fill:#ffffff;fill-opacity:1;stroke:#ffffff;stroke-width:0.76871747;stroke-miterlimit:4;stroke-dasharray:none;stroke-dashoffset:0;stroke-opacity:1"
     d="M 28.508494,10.394967 C 27.760785,9.8676834 26.391836,9.4741957 25.157715,9.431827 L 24.051022,9.3938331 23.053203,8.3960132 C 21.901137,7.2439468 20.619009,6.4393619 19.077966,5.9013966 18.080913,5.5533337 17.834277,5.5229685 16.027119,5.5257851 c -1.766538,0.00275 -2.076206,0.039907 -3.050848,0.3660363 -0.59661,0.1996346 -1.435593,0.5742429 -1.864407,0.8324628 -0.428813,0.2582198 -0.779661,0.411617 -0.779661,0.3408826 0,-0.2447747 0.684132,-1.1610991 1.092045,-1.4626821 0.83671,-0.6186065 2.31748,-0.8860202 3.151132,-0.5690661 0.298183,0.1133687 0.380084,0.051978 0.88406,-0.6626579 0.640171,-0.9077626 1.867353,-1.7952178 2.911033,-2.1051574 1.360155,-0.4039225 3.293134,-0.1787447 4.436307,0.5167969 0.665816,0.4051033 1.574048,1.2624338 1.90546,1.7986684 l 0.280136,0.4532688 1.044507,-0.080547 c 0.894896,-0.069009 1.145781,-0.03698 1.751548,0.2236139 1.419804,0.6107832 2.349268,2.1873387 2.151852,3.6499676 -0.08752,0.6484103 -0.600012,1.7955021 -0.831114,1.8602421 -0.07309,0.02048 -0.343398,-0.111215 -0.600675,-0.292647 z"
     id="path849"
     inkscape:connector-curvature="0" />
  <path
     style="opacity:0.65399996;fill:#ffffff;fill-opacity:1;stroke:#00ffff;stroke-width:0.76871747;stroke-miterlimit:4;stroke-dasharray:none;stroke-dashoffset:0;stroke-opacity:1"
     d="M 28.433898,10.456123 C 27.41984,9.8603999 26.183387,9.5186441 25.042153,9.5186441 H 24.051854 L 22.920225,8.4 C 20.121778,5.6336651 16.297009,4.784562 12.643783,6.1186188 c -0.562894,0.2055535 -1.328529,0.564083 -1.70141,0.7967324 -0.731858,0.4566228 -0.876935,0.402807 -0.561019,-0.2081075 0.740192,-1.4313732 2.8709,-2.2827215 4.320696,-1.7263825 0.15594,0.05984 0.283972,-0.034668 0.430295,-0.3176257 0.339111,-0.6557693 1.415289,-1.6381288 2.26382,-2.0664656 2.584504,-1.3046538 5.683502,-0.5253354 7.309649,1.8381896 l 0.384564,0.5589446 0.790404,-0.1303632 c 1.55431,-0.2563561 3.1248,0.5737205 3.790581,2.0034953 0.547985,1.1768095 0.383547,2.8247264 -0.37521,3.7601658 -0.17003,0.209622 -0.236746,0.196385 -0.862255,-0.171079 z"
     id="path851"
     inkscape:connector-curvature="0" />
  <path
     style="opacity:0.65399996;fill:#ffffff;fill-opacity:1;stroke:#00ffff;stroke-width:0.76871747;stroke-miterlimit:4;stroke-dasharray:none;stroke-dashoffset:0;stroke-opacity:1"
     d="m 12.230508,31.615218 c 0,-0.03877 0.396611,-1.256807 0.881356,-2.706743 0.484746,-1.449937 0.881356,-2.728098 0.881356,-2.84036 0,-0.11226 -0.437474,-0.644523 -0.972163,-1.182805 -0.794274,-0.799611 -1.01625,-0.955101 -1.2131,-0.849751 -0.1756,0.09398 -0.272752,0.07209 -0.358263,-0.08071 -0.07133,-0.127467 -0.472826,-0.26856 -1.024189,-0.359924 -0.7382506,-0.122332 -0.9068609,-0.196966 -0.9068609,-0.401414 0,-0.301485 0.058954,-0.298369 -0.9032284,-0.04775 C 4.7739455,24.146339 0.76771841,21.42026 0.14657082,17.383051 -0.26645713,14.698536 1.1520881,11.833784 3.6036828,10.401416 4.5444841,9.8517437 5.870267,9.5186441 7.1172381,9.5186441 H 8.1793283 L 8.0916453,8.9339322 C 7.8848296,7.5547859 8.5715608,5.7041337 9.7141184,4.561576 10.604781,3.6709129 11.66669,3.1587578 13.003618,2.9750602 14.012845,2.8363896 14.09651,2.7971668 14.840095,2.1141055 c 2.61384,-2.40108429 6.429224,-2.69421239 9.379957,-0.7206426 0.560138,0.3746438 1.147736,0.8455522 1.305773,1.0464628 0.245031,0.3115068 0.453841,0.3893291 1.418171,0.5285428 1.376926,0.1987776 2.496479,0.730704 3.364176,1.5984017 1.816421,1.8164205 2.11192,4.7549431 0.690556,6.8670808 l -0.486628,0.723125 0.474003,0.884174 c 0.649208,1.210993 0.905714,2.171203 0.903813,3.38336 -0.003,1.892807 -0.667285,3.523402 -1.964513,4.82198 -1.780466,1.78232 -4.144242,2.464062 -6.565053,1.893447 l -0.87016,-0.205108 -0.756959,0.528619 c -0.416328,0.290741 -1.068141,0.685412 -1.448473,0.877049 l -0.691512,0.348429 -0.565779,-0.576486 c -0.31118,-0.317067 -0.518643,-0.62612 -0.46103,-0.686781 0.05761,-0.06066 -0.01728,-0.07643 -0.166437,-0.03504 -0.149153,0.04139 -0.744068,0.17713 -1.322034,0.301642 -0.577966,0.124514 -1.050847,0.264592 -1.050847,0.311284 0,0.04669 0.426675,0.514437 0.948166,1.039432 l 0.948167,0.954537 -2.846472,2.844052 c -1.565559,1.564228 -2.846472,2.812327 -2.846472,2.773554 z m 2.891229,-9.194425 c 0.854597,-0.53347 1.593115,-0.969946 1.641148,-0.969946 0.04803,0 0.02064,0.124617 -0.06087,0.276928 -0.08151,0.152309 -0.129422,0.503157 -0.106465,0.779661 l 0.04174,0.502733 1.355932,0.01455 c 1.247339,0.01338 1.416445,-0.01696 2.111505,-0.378934 0.415565,-0.216419 1.047633,-0.634833 1.404594,-0.929809 0.740509,-0.61192 0.700825,-0.601809 1.33008,-0.338889 0.774373,0.323553 2.043732,0.473103 2.940156,0.346394 1.765698,-0.24958 3.265574,-1.38115 4.1131,-3.103094 0.40399,-0.820803 0.439315,-0.99817 0.43667,-2.192537 -0.0026,-1.186578 -0.04082,-1.376563 -0.43955,-2.186494 -0.517836,-1.051875 -1.561569,-2.159253 -2.468147,-2.618651 -0.833681,-0.422458 -2.054893,-0.61813 -3.238516,-0.518899 l -0.93165,0.07811 -0.411058,-0.597452 C 21.983342,9.3387684 20.205707,8.0077325 18.701394,7.4853087 17.628607,7.1127474 15.300765,6.9683321 14.250271,7.2091691 12.424082,7.6278423 10.079267,9.20475 9.101978,10.671439 l -0.3290966,0.493899 -0.9072371,-0.08501 c -1.1226329,-0.105186 -2.3882326,0.113263 -3.3311831,0.574981 -0.9065146,0.443877 -1.9753073,1.568559 -2.4468833,2.574837 -0.3242624,0.691929 -0.365544,0.940804 -0.365544,2.203747 0,1.328804 0.029149,1.483298 0.4371934,2.317169 1.3075084,2.671999 4.4369269,3.758677 7.1919628,2.49738 0.4084287,-0.186985 0.7578329,-0.339972 0.7764539,-0.339972 0.01862,0 0.351246,0.488494 0.739166,1.085544 0.822763,1.266317 1.178279,1.51512 2.066304,1.446077 0.50491,-0.03926 0.95276,-0.247833 2.188623,-1.019303 z M 30.127428,9.9658003 C 31.19602,7.1097285 28.999935,4.1053254 26.067703,4.4118045 l -0.774915,0.080995 -0.395547,-0.5424983 c -0.53685,-0.7362995 -1.790568,-1.6702686 -2.735476,-2.037819 -1.119987,-0.4356536 -3.170646,-0.4382713 -4.266819,-0.00545 -0.96836,0.3823589 -2.29972,1.3511166 -2.775791,2.019793 l -0.361014,0.5070702 -1.026529,8.949e-4 C 12.109411,4.436198 10.71772,5.2019631 10.050047,6.4605391 9.7938598,6.9434564 9.7552315,7.1287216 9.8719182,7.3148631 10.113928,7.7009237 10.515268,7.6631186 11.433224,7.1677924 13.107206,6.2645177 13.969859,6.0605068 16.094915,6.065339 c 1.622841,0.00369 2.0262,0.049292 2.779661,0.3142546 1.327983,0.4669991 2.572983,1.2622966 3.823492,2.44242 l 1.125661,1.0623027 1.220339,0.080494 c 1.156435,0.076279 2.5992,0.4556097 3.000906,0.7889967 0.10063,0.08352 0.412356,0.231446 0.692724,0.328733 0.465507,0.16153 0.536124,0.152357 0.813459,-0.105667 0.167033,-0.155403 0.426355,-0.610384 0.576271,-1.0110673 z"
     id="path853"
     inkscape:connector-curvature="0" />
  <path
     style="opacity:0.65399996;fill:#ffffff;fill-opacity:1;stroke:#00ffff;stroke-width:0.76871747;stroke-miterlimit:4;stroke-dasharray:none;stroke-dashoffset:0;stroke-opacity:1"
     d="m 19.370168,23.914747 c -0.326573,-0.36086 -0.277428,-0.521091 0.1884,-0.614258 0.488073,-0.09761 1.374774,-0.600177 2.171993,-1.23104 0.565474,-0.447475 0.57848,-0.450461 1.061641,-0.243692 0.292724,0.125271 1.06088,0.2336 1.912883,0.269764 1.216131,0.05162 1.534552,0.01856 2.183767,-0.226725 1.578592,-0.59642 2.589256,-1.549364 3.463194,-3.265406 0.346462,-0.680304 0.379204,-0.87073 0.373028,-2.169492 -0.0078,-1.647292 -0.173547,-2.130507 -1.194933,-3.484409 -0.749014,-0.992858 -1.937868,-1.834158 -2.953157,-2.089817 -0.395646,-0.09963 -1.27501,-0.17499 -1.954141,-0.167473 -1.208321,0.01337 -1.239486,0.0057 -1.454234,-0.357834 C 22.822118,9.7478042 21.269805,8.364128 20.360108,7.8309691 19.070091,7.0749105 18.059647,6.7909622 16.366244,6.7086385 14.558639,6.6207628 13.594468,6.8307085 12.097131,7.6382267 10.86634,8.3019955 9.9150842,9.0615832 9.1144146,10.019957 L 8.5168929,10.73517 7.8137127,10.652525 c -0.9721814,-0.114261 -2.4069973,0.153926 -3.4013301,0.635755 -1.012473,0.49062 -2.1580229,1.673803 -2.7111171,2.800182 -0.3574358,0.72792 -0.3857023,0.901547 -0.3818382,2.345436 0.00382,1.428305 0.036216,1.62533 0.3855406,2.344928 0.5614661,1.156603 1.6938505,2.312651 2.7775069,2.835548 0.7911773,0.381767 1.0652898,0.440562 2.2565083,0.484008 1.3213476,0.04819 1.7292059,-0.02792 3.0612108,-0.571289 0.1573045,-0.06417 0.3835001,0.168079 0.8565291,0.879448 0.470792,0.708007 0.576858,0.948662 0.396416,0.899435 -0.135498,-0.03697 -0.422207,-0.106574 -0.637132,-0.154684 -0.214926,-0.04811 -0.4939658,-0.214911 -0.6200894,-0.370667 L 9.5666019,22.497432 8.3261698,22.748169 c -1.0860143,0.219523 -1.3632932,0.229798 -2.2273689,0.08255 -3.2134663,-0.547621 -5.52930937,-3.214705 -5.52930937,-6.367931 0,-1.226923 0.26000294,-2.234149 0.84085587,-3.257394 C 1.8994662,12.343748 2.9280778,11.284766 3.7355081,10.81158 4.5947318,10.308042 6.2507235,9.9254237 7.5708424,9.9254237 H 8.6983051 L 8.6249661,9.4847458 C 8.5846296,9.2423729 8.5255374,8.9130023 8.49365,8.7528113 8.4049896,8.3074115 8.669989,7.111202 9.0329572,6.3183751 9.7173413,4.8234834 11.213697,3.7196331 12.976271,3.4094222 c 1.182353,-0.2080926 1.182235,-0.2080383 2.188056,-1.0095971 1.723182,-1.373239 2.941128,-1.83033357 4.876996,-1.83033357 1.778712,0 3.654821,0.74458167 4.934948,1.95856147 0.621677,0.5895528 0.841801,0.6894465 1.928865,0.8753303 1.718354,0.2938322 2.947513,1.0430715 3.741768,2.2808113 0.451373,0.703402 0.837842,1.9717516 0.837842,2.7497037 0,0.8397466 -0.399541,2.0720497 -0.938304,2.8940157 l -0.519333,0.79232 0.590933,1.173781 c 1.406937,2.794625 1.019452,5.590099 -1.063153,7.67003 -1.742687,1.740449 -3.746066,2.26372 -6.44113,1.682385 l -0.709971,-0.153143 -0.920183,0.61188 c -0.845868,0.562464 -1.705149,1.057545 -1.835517,1.057545 -0.02943,0 -0.154497,-0.111584 -0.27792,-0.247965 z M 29.969047,11.064422 C 30.55392,10.354869 30.855161,9.2787843 30.776538,8.1799228 30.694949,7.039603 30.318151,6.1840188 29.523321,5.3342818 28.694016,4.4476885 27.787554,4.0542945 26.467882,4.008258 25.477626,3.9737132 25.44064,3.9598491 25.054418,3.4784117 24.490833,2.7758862 22.874251,1.6801653 22.067833,1.4541005 19.535031,0.74407493 17.245279,1.3056061 15.372942,3.0959341 14.516804,3.9145736 14.48851,3.9289214 13.547422,4.0216538 12.127538,4.1615656 11.208361,4.5570034 10.381858,5.3835067 9.51172,6.2536449 9.2239058,7.0182739 9.5685345,7.5442438 9.9512254,8.1283039 10.322031,8.1116769 11.781767,7.4450024 13.587926,6.6201134 14.234503,6.498618 16.514936,6.5556138 l 1.911545,0.047776 1.274895,0.6341782 c 0.944562,0.4698586 1.633675,0.9529384 2.659577,1.8644068 1.280901,1.1380252 1.428258,1.2305832 1.966102,1.2349592 1.055843,0.0086 2.677902,0.37435 3.534517,0.797001 1.147087,0.565969 1.595859,0.551167 2.107475,-0.06951 z"
     id="path855"
     inkscape:connector-curvature="0" />
  <path
     style="opacity:0.65399996;fill:#ffffff;fill-opacity:1;stroke:#00ffff;stroke-width:0.76871747;stroke-miterlimit:4;stroke-dasharray:none;stroke-dashoffset:0;stroke-opacity:1"
     d="m 19.281858,23.824263 c -0.36803,-0.391749 -0.377482,-0.376395 0.362398,-0.588704 0.518219,-0.148703 1.212008,-0.557798 2.281168,-1.345094 0.394322,-0.290366 0.425465,-0.292799 1.016949,-0.07943 0.937365,0.338138 2.64733,0.394687 3.605608,0.119239 1.556245,-0.447329 2.911809,-1.623945 3.709098,-3.219463 0.384173,-0.768797 0.414107,-0.933387 0.414107,-2.276913 0,-1.348983 -0.02887,-1.505989 -0.421381,-2.291471 -0.601836,-1.204379 -1.715786,-2.354633 -2.794703,-2.885782 -0.812862,-0.40017 -1.018585,-0.441011 -2.48482,-0.493287 l -1.598584,-0.057 -0.43017,-0.598999 C 22.396506,9.3484312 21.161873,8.3176919 20.059219,7.7010532 18.801863,6.9978998 17.738418,6.7617944 15.823729,6.7606922 c -1.845561,-0.00106 -2.505008,0.1859451 -4.184596,1.1866766 -1.042219,0.6209745 -2.4987472,1.892622 -2.7890214,2.4350042 -0.1861798,0.34788 -0.2234142,0.35661 -1.5210243,0.35661 -2.3369659,0 -3.9242843,0.79924 -5.1080915,2.572005 -0.7216763,1.080719 -0.8362712,1.528421 -0.8371888,3.270745 -7.078e-4,1.344161 0.02695,1.491536 0.4325971,2.305085 0.7831573,1.570667 2.2085145,2.709501 3.8858969,3.104759 1.0172145,0.239696 2.4848968,0.11618 3.4951722,-0.294142 l 0.8313718,-0.337663 0.226245,0.383004 c 0.124435,0.210652 0.436759,0.65879 0.694053,0.995863 0.257293,0.337074 0.467806,0.64133 0.467806,0.676127 0,0.0348 -0.156514,0.0038 -0.34781,-0.06897 -0.191295,-0.07273 -0.49292,-0.132238 -0.670277,-0.132238 -0.177357,0 -0.4021988,-0.110514 -0.4996479,-0.245587 C 9.6118262,22.569627 9.4846087,22.547475 8.6337291,22.747614 5.5751924,23.467024 2.5716889,22.056872 1.1845627,19.250213 0.24250088,17.34408 0.23798494,15.591367 1.1700785,13.628642 2.3092572,11.229855 4.4987178,9.9254237 7.385851,9.9254237 H 8.5859124 L 8.4934418,8.9869929 C 8.3198643,7.2254544 9.1955433,5.3406254 10.676799,4.2874913 c 0.69749,-0.4958973 1.466458,-0.7810841 2.690955,-0.9979934 0.835153,-0.1479402 0.87487,-0.1693536 1.82523,-0.9840713 2.490806,-2.13530011 5.970954,-2.40348462 8.6574,-0.6671502 0.455924,0.2946782 1.06356,0.747447 1.350302,1.0061529 0.42873,0.3868115 0.726099,0.5117936 1.67389,0.703523 1.489758,0.3013639 2.434116,0.7702534 3.199661,1.5886839 0.820792,0.8774933 1.297215,1.9469368 1.37947,3.0965441 0.08533,1.1926273 -0.140578,2.0832577 -0.809914,3.1930347 l -0.54504,0.903689 0.639945,1.334294 c 0.560277,1.168182 0.648647,1.474077 0.709825,2.457082 0.131699,2.116127 -0.460931,3.702008 -1.89969,5.083577 -1.776898,1.706264 -3.799454,2.2708 -6.188677,1.727383 l -0.923886,-0.210134 -1.268456,0.820303 c -0.697651,0.451167 -1.335855,0.820303 -1.418229,0.820303 -0.08237,0 -0.292851,-0.152303 -0.467727,-0.338449 z m -8.954166,-1.254771 c -0.0025,-0.05593 -0.122437,-0.243177 -0.26657,-0.416101 -0.2073061,-0.248716 -0.3126015,-0.28499 -0.5039635,-0.173615 -0.2225174,0.129508 -0.2232697,0.141122 -0.00939,0.144914 0.1278849,0.0023 0.2978283,0.126157 0.3776523,0.27531 0.1404052,0.26235 0.4114532,0.376553 0.4022682,0.169492 z M 7.1812419,22.44243 C 7.051603,22.40849 6.8075352,22.40726 6.638869,22.43973 c -0.168666,0.03243 -0.062598,0.0602 0.2357073,0.06171 0.2983051,0.0015 0.4363046,-0.02503 0.3066656,-0.05897 z M 29.856423,12.499446 c -0.08732,-0.163164 -0.131116,-0.402402 -0.09732,-0.531639 0.04833,-0.184814 -0.007,-0.221901 -0.258998,-0.173721 -0.399585,0.07639 -0.399246,0.08097 0.04743,0.640766 0.40089,0.50242 0.561141,0.535931 0.308889,0.06459 z M 29.591101,11.414455 C 29.956353,11.218978 30.47616,10.254622 30.670899,9.411195 31.110146,7.5087764 30.03906,5.2690287 28.29405,4.4409671 27.679275,4.1492372 26.505256,3.9403238 26.001528,4.0330194 25.629459,4.1014873 25.488075,4.0128856 24.637288,3.1780809 24.022677,2.5750152 23.361521,2.0860058 22.761473,1.7906743 21.9249,1.3789309 21.693195,1.3287552 20.37818,1.2745744 c -1.089621,-0.044894 -1.647909,-0.00441 -2.215803,0.1606824 -0.93069,0.2705588 -2.651633,1.3996589 -3.212319,2.1075821 -0.408013,0.5151595 -0.430985,0.5241757 -1.465336,0.57515 -1.768912,0.087174 -3.2457,0.9962241 -3.8545932,2.3727285 -0.2254634,0.5096977 -0.236768,0.639878 -0.083474,0.9612734 0.2956676,0.6198957 0.9524242,0.5753405 2.5538712,-0.1732578 1.184175,-0.5535437 1.521353,-0.6475495 2.778739,-0.7747196 3.316467,-0.3354219 5.158808,0.3535695 7.956046,2.9753694 0.898887,0.8425102 0.919378,0.8528492 1.694915,0.8551752 1.094696,0.0033 2.391329,0.3053 3.429096,0.798719 0.945093,0.449356 1.226826,0.497903 1.631779,0.281178 z M 10.065422,8.3230809 C 9.916434,8.2994197 9.6153528,8.0626811 9.3963523,7.7969955 L 8.9981694,7.3139307 8.9041637,7.9408061 C 8.8524605,8.2855877 8.8504603,8.7825123 8.8997189,9.045083 L 8.9892799,9.5224843 9.6627942,8.944293 C 10.22496,8.4616906 10.291524,8.3589893 10.065422,8.3230809 Z"
     id="path857"
     inkscape:connector-curvature="0" />
  <path
     style="opacity:0.65399996;fill:#ffffff;fill-opacity:1;stroke:#00ffff;stroke-width:0.76871747;stroke-miterlimit:4;stroke-dasharray:none;stroke-dashoffset:0;stroke-opacity:1"
     d="m 19.169398,24.120075 c -0.531775,-0.566051 -0.354814,-1.049767 0.450941,-1.232623 0.223729,-0.05077 0.903275,-0.426308 1.510102,-0.834523 l 1.103322,-0.74221 0.789573,0.205658 c 1.202873,0.313308 3.170265,0.27282 3.995596,-0.08223 0.368062,-0.158337 0.669204,-0.326493 0.669204,-0.37368 0,-0.04719 0.187834,-0.16894 0.41741,-0.27056 0.475406,-0.210436 1.42415,-1.358767 1.898595,-2.298005 0.385197,-0.762557 0.507761,-2.293179 0.269043,-3.359888 -0.203847,-0.910883 -1.261321,-2.432303 -2.13492,-3.071577 -1.038458,-0.759912 -1.579541,-0.927102 -3.280724,-1.013716 L 23.315082,10.968192 22.353374,9.9629727 C 21.253044,8.8128598 19.983532,7.92708 18.80678,7.4883981 18.110084,7.2286767 17.701062,7.1822852 15.959322,7.165437 L 13.925424,7.1457627 13.044068,7.5830681 C 12.153367,8.0250103 12.060332,8.0791066 11.080203,8.7249843 10.445615,9.1431601 9.5693184,9.955342 9.1266624,10.535593 8.8232513,10.933317 8.782653,10.944289 7.3030865,11.02844 5.3625353,11.138809 4.4989993,11.452903 3.4461586,12.431318 3.0199239,12.827422 2.4662534,13.492082 2.2157798,13.90834 c -0.4478277,0.744239 -0.4556509,0.784526 -0.4700796,2.420857 -0.013169,1.493488 0.018591,1.733504 0.3098995,2.341989 0.4837653,1.010489 1.9589743,2.4082 2.9220276,2.768524 1.0353708,0.387382 3.0399515,0.380491 4.0994641,-0.01409 0.3910533,-0.145637 0.834075,-0.225721 0.9845206,-0.177972 0.381099,0.120956 1.383277,1.631738 1.330161,2.005216 -0.03711,0.26095 -0.117803,0.296292 -0.624351,0.273467 C 10.44747,23.511912 9.9769355,23.371097 9.7217892,23.213407 9.3039471,22.955167 9.180851,22.940941 8.4820066,23.07013 6.856766,23.370572 5.3777493,23.182777 4.0271186,22.504481 -0.14437225,20.409529 -1.0403728,14.900183 2.2545285,11.605142 3.5479079,10.311708 4.7487204,9.8096098 6.8745763,9.6733506 L 8.2305085,9.5864407 8.1838964,8.871198 C 8.056043,6.9093382 9.2655859,4.7185406 10.996801,3.7762955 c 0.369119,-0.2008997 1.132049,-0.4831567 1.6954,-0.6272376 1.215568,-0.31089 1.375163,-0.3884591 2.521358,-1.2254782 1.730939,-1.26403212 2.889659,-1.65738529 4.863838,-1.65113691 1.871949,0.005925 3.457586,0.61803999 5.068366,1.95657961 0.354237,0.2943672 0.644068,0.4955731 0.644068,0.4471243 0,-0.048449 0.167796,0.00447 0.372881,0.1175938 0.205085,0.1131254 0.721866,0.2730568 1.148404,0.355403 1.801859,0.3478629 3.439334,1.6481209 4.051832,3.2174112 0.445189,1.1406271 0.499296,2.6284651 0.135269,3.7196283 -0.1571,0.470905 -0.4617,1.121506 -0.676888,1.445782 l -0.391253,0.589592 0.509816,1.105323 c 0.632945,1.372283 0.816968,2.119707 0.812725,3.30096 -0.0068,1.887596 -0.556887,3.178441 -1.959831,4.598797 -1.786276,1.808448 -3.564671,2.351469 -6.325137,1.931337 l -1.034046,-0.157377 -1.209343,0.76665 c -0.665139,0.421659 -1.33325,0.766651 -1.484691,0.766651 -0.151442,0 -0.408018,-0.14122 -0.570171,-0.313823 z m 1.001296,-0.563221 c 0.144762,-0.109491 0.198595,-0.201017 0.119629,-0.20339 -0.07897,-0.0024 -0.262018,0.08527 -0.40678,0.194767 -0.144762,0.109491 -0.198595,0.201016 -0.119628,0.203389 0.07897,0.0024 0.262017,-0.08527 0.406779,-0.194766 z M 10.16305,22.366102 c -0.111227,-0.167797 -0.3128062,-0.326948 -0.4479539,-0.353669 -0.1765432,-0.03491 -0.1338078,0.04978 0.1517939,0.3008 0.491996,0.432423 0.555238,0.443712 0.29616,0.05287 z M 9.0440678,22.24645 c 0.1385771,-0.139837 0.069072,-0.13013 -1.0847458,0.151508 -0.5046774,0.123188 -0.4905417,0.127279 0.2033899,0.05885 0.4101695,-0.04044 0.8067796,-0.135108 0.8813559,-0.210362 z M 22.746972,22.21234 c 0.331077,0.04635 0.352743,0.0341 0.127604,-0.07212 -0.398712,-0.188105 -0.507198,-0.170469 -0.881356,0.143291 l -0.338983,0.284262 0.346972,-0.20563 c 0.190836,-0.113097 0.526429,-0.18051 0.745763,-0.149806 z m 2.873367,0.223588 c -0.354237,-0.02793 -0.933898,-0.02793 -1.288136,0 -0.354237,0.02793 -0.06441,0.05079 0.644068,0.05079 0.708475,0 0.998305,-0.02285 0.644068,-0.05079 z m 4.889067,-3.361549 c -0.04175,-0.04175 -0.117566,0.03351 -0.168485,0.167231 -0.07358,0.193248 -0.05801,0.208822 0.0759,0.07591 0.09267,-0.09198 0.134328,-0.201389 0.09258,-0.243137 z M 1.0865385,16.332203 c 5.912e-4,-0.837263 -0.04082,-1.222594 -0.11293337,-1.050847 -0.2012871,0.479388 -0.1439608,2.372881 0.07184,2.372881 0.022088,0 0.04058,-0.594915 0.041093,-1.322034 z M 29.720534,12.363299 c -0.08065,-0.150693 -0.109703,-0.333744 -0.06457,-0.406779 0.09559,-0.154676 0.03681,-0.165085 -0.269184,-0.04766 -0.195157,0.07489 -0.185496,0.123808 0.08034,0.40678 0.369917,0.393758 0.446321,0.40813 0.253406,0.04766 z M 28.569492,10.914581 C 28.345763,10.793404 28.2356,10.669855 28.324686,10.64003 c 0.08909,-0.02982 0.28338,0.01075 0.431764,0.09016 0.455478,0.243765 0.561275,0.17166 0.932099,-0.635274 C 30.551245,8.2176426 29.827521,6.000654 28.065338,5.1225211 27.486176,4.8339124 27.161252,4.7705039 26.203886,4.7592609 25.155218,4.7469449 25.096046,4.732966 25.586441,4.6133864 c 1.294263,-0.3155972 2.897396,0.2304617 3.811362,1.2982265 0.252903,0.2954602 0.459824,0.4943455 0.459824,0.4419676 0,-0.2209363 -1.182655,-1.3539507 -1.675966,-1.605619 C 27.857014,4.5823388 27.200057,4.4340622 26.513733,4.3715068 25.389954,4.2690793 25.37595,4.2631298 24.65605,3.5822785 22.994372,2.0107326 21.548923,1.4326355 19.586321,1.554675 c -1.398679,0.086973 -2.723158,0.6737147 -3.850809,1.7059021 -0.803298,0.7352923 -1.477988,1.0940633 -2.110818,1.1224407 -0.20748,0.0093 -0.04164,0.065573 0.368526,0.1250427 0.737709,0.106959 0.749958,0.1030401 1.134266,-0.3628757 0.213677,-0.2590512 0.417943,-0.4415638 0.453923,-0.4055834 0.03598,0.03598 -0.108338,0.2831857 -0.320707,0.5493454 -0.372248,0.4665333 -0.418137,0.4839267 -1.27677,0.4839306 -1.64254,7.3e-6 -3.027061,0.6858457 -3.59271,1.7796906 -0.4190228,0.8103007 -0.165085,0.854382 1.138905,0.1977031 1.610763,-0.811167 2.295655,-0.9548749 4.564788,-0.9578098 1.904002,-0.00246 2.101052,0.022077 3.085391,0.3842424 0.57832,0.2127802 1.09172,0.451963 1.140887,0.5315172 0.05925,0.095869 0.0019,0.1082923 -0.170137,0.036843 -1.681086,-0.6982681 -2.156389,-0.7944464 -3.988344,-0.8070483 -2.019827,-0.013894 -3.03759,0.2105213 -4.65301,1.025983 -1.071519,0.5409009 -0.903537,0.6298333 0.229472,0.1214866 1.644115,-0.7376646 2.144406,-0.8303796 4.462811,-0.827059 1.902925,0.00273 2.219519,0.036454 2.847458,0.3033522 1.385335,0.588822 2.015379,1.0208535 4.387198,3.0083716 0.389219,0.3261543 0.644167,0.4084508 1.547447,0.499511 1.178731,0.118828 2.201322,0.380627 3.126627,0.800464 0.71335,0.323666 1.031132,0.35446 0.458777,0.04446 z m 1.511779,-0.785767 c 0.173844,-0.3728818 0.309598,-0.8305089 0.301675,-1.0169496 -0.01158,-0.2725256 -0.02621,-0.2858171 -0.07462,-0.067797 -0.115815,0.5215787 -0.471796,1.3437556 -0.759822,1.7548936 -0.245832,0.350908 -0.251497,0.383354 -0.03688,0.211208 0.139461,-0.111864 0.395803,-0.508474 0.569649,-0.881355 z M 7.0464961,10.370912 c -0.2037491,-0.03094 -0.5698508,-0.03156 -0.8135593,-0.0014 -0.2437085,0.03018 -0.077005,0.05549 0.370453,0.05625 0.4474577,7.6e-4 0.6468555,-0.02393 0.4431063,-0.05487 z M 9.7987767,8.2150095 C 9.5818713,8.1238076 9.326922,7.9069342 9.2322228,7.7330685 9.0616235,7.4198525 9.0590662,7.4213078 8.953781,7.8915254 8.8953374,8.1525424 8.8841889,8.630571 8.9290065,8.9538113 L 9.0104933,9.5415208 9.6018217,8.9611759 10.19315,8.3808311 Z M 30.357032,7.5949153 c -0.04328,-0.1081672 -0.07541,-0.076037 -0.08192,0.081921 -0.0059,0.1429378 0.02616,0.2230225 0.07122,0.1779661 0.04506,-0.045057 0.04987,-0.1620057 0.0107,-0.2598871 z M 10.137607,7.3588697 C 9.9786674,7.1832428 9.9323082,6.9986969 9.9964012,6.7967577 10.118766,6.411221 11.092861,5.3476972 11.620339,5.0237308 11.844068,4.8863212 11.960002,4.773667 11.877971,4.7733882 11.598828,4.7724391 10.60571,5.5855863 10.197103,6.149651 9.7666956,6.7438117 9.6835281,7.1886129 9.9525424,7.4576271 10.223858,7.7289429 10.39154,7.6394618 10.137607,7.3588697 Z m 2.734144,-2.8035025 c -0.04506,-0.045056 -0.162005,-0.049874 -0.259887,-0.010705 -0.108167,0.043285 -0.07604,0.075415 0.08192,0.081921 0.142938,0.00589 0.223023,-0.02616 0.177967,-0.071216 z m 1.729652,-1.158859 c 0.150246,-0.1584369 0.188625,-0.2404453 0.08529,-0.1822407 -0.103336,0.058205 -0.530454,0.2188878 -0.949153,0.3570735 l -0.761269,0.2512469 0.67598,-0.069006 c 0.447479,-0.04568 0.76832,-0.1663809 0.949152,-0.3570737 z M 26.122034,3.5782959 C 26.051186,3.5178839 25.811346,3.3907439 25.589055,3.2957623 25.184922,3.1230828 25.18491,3.1230919 25.440579,3.405602 c 0.140629,0.1553935 0.380469,0.2825336 0.532979,0.2825336 0.157132,0 0.221471,-0.047597 0.148476,-0.1098397 z"
     id="path859"
     inkscape:connector-curvature="0" />
  <path
     style="opacity:0.65399996;fill:#ffffff;fill-opacity:1;stroke:#00ffff;stroke-width:0.76871747;stroke-miterlimit:4;stroke-dasharray:none;stroke-dashoffset:0;stroke-opacity:1"
     d="m 9.4044603,7.0779661 c 0,-0.1864407 0.030776,-0.2627119 0.068391,-0.1694915 0.037615,0.09322 0.037615,0.2457627 0,0.338983 -0.037615,0.09322 -0.068391,0.016949 -0.068391,-0.1694915 z"
     id="path861"
     inkscape:connector-curvature="0" />
  <path
     style="opacity:0.65399996;fill:#ffffff;fill-opacity:1;stroke:#00ffff;stroke-width:0.76871747;stroke-miterlimit:4;stroke-dasharray:none;stroke-dashoffset:0;stroke-opacity:1"
     d="m 9.1118644,6.4136151 c 0,-0.2482018 1.0668246,-1.5312499 1.5979976,-1.9218788 0.424792,-0.3123957 1.86102,-0.9391939 2.152043,-0.9391939 0.02561,0 0.04657,0.1122675 0.04657,0.2494834 0,0.1765783 -0.168401,0.2989186 -0.576272,0.4186517 -0.316949,0.093043 -0.779812,0.2677794 -1.028584,0.3883042 -0.45094,0.2184704 -1.7849749,1.5651886 -1.7849749,1.8019454 0,0.068566 -0.091525,0.1246661 -0.2033899,0.1246661 -0.1118644,0 -0.2033898,-0.05489 -0.2033898,-0.1219781 z"
     id="path863"
     inkscape:connector-curvature="0" />
  <path
     style="opacity:0.65399996;fill:#ffffff;fill-opacity:1;stroke:#00ffff;stroke-width:0.76871747;stroke-miterlimit:4;stroke-dasharray:none;stroke-dashoffset:0;stroke-opacity:1"
     d="m 13.315254,29.774179 c 0,-0.0459 0.244068,-0.84689 0.542373,-1.779986 C 14.155932,27.061098 14.4,26.177463 14.4,26.03056 c 0,-0.146904 -0.406621,-0.688283 -0.903602,-1.203066 -0.49698,-0.514783 -0.817319,-0.936309 -0.711864,-0.936725 0.475681,-0.0019 1.249058,-0.322144 2.258662,-0.93535 l 1.093587,-0.664215 0.05431,0.562873 c 0.04472,0.463431 -9.03e-4,0.606532 -0.258222,0.810002 -0.171894,0.135921 -0.312534,0.308999 -0.312534,0.384617 0,0.07562 0.366102,0.518745 0.813559,0.984726 0.447458,0.46598 0.81356,0.907638 0.81356,0.98146 0,0.141326 -3.708443,3.842745 -3.850037,3.842745 -0.04519,0 -0.08217,-0.03755 -0.08217,-0.08345 z"
     id="path865"
     inkscape:connector-curvature="0" />
  <path
     style="opacity:0.65399996;fill:#ffffff;fill-opacity:1;stroke:#00ffff;stroke-width:0.76871747;stroke-miterlimit:4;stroke-dasharray:none;stroke-dashoffset:0;stroke-opacity:1"
     d="m 14.264407,28.304127 c 0,-0.06826 0.127031,-0.576828 0.282291,-1.130141 0.155862,-0.555461 0.244895,-1.155017 0.198795,-1.338697 -0.04592,-0.182971 -0.325496,-0.595213 -0.621274,-0.916094 -0.295778,-0.320881 -0.537778,-0.625473 -0.537778,-0.676871 0,-0.0514 0.220981,-0.185782 0.49107,-0.298632 0.270089,-0.112851 0.733481,-0.358209 1.02976,-0.545242 0.622224,-0.392793 0.828591,-0.326099 0.400608,0.129468 -0.420609,0.447718 -0.37005,0.698726 0.28608,1.420264 1.012981,1.113962 1.039412,0.923001 -0.314243,2.270383 -0.66842,0.665324 -1.215309,1.153826 -1.215309,1.085562 z"
     id="path867"
     inkscape:connector-curvature="0" />
  <path
     style="opacity:0.65399996;fill:#ffffff;fill-opacity:1;stroke:#00ffff;stroke-width:0.76871747;stroke-miterlimit:4;stroke-dasharray:none;stroke-dashoffset:0;stroke-opacity:1"
     d="m 14.128814,28.592329 c 0,-0.05907 0.159005,-0.660093 0.353344,-1.335605 0.401536,-1.395714 0.388455,-1.464056 -0.464654,-2.427669 l -0.550488,-0.621792 1.10126,-0.562648 c 0.605694,-0.309457 1.126073,-0.537837 1.156398,-0.507511 0.03033,0.03032 -0.0802,0.238197 -0.245622,0.461937 l -0.300761,0.4068 0.279876,0.451317 c 0.153931,0.248224 0.49746,0.661591 0.763397,0.918593 0.265936,0.257003 0.483521,0.532784 0.483521,0.612848 0,0.08006 -0.579661,0.722821 -1.288136,1.42835 -0.708474,0.705529 -1.288135,1.23445 -1.288135,1.17538 z m 1.509599,-3.288723 c -0.311643,-0.354046 -0.602358,-0.786092 -0.646032,-0.960103 -0.08805,-0.350804 -0.209868,-0.385506 -0.607072,-0.172929 -0.256769,0.137419 -0.247074,0.172029 0.230359,0.822423 0.470982,0.641607 0.494082,0.720887 0.419785,1.440753 l -0.07862,0.761784 0.624104,-0.624104 0.624104,-0.624104 z"
     id="path869"
     inkscape:connector-curvature="0" />
  <path
     style="opacity:0.65399996;fill:#ffffff;fill-opacity:1;stroke:#00ffff;stroke-width:0.76871747;stroke-miterlimit:4;stroke-dasharray:none;stroke-dashoffset:0;stroke-opacity:1"
     d="m 15.182088,28.872175 2.881418,-2.883758 -0.946551,-0.939298 c -0.520603,-0.516613 -0.920826,-0.965022 -0.889384,-0.996464 0.03144,-0.03144 0.532265,-0.167609 1.112941,-0.302594 0.794097,-0.184598 1.080925,-0.205884 1.15725,-0.08588 0.162647,0.255727 0.121048,0.408941 -0.06835,0.251752 -0.118971,-0.09874 -0.365484,-0.102843 -0.779661,-0.01299 -1.059476,0.229855 -1.056363,0.207565 -0.155881,1.116123 0.461085,0.465219 0.838335,0.915065 0.838335,0.999658 0,0.192578 -5.689257,5.737204 -5.88686,5.737204 -0.07957,0 1.151965,-1.297691 2.736745,-2.883757 z"
     id="path871"
     inkscape:connector-curvature="0" />
  <path
     style="opacity:0.65399996;fill:#ffffff;fill-opacity:1;stroke:#00ffff;stroke-width:0.76871747;stroke-miterlimit:4;stroke-dasharray:none;stroke-dashoffset:0;stroke-opacity:1"
     d=""
     id="path873"
     inkscape:connector-curvature="0" />
  <path
     style="opacity:0.65399996;fill:#ffffff;fill-opacity:1;stroke:#00ffff;stroke-width:0.76871747;stroke-miterlimit:4;stroke-dasharray:none;stroke-dashoffset:0;stroke-opacity:1"
     d=""
     id="path875"
     inkscape:connector-curvature="0" />
  <path
     style="opacity:0.65399996;fill:#ffffff;fill-opacity:1;stroke:#00ffff;stroke-width:0.76871747;stroke-miterlimit:4;stroke-dasharray:none;stroke-dashoffset:0;stroke-opacity:1"
     d="m 13.901851,28.69255 c -0.06559,-0.170914 0.194759,-1.716005 0.435118,-2.582339 0.04454,-0.160554 -0.244666,-0.604637 -0.979778,-1.50445 l -0.43264,-0.529573 1.331927,-0.655338 c 0.777172,-0.382386 1.423291,-0.620279 1.551284,-0.571163 0.283037,0.108611 0.281837,0.612462 -0.0022,0.926326 -0.207803,0.22962 -0.17833,0.297613 0.474576,1.094851 0.382877,0.467514 0.696139,0.952081 0.696139,1.076815 0,0.278292 -0.891881,1.331869 -1.917316,2.264921 -0.811858,0.738716 -1.024034,0.826724 -1.157104,0.47995 z m 1.665967,-3.501327 c -0.343995,-0.422333 -0.625445,-0.857029 -0.625445,-0.965991 0,-0.232912 -0.18707,-0.252673 -0.550532,-0.05815 -0.248479,0.132982 -0.2372,0.175232 0.226241,0.847458 0.457615,0.663774 0.482459,0.753586 0.401995,1.453261 l -0.08576,0.745762 0.629475,-0.627229 0.629475,-0.627229 z"
     id="path877"
     inkscape:connector-curvature="0" />
  <path
     style="opacity:0.65399996;fill:#ffffff;fill-opacity:1;stroke:#00ffff;stroke-width:0.27178267;stroke-miterlimit:4;stroke-dasharray:none;stroke-dashoffset:0;stroke-opacity:1"
     d="m 12.27982,31.240071 c 0.295665,-0.924946 1.414776,-4.198487 1.417344,-4.145909 0.0019,0.03955 -0.159036,0.589656 -0.357705,1.222456 -0.198668,0.632801 -0.372642,1.247624 -0.386609,1.366274 -0.03147,0.267359 0.100336,0.562001 0.239425,0.535215 0.04866,-0.0094 0.08059,0.0039 0.07096,0.02949 -0.03698,0.09829 -1.012183,1.082474 -0.983416,0.992479 z"
     id="path879"
     inkscape:connector-curvature="0" />
  <path
     style="opacity:0.65399996;fill:#00ffff;fill-opacity:1;stroke:#00ffff;stroke-width:0.27178267;stroke-miterlimit:4;stroke-dasharray:none;stroke-dashoffset:0;stroke-opacity:1"
     d="m 12.090192,31.782357 c 0.01635,-0.07135 0.05444,-0.189995 0.08465,-0.263667 0.03021,-0.07367 0.0604,-0.160313 0.06709,-0.192537 0.01954,-0.09412 1.422637,-4.301867 1.441817,-4.323875 0.0096,-0.01099 0.0279,-0.0095 0.04072,0.0033 0.02991,0.02991 -0.111158,0.542055 -0.40732,1.47879 -0.379264,1.199579 -0.394216,1.272709 -0.302386,1.478954 0.04284,0.09623 0.07267,0.206156 0.06628,0.244288 -0.009,0.05357 0.0033,0.05691 0.05417,0.01473 0.03619,-0.03003 0.09029,-0.03947 0.120227,-0.02096 0.03421,0.02114 -0.131157,0.233835 -0.445048,0.572421 -0.274714,0.296329 -0.499481,0.551084 -0.499481,0.566124 0,0.09307 0.602332,-0.482994 0.9841,-0.941184 0.07836,-0.09405 0.250341,-0.232782 0.382174,-0.308298 0.35223,-0.20176 3.712103,-3.573672 3.843504,-3.857276 0.152151,-0.328387 0.07042,-0.496498 -0.578073,-1.188981 -0.129905,-0.138718 -0.226388,-0.262017 -0.214407,-0.273998 0.01198,-0.01198 0.301009,0.258062 0.642284,0.600097 l 0.620501,0.621881 -2.965264,2.959939 c -2.111815,2.108022 -2.956709,2.922603 -2.935538,2.830219 z m 0.740378,-1.232968 0.199091,-0.23611 -0.08372,-0.147102 c -0.04605,-0.08091 -0.09533,-0.147239 -0.109504,-0.147406 -0.01418,-1.66e-4 -0.08236,0.172279 -0.15151,0.383213 -0.06915,0.210934 -0.109465,0.383516 -0.08959,0.383516 0.01988,0 0.125733,-0.10625 0.235233,-0.236111 z"
     id="path881"
     inkscape:connector-curvature="0" />
  <path
     style="opacity:0.65399996;fill:#00ffff;fill-opacity:1;stroke:#00ffff;stroke-width:0.27178267;stroke-miterlimit:4;stroke-dasharray:none;stroke-dashoffset:0;stroke-opacity:1"
     d="m 13.83532,29.168563 c -0.07123,-0.04418 -0.164823,-0.146073 -0.207991,-0.226436 -0.07703,-0.143397 -0.07165,-0.167511 0.288964,-1.296661 0.216593,-0.678185 0.378496,-1.273681 0.394351,-1.450469 0.02572,-0.286825 0.019,-0.311816 -0.153944,-0.57229 -0.09946,-0.149803 -0.507474,-0.603935 -0.906691,-1.009183 -0.399217,-0.405248 -0.716303,-0.746361 -0.704635,-0.758029 0.01167,-0.01167 0.09852,-0.02159 0.192997,-0.02205 0.566472,-0.0027 1.189203,-0.253823 2.307143,-0.930212 0.373853,-0.226193 0.724544,-0.41126 0.779313,-0.41126 0.05477,0 0.168985,0.04756 0.253814,0.105683 0.138923,0.09519 0.157559,0.136835 0.187725,0.41947 0.01842,0.172583 0.05803,0.329068 0.08803,0.347746 0.07729,0.04812 -0.0044,0.118029 -0.228524,0.195632 -0.11924,0.04128 -0.236132,0.133944 -0.326719,0.258996 -0.133743,0.184627 -0.137346,0.201854 -0.06953,0.332459 0.114722,0.220926 0.326906,0.467353 0.991053,1.150997 0.34313,0.353204 0.623874,0.668931 0.623874,0.701615 0,0.104909 -3.179377,3.246985 -3.284117,3.245588 -0.05259,-7e-4 -0.15389,-0.03742 -0.225116,-0.0816 z m 0.571083,-0.887899 c 0.04919,-0.06431 0.228573,-1.563025 0.191515,-1.600084 -0.01882,-0.01882 -0.199504,0.882893 -0.29661,1.480235 -0.02916,0.179375 0.01823,0.233415 0.105095,0.119849 z m 1.289787,-1.21842 c 0.173072,-0.193378 0.307066,-0.351597 0.297763,-0.351597 -0.0093,0 -0.329441,0.31641 -0.711417,0.703134 -0.512034,0.518399 -0.590265,0.610775 -0.297763,0.351598 0.218206,-0.193346 0.538344,-0.509757 0.711417,-0.703135 z m -0.02952,-1.132641 c 0,-0.02488 -0.06841,-0.123148 -0.15201,-0.218369 l -0.152011,-0.173131 0.03216,0.16081 c 0.01769,0.08845 0.03216,0.237377 0.03216,0.330961 v 0.170152 l 0.119848,-0.112592 c 0.06592,-0.06192 0.119849,-0.132949 0.119849,-0.157831 z m -1.756216,-1.3825 c -0.06441,-0.195635 -0.06447,-0.238943 -5.33e-4,-0.391954 l 0.07187,-0.172018 -0.119578,0.04546 c -0.201401,0.07657 -0.304881,0.142311 -0.304881,0.193684 0,0.04427 0.394987,0.567167 0.416505,0.551379 0.005,-0.0036 -0.02356,-0.10559 -0.06339,-0.226555 z m 1.58224,-0.972637 c 0.160569,-0.210517 0.168379,-0.334781 0.01817,-0.289158 -0.194684,0.05913 -0.778018,0.313792 -0.824559,0.359968 -0.02857,0.02835 0.02307,0.04519 0.138608,0.04519 0.147168,0 0.214078,0.0322 0.333179,0.160354 l 0.149029,0.160353 0.02977,-0.13573 c 0.01637,-0.07465 0.08648,-0.21009 0.155804,-0.300973 z"
     id="path883"
     inkscape:connector-curvature="0" />
  <path
     style="opacity:0.65399996;fill:#00ffff;fill-opacity:1;stroke:#00ffff;stroke-width:0.27178267;stroke-miterlimit:4;stroke-dasharray:none;stroke-dashoffset:0;stroke-opacity:1"
     d="M 6.3903899,22.775147 C 4.3218497,22.587116 2.364731,21.259186 1.3909277,19.38295 1.1694754,18.956275 0.95878246,18.431792 0.88440508,18.122049 0.8577465,18.011031 0.86641838,17.998053 0.95226088,18.020501 1.0186238,18.037856 1.0964609,18.002379 1.19123,17.911585 c 0.077302,-0.07406 0.1480418,-0.125441 0.1572002,-0.11418 0.00916,0.01126 0.052358,0.168866 0.095999,0.350231 0.2704773,1.124063 1.4745019,2.549726 2.8689166,3.39703 0.6224213,0.378209 1.1864803,0.511366 2.3269354,0.549321 l 0.8251644,0.02746 -0.1180576,0.09286 c -0.089102,0.07009 -0.118058,0.13835 -0.118058,0.278313 0,0.101997 0.021925,0.198999 0.048721,0.215561 0.026797,0.01656 0.03631,0.05019 0.02114,0.07474 -0.031428,0.05085 -0.2879698,0.04866 -0.9088019,-0.0078 z"
     id="path885"
     inkscape:connector-curvature="0" />
  <path
     style="opacity:0.65399996;fill:#00ffff;fill-opacity:1;stroke:#00ffff;stroke-width:0.27178267;stroke-miterlimit:4;stroke-dasharray:none;stroke-dashoffset:0;stroke-opacity:1"
     d="m 12.052759,31.846261 c -0.07709,-0.08518 -0.04796,-0.19058 0.568436,-2.056467 0.63982,-1.936801 0.949048,-2.820396 1.007499,-2.878847 0.01635,-0.01636 0.04627,-0.003 0.06648,0.02971 0.02619,0.04238 0.05253,0.02822 0.09174,-0.04933 0.07146,-0.141323 0.24993,-0.857567 0.207094,-0.831093 -0.01805,0.01115 -0.06284,-0.04828 -0.09955,-0.132067 -0.03671,-0.08379 -0.33924,-0.486724 -0.672296,-0.895408 -0.825246,-1.012635 -0.827073,-1.015319 -0.790386,-1.161488 0.02545,-0.101403 0.06762,-0.128688 0.238505,-0.154314 0.114173,-0.01712 0.603162,-0.224436 1.086641,-0.4607 0.88637,-0.433145 1.913549,-0.860167 2.06909,-0.860167 0.128237,0 0.44811,0.177409 0.482782,0.267761 0.0169,0.04405 0.06393,0.240827 0.104514,0.437289 0.057,0.275931 0.06092,0.3727 0.01725,0.425319 -0.04369,0.05264 -0.04301,0.06812 0.003,0.06812 0.03433,0 0.0054,0.07098 -0.06848,0.167788 -0.07039,0.09228 -0.117744,0.167788 -0.105234,0.167788 0.02479,0 1.954658,-0.419746 2.122896,-0.461728 0.05683,-0.01418 0.114162,-0.06719 0.127397,-0.117803 0.0146,-0.05583 0.05114,-0.08162 0.09292,-0.06559 0.03833,0.01471 0.138196,-0.03834 0.225234,-0.11965 L 18.984634,23.01931 H 18.85572 c -0.2643,0 0.02109,-0.261132 0.445148,-0.407306 0.465052,-0.160306 1.067984,-0.494379 1.954928,-1.083187 l 0.915027,-0.607452 0.622268,0.159243 c 0.771191,0.197353 1.598804,0.308805 2.291691,0.308615 0.940926,-2.39e-4 1.99812,-0.273938 2.398963,-0.62103 0.05273,-0.04566 0.228908,-0.162346 0.391499,-0.259297 0.532911,-0.31777 1.410797,-1.383792 1.807785,-2.195208 0.211753,-0.432808 0.3285,-1.106631 0.33093,-1.910021 0.0034,-1.116075 -0.136322,-1.596509 -0.726258,-2.497663 -0.624057,-0.953275 -1.294628,-1.597902 -2.105426,-2.023964 -0.609843,-0.320463 -1.181645,-0.415646 -3.078261,-0.512407 l -0.934819,-0.04769 -0.88688,-0.904363 C 21.794531,9.9201772 21.222854,9.377315 21.01192,9.2112167 20.156736,8.5378074 19.274241,8.0325758 18.504496,7.7757076 17.790146,7.5373249 16.090301,7.4158019 14.559508,7.4936776 l -0.6038,0.030717 -0.765065,0.3869556 c -0.816661,0.4130521 -1.774699,0.992203 -2.26349,1.368318 -0.427301,0.3288012 -1.1224215,1.0008698 -1.4506078,1.4025028 -0.2440597,0.298679 -0.5314888,0.544036 -0.6373242,0.544036 -0.052953,0 0.5257226,-0.812097 0.819845,-1.150547 L 9.9298611,9.7640539 9.6317094,10.051691 c -0.1639836,0.1582 -0.3703979,0.3955 -0.4586985,0.527333 -0.0883,0.131834 -0.2356938,0.305785 -0.327541,0.386557 -0.164752,0.144888 -0.1727838,0.146583 -0.5981984,0.126244 -0.5933326,-0.02837 -0.7477671,0.06167 -0.1860376,0.10846 0.2277904,0.01897 0.4248729,0.05183 0.4379618,0.073 0.013088,0.02118 -0.1971659,0.05279 -0.4672313,0.07024 -2.0385174,0.131745 -2.732973,0.267107 -3.4448585,0.671466 -0.3653355,0.207514 -0.9720641,0.723624 -1.3269847,1.128791 -0.7301458,0.833513 -1.0394652,1.369147 -1.111628,1.924956 -0.059911,0.461442 -0.059792,2.272671 1.774e-4,2.7012 0.1218283,0.870566 1.05326,2.112483 2.1415651,2.855439 0.6157372,0.420347 0.8000514,0.498308 1.5252261,0.64514 1.0365528,0.209878 2.0229807,0.145808 3.217181,-0.208962 0.2656645,-0.07892 0.5888171,-0.156848 0.718116,-0.173166 l 0.2350898,-0.02967 -0.2756518,0.146243 c -0.1516085,0.08043 -0.2756518,0.156369 -0.2756518,0.168745 0,0.01238 0.1132569,-0.02253 0.2516821,-0.07756 0.3891189,-0.154711 0.4722069,-0.186171 0.4917039,-0.186171 0.0099,0 0.136452,0.199548 0.281162,0.44344 0.262563,0.442518 0.749211,1.142565 0.749211,1.077746 0,-0.01882 -0.195023,-0.339147 -0.433386,-0.711848 -0.238361,-0.372701 -0.422794,-0.688229 -0.40985,-0.701173 0.04172,-0.04172 0.476388,0.438667 0.732919,0.810019 0.26896,0.389346 0.589099,0.981702 0.589477,1.090718 1.92e-4,0.05039 -0.02581,0.04435 -0.103177,-0.02397 -0.0925,-0.08169 -0.08997,-0.06811 0.02397,0.128616 0.07006,0.120966 0.127382,0.268647 0.127382,0.328179 0,0.175108 -0.154305,0.390836 -0.300619,0.420287 -0.07306,0.0147 -0.144442,0.04552 -0.158633,0.06848 -0.041,0.06634 -0.638549,0.04712 -0.970889,-0.03123 -0.3154456,-0.07437 -0.7929334,-0.260715 -0.757872,-0.295777 0.011065,-0.01107 0.3700614,0.04701 0.797769,0.129061 0.427707,0.08205 0.787068,0.13976 0.79858,0.128249 0.02576,-0.02576 -0.550081,-0.160595 -0.852278,-0.19957 C 10.047323,23.539683 9.6628149,23.320928 9.5800858,23.166347 9.5037868,23.023782 9.442909,23.044242 9.4255981,23.218267 L 9.4105761,23.369286 9.075,23.376786 c -0.1845669,0.0041 -0.5836627,0.04656 -0.8868797,0.09427 -0.6765209,0.106448 -2.0122054,0.08379 -2.5887299,-0.04391 C 4.2594466,23.130373 3.0862063,22.500277 2.0954816,21.545382 1.0280713,20.516575 0.35405508,19.288115 0.03056799,17.781879 -0.11093423,17.12301 -0.12274384,15.783966 0.00722409,15.135011 0.30395155,13.653391 0.97562428,12.403083 2.0542683,11.324469 3.1358166,10.242952 4.1786025,9.7017803 5.6514226,9.457665 6.162597,9.3729394 7.3276597,9.2615021 7.7087246,9.2608858 l 0.1198486,-1.917e-4 0.00109,-0.6351987 C 7.8308498,7.9390056 7.9113387,7.4458009 8.1250048,6.8157781 8.313216,6.2608104 8.8243085,5.278713 8.890474,5.3448784 8.901883,5.3562874 8.833137,5.4988464 8.737704,5.6616767 8.1533562,6.6587151 7.888824,7.9521882 8.0463539,9.0421466 8.1115259,9.4930769 8.0972209,9.5040447 7.5169668,9.4480164 7.0083586,9.3989064 6.1547877,9.4547564 5.5596037,9.576095 4.8314429,9.7245403 3.8954686,10.102645 3.2790319,10.497374 1.6111958,11.565359 0.46230771,13.27153 0.10413431,15.212299 c -0.11251503,0.609664 -0.11251503,1.821011 0,2.430675 0.46925853,2.542685 2.30528839,4.650851 4.74069179,5.443357 1.1646912,0.379003 2.5726625,0.436551 3.7445959,0.153056 0.9566033,-0.231407 0.9172709,-0.2966 -0.055112,-0.09135 -0.530517,0.111983 -0.7221214,0.128853 -1.4727682,0.129671 -0.9350243,0.001 -1.4187644,-0.07232 -2.2102029,-0.33511 C 2.8147563,22.266388 1.1745075,20.594515 0.45452666,18.461019 -0.1303097,16.727991 0.03292047,15.026087 0.95530855,13.239663 1.6062429,11.978974 2.6671043,10.911914 3.8551373,10.32289 4.8684094,9.8205128 6.1411508,9.5511237 7.5101791,9.5492623 L 8.1985132,9.5483264 8.1719169,9.4404626 C 8.1572887,9.3811376 8.1306545,9.1167187 8.1127294,8.8528651 8.0422968,7.8161251 8.3173192,6.7256873 8.9108766,5.688283 L 9.1160675,5.3296554 H 9.4423582 9.7686484 L 9.5760992,5.5813375 C 9.3663444,5.8555089 8.8504249,6.871692 8.7702496,7.1685821 8.7236663,7.3410811 8.7257982,7.3486311 8.8017635,7.2801809 8.9330169,7.1619119 9.1274416,7.1346208 9.2836364,7.212541 9.4172892,7.2792159 9.4280785,7.2769816 9.4848685,7.1708685 9.5617816,7.0271553 9.4784724,6.9119814 9.2968414,6.9109229 9.2275612,6.9105202 9.1402242,6.8907875 9.102759,6.8670748 8.9913338,6.7965508 9.1554071,6.5941503 9.3542392,6.5568492 9.4937286,6.5306809 9.5460862,6.4797509 9.6946472,6.2257228 9.7912077,6.060612 9.9896373,5.7914514 10.135602,5.6275883 l 0.26539,-0.2979329 h 0.309053 0.309052 l -0.300897,0.2929621 -0.300897,0.2929621 0.330524,-0.2929621 0.330525,-0.2929621 0.724143,0.00165 0.724144,0.00165 -0.335577,0.1331577 c -0.410238,0.1627839 -0.688796,0.3362754 -0.985442,0.6137531 -0.240506,0.2249655 -0.506947,0.5778361 -0.466697,0.6180865 0.01334,0.013341 0.367103,-0.1393495 0.786137,-0.3393123 1.342321,-0.640554 1.934021,-0.8024564 3.254732,-0.8905684 1.082482,-0.072218 3.082183,-0.027963 3.571489,0.079041 0.412897,0.090295 1.361484,0.4398223 1.828707,0.6738269 0.336675,0.1686211 0.519228,0.3495674 0.522002,0.5174087 0.0012,0.074096 0.112279,0.1722607 0.412446,0.3645719 0.561906,0.360004 1.156642,0.8421557 1.998837,1.6204569 0.391111,0.3614382 0.774315,0.6923554 0.851566,0.7353716 0.09053,0.050411 0.323407,0.090056 0.655165,0.1115362 1.211745,0.078455 2.378256,0.3078539 3.094003,0.6084478 0.189756,0.07969 0.366584,0.143006 0.392951,0.140696 0.02637,-0.0023 0.12349,-0.01669 0.21583,-0.03196 0.10321,-0.01707 0.250962,0.0029 0.383516,0.05193 0.42009,0.155267 0.394946,0.16592 0.585218,-0.247951 C 29.532568,9.5671354 29.616688,9.2798138 29.663808,8.8198562 29.739337,8.0826013 29.593729,7.3513555 29.24566,6.7198992 29.026051,6.3214923 28.440204,5.7342375 28.035048,5.5063799 l -0.311606,-0.1752461 0.893701,-7.392e-4 0.8937,-7.392e-4 0.276308,0.2984449 c 0.151969,0.1641446 0.316832,0.390059 0.366363,0.5020319 0.08864,0.200385 0.08856,0.2065248 -0.0052,0.3903748 -0.09363,0.1835299 -0.09374,0.1908695 -0.0063,0.4208024 0.04893,0.128708 0.118032,0.2352921 0.153563,0.2368535 0.230846,0.010145 0.383945,0.1604166 0.444547,0.436338 0.03998,0.1820336 -0.06636,0.4636516 -0.208619,0.5524966 -0.132202,0.082562 -0.138775,0.3556482 -0.0095,0.3966636 0.05054,0.016041 0.127684,0.1275346 0.176271,0.2547563 0.081,0.212105 0.08168,0.2490379 0.01088,0.5914461 -0.146393,0.7079735 -0.671337,1.6899225 -1.035832,1.9376025 -0.156053,0.106041 -0.162616,0.118438 -0.0627,0.118438 0.19351,0 0.381168,0.14661 0.425383,0.332336 l 0.04071,0.171028 0.255855,-0.378612 c 0.33029,-0.488761 0.738653,-1.342796 0.866379,-1.8119115 0.136077,-0.4997905 0.189623,-1.203396 0.137595,-1.8080323 -0.07898,-0.9178044 -0.28419,-1.5457539 -0.727319,-2.2255738 l -0.270826,-0.415483 h 0.276432 0.276433 l 0.158285,0.2611697 c 0.262123,0.4325011 0.536355,1.1229863 0.657855,1.656408 0.351768,1.5443636 0.0962,2.7895409 -0.914712,4.4566879 -0.314313,0.51835 -0.269066,0.520953 0.112403,0.0065 0.481072,-0.648822 0.807633,-1.376489 0.995291,-2.2177842 0.11228,-0.5033665 0.111038,-1.6155871 -0.0024,-2.1494908 -0.137722,-0.6481941 -0.471425,-1.4787019 -0.756047,-1.8816231 -0.09182,-0.1299816 -0.09183,-0.1318335 -6.62e-4,-0.1318335 0.166417,0 0.572659,0.8426781 0.757586,1.5714767 0.433539,1.7085889 0.151903,3.3425439 -0.849417,4.9280229 -0.102224,0.16186 -0.185863,0.313452 -0.185863,0.336869 0,0.02342 0.170071,0.420182 0.377934,0.881699 0.654923,1.454118 0.808668,2.025502 0.851403,3.164186 0.04803,1.27975 -0.1402,2.246249 -0.630202,3.235912 -0.343724,0.694221 -0.770965,1.25815 -1.507266,1.989487 -1.212413,1.204239 -2.37951,1.824553 -3.838864,2.040362 -0.702892,0.103944 -1.873062,0.06725 -2.896486,-0.09082 l -0.716231,-0.110623 -0.821087,0.515741 c -1.001432,0.629021 -1.624354,0.952548 -1.900638,0.987134 -0.279098,0.03494 -0.205132,-0.03324 0.239285,-0.220563 0.691256,-0.291367 1.645644,-0.87979 2.266132,-1.397171 l 0.220868,-0.184165 0.354406,0.112529 c 2.512048,0.797617 5.208682,0.140378 7.066596,-1.722312 1.045463,-1.04815 1.689584,-2.270296 1.971819,-3.741302 0.123567,-0.644029 0.111853,-1.859033 -0.02412,-2.501883 -0.188853,-0.892843 -0.573211,-1.81335 -1.042187,-2.495946 -0.269896,-0.392836 -0.269267,-0.391013 0.235901,0.68328 0.223173,0.4746 0.460251,1.036486 0.526838,1.248635 0.176331,0.561785 0.241278,1.24358 0.211933,2.224795 -0.02177,0.727872 -0.04444,0.915347 -0.168371,1.392423 -0.309421,1.191113 -0.8183,2.058795 -1.758224,2.997926 -1.092492,1.091572 -2.178079,1.703895 -3.537724,1.995449 -0.391171,0.08388 -0.652707,0.105665 -1.282387,0.106817 -0.804551,0.0015 -1.081505,-0.03119 -2.033537,-0.239838 l -0.523445,-0.114718 -0.842829,0.543586 c -1.04004,0.670777 -1.579626,0.983607 -1.802932,1.045265 -0.234586,0.06477 -0.440102,-0.01091 -0.670569,-0.246926 -0.102584,-0.105055 -0.208526,-0.191009 -0.235426,-0.191009 -0.0269,0 0.101522,0.153262 0.285381,0.340583 0.253919,0.258698 0.305476,0.332038 0.214442,0.305039 -0.138266,-0.04101 -0.479373,-0.266403 -0.571916,-0.37791 -0.03467,-0.04178 -0.09052,-0.07596 -0.12411,-0.07596 -0.06096,0 -0.310996,-0.258951 -0.395045,-0.409139 -0.04043,-0.07224 -0.114604,-0.06346 -0.830951,0.09842 -0.432606,0.09776 -0.807481,0.197312 -0.833055,0.221219 -0.02902,0.02713 0.28622,0.376552 0.8386,0.929538 l 0.885097,0.886069 -2.204873,2.2088 c -3.057783,3.063229 -3.767525,3.7354 -3.944184,3.7354 -0.07669,0 -0.176002,-0.0404 -0.220692,-0.08979 z m 0.914629,-1.625765 c -0.04466,-0.04935 -0.0812,-0.11931 -0.0812,-0.155466 0,-0.121121 -0.08227,0.01967 -0.168878,0.289015 -0.04663,0.145016 -0.09531,0.296026 -0.108183,0.335576 -0.01287,0.03955 0.08075,-0.02963 0.208034,-0.153744 0.220477,-0.214968 0.22759,-0.2299 0.150231,-0.315381 z m 0.85474,-0.493384 c 0.25898,-0.262261 0.351448,-0.38307 0.286512,-0.374329 -0.161682,0.02177 -0.296409,-0.04893 -0.479553,-0.251652 -0.1675,-0.185403 -0.173993,-0.205295 -0.14408,-0.441393 0.01723,-0.135983 0.042,-0.284993 0.05506,-0.331135 0.01305,-0.04614 0.01359,-0.08389 0.0012,-0.08389 -0.02276,0 -0.116001,0.293435 -0.341623,1.075158 -0.160766,0.557014 -0.112955,0.754465 0.19103,0.788919 0.02698,0.0031 0.22114,-0.168695 0.431455,-0.381674 z m 0.573435,-1.433308 c 0.03534,-0.05718 0.170383,-1.12448 0.163688,-1.293698 -0.0059,-0.149644 -0.10626,0.301497 -0.199515,0.897042 -0.06194,0.395587 -0.04939,0.534544 0.03583,0.396656 z m 0.935533,-0.888035 c 0.328792,-0.329584 0.587018,-0.599243 0.573835,-0.599243 -0.01318,0 -0.292982,0.269659 -0.621774,0.599243 -0.328793,0.329583 -0.587018,0.599243 -0.573835,0.599243 0.01318,0 0.292982,-0.26966 0.621774,-0.599243 z m 0.261336,-1.363698 c 0.08088,-0.08937 0.08004,-0.09947 -0.0198,-0.239697 -0.05733,-0.08052 -0.113559,-0.146395 -0.124947,-0.146395 -0.01139,0 -0.0207,0.107864 -0.0207,0.239697 0,0.259815 0.03488,0.290678 0.165457,0.146395 z m -1.685861,-1.466107 c -0.06565,-0.137667 -0.07121,-0.204616 -0.02985,-0.359546 0.02795,-0.104709 0.04195,-0.19038 0.03113,-0.19038 -0.02231,0 -0.316527,0.147125 -0.345291,0.172666 -0.01909,0.01695 0.375596,0.546426 0.407325,0.546426 0.0096,0 -0.01894,-0.07613 -0.0633,-0.169166 z m 2.766829,0.104687 c 0,-0.0091 -0.04854,-0.05764 -0.107863,-0.107864 l -0.107864,-0.09132 0.09132,0.107864 c 0.08582,0.101365 0.124403,0.129687 0.124403,0.09132 z m -1.15788,-1.159542 c 0.186611,-0.237238 0.13572,-0.273514 -0.20421,-0.145565 -0.169083,0.06364 -0.367374,0.147126 -0.440649,0.185518 l -0.133225,0.0698 0.146274,0.03213 c 0.08045,0.01767 0.207144,0.09566 0.281541,0.173316 l 0.135267,0.141188 0.05589,-0.162588 c 0.03074,-0.08942 0.10234,-0.221633 0.159107,-0.2938 z m 3.948266,-0.05836 c 0.107109,-0.177908 0.05984,-0.200485 -0.121358,-0.05796 -0.110647,0.08703 -0.118182,0.11147 -0.0682,0.221165 0.03557,0.07807 0.06345,0.09933 0.07597,0.05796 0.01088,-0.03595 0.062,-0.135473 0.113587,-0.221164 z m 0.62213,0.161251 c 0.03218,0.01989 0.04065,0.01183 0.02099,-0.01997 -0.01912,-0.03094 0.02806,-0.08485 0.112442,-0.128487 0.07996,-0.04135 0.145385,-0.08597 0.145385,-0.09915 0,-0.01318 -0.06667,0.0105 -0.148145,0.05264 -0.08148,0.04214 -0.179677,0.06451 -0.218217,0.04972 -0.03925,-0.01506 -0.05719,-0.006 -0.04078,0.0205 0.01611,0.02606 0.0078,0.04739 -0.01836,0.04739 -0.02621,0 -0.107647,0.02281 -0.180978,0.05069 -0.102654,0.03903 -0.117811,0.06028 -0.06588,0.09238 0.04189,0.02589 0.119017,0.01502 0.203526,-0.02868 0.07484,-0.0387 0.160349,-0.05537 0.190015,-0.03703 z m 1.174175,-0.418255 c 0.298556,-0.187494 0.54283,-0.356839 0.54283,-0.376323 0,-0.03256 -0.250792,-0.403245 -0.337064,-0.498192 -0.02044,-0.02249 -0.163293,0.04401 -0.317457,0.147794 -0.154164,0.103779 -0.393533,0.251618 -0.531932,0.328532 -0.271869,0.15109 -0.299175,0.188163 -0.164519,0.223377 0.102659,0.02685 0.267736,0.348142 0.229741,0.447156 -0.01447,0.0377 -0.01238,0.06855 0.0046,0.06855 0.01702,0 0.275212,-0.153404 0.573769,-0.340898 z M 10.864633,22.85688 10.713616,22.550633 10.613399,22.749017 c -0.05774,0.114305 -0.140852,0.205435 -0.196096,0.215021 -0.294739,0.05115 -0.01293,0.18159 0.419022,0.193956 l 0.179326,0.0051 z m -1.1520109,-0.192255 -0.3020473,-0.258806 -0.1090085,0.10045 -0.1090091,0.10045 0.2097447,0.05326 c 0.1153596,0.02929 0.2830637,0.100188 0.372676,0.157549 0.2775981,0.17769 0.2529601,0.117276 -0.062356,-0.152899 z m -2.4086646,0.05638 c -0.1102358,-0.157384 -0.091071,-0.326469 0.05419,-0.478089 L 7.4869654,22.10846 6.9626473,22.108317 C 5.1830619,22.107837 4.2764238,21.733193 2.9707337,20.458672 2.1208084,19.629044 1.6164789,18.848931 1.4519402,18.109361 l -0.082581,-0.371188 -0.15731,0.152471 c -0.1198769,0.116189 -0.1824228,0.1445 -0.26284442,0.118975 -0.0983426,-0.03121 -0.10321262,-0.02255 -0.0714639,0.12708 0.0187388,0.08832 0.10833945,0.35473 0.19911262,0.592031 0.5616977,1.468397 1.6709327,2.692531 3.0843528,3.403843 0.9060617,0.455981 1.792741,0.674516 2.7951907,0.688915 l 0.4221888,0.0061 z M 20.215083,22.579697 c 0.251531,-0.14184 0.881087,-0.559957 1.572294,-1.04423 0.399593,-0.279963 0.610847,-0.299296 1.19006,-0.108906 0.404369,0.132918 0.78573,0.22785 0.739566,0.184101 -0.01126,-0.01067 -0.219429,-0.08579 -0.462596,-0.166932 -0.243167,-0.08114 -0.572598,-0.213393 -0.732067,-0.293893 l -0.289945,-0.146364 -0.444311,0.375715 c -0.58615,0.495656 -0.921328,0.740996 -1.469449,1.075594 -0.483749,0.295303 -0.552258,0.377947 -0.103552,0.124915 z m 3.636785,0.02395 c -0.04732,-0.10386 -0.0461,-0.132103 0.0065,-0.149622 0.05347,-0.01782 0.05371,-0.02844 0.0013,-0.0608 -0.05034,-0.03111 -0.04403,-0.06079 0.03053,-0.143674 0.05169,-0.05746 0.136639,-0.120391 0.188785,-0.139857 0.0671,-0.02505 0.01104,-0.04516 -0.191758,-0.06879 -0.157613,-0.01837 -0.358953,-0.04587 -0.447422,-0.06111 -0.150764,-0.02598 -0.157529,-0.02151 -0.107864,0.07129 0.09549,0.178415 0.06244,0.330663 -0.09923,0.457187 l -0.152216,0.119127 0.23611,0.03194 c 0.12986,0.01756 0.257682,0.03932 0.284048,0.04835 0.02637,0.009 0.106802,0.01812 0.178745,0.0202 0.124645,0.0036 0.128059,-0.0022 0.07247,-0.124241 z m 2.800847,0.03013 c 1.27413,-0.325315 2.611197,-1.290813 3.604443,-2.602773 0.182946,-0.24165 0.188572,-0.319514 0.02309,-0.319514 -0.07371,0 -0.09022,-0.02091 -0.06624,-0.08389 0.02561,-0.06727 0.01997,-0.07202 -0.02843,-0.02397 -0.09212,0.09144 -0.131244,0.07353 -0.198275,-0.09074 l -0.06148,-0.150669 -0.302839,0.416819 c -0.513313,0.70651 -1.212694,1.355737 -1.537518,1.427262 -0.03819,0.0084 -0.117265,0.07017 -0.175727,0.13725 -0.18689,0.214435 -0.89561,0.510914 -1.528599,0.63946 -0.316401,0.06425 -0.552431,0.118767 -0.524512,0.121141 0.1902,0.01618 0.335866,0.407463 0.20872,0.560664 -0.08175,0.0985 0.12224,0.08773 0.587369,-0.03103 z M 8.4517859,22.389333 c 0.5878153,-0.114174 0.6548888,-0.133741 0.624884,-0.182289 -0.01303,-0.02108 -0.2152021,0.01141 -0.4492722,0.07221 -0.2340701,0.0608 -0.5585832,0.125585 -0.7211396,0.143976 -0.1625569,0.01839 -0.3058666,0.05012 -0.3184656,0.0705 -0.029495,0.04772 0.2624019,0.01246 0.8639934,-0.104397 z m 17.3301091,0.107625 c 0.12077,-0.02007 -0.111347,-0.02735 -0.527334,-0.01653 -0.408684,0.01063 -0.764634,0.02666 -0.791001,0.03562 -0.09715,0.03303 1.109889,0.01555 1.318335,-0.01909 z m -1.44961,-0.03792 c -0.04583,-0.012 -0.132125,-0.01243 -0.191757,-9.69e-4 -0.05963,0.01147 -0.02213,0.02128 0.08334,0.02182 0.105466,5.32e-4 0.154257,-0.0088 0.108422,-0.02085 z M 22.64742,22.175776 c 0.341886,0.08928 0.39184,0.06681 0.08438,-0.03795 -0.295317,-0.100625 -0.367711,-0.09755 -0.504096,0.02142 l -0.113175,0.09872 0.127448,-0.07739 c 0.11562,-0.07021 0.153248,-0.07066 0.405445,-0.0048 z M 9.3866051,21.796854 c 0.063222,-0.07618 0.016351,-0.09357 -0.1156525,-0.04292 -0.041555,0.01595 -0.063619,0.0483 -0.049031,0.07191 0.038825,0.06282 0.096983,0.05258 0.1646835,-0.02899 z m 0.6711519,-0.09588 c -0.03282,-0.03955 -0.1055763,-0.07159 -0.1616726,-0.0712 -0.095616,6.61e-4 -0.0945,0.0049 0.017855,0.06721 0.1614266,0.08957 0.2161026,0.09109 0.1438176,0.004 z M 5.6473285,21.562748 c 0,-0.01011 -0.043175,-0.02967 -0.095945,-0.04347 -0.05277,-0.0138 -0.083856,-0.0055 -0.06908,0.01838 0.025803,0.04175 0.1650248,0.06292 0.165025,0.02509 z M 2.6168479,19.411867 c -0.2926743,-0.387903 -0.660976,-1.22842 -0.7797126,-1.779417 -0.054937,-0.254934 -0.079959,-0.09021 -0.029275,0.192722 0.074305,0.414788 0.7579206,1.742498 0.8971835,1.742498 0.016147,0 -0.023541,-0.07011 -0.088196,-0.155803 z m 27.7813961,0.04213 c 0.01612,0.01612 0.08635,0.015 0.156066,-0.0025 0.109562,-0.0275 0.122409,-0.04941 0.09472,-0.161561 -0.04318,-0.174881 -0.06517,-0.191637 -0.300903,-0.229299 -0.194143,-0.03102 -0.203742,-0.02689 -0.203742,0.08756 0,0.06606 0.03334,0.147777 0.07409,0.181596 0.04075,0.03382 0.06183,0.09344 0.04684,0.132499 -0.02124,0.05534 -0.01281,0.05903 0.03818,0.01671 0.03599,-0.02987 0.07862,-0.04111 0.09474,-0.02499 z m 0.677301,-0.930008 c 0.361421,-1.08525 0.406954,-2.488487 0.116715,-3.596986 -0.151677,-0.579294 -0.996971,-2.553901 -0.999366,-2.334519 -0.0029,0.26958 -0.362173,0.45378 -0.616547,0.316143 -0.130984,-0.07087 -0.157268,-0.121145 0.273338,0.522797 0.561327,0.839425 0.778948,1.389109 0.873049,2.205215 0.11507,0.99797 -0.0252,2.151668 -0.362829,2.98423 -0.02798,0.069 -0.0081,0.08389 0.112253,0.08389 0.08542,0 0.202108,0.04803 0.280492,0.115449 0.07382,0.0635 0.14883,0.106419 0.16669,0.09538 0.01786,-0.01104 0.08815,-0.187259 0.156205,-0.391603 z m -0.835877,-0.822817 c 0.06219,-0.327908 0.02717,-0.377668 -0.04125,-0.05862 -0.02816,0.131322 -0.09223,0.343145 -0.142369,0.470717 -0.15583,0.396486 -0.158425,0.43467 -0.0092,0.134984 0.07909,-0.158799 0.165841,-0.404984 0.192789,-0.547078 z M 1.0093641,16.283818 c 0.018596,-1.092851 0.016082,-1.134921 -0.0501254,-0.83894 -0.0798286,0.356874 -0.10215905,1.372407 -0.03953,1.797729 0.0232951,0.1582 0.0485924,0.266064 0.0562164,0.239697 0.007624,-0.02637 0.0226715,-0.565685 0.033439,-1.198486 z M 30.240646,15.182785 c -0.05132,-0.265335 -0.281062,-0.863453 -0.317621,-0.826894 -0.0086,0.0086 0.03698,0.165438 0.101267,0.348557 0.06428,0.18312 0.144567,0.49474 0.178409,0.69249 0.04222,0.246695 0.06661,0.3149 0.0777,0.217302 0.0089,-0.07824 -0.009,-0.27239 -0.03976,-0.431455 z M 1.4286576,14.940001 c 0,-0.906062 1.5631329,-2.880032 2.841047,-3.587758 0.3665025,-0.202974 1.0028022,-0.427627 1.4421686,-0.509174 0.1805165,-0.0335 0.3089899,-0.07426 0.2854962,-0.09057 -0.023494,-0.01631 -0.088359,-0.10851 -0.1441453,-0.20489 -0.091065,-0.15733 -0.094243,-0.185497 -0.031095,-0.275652 0.065609,-0.09367 0.062513,-0.100416 -0.046086,-0.100416 -0.1987387,0 -1.0043956,0.222282 -1.3949407,0.384867 -0.8212992,0.341907 -1.8435147,1.183205 -2.5014476,2.058727 -0.3445138,0.45845 -0.7682189,1.278088 -0.951408,1.840455 -0.0675408,0.207342 -0.12280148,0.396103 -0.12280148,0.419471 0,0.02337 0.0829475,0.04248 0.18432773,0.04248 0.12344505,0 0.21298725,0.03167 0.27109695,0.09588 0.1247661,0.137865 0.1677881,0.119039 0.1677876,-0.07342 z m 0.6677532,-0.546709 c 0.079965,-0.196055 0.1381221,-0.363733 0.1292383,-0.372617 -0.025126,-0.02513 -0.3001115,0.615876 -0.3333359,0.77702 -0.035201,0.17073 -0.010601,0.121988 0.2040976,-0.404403 z M 28.907683,12.07051 c -0.02409,-0.206356 0.101104,-0.403956 0.311681,-0.491941 0.08689,-0.03631 0.157989,-0.07596 0.157989,-0.08811 0,-0.01215 -0.05957,-0.0529 -0.132385,-0.09055 -0.119555,-0.06183 -0.143547,-0.05942 -0.247575,0.02482 -0.150729,0.122053 -0.230146,0.103662 -1.178072,-0.272816 C 26.759446,10.73097 26.236277,10.606238 24.617267,10.388486 23.856378,10.286148 23.634287,10.193772 23.087401,9.7521512 22.834296,9.5477641 22.314149,9.1269861 21.93152,8.8170889 20.929861,8.0058299 20.282982,7.5673393 19.573737,7.2188539 18.739054,6.8087348 18.473943,6.7246371 17.823947,6.6637915 c -0.574092,-0.05374 -3.401518,-0.021494 -3.763246,0.04292 -0.108683,0.019353 0.670148,0.058514 1.797729,0.090394 2.0883,0.059041 2.299039,0.081642 2.996215,0.3213413 0.463333,0.1593005 1.206767,0.5405483 1.74979,0.8973279 0.666676,0.4380226 1.318827,0.9949784 2.153783,1.8393912 l 0.739569,0.7479471 0.914342,0.04913 c 1.783183,0.09581 2.300081,0.189521 3.031614,0.549599 0.438562,0.21587 1.086803,0.66449 1.306768,0.904359 0.152407,0.166196 0.180009,0.159928 0.157172,-0.03569 z M 3.975563,12.05316 c 0.05963,-0.07604 0.057935,-0.07773 -0.0181,-0.0181 -0.046142,0.03619 -0.083894,0.07394 -0.083894,0.08389 0,0.03946 0.039367,0.01406 0.101994,-0.06579 z M 27.02832,11.46495 c -0.108211,-0.07136 -0.666755,-0.23919 -0.784066,-0.23559 -0.05655,0.0017 0.005,0.0328 0.136884,0.06903 0.131833,0.03623 0.325988,0.09801 0.431455,0.137286 0.224733,0.08369 0.317279,0.09624 0.215727,0.02927 z m -3.020185,-0.256624 c 0.537156,-0.05709 0.544538,-0.05944 0.287637,-0.09185 -0.145017,-0.01829 -0.457822,-0.03424 -0.695122,-0.03544 l -0.431455,-0.0022 -0.287637,-0.415899 C 22.062616,9.478835 20.410882,8.1705867 19.050482,7.6285727 18.642149,7.4658836 17.789218,7.2341491 17.706621,7.2634567 c -0.02775,0.00985 0.07897,0.045097 0.237175,0.078332 1.379714,0.289849 3.247014,1.4096493 4.248272,2.5476448 0.491729,0.5588825 0.469595,0.5286905 0.936056,1.2768495 0.07738,0.124111 0.09837,0.125114 0.880011,0.04204 z m 5.540022,-0.281743 0.140802,-0.155803 -0.155803,0.140803 c -0.145231,0.131247 -0.177839,0.170804 -0.140803,0.170804 0.0083,0 0.07836,-0.07011 0.155804,-0.155804 z m -0.985775,0.03984 c 0,-0.04822 -0.845974,-0.474996 -1.253629,-0.632433 -0.81308,-0.314012 -1.332115,-0.4066108 -2.389768,-0.4263494 -0.800045,-0.014931 -0.865704,-0.011187 -0.455425,0.025967 1.705554,0.1544514 2.56774,0.3604784 3.667367,0.8763484 0.358216,0.168051 0.431455,0.194611 0.431455,0.156467 z M 8.395739,10.572183 c 0.1793496,-0.02624 0.5114717,-0.2623 0.5114717,-0.363541 0,-0.028 -0.031174,-0.02297 -0.073068,0.0118 -0.040187,0.03335 -0.080607,0.05217 -0.089822,0.04182 -0.00922,-0.01035 -0.038124,-0.169826 -0.064242,-0.3543928 C 8.6483851,9.6839009 8.6304275,9.6298131 8.6260832,9.7452397 l -0.00651,0.1729436 -0.2946689,0.030799 C 8.1628364,9.9659213 7.9093566,9.9823333 7.7616159,9.9854533 7.6138751,9.9885733 7.428278,10.005446 7.349178,10.022949 l -0.1438184,0.03182 0.1318335,0.08787 c 0.072508,0.04833 0.1318335,0.106958 0.1318335,0.130293 0,0.02333 -0.1887616,0.04686 -0.4194702,0.05228 l -0.4194701,0.0099 0.4250728,0.01606 0.4250733,0.01606 -0.029369,0.146842 -0.029368,0.146842 0.3952962,-0.03091 c 0.217413,-0.017 0.4779385,-0.043 0.5789464,-0.05778 z M 6.0658001,10.430212 c -0.01593,-0.01593 -0.057278,-0.01763 -0.091884,-0.0038 -0.038243,0.0153 -0.026884,0.02666 0.028964,0.02896 0.050536,0.0021 0.07885,-0.0092 0.06292,-0.02518 z m 0.4330125,-0.05191 c -0.045834,-0.012 -0.1321254,-0.01243 -0.1917577,-9.68e-4 -0.059632,0.01147 -0.022132,0.02128 0.083335,0.02182 0.1054668,5.32e-4 0.1542571,-0.0089 0.1084227,-0.02085 z M 23.001407,9.0051004 C 21.850469,7.8704237 21.121336,7.331623 20.005192,6.7910144 19.403044,6.4993618 18.651742,6.2117005 18.607559,6.2558835 c -0.01182,0.011823 0.222303,0.1232651 0.52028,0.2476483 1.381418,0.576639 2.300393,1.1998899 3.917643,2.6569536 0.353826,0.3187793 0.655844,0.579054 0.671153,0.5783883 C 23.731943,9.738208 23.410091,9.40801 23.001407,9.0051004 Z m 7.318544,0.1477256 c -0.0133,-0.032958 -0.02418,-0.00599 -0.02418,0.059924 0,0.065917 0.01088,0.092883 0.02418,0.059924 0.0133,-0.032958 0.0133,-0.08689 0,-0.119848 z m 0.05002,-0.431455 c -0.01143,-0.059325 -0.02078,-0.010786 -0.02078,0.1078637 0,0.1186501 0.0093,0.1671888 0.02078,0.1078638 0.01143,-0.059325 0.01143,-0.1564025 0,-0.2157275 z M 11.328153,8.122224 c 0.3164,-0.2038251 1.006728,-0.5911868 1.534062,-0.8608039 0.527334,-0.2696171 0.925322,-0.4909708 0.884417,-0.4918971 -0.173897,-0.00394 -0.896846,0.2472678 -1.723358,0.5988225 -0.73168,0.3112185 -0.932449,0.3776714 -1.147284,0.379742 -0.203669,0.00196 -0.284143,0.026011 -0.369352,0.1103735 -0.05992,0.059325 -0.14768,0.1094621 -0.19502,0.1114157 -0.04734,0.00195 0.05271,0.067442 0.22234,0.1455294 l 0.308412,0.1419776 -0.284442,0.2942102 -0.284443,0.2942102 0.239697,-0.1764945 c 0.131833,-0.097072 0.49857,-0.3432605 0.814971,-0.5470856 z M 9.4588172,8.6371609 C 9.538389,8.5541059 9.5777411,8.4776198 9.5516802,8.4566699 9.5268054,8.4366737 9.4471286,8.3683372 9.3746202,8.3048111 L 9.2427868,8.1893089 v 0.2959932 c 0,0.1627963 0.017537,0.2959932 0.03897,0.2959932 0.021434,0 0.1011105,-0.06486 0.1770604,-0.1441344 z M 30.531051,7.8208197 c 0.129039,-0.06906 0.115754,-0.2094851 -0.02705,-0.2859113 -0.152462,-0.081595 -0.171479,-0.059485 -0.136141,0.1582819 0.03195,0.1969052 0.03268,0.197475 0.163191,0.1276294 z M 14.204519,7.2948409 c 0.210934,-0.048105 0.327641,-0.089283 0.259351,-0.091506 -0.172074,-0.0056 -0.787367,0.1565902 -1.179153,0.3108246 -0.510724,0.2010571 -0.467713,0.2286531 0.06067,0.038926 0.261589,-0.093929 0.648199,-0.2101394 0.859132,-0.2582446 z M 11.993672,6.915481 C 12.98939,6.4801934 13.32143,6.3649126 13.864435,6.2659705 15.015054,6.0563137 16.739173,6.0104759 17.78614,6.1617074 c 0.335156,0.048412 0.637174,0.078483 0.671152,0.066824 0.08755,-0.030042 -0.723349,-0.2137002 -1.207361,-0.2734527 -0.515659,-0.063659 -1.811786,-0.064105 -2.37426,-8.165e-4 -0.56741,0.063844 -1.489089,0.2890639 -2.072547,0.5064436 -0.695664,0.2591839 -1.880131,0.8336107 -1.720301,0.8342877 0.02327,1.006e-4 0.433151,-0.170682 0.910849,-0.3795125 z M 10.320941,6.1206562 c 0.08029,-0.1115338 0.09924,-0.1580053 0.0453,-0.1110799 -0.05101,0.044373 -0.133569,0.1522366 -0.183457,0.2396972 -0.107046,0.1876647 -0.05394,0.1382238 0.138162,-0.1286173 z"
     id="path887"
     inkscape:connector-curvature="0" />
  <path
     style="opacity:0.65399996;fill:#00ffff;fill-opacity:1;stroke:#00ffff;stroke-width:0.27178267;stroke-miterlimit:4;stroke-dasharray:none;stroke-dashoffset:0;stroke-opacity:1"
     d="m 20.72879,23.128362 c -0.04672,-0.09797 -0.06684,-0.18441 -0.04472,-0.192097 0.02212,-0.0077 0.191226,-0.110346 0.375792,-0.22813 l 0.335577,-0.214152 0.107625,0.13083 c 0.05919,0.07196 0.107544,0.141616 0.107445,0.1548 -1.54e-4,0.02026 -0.231722,0.174628 -0.697681,0.465096 -0.09058,0.05647 -0.106394,0.04647 -0.184035,-0.116347 z"
     id="path889"
     inkscape:connector-curvature="0" />
  <path
     style="opacity:0.65399996;fill:#00ffff;fill-opacity:1;stroke:#00ffff;stroke-width:0.27178267;stroke-miterlimit:4;stroke-dasharray:none;stroke-dashoffset:0;stroke-opacity:1"
     d="m 26.115784,22.638946 c 0.0831,-0.155267 0.05625,-0.291537 -0.08532,-0.433106 l -0.134942,-0.134943 0.277112,-0.03135 c 0.593169,-0.06711 1.297917,-0.328168 1.694208,-0.627583 0.105695,-0.07986 0.300037,-0.207533 0.43187,-0.283724 0.328499,-0.189849 0.875839,-0.728535 1.283139,-1.262851 l 0.339479,-0.445345 0.05834,0.138758 c 0.04682,0.11135 0.09767,0.145046 0.257451,0.170596 l 0.199107,0.03184 -0.22937,0.298718 c -0.784326,1.021461 -1.971512,1.9787 -2.896361,2.335359 -0.320171,0.123471 -1.079398,0.334889 -1.206704,0.336025 -0.0207,1.87e-4 -0.01531,-0.04139 0.01199,-0.09239 z m 0.577923,-0.149089 c 0.765823,-0.209294 1.710364,-0.766044 2.475919,-1.459404 0.375533,-0.34012 1.022697,-1.079296 1.022697,-1.168103 0,-0.02924 -0.05393,-0.06669 -0.119848,-0.08324 -0.06592,-0.01654 -0.119849,-0.04931 -0.119849,-0.07282 0,-0.106807 -0.10279,-0.01637 -0.353667,0.311175 -0.339479,0.443219 -0.949266,1.029362 -1.257459,1.208699 -0.128998,0.07506 -0.32406,0.204297 -0.433471,0.287183 -0.255219,0.193346 -0.792692,0.416576 -1.323591,0.549729 -0.380788,0.0955 -0.415692,0.113912 -0.392396,0.20694 0.01406,0.05616 0.0292,0.150649 0.03364,0.209974 0.0099,0.131709 0.02131,0.13195 0.468025,0.0099 z"
     id="path891"
     inkscape:connector-curvature="0" />
  <path
     style="opacity:0.65399996;fill:#00ffff;fill-opacity:1;stroke:#00ffff;stroke-width:0.27178267;stroke-miterlimit:4;stroke-dasharray:none;stroke-dashoffset:0;stroke-opacity:1"
     d="M 14.94758,2.9782403 14.731853,2.7506355 15.091399,2.49561 c 1.588377,-1.1266349 2.310022,-1.489429 3.390522,-1.70452653 0.609632,-0.1213605 2.31308,-0.12196437 2.907474,-0.001031 1.245267,0.25335843 2.290088,0.76923783 3.451696,1.70427043 0.349839,0.2816022 0.404393,0.3424812 0.306902,0.3424812 -0.09175,0 -0.137922,0.042919 -0.204125,0.1897325 L 24.85831,3.2162696 24.445208,2.8644181 C 23.020638,1.6510711 21.753824,1.1596036 20.049594,1.1591166 18.41752,1.1586516 17.090917,1.637975 15.793166,2.6970377 15.585887,2.8661928 15.359373,3.0498743 15.289802,3.1052187 l -0.126494,0.1006264 z"
     id="path893"
     inkscape:connector-curvature="0" />
  <path
     style="opacity:0.65399996;fill:#00ffff;fill-opacity:1;stroke:#00ffff;stroke-width:0.27178267;stroke-miterlimit:4;stroke-dasharray:none;stroke-dashoffset:0;stroke-opacity:1"
     d="m 1.2858007,14.990612 c -0.037431,-0.0451 -0.1409632,-0.07307 -0.2704983,-0.07307 -0.11542168,0 -0.20985758,-0.0096 -0.20985758,-0.02124 0,-0.01168 0.0672298,-0.222018 0.14939956,-0.46741 C 1.279524,13.459268 1.786159,12.644388 2.5312648,11.893354 3.2410825,11.177888 3.8400675,10.77423 4.6399725,10.472288 c 0.3287631,-0.124099 1.1483503,-0.319553 1.1852473,-0.282656 0.011899,0.0119 -0.00222,0.06621 -0.031378,0.120689 -0.043165,0.08065 -0.031009,0.133909 0.065435,0.286688 l 0.1184479,0.187633 -0.2251227,0.03368 c -0.6358342,0.09512 -1.5108962,0.481367 -2.0824522,0.919177 -0.3776386,0.28927 -0.8863241,0.797186 -1.2643823,1.262468 -0.5384494,0.662679 -0.8516956,1.225143 -0.9536291,1.712333 -0.075304,0.359917 -0.085063,0.376244 -0.1663383,0.278313 z m 0.06884,-0.342362 c 0.130919,-0.697858 1.1094708,-2.040681 2.0734441,-2.845295 0.639346,-0.533652 1.3640969,-0.883589 2.2276605,-1.075598 l 0.1282659,-0.02852 -0.080326,-0.192245 c -0.074019,-0.177149 -0.09162,-0.189926 -0.2241447,-0.162718 -0.4341936,0.08914 -1.201397,0.380352 -1.5430884,0.585715 -0.696412,0.418556 -1.5116273,1.162442 -1.9920183,1.817721 -0.2619479,0.357312 -0.6966821,1.197166 -0.8685042,1.677845 l -0.12387712,0.346552 0.15440852,0.04191 c 0.1963364,0.05329 0.2087056,0.04505 0.2481801,-0.165368 z"
     id="path895"
     inkscape:connector-curvature="0" />
  <path
     style="opacity:0.65399996;fill:#00ffff;fill-opacity:1;stroke:#00ffff;stroke-width:0.27178267;stroke-miterlimit:4;stroke-dasharray:none;stroke-dashoffset:0;stroke-opacity:1"
     d="m 30.009276,11.499146 -0.109879,-0.116961 0.220269,-0.315096 C 30.416784,10.642057 30.7065,10.010052 30.825864,9.5265427 30.954741,9.0045028 30.928817,8.8701822 30.615934,8.438814 30.569124,8.37428 30.581284,8.3332398 30.683034,8.2123193 30.871008,7.988925 30.927683,7.7733125 30.862278,7.5304149 30.800738,7.3018828 30.582447,7.0554753 30.441526,7.0554753 c -0.05977,0 -0.116206,-0.054214 -0.15571,-0.1495832 -0.05268,-0.1271857 -0.04992,-0.1820714 0.01846,-0.3665586 0.07855,-0.211928 0.07777,-0.2226673 -0.03338,-0.4616447 C 30.121495,5.7564577 29.625488,5.1895682 29.491966,5.187445 29.436353,5.1865605 29.29613,5.1030014 29.18036,5.0017577 28.708937,4.5894891 28.360521,4.3718463 27.979044,4.2513375 27.571382,4.1225572 26.876623,3.987351 26.622545,3.987351 c -0.203593,0 -0.220868,-0.026333 -0.132922,-0.2026237 0.05783,-0.1159302 0.06293,-0.1790204 0.02302,-0.2847575 -0.0282,-0.074707 -0.04468,-0.1358316 -0.03662,-0.1358316 0.0081,0 0.291782,0.06623 0.630501,0.1471788 0.785053,0.1876151 1.328885,0.3930265 1.828009,0.6904596 0.430916,0.2567874 1.192961,0.8904272 1.17426,0.9763959 -0.0064,0.029382 0.107134,0.2356079 0.25228,0.4582807 0.616469,0.945747 0.834772,1.686164 0.837029,2.838941 0.0018,0.9061556 -0.19028,1.6063828 -0.696739,2.5403068 -0.115945,0.213805 -0.249373,0.436362 -0.296508,0.494572 l -0.0857,0.105834 z"
     id="path897"
     inkscape:connector-curvature="0" />
  <path
     style="opacity:0.65399996;fill:#00ffff;fill-opacity:1;stroke:#00ffff;stroke-width:0.27178267;stroke-miterlimit:4;stroke-dasharray:none;stroke-dashoffset:0;stroke-opacity:1"
     d="m 30.6894,18.616577 c -0.132894,-0.07048 -0.144828,-0.09335 -0.104079,-0.199454 0.210641,-0.548486 0.351279,-1.622162 0.310834,-2.373002 -0.0557,-1.03395 -0.2633,-1.660317 -0.861117,-2.598098 l -0.207952,-0.326208 0.204852,-0.09992 0.204852,-0.09992 0.190099,0.435497 c 0.52951,1.213058 0.704094,1.790395 0.778546,2.574613 0.06567,0.69166 0.0036,1.479571 -0.170838,2.167031 -0.156196,0.615743 -0.158138,0.618666 -0.345197,0.519464 z"
     id="path899"
     inkscape:connector-curvature="0" />
  <path
     style="opacity:0.65399996;fill:#00ffff;fill-opacity:1;stroke:#00ffff;stroke-width:0.27178267;stroke-miterlimit:4;stroke-dasharray:none;stroke-dashoffset:0;stroke-opacity:1"
     d="m 12.310651,24.289442 -0.306499,-0.309247 -0.211971,0.124223 c -0.222395,0.130332 -0.220697,0.13076 -0.345749,-0.08715 -0.03519,-0.06132 -0.02533,-0.08733 0.0411,-0.108415 0.166714,-0.05291 0.350769,-0.296863 0.378183,-0.501251 0.01933,-0.144123 0.04176,-0.18502 0.0828,-0.150964 0.08087,0.06712 0.592304,0.193771 0.791937,0.196117 l 0.169701,0.002 -0.235896,0.08374 c -0.277086,0.09836 -0.437327,0.281388 -0.394778,0.450917 0.01595,0.06354 0.107167,0.217909 0.202707,0.343034 0.09554,0.125126 0.164991,0.236219 0.154336,0.246874 -0.01066,0.01066 -0.157298,-0.119788 -0.325872,-0.289874 z"
     id="path901"
     inkscape:connector-curvature="0" />
  <path
     style="opacity:0.65399996;fill:#00ffff;fill-opacity:1;stroke:#00ffff;stroke-width:0.27178267;stroke-miterlimit:4;stroke-dasharray:none;stroke-dashoffset:0;stroke-opacity:1"
     d="m 16.584964,23.204022 -0.01116,-0.324773 0.133692,0.06973 c 0.170815,0.0891 0.536712,0.0885 1.136244,-0.0019 0.595909,-0.08982 0.626724,-0.08941 0.725655,0.0095 0.07623,0.07623 0.0752,0.08596 -0.01711,0.160702 -0.06359,0.05149 -0.230527,0.0895 -0.47322,0.107746 -0.206234,0.0155 -0.624265,0.09018 -0.928958,0.16595 l -0.553987,0.137761 z"
     id="path903"
     inkscape:connector-curvature="0" />
  <path
     style="opacity:0.65399996;fill:#00ffff;fill-opacity:1;stroke:#00ffff;stroke-width:0.27178267;stroke-miterlimit:4;stroke-dasharray:none;stroke-dashoffset:0;stroke-opacity:1"
     d="m 16.490988,22.228309 c 9.77e-4,-0.0791 0.01172,-0.105655 0.02388,-0.05901 0.01215,0.04664 0.01136,0.111362 -0.0018,0.143818 -0.01313,0.03246 -0.02308,-0.0057 -0.0221,-0.08481 z"
     id="path905"
     inkscape:connector-curvature="0" />
</svg>
