<?xml version="1.0" encoding="UTF-8" standalone="no"?>
<!-- Generated by IcoMoon.io -->

<svg
   xmlns:dc="http://purl.org/dc/elements/1.1/"
   xmlns:cc="http://creativecommons.org/ns#"
   xmlns:rdf="http://www.w3.org/1999/02/22-rdf-syntax-ns#"
   xmlns:svg="http://www.w3.org/2000/svg"
   xmlns="http://www.w3.org/2000/svg"
   xmlns:sodipodi="http://sodipodi.sourceforge.net/DTD/sodipodi-0.dtd"
   xmlns:inkscape="http://www.inkscape.org/namespaces/inkscape"
   version="1.1"
   width="35"
   height="37"
   viewBox="0 0 35 37"
   id="svg1440"
   sodipodi:docname="rainy.svg"
   inkscape:version="0.92.4 (5da689c313, 2019-01-14)">
  <metadata
     id="metadata1446">
    <rdf:RDF>
      <cc:Work
         rdf:about="">
        <dc:format>image/svg+xml</dc:format>
        <dc:type
           rdf:resource="http://purl.org/dc/dcmitype/StillImage" />
        <dc:title>rainy</dc:title>
      </cc:Work>
    </rdf:RDF>
  </metadata>
  <defs
     id="defs1444" />
  <sodipodi:namedview
     pagecolor="#ffffff"
     bordercolor="#666666"
     borderopacity="1"
     objecttolerance="10"
     gridtolerance="10"
     guidetolerance="10"
     inkscape:pageopacity="0"
     inkscape:pageshadow="2"
     inkscape:window-width="1366"
     inkscape:window-height="715"
     id="namedview1442"
     showgrid="false"
     inkscape:zoom="7.375"
     inkscape:cx="-6.0338983"
     inkscape:cy="16"
     inkscape:window-x="-8"
     inkscape:window-y="-8"
     inkscape:window-maximized="1"
     inkscape:current-layer="svg1440" />
  <title
     id="title1436">rainy</title>
  <g
     id="g5116"
     transform="translate(1.6271186,-2.7118644)">
    <path
       inkscape:connector-curvature="0"
       id="path1438"
       d="M 25,9 C 24.668,9 24.34,9.023 24.013,9.07 22.146,6.526 19.199,5 16,5 12.801,5 9.855,6.526 7.987,9.07 7.66,9.023 7.332,9 7,9 3.141,9 0,12.141 0,16 0,19.859 3.141,23 7,23 7.856,23 8.693,22.844 9.482,22.542 11.292,24.12 13.594,25 16,25 18.409,25 20.708,24.12 22.518,22.542 23.307,22.844 24.144,23 25,23 c 3.859,0 7,-3.141 7,-7 0,-3.859 -3.141,-7 -7,-7 z m 0,12 C 23.93,21 22.943,20.656 22.129,20.083 20.662,21.851 18.477,23 16,23 13.523,23 11.338,21.852 9.871,20.083 9.058,20.656 8.07,21 7,21 4.238,21 2,18.762 2,16 2,13.238 4.238,11 7,11 7.676,11 8.316,11.138 8.902,11.38 10.229,8.792 12.893,7 16,7 19.107,7 21.771,8.792 23.096,11.38 23.683,11.138 24.325,11 25,11 c 2.762,0 5,2.238 5,5 0,2.762 -2.238,5 -5,5 z M 14.063,35 c 0,1.105 0.895,2 2,2 1.105,0 2,-0.895 2,-2 0,-1.105 -2,-4 -2,-4 0,0 -2,2.895 -2,4 z M 22,33 c 0,1.105 0.895,2 2,2 1.105,0 2,-0.895 2,-2 0,-1.105 -2,-4 -2,-4 0,0 -2,2.895 -2,4 z M 6,29 c 0,1.105 0.894,2 2,2 1.106,0 2,-0.895 2,-2 0,-1.105 -2,-4 -2,-4 0,0 -2,2.895 -2,4 z" />
    <path
       inkscape:connector-curvature="0"
       id="path1994"
       d="m 14.671186,22.831813 c -1.4021,-0.234442 -3.068341,-1.112599 -4.186808,-2.20657 L 9.8907902,20.044657 9.0749494,20.434193 C 8.3506583,20.780018 8.1129558,20.823569 6.9566729,20.822301 5.3780815,20.820565 4.724717,20.568076 3.6370717,19.539426 1.373986,17.399094 1.6333859,13.801631 4.1814305,11.990038 c 0.9595667,-0.682227 1.7709741,-0.89962 3.0741107,-0.823618 0.6108082,0.03562 1.2364619,0.106891 1.3903412,0.158372 0.2318261,0.07756 0.3661767,-0.03652 0.7838368,-0.66556 1.7595148,-2.6500216 4.8278858,-3.9897966 7.9366038,-3.4654433 1.985116,0.334833 4.278031,1.8757153 5.237067,3.5194073 0.384219,0.658515 0.429339,0.691311 0.813559,0.591353 0.223729,-0.0582 0.986441,-0.106302 1.694915,-0.106883 1.159709,-9.49e-4 1.367103,0.03896 2.080182,0.400264 1.690004,0.856304 2.694534,2.50103 2.694811,4.412239 2.71e-4,2.129419 -1.211833,3.844818 -3.263831,4.618908 -1.08922,0.410895 -2.657555,0.327536 -3.732503,-0.198386 l -0.768257,-0.375874 -0.786205,0.727888 c -0.947641,0.877348 -2.38165,1.656441 -3.560212,1.934252 -0.807372,0.190315 -2.318941,0.246234 -3.104663,0.114856 z"
       style="opacity:0.65399996;fill:#00ffff;fill-opacity:1;stroke:#00ffff;stroke-width:0.76871747;stroke-miterlimit:4;stroke-dasharray:none;stroke-dashoffset:0;stroke-opacity:1" />
    <path
       inkscape:connector-curvature="0"
       id="path5048"
       d="m 14.142525,22.709296 c -1.206161,-0.291848 -2.426991,-0.95292 -3.390862,-1.836133 L 9.8860289,20.079966 9.0921671,20.451848 C 8.391526,20.78006 8.1390819,20.823558 6.9423729,20.82227 5.7352902,20.820971 5.5104167,20.780861 4.8939058,20.456899 3.6230633,19.7891 2.7551447,18.828055 2.3182497,17.604879 c -0.313975,-0.879036 -0.2712786,-2.45033 0.093078,-3.425419 0.4198416,-1.123577 1.6409648,-2.346951 2.7600057,-2.765092 0.9149717,-0.341888 2.2468339,-0.407452 3.174557,-0.156274 0.3244771,0.08785 0.6027367,0.140465 0.6183548,0.11692 0.015618,-0.02355 0.2282985,-0.361466 0.4726233,-0.750933 C 10.0543,9.639859 11.336113,8.4952085 12.447716,7.9354144 13.791475,7.258708 14.949497,7.0168271 16.433898,7.1028035 c 2.534716,0.1468105 4.71715,1.38199 6.065527,3.4328725 0.469168,0.713604 0.628555,0.863211 0.849241,0.797131 2.536465,-0.759501 5.042534,0.317166 6.152976,2.643464 0.306936,0.643008 0.355985,0.923249 0.355985,2.033898 0,1.148837 -0.0428,1.375316 -0.395825,2.094309 -0.504113,1.02672 -1.373477,1.896085 -2.357192,2.357192 -0.675678,0.316719 -0.942209,0.362059 -2.128339,0.362059 -1.213931,0 -1.431746,-0.0391 -2.079857,-0.373344 l -0.723926,-0.373343 -0.835396,0.757639 c -0.928757,0.842309 -2.591935,1.710177 -3.723427,1.942934 -0.964536,0.198412 -2.49312,0.168327 -3.47114,-0.06832 z"
       style="opacity:0.65399996;fill:#ffffff;fill-opacity:1;stroke:#ffffff;stroke-width:0.76871747;stroke-miterlimit:4;stroke-dasharray:none;stroke-dashoffset:0;stroke-opacity:1" />
    <path
       inkscape:connector-curvature="0"
       id="path5050"
       d="M 14.061017,22.731966 C 12.694635,22.353051 11.364337,21.584675 10.39299,20.613329 L 9.8853664,20.105705 9.2274289,20.429451 C 7.2628335,21.396153 4.9124233,20.984755 3.446542,19.417609 1.9664627,17.835285 1.6267772,15.780166 2.5306545,13.876432 c 0.9884026,-2.08176 3.4438537,-3.2706 5.5642608,-2.694012 0.6249071,0.169927 0.7677364,0.173053 0.8813559,0.01929 0.074576,-0.100924 0.4059407,-0.558339 0.7363654,-1.016478 2.6192814,-3.6316704 8.1536314,-4.1856262 11.5062244,-1.151705 0.595125,0.538558 1.825825,2.077403 1.856598,2.321458 0.0016,0.01253 0.338384,-0.06763 0.748453,-0.178141 2.116591,-0.570388 4.45778,0.503039 5.569622,2.553652 0.440528,0.812482 0.464093,0.924901 0.464093,2.213962 0,1.261067 -0.03182,1.4227 -0.445661,2.264049 -1.209756,2.459443 -4.021325,3.408815 -6.599573,2.228453 l -0.692194,-0.316897 -0.835244,0.768212 c -0.937756,0.862495 -2.151008,1.524924 -3.354121,1.83133 -0.961799,0.244951 -3.007532,0.251485 -3.869817,0.01237 z"
       style="opacity:0.65399996;fill:#ffffff;fill-opacity:1;stroke:#ffffff;stroke-width:0.76871747;stroke-miterlimit:4;stroke-dasharray:none;stroke-dashoffset:0;stroke-opacity:1" />
    <path
       inkscape:connector-curvature="0"
       id="path5052"
       d="m 14.253242,22.860001 c -1.1805,-0.256873 -2.696093,-1.066653 -3.587231,-1.916655 L 9.8974975,20.210309 9.0979013,20.584815 c -0.697213,0.326554 -0.9645337,0.374507 -2.0877318,0.374507 -1.1114966,0 -1.393657,-0.04947 -2.0576469,-0.360734 -1.031848,-0.483711 -1.9436662,-1.352107 -2.4634808,-2.346165 -0.4011583,-0.767147 -0.4280249,-0.90789 -0.4280249,-2.242254 0,-1.279296 0.037894,-1.500889 0.3735323,-2.184336 0.4471346,-0.910481 1.6113141,-2.054496 2.5077205,-2.464284 0.5148324,-0.235353 0.9028066,-0.295087 1.9323066,-0.297506 0.7084745,-0.0017 1.4498112,0.04236 1.6474149,0.09784 0.3231405,0.09072 0.4016544,0.03483 0.7805554,-0.555637 0.6854215,-1.068137 2.0428034,-2.2720559 3.1596914,-2.8024637 2.38372,-1.1320239 4.80342,-1.1332916 7.099179,-0.00372 1.152488,0.5670536 2.552494,1.8172477 3.109769,2.7769987 l 0.40678,0.700564 0.542373,-0.106795 c 0.298305,-0.05874 1.032075,-0.107474 1.630599,-0.108303 0.957633,-0.0013 1.196587,0.05187 1.991162,0.443315 3.428189,1.688869 3.760701,6.49461 0.599425,8.66338 -1.407259,0.965439 -3.492288,1.137107 -4.945111,0.407145 l -0.723926,-0.363731 -0.806926,0.730226 c -1.940434,1.755992 -4.581378,2.467863 -7.11232,1.917141 z"
       style="opacity:0.65399996;fill:#ffffff;fill-opacity:1;stroke:#ffffff;stroke-width:0.76871747;stroke-miterlimit:4;stroke-dasharray:none;stroke-dashoffset:0;stroke-opacity:1" />
    <path
       inkscape:connector-curvature="0"
       id="path5054"
       d="m 13.485653,22.868183 c -1.12482,-0.396991 -1.900382,-0.844408 -2.915582,-1.681982 L 9.7898305,20.542477 9.0440678,20.855702 C 8.3902457,21.130309 8.114424,21.163996 6.8067797,21.128937 5.4569605,21.092748 5.2474823,21.051684 4.6019226,20.696702 3.6676824,20.182983 2.6117913,19.052617 2.1560573,18.078325 1.8390084,17.400521 1.791484,17.128365 1.7933924,16.00147 c 0.002,-1.180325 0.040856,-1.375364 0.4325105,-2.170927 0.5429062,-1.102799 1.4900148,-2.055912 2.5725184,-2.588827 0.7025738,-0.345876 1.0170965,-0.417596 1.8997411,-0.433193 0.5817735,-0.01028 1.2774166,0.02812 1.5458737,0.08533 0.4829041,0.102909 0.495559,0.09399 1.1878922,-0.837055 1.5713987,-2.1132125 3.8917127,-3.2669625 6.5702077,-3.2669625 2.706924,0 5.085746,1.2195756 6.696179,3.4330005 0.281153,0.386426 0.569887,0.768104 0.641631,0.848174 0.149319,0.166648 0.788184,0.08566 0.681825,-0.08644 -0.129924,-0.210221 0.908721,-0.298973 1.789944,-0.152949 1.675762,0.277682 3.033128,1.251154 3.853005,2.763285 0.451871,0.833404 0.464094,0.897009 0.464094,2.415266 0,1.518258 -0.01222,1.581864 -0.464094,2.415267 -0.524057,0.96654 -1.453855,1.871045 -2.413189,2.347547 -0.573694,0.284955 -0.835036,0.321932 -2.27526,0.321932 -1.416382,0 -1.699227,-0.03858 -2.183875,-0.297884 l -0.556757,-0.297885 -0.78685,0.665307 c -0.907714,0.7675 -2.251184,1.504309 -3.310687,1.815703 -1.181752,0.347323 -3.509852,0.291292 -4.652449,-0.111973 z"
       style="opacity:0.65399996;fill:#ffffff;fill-opacity:1;stroke:#ffffff;stroke-width:0.76871747;stroke-miterlimit:4;stroke-dasharray:none;stroke-dashoffset:0;stroke-opacity:1" />
    <path
       inkscape:connector-curvature="0"
       id="path5056"
       d="m 14.573118,23.193334 c -0.426819,-0.06691 -1.098006,-0.256906 -1.491526,-0.422207 -0.895513,-0.37617 -2.37281,-1.319638 -2.806923,-1.792629 -0.3938576,-0.42913 -0.4795086,-0.435237 -1.2602927,-0.08986 -0.902003,0.398999 -2.2938082,0.489654 -3.3607227,0.2189 -1.6810929,-0.426616 -3.1959901,-1.864807 -3.72039,-3.532011 -0.3630993,-1.154387 -0.2519739,-2.761129 0.2640133,-3.817322 0.4939088,-1.011 1.5389986,-2.061686 2.5343612,-2.54793 0.8787745,-0.429291 2.4883666,-0.606885 3.4575896,-0.381493 0.566508,0.131741 0.5704204,0.12998 0.9349728,-0.420896 0.9969235,-1.5064539 2.5458705,-2.6870137 4.2888935,-3.268863 3.504305,-1.1697944 7.321619,0.133843 9.449908,3.227206 0.372336,0.541171 0.484308,0.622197 0.733944,0.531099 0.162019,-0.05912 0.843732,-0.107382 1.514918,-0.10724 1.081416,2.3e-4 1.320716,0.0478 2.102083,0.417873 1.093927,0.51811 2.019898,1.427334 2.565422,2.519024 0.380765,0.761979 0.417241,0.951173 0.417241,2.164162 0,1.765004 -0.290226,2.55142 -1.366015,3.701441 -1.159487,1.239496 -2.079042,1.634575 -3.786527,1.626852 -1.006503,-0.0046 -1.458297,-0.0727 -2.066425,-0.311692 l -0.778287,-0.305866 -0.645441,0.542483 c -0.937116,0.787632 -2.151716,1.482382 -3.108327,1.777962 -1.007702,0.311364 -2.81033,0.437517 -3.87247,0.271007 z"
       style="opacity:0.65399996;fill:#ffffff;fill-opacity:1;stroke:#ffffff;stroke-width:0.76871747;stroke-miterlimit:4;stroke-dasharray:none;stroke-dashoffset:0;stroke-opacity:1" />
    <path
       inkscape:connector-curvature="0"
       id="path5058"
       d="M 13.96366,23.123779 C 12.91761,22.842019 11.506653,22.08806 10.586379,21.319098 L 9.7741883,20.640447 9.17184,20.931492 c -0.5068142,0.244882 -0.8496616,0.291675 -2.1616705,0.29503 -1.456386,0.0037 -1.6078123,-0.02154 -2.2938747,-0.382677 C 3.7003672,20.30907 2.6574483,19.281794 2.1861459,18.351647 1.8417348,17.671928 1.7839381,17.391909 1.7448392,16.213559 1.6816888,14.310352 1.9680306,13.56895 3.2684902,12.26849 4.5980225,10.938958 5.307154,10.673142 7.3130205,10.752409 l 1.4553935,0.05751 0.3452655,-0.521731 C 10.038203,8.891142 11.798301,7.6073954 13.654237,6.976486 c 1.141975,-0.3882045 3.695591,-0.3587794 4.898349,0.056443 1.704821,0.5885471 3.429527,1.8855538 4.274545,3.214528 l 0.344864,0.542373 h 1.715697 c 1.692354,0 1.727204,0.0062 2.561393,0.45863 1.040567,0.564311 1.971287,1.537104 2.451817,2.56265 0.322434,0.688137 0.363018,0.935442 0.360882,2.199059 -0.0022,1.278052 -0.04093,1.502703 -0.378913,2.195555 -0.556927,1.141679 -1.448152,2.059279 -2.505807,2.579961 -0.857836,0.422311 -0.979196,0.44462 -2.397941,0.440815 -1.242996,-0.0033 -1.602452,-0.05373 -2.136845,-0.299581 l -0.642468,-0.295571 -0.776389,0.6794 c -0.885124,0.774552 -2.30992,1.515398 -3.492587,1.816028 -0.998862,0.253906 -3.019074,0.252381 -3.967174,-0.003 z"
       style="opacity:0.65399996;fill:#ffffff;fill-opacity:1;stroke:#ffffff;stroke-width:0.76871747;stroke-miterlimit:4;stroke-dasharray:none;stroke-dashoffset:0;stroke-opacity:1" />
    <path
       inkscape:connector-curvature="0"
       id="path5060"
       d="m 14.60339,23.383097 c -1.431868,-0.27706 -3.099508,-1.115285 -4.155646,-2.088799 -0.321232,-0.296101 -0.6081732,-0.538366 -0.6376476,-0.538366 -0.029474,0 -0.3511767,0.135047 -0.714894,0.300103 -0.54678,0.248133 -0.9078641,0.300434 -2.0850329,0.302008 C 5.764101,21.359711 5.4933805,21.316574 4.840678,21.012359 3.8131161,20.533428 2.6745266,19.4512 2.1176105,18.424086 1.66491,17.589175 1.6543891,17.533576 1.6608268,16.010169 c 0.00574,-1.359351 0.048117,-1.644754 0.330412,-2.225503 0.4705524,-0.968041 1.7763642,-2.303823 2.6914123,-2.753184 0.7124918,-0.349889 0.8879292,-0.377245 2.4193813,-0.377245 h 1.651185 L 9.1478229,10.111864 C 9.8130652,9.19751 11.286527,7.9222872 12.187909,7.4807894 c 3.509098,-1.7187592 7.333767,-1.0204167 9.995595,1.8250856 0.442076,0.472579 0.842299,0.980621 0.889387,1.128982 0.106318,0.334981 0.408009,0.407158 1.022024,0.244511 0.781694,-0.207064 2.315085,-0.02469 3.162292,0.376099 2.23203,1.055919 3.524853,3.503536 3.091841,5.853578 -0.505045,2.740978 -2.689775,4.535632 -5.50296,4.520426 -0.701567,-0.0038 -1.50298,-0.202198 -2.394864,-0.592899 -0.150747,-0.06604 -0.424718,0.08086 -0.870668,0.466826 -1.587614,1.37407 -3.247315,2.034165 -5.282251,2.100854 -0.745763,0.02444 -1.508474,0.01492 -1.694915,-0.02116 z"
       style="opacity:0.65399996;fill:#ffffff;fill-opacity:1;stroke:#ffffff;stroke-width:0.76871747;stroke-miterlimit:4;stroke-dasharray:none;stroke-dashoffset:0;stroke-opacity:1" />
    <path
       inkscape:connector-curvature="0"
       id="path5062"
       d="M 14.467797,23.509715 C 13.245415,23.305093 11.816225,22.619589 10.492579,21.603024 L 9.7038014,20.997239 9.0688498,21.249467 c -0.4836879,0.19214 -0.9902756,0.252228 -2.1264769,0.252228 -1.3748922,0 -1.5551436,-0.03113 -2.3050848,-0.398098 -0.9792652,-0.479181 -2.1546135,-1.62867 -2.7124282,-2.65275 -0.3872268,-0.710901 -0.4062158,-0.821824 -0.4062158,-2.372881 0,-1.486709 0.031774,-1.694931 0.3682051,-2.412951 0.4807087,-1.02594 1.7522258,-2.297457 2.778166,-2.778166 0.7018163,-0.328839 0.9562676,-0.370652 2.3799777,-0.391098 L 8.6391384,10.472861 9.1600658,9.817787 C 10.848695,7.6943111 12.923346,6.5944131 15.552542,6.4287483 c 2.829812,-0.1783056 5.569942,1.1146447 7.398552,3.4910607 0.553284,0.719033 0.647425,0.78716 0.900545,0.651695 0.174518,-0.0934 0.75501,-0.128915 1.51721,-0.09282 1.06012,0.0502 1.356672,0.120897 2.098979,0.500411 1.092304,0.558455 2.046897,1.508202 2.582666,2.569553 0.396134,0.784739 0.417303,0.908308 0.417303,2.436002 0,1.522416 -0.02232,1.653985 -0.413213,2.436238 -0.52069,1.041993 -1.68175,2.2123 -2.678756,2.70009 -0.708479,0.346626 -0.889653,0.375224 -2.329653,0.36773 -1.113531,-0.0058 -1.730875,-0.0729 -2.152138,-0.233935 -0.32489,-0.124195 -0.653549,-0.186972 -0.730353,-0.139505 -0.0768,0.04747 -0.512679,0.367484 -0.968613,0.71115 -1.074445,0.809873 -2.501556,1.455882 -3.60863,1.633513 -0.860596,0.138082 -2.440503,0.163306 -3.118644,0.04979 z"
       style="opacity:0.65399996;fill:#ffffff;fill-opacity:1;stroke:#ffffff;stroke-width:0.76871747;stroke-miterlimit:4;stroke-dasharray:none;stroke-dashoffset:0;stroke-opacity:1" />
    <path
       inkscape:connector-curvature="0"
       id="path5064"
       d="m 14.19661,24.763075 c -1.548978,-0.332882 -2.624102,-0.802796 -3.9434,-1.723571 L 9.4962506,22.5112 8.6260914,22.716308 c -4.3453752,1.02426 -8.53117615,-2.266091 -8.53117615,-6.706139 0,-3.830843 3.11200245,-6.915051 6.97764055,-6.91532 L 8.0271186,9.094782 8.6246103,8.4009806 C 9.7837196,7.0550342 11.592296,5.9407315 13.478077,5.4106556 14.83253,5.0299313 17.090156,5.0038407 18.4,5.3537747 c 1.872294,0.5001963 3.844297,1.7227018 5.061398,3.1377166 l 0.519024,0.6034237 h 0.977912 c 1.94279,0 3.619951,0.707715 4.936412,2.083029 1.02768,1.073624 1.458183,1.826663 1.793255,3.136786 0.323035,1.263051 0.337766,2.006723 0.06285,3.172983 -0.894597,3.795158 -4.696982,6.158442 -8.410243,5.227191 l -0.839425,-0.21052 -0.886284,0.619558 c -1.641849,1.147734 -3.18269,1.666222 -5.248802,1.766206 -0.822918,0.03982 -1.606442,-0.0061 -2.169492,-0.127073 z m 4.481098,-1.131159 c 1.049453,-0.37145 1.821177,-0.77705 2.805385,-1.474443 0.835448,-0.591986 0.852881,-0.597302 1.423729,-0.434231 0.317857,0.0908 1.310127,0.169624 2.205042,0.175163 1.53278,0.0095 1.67374,-0.01283 2.431222,-0.384743 1.059257,-0.520092 2.350515,-1.820989 2.90105,-2.922706 0.415745,-0.83198 0.43044,-0.92021 0.43044,-2.584226 0,-1.701116 -0.006,-1.734916 -0.479316,-2.680933 -0.586216,-1.171778 -1.657048,-2.200274 -2.910514,-2.795446 -0.792004,-0.37606 -1.02669,-0.421421 -2.314911,-0.447435 L 23.736281,10.053969 22.45797,8.7809516 C 21.415733,7.7430292 20.966815,7.4035906 20.027119,6.9429216 18.509166,6.198773 17.212422,5.9301525 15.552301,6.0159638 12.933153,6.1513473 10.45727,7.406677 8.9744403,9.351092 l -0.5038254,0.660659 -1.5943174,0.05684 c -1.4560818,0.05191 -1.6700395,0.09412 -2.4676464,0.486781 -1.096387,0.53975 -2.4155704,1.879092 -2.9279734,2.972718 -0.3420991,0.730144 -0.3688057,0.914838 -0.3687089,2.549872 9.96e-5,1.681254 0.018211,1.797136 0.3919223,2.507643 0.5333478,1.014013 1.9870867,2.432924 2.9978038,2.925984 0.7556044,0.368609 0.9246396,0.396882 2.3728814,0.396882 0.9097703,0 1.8222905,-0.07645 2.1906077,-0.183535 l 0.6312858,-0.183535 0.7246462,0.538341 c 1.07525,0.798805 1.911269,1.24752 3.002068,1.611298 0.882552,0.294327 1.14692,0.320041 2.739528,0.266452 1.284626,-0.04323 1.966747,-0.13153 2.514996,-0.32558 z"
       style="opacity:0.65399996;fill:#00ffff;fill-opacity:1;stroke:#00ffff;stroke-width:0.76871747;stroke-miterlimit:4;stroke-dasharray:none;stroke-dashoffset:0;stroke-opacity:1" />
    <path
       inkscape:connector-curvature="0"
       id="path5066"
       d="M 14.384692,24.820978 C 12.930512,24.558237 10.976782,23.67965 9.8517285,22.782518 9.5211058,22.518875 9.4736786,22.516144 8.7045965,22.716464 5.0679416,23.663692 1.2644866,21.401498 0.27890187,17.705085 0.1794795,17.332203 0.09813394,16.569492 0.09813394,16.010169 c 0,-1.94485 0.64829879,-3.508326 2.02600396,-4.886031 C 3.4866047,9.761671 5.0637295,9.09969 6.9547849,9.096525 L 7.9163496,9.094925 9.0666311,7.9600728 C 10.836863,6.2135751 12.962495,5.260735 15.484746,5.0830656 c 2.75395,-0.1939905 5.445074,0.8625739 7.541825,2.9610022 l 1.050008,1.0508472 h 0.929832 c 4.732664,0 8.081818,4.688989 6.543257,9.160897 -0.363957,1.057859 -0.931515,1.908644 -1.871142,2.804897 -1.684135,1.606393 -4.059749,2.225536 -6.342567,1.653028 l -0.844077,-0.211687 -0.645327,0.49259 c -0.840691,0.641713 -1.927732,1.183981 -3.107572,1.550203 -1.083435,0.336299 -3.258043,0.474205 -4.354291,0.276135 z m 4.286494,-1.210158 c 0.959287,-0.32568 2.181728,-0.982405 3.078165,-1.653667 0.557528,-0.417484 0.583155,-0.422821 1.200398,-0.250003 0.923898,0.258675 3.662095,0.233215 4.272494,-0.03973 1.345276,-0.601546 3.017121,-2.354058 3.447278,-3.613609 0.136966,-0.401053 0.205055,-1.125503 0.205055,-2.181733 0,-1.503085 -0.02117,-1.623668 -0.427933,-2.437677 -0.569519,-1.139708 -1.734075,-2.286982 -2.908282,-2.865123 -0.866192,-0.426484 -1.028182,-0.459032 -2.395679,-0.481353 l -1.46667,-0.02394 -0.909193,-0.983198 C 19.888404,5.9680803 15.714231,5.1364639 12.027119,6.9411285 11.083671,7.4029009 10.64901,7.7320214 9.6312414,8.7552612 L 8.3879066,10.00528 6.8221418,10.07438 c -1.3548516,0.05979 -1.671388,0.120262 -2.3498854,0.448935 -1.0199756,0.49409 -2.4478465,1.933332 -2.966661,2.990286 -0.3729539,0.7598 -0.3935053,0.893691 -0.3936151,2.564368 -1.119e-4,1.70262 0.013751,1.788125 0.4066638,2.508167 0.5604306,1.027033 1.9868314,2.418637 2.9830508,2.910282 0.7499694,0.370117 0.9301409,0.401822 2.3050848,0.405639 0.8203389,0.0023 1.8032063,-0.07563 2.1841497,-0.17312 l 0.6926242,-0.177259 0.8666974,0.60269 c 1.084243,0.753967 2.355381,1.396317 3.276801,1.655878 1.06293,0.299422 3.693808,0.191116 4.844134,-0.199423 z"
       style="opacity:0.65399996;fill:#00ffff;fill-opacity:1;stroke:#00ffff;stroke-width:0.76871747;stroke-miterlimit:4;stroke-dasharray:none;stroke-dashoffset:0;stroke-opacity:1" />
    <path
       inkscape:connector-curvature="0"
       id="path5068"
       d="M 13.982816,24.751151 C 12.742745,24.478834 11.472601,23.926353 10.420737,23.201736 L 9.4769791,22.551591 8.7563976,22.738507 C 7.8046323,22.985393 6.1759855,22.975847 5.1844016,22.717572 2.9679524,22.14026 1.0492373,20.291679 0.36410057,18.073464 0.02818834,16.985906 0.0037405,15.149457 0.31123787,14.102576 0.67118643,12.877124 1.3012069,11.851013 2.2232578,10.98848 3.6151032,9.686477 5.0663265,9.094915 6.8685646,9.094915 H 7.8980781 L 9.0473441,7.9662207 C 10.371234,6.6660286 11.586695,5.9293642 13.177947,5.4627525 c 3.652854,-1.0711466 7.547478,-0.00582 10.079117,2.7570169 l 0.801914,0.8751456 h 1.088431 c 5.160171,0 8.421791,5.592469 5.961066,10.221014 -0.857411,1.61276 -2.395358,2.827687 -4.292407,3.390859 -0.92592,0.274876 -2.736639,0.283175 -3.614857,0.01657 -0.62664,-0.190234 -0.685469,-0.186365 -1.004601,0.06605 -2.273024,1.797849 -5.476267,2.562894 -8.213794,1.961739 z m 4.466823,-1.10707 c 0.92182,-0.273488 1.858133,-0.752512 2.933412,-1.500748 l 0.881356,-0.613295 0.753925,0.155319 c 0.414658,0.08543 1.421437,0.154724 2.237288,0.153996 1.295032,-0.0012 1.575585,-0.04426 2.20974,-0.339468 0.898898,-0.418457 2.379111,-1.88707 2.936454,-2.913444 0.392732,-0.723235 0.404966,-0.801058 0.404966,-2.576272 0,-1.821315 -0.0023,-1.834737 -0.456728,-2.672635 -0.601661,-1.109358 -1.805206,-2.243191 -2.94952,-2.778681 -0.831983,-0.389331 -1.029148,-0.425816 -2.355836,-0.43594 l -1.447863,-0.01105 -0.53062,-0.659324 C 21.124014,7.0392494 17.948229,5.7270723 14.970122,6.1073805 12.710259,6.3959679 10.820022,7.3929536 9.2875557,9.10459 l -0.8190396,0.914799 -1.5766309,0.08944 c -1.35247,0.07672 -1.6938491,0.145549 -2.4010822,0.484087 -1.0703683,0.512363 -2.3545909,1.78363 -2.8957021,2.866489 -0.3989573,0.798384 -0.4154399,0.900624 -0.4154399,2.576931 0,1.617695 0.026214,1.797293 0.3578522,2.45175 0.5091454,1.00475 1.9563036,2.454645 2.9412829,2.946845 0.7702918,0.384919 0.8961356,0.405444 2.4513357,0.399798 1.0220556,-0.0037 1.8336652,-0.07526 2.1553722,-0.190004 l 0.5160126,-0.184052 1.2644494,0.845398 c 1.318211,0.881343 2.413406,1.36578 3.545017,1.568071 0.885186,0.158237 3.168217,0.02819 4.038656,-0.230059 z"
       style="opacity:0.65399996;fill:#00ffff;fill-opacity:1;stroke:#00ffff;stroke-width:0.76871747;stroke-miterlimit:4;stroke-dasharray:none;stroke-dashoffset:0;stroke-opacity:1" />
    <path
       inkscape:connector-curvature="0"
       id="path5070"
       d="M 14.668007,24.969265 C 13.010902,24.705467 11.6478,24.14938 10.228694,23.158216 9.4637115,22.623919 9.4353375,22.615959 8.8842769,22.78106 5.1699135,23.893911 1.0729272,21.462125 0.16346698,17.604782 -0.86950426,13.223585 2.5134894,8.959322 7.022222,8.959322 H 7.926451 L 8.993734,7.895584 C 12.954216,3.9482564 19.169237,3.9802716 23.107479,7.968288 l 0.978666,0.9910345 0.851843,0.002 c 4.333761,0.010197 7.674891,3.8450225 7.0274,8.0657925 -0.186189,1.213713 -1.007346,2.910763 -1.816817,3.754741 -1.770796,1.846282 -4.232936,2.620951 -6.633062,2.086974 l -1.027131,-0.228515 -0.630492,0.481265 c -0.833592,0.636294 -2.365224,1.352263 -3.457886,1.616404 -1.101304,0.266229 -2.83682,0.373781 -3.731993,0.231277 z m 3.589311,-1.592629 c 0.920656,-0.253248 2.14069,-0.860917 3.163912,-1.575869 l 0.783942,-0.54776 0.85881,0.158242 c 0.472346,0.08703 1.467454,0.158243 2.21135,0.158243 1.231909,0 1.425235,-0.03633 2.167606,-0.407294 0.972478,-0.485953 2.154335,-1.674213 2.704019,-2.718664 0.367675,-0.698621 0.388636,-0.829865 0.388636,-2.433365 0,-1.591195 -0.02335,-1.740552 -0.38151,-2.440677 -0.471191,-0.921064 -1.559846,-2.053474 -2.485888,-2.585798 -0.784066,-0.450712 -2.103151,-0.678691 -3.275258,-0.566066 l -0.716175,0.06881 -1.24855,-1.274758 C 20.434481,7.1761066 18.639826,6.3830508 16.027119,6.3830508 c -1.593817,0 -2.565873,0.220734 -4,0.9083187 C 11.2138,7.6813105 10.760276,8.0328719 9.7621774,9.047097 l -1.2479922,1.268157 -0.9214994,7.87e-4 c -2.1896017,0.0019 -3.2272371,0.394092 -4.5548954,1.721751 -0.9894059,0.989405 -1.3909059,1.700238 -1.6030623,2.83813 -0.1704994,0.914465 -0.058471,2.591558 0.2171839,3.251293 0.4887814,1.169818 1.9164522,2.582321 3.1974007,3.163432 0.7396244,0.335535 3.0484766,0.384995 4.1869044,0.08969 l 0.7292146,-0.189157 0.8257593,0.605071 c 1.349385,0.988755 2.918044,1.684726 4.051816,1.79768 1.25727,0.125257 2.679934,0.03973 3.614311,-0.217295 z"
       style="opacity:0.65399996;fill:#00ffff;fill-opacity:1;stroke:#00ffff;stroke-width:0.76871747;stroke-miterlimit:4;stroke-dasharray:none;stroke-dashoffset:0;stroke-opacity:1" />
    <path
       inkscape:connector-curvature="0"
       id="path5072"
       d="M 14.80678,25.235036 C 13.215458,25.045794 11.643515,24.432907 10.070199,23.388283 9.4676551,22.988218 9.3185932,22.943397 8.9460071,23.050252 6.0004165,23.895037 2.5460869,22.549706 0.84903566,19.896788 0.07452001,18.686024 -0.22174922,17.636191 -0.2286586,16.077966 -0.23593294,14.437439 0.04942727,13.34933 0.78567227,12.210216 2.1570115,10.088488 4.1266769,8.9194085 6.6480803,8.7306306 L 7.7559322,8.6476857 8.6550648,7.8041605 C 9.1495878,7.3402218 9.8406259,6.7635676 10.190705,6.5227068 11.128996,5.877146 12.739303,5.1700984 13.767704,4.9521316 c 1.175981,-0.249246 3.524956,-0.2454736 4.597381,0.00738 1.795457,0.4233346 3.537033,1.4286091 4.934556,2.8483317 0.806104,0.8189082 0.903345,0.8769638 1.47324,0.8795589 2.126808,0.00968 3.883633,0.7337058 5.350971,2.2052368 1.173721,1.177075 1.772578,2.326276 2.054868,3.943275 0.894259,5.122436 -4.001109,9.560969 -9.061336,8.215735 -0.459776,-0.12223 -0.558722,-0.09401 -1.152542,0.328694 -1.316412,0.937075 -3.048593,1.625546 -4.468268,1.775955 -1.552525,0.164484 -1.886518,0.174261 -2.689794,0.07874 z m 2.600358,-1.778999 c 1.227094,-0.170475 2.511621,-0.722334 3.887718,-1.670244 0.92585,-0.637762 0.930852,-0.639312 1.599894,-0.495828 0.369128,0.07916 1.385086,0.142594 2.257687,0.140956 1.285368,-0.0024 1.698484,-0.05377 2.176211,-0.270555 0.793234,-0.35995 2.324812,-1.926401 2.77466,-2.837836 0.332438,-0.673552 0.364489,-0.877317 0.364489,-2.317326 0,-1.483415 -0.02462,-1.6281 -0.407294,-2.393906 -0.489847,-0.980269 -1.684732,-2.164087 -2.718664,-2.693481 -0.647312,-0.331436 -0.92987,-0.385811 -2.289455,-0.440577 L 23.501378,10.41476 22.340519,9.246361 C 21.056964,7.9544727 20.141764,7.3541649 18.648803,6.8248578 17.803901,6.52531 17.419589,6.4713849 16.094915,6.4665074 13.426797,6.4566831 11.778258,7.162101 9.7730091,9.171682 l -1.2371606,1.239832 -1.5719391,0.06937 c -1.335173,0.05892 -1.6814809,0.122963 -2.2992104,0.42519 -0.881307,0.431183 -2.2245565,1.741755 -2.7220677,2.655846 -0.3428158,0.629866 -0.3645879,0.775578 -0.3655381,2.446393 -9.492e-4,1.679372 0.01925,1.81386 0.3690691,2.456593 0.4482492,0.823581 2.0430769,2.360868 2.8110339,2.709612 0.4425196,0.200956 0.889518,0.254041 2.1590316,0.256403 0.8805355,0.0016 1.8709828,-0.06501 2.2009939,-0.14811 0.5984998,-0.150704 0.603205,-0.149025 1.8566533,0.662428 2.452788,1.587877 3.726069,1.886897 6.433263,1.510798 z"
       style="opacity:0.65399996;fill:#00ffff;fill-opacity:1;stroke:#00ffff;stroke-width:0.76871747;stroke-miterlimit:4;stroke-dasharray:none;stroke-dashoffset:0;stroke-opacity:1" />
    <path
       inkscape:connector-curvature="0"
       id="path5074"
       d="M 15.050651,36.633884 C 14.50155,36.288888 14.19661,35.704103 14.19661,34.996087 c 0,-0.57841 0.437051,-1.573747 1.332395,-3.034385 l 0.486848,-0.79423 0.310387,0.38745 c 0.524072,0.654189 1.66698,3.020616 1.66698,3.451534 0,0.498374 -0.266243,1.032088 -0.731836,1.467048 -0.492055,0.459679 -1.605767,0.540475 -2.210733,0.16038 z"
       style="opacity:0.65399996;fill:#00ffff;fill-opacity:1;stroke:#00ffff;stroke-width:0.76871747;stroke-miterlimit:4;stroke-dasharray:none;stroke-dashoffset:0;stroke-opacity:1" />
    <path
       inkscape:connector-curvature="0"
       id="path5076"
       d="m 15.072163,36.638911 c -0.874207,-0.533108 -1.125352,-1.327528 -0.753841,-2.384543 0.270057,-0.768361 1.584809,-3.057758 1.756005,-3.057758 0.149467,0 1.474946,2.299381 1.709867,2.9662 0.265623,0.753967 0.263605,1.148986 -0.0088,1.723035 -0.440651,0.928603 -1.796155,1.306219 -2.703232,0.753066 z"
       style="opacity:0.65399996;fill:#00ffff;fill-opacity:1;stroke:#00ffff;stroke-width:0.76871747;stroke-miterlimit:4;stroke-dasharray:none;stroke-dashoffset:0;stroke-opacity:1" />
    <path
       inkscape:connector-curvature="0"
       id="path5078"
       d="m 15.498891,36.887713 c -0.889784,-0.269434 -1.551029,-1.336117 -1.363828,-2.200047 0.11282,-0.520661 0.801961,-1.907336 1.459596,-2.93697 l 0.468844,-0.73405 0.382307,0.598457 c 0.893269,1.398307 1.547413,2.843501 1.546903,3.417559 -0.0011,1.27228 -1.279071,2.222888 -2.493822,1.855051 z"
       style="opacity:0.65399996;fill:#00ffff;fill-opacity:1;stroke:#00ffff;stroke-width:0.76871747;stroke-miterlimit:4;stroke-dasharray:none;stroke-dashoffset:0;stroke-opacity:1" />
    <path
       inkscape:connector-curvature="0"
       id="path5080"
       d="m 23.484746,34.845191 c -0.223729,-0.06948 -0.505836,-0.20297 -0.626904,-0.296635 -0.38369,-0.296844 -0.795793,-1.098878 -0.796318,-1.549793 -4.99e-4,-0.428111 0.775368,-2.074219 1.546903,-3.281966 l 0.382307,-0.598456 0.472859,0.73405 c 0.82552,1.281509 1.456694,2.720944 1.441821,3.28817 -0.03017,1.150417 -1.307929,2.050216 -2.420668,1.70463 z"
       style="opacity:0.65399996;fill:#00ffff;fill-opacity:1;stroke:#00ffff;stroke-width:0.76871747;stroke-miterlimit:4;stroke-dasharray:none;stroke-dashoffset:0;stroke-opacity:1" />
    <path
       inkscape:connector-curvature="0"
       id="path5082"
       d="m 23.155796,34.694056 c -0.671737,-0.34811 -1.094779,-1.002014 -1.094779,-1.692218 0,-0.462964 1.121172,-2.799456 1.67526,-3.491199 l 0.318668,-0.397835 0.66839,1.143598 c 1.249995,2.13871 1.460993,3.014225 0.905676,3.758013 -0.681737,0.913112 -1.558023,1.153916 -2.473215,0.679641 z"
       style="opacity:0.65399996;fill:#00ffff;fill-opacity:1;stroke:#00ffff;stroke-width:0.76871747;stroke-miterlimit:4;stroke-dasharray:none;stroke-dashoffset:0;stroke-opacity:1" />
    <path
       inkscape:connector-curvature="0"
       id="path5084"
       d="m 23.148465,34.755721 c -0.25953,-0.130392 -0.610377,-0.444405 -0.77966,-0.697807 -0.58061,-0.869119 -0.368197,-1.757909 0.936239,-3.91747 l 0.690357,-1.14292 0.414552,0.658865 c 0.700632,1.113544 1.428196,2.58664 1.520466,3.078481 0.143143,0.763019 -0.331731,1.66221 -1.049992,1.988196 -0.723611,0.328414 -1.128111,0.336041 -1.731962,0.03266 z"
       style="opacity:0.65399996;fill:#00ffff;fill-opacity:1;stroke:#00ffff;stroke-width:0.76871747;stroke-miterlimit:4;stroke-dasharray:none;stroke-dashoffset:0;stroke-opacity:1" />
    <path
       inkscape:connector-curvature="0"
       id="path5086"
       d="M 7.2020591,30.73269 C 6.1895754,30.291854 5.8552503,29.270514 6.3387975,28.095487 c 0.3528019,-0.857315 1.5032496,-2.859793 1.6447903,-2.862935 0.050634,-0.0011 0.3677144,0.440329 0.7046222,0.981007 1.2379975,1.986769 1.461973,2.918355 0.9145834,3.80405 -0.499961,0.808953 -1.500595,1.107002 -2.4007343,0.715081 z"
       style="opacity:0.65399996;fill:#00ffff;fill-opacity:1;stroke:#00ffff;stroke-width:0.76871747;stroke-miterlimit:4;stroke-dasharray:none;stroke-dashoffset:0;stroke-opacity:1" />
    <path
       inkscape:connector-curvature="0"
       id="path5088"
       d="m 7.0428285,30.663025 c -0.537123,-0.337278 -0.9806186,-1.03 -0.9813047,-1.532757 -7.659e-4,-0.561255 0.4231819,-1.563915 1.2167844,-2.877765 l 0.7142873,-1.182539 0.5281414,0.835289 c 0.6855243,1.0842 1.1301182,1.969018 1.336977,2.660812 0.1460951,0.488583 0.1330609,0.630863 -0.1076386,1.175005 -0.3329325,0.752649 -0.7880274,1.072465 -1.6289691,1.14475 -0.4756818,0.04089 -0.7479429,-0.01537 -1.0782777,-0.222795 z"
       style="opacity:0.65399996;fill:#00ffff;fill-opacity:1;stroke:#00ffff;stroke-width:0.76871747;stroke-miterlimit:4;stroke-dasharray:none;stroke-dashoffset:0;stroke-opacity:1" />
    <path
       inkscape:connector-curvature="0"
       id="path5090"
       d="M 7.0185307,30.677659 C 6.4579233,30.377002 6.0610169,29.682345 6.0610169,29.001838 c 0,-0.529274 1.0672612,-2.799981 1.6692021,-3.551397 l 0.3126093,-0.390238 0.5614766,0.932611 c 0.9856417,1.637146 1.4315691,2.718931 1.3437803,3.259908 -0.2226424,1.371984 -1.6939209,2.087615 -2.9295545,1.424937 z"
       style="opacity:0.65399996;fill:#00ffff;fill-opacity:1;stroke:#00ffff;stroke-width:0.76871747;stroke-miterlimit:4;stroke-dasharray:none;stroke-dashoffset:0;stroke-opacity:1" />
  </g>
</svg>
