<?xml version="1.0" encoding="UTF-8" standalone="no"?>
<!-- Generated by IcoMoon.io -->

<svg
   xmlns:dc="http://purl.org/dc/elements/1.1/"
   xmlns:cc="http://creativecommons.org/ns#"
   xmlns:rdf="http://www.w3.org/1999/02/22-rdf-syntax-ns#"
   xmlns:svg="http://www.w3.org/2000/svg"
   xmlns="http://www.w3.org/2000/svg"
   xmlns:sodipodi="http://sodipodi.sourceforge.net/DTD/sodipodi-0.dtd"
   xmlns:inkscape="http://www.inkscape.org/namespaces/inkscape"
   version="1.1"
   width="32"
   height="32"
   viewBox="0 0 32 32"
   id="svg2019"
   sodipodi:docname="sun.svg"
   inkscape:version="0.92.4 (5da689c313, 2019-01-14)">
  <metadata
     id="metadata2025">
    <rdf:RDF>
      <cc:Work
         rdf:about="">
        <dc:format>image/svg+xml</dc:format>
        <dc:type
           rdf:resource="http://purl.org/dc/dcmitype/StillImage" />
      </cc:Work>
    </rdf:RDF>
  </metadata>
  <defs
     id="defs2023" />
  <sodipodi:namedview
     pagecolor="#ffffff"
     bordercolor="#666666"
     borderopacity="1"
     objecttolerance="10"
     gridtolerance="10"
     guidetolerance="10"
     inkscape:pageopacity="0"
     inkscape:pageshadow="2"
     inkscape:window-width="1366"
     inkscape:window-height="715"
     id="namedview2021"
     showgrid="false"
     inkscape:zoom="7.375"
     inkscape:cx="-6.0338983"
     inkscape:cy="16"
     inkscape:window-x="-8"
     inkscape:window-y="-8"
     inkscape:window-maximized="1"
     inkscape:current-layer="svg2019" />
  <title
     id="title2015">sun</title>
  <path
     d="M16 9c-3.859 0-7 3.141-7 7s3.141 7 7 7 7-3.141 7-7c0-3.859-3.141-7-7-7zM16 21c-2.762 0-5-2.238-5-5s2.238-5 5-5 5 2.238 5 5-2.238 5-5 5zM16 7c0.552 0 1-0.448 1-1v-2c0-0.552-0.448-1-1-1s-1 0.448-1 1v2c0 0.552 0.448 1 1 1zM16 25c-0.552 0-1 0.448-1 1v2c0 0.552 0.448 1 1 1s1-0.448 1-1v-2c0-0.552-0.448-1-1-1zM23.777 9.635l1.414-1.414c0.391-0.391 0.391-1.023 0-1.414s-1.023-0.391-1.414 0l-1.414 1.414c-0.391 0.391-0.391 1.023 0 1.414s1.023 0.391 1.414 0zM8.223 22.365l-1.414 1.414c-0.391 0.391-0.391 1.023 0 1.414s1.023 0.391 1.414 0l1.414-1.414c0.391-0.392 0.391-1.023 0-1.414s-1.023-0.392-1.414 0zM7 16c0-0.552-0.448-1-1-1h-2c-0.552 0-1 0.448-1 1s0.448 1 1 1h2c0.552 0 1-0.448 1-1zM28 15h-2c-0.552 0-1 0.448-1 1s0.448 1 1 1h2c0.552 0 1-0.448 1-1s-0.448-1-1-1zM8.221 9.635c0.391 0.391 1.024 0.391 1.414 0s0.391-1.023 0-1.414l-1.414-1.414c-0.391-0.391-1.023-0.391-1.414 0s-0.391 1.023 0 1.414l1.414 1.414zM23.779 22.363c-0.392-0.391-1.023-0.391-1.414 0s-0.392 1.023 0 1.414l1.414 1.414c0.391 0.391 1.023 0.391 1.414 0s0.391-1.023 0-1.414l-1.414-1.414z"
     id="path2017" />
  <path
     style="opacity:0.65399996;fill:#ffff00;fill-opacity:1;stroke:#00ffff;stroke-width:0.76871747;stroke-miterlimit:4;stroke-dasharray:none;stroke-dashoffset:0;stroke-opacity:1"
     d="m 14.440656,20.663993 c -1.406819,-0.502076 -2.259907,-1.293399 -2.927726,-2.715751 -0.337281,-0.718356 -0.403132,-1.02831 -0.403307,-1.898305 -3e-4,-1.49606 0.387817,-2.432125 1.448003,-3.492311 1.057351,-1.057352 1.985811,-1.439489 3.509014,-1.444246 0.946391,-0.003 1.161084,0.0484 2.060473,0.492905 1.137127,0.561998 1.813194,1.246483 2.35758,2.386935 0.30713,0.643416 0.355907,0.922545 0.355417,2.033899 -5.02e-4,1.12635 -0.04686,1.382451 -0.369144,2.039081 -0.473805,0.965343 -1.452653,1.940128 -2.404766,2.394785 -1.00538,0.480094 -2.599104,0.569332 -3.625544,0.203008 z"
     id="path2573"
     inkscape:connector-curvature="0" />
  <path
     style="opacity:0.65399996;fill:#ffff00;fill-opacity:1;stroke:#ffff00;stroke-width:0.76871747;stroke-miterlimit:4;stroke-dasharray:none;stroke-dashoffset:0;stroke-opacity:1"
     d="m 15.133113,20.364606 c -1.490224,-0.302601 -2.494813,-1.122179 -3.169394,-2.585702 -0.408531,-0.886319 -0.43962,-1.04878 -0.38413,-2.00734 0.07169,-1.238384 0.50678,-2.163923 1.407586,-2.994257 0.891584,-0.821833 1.599586,-1.125006 2.793829,-1.196342 0.943345,-0.05635 1.123718,-0.02401 1.904728,0.341465 1.147068,0.536778 1.801577,1.135738 2.282819,2.089073 0.35017,0.693682 0.397393,0.929407 0.396226,1.977851 -0.0011,0.963273 -0.06192,1.319619 -0.319044,1.868273 -0.375215,0.800653 -1.489374,1.884666 -2.294244,2.232168 -0.70092,0.30262 -1.874716,0.425816 -2.618376,0.274811 z"
     id="path2575"
     inkscape:connector-curvature="0" />
  <path
     style="opacity:0.65399996;fill:#ffff00;fill-opacity:1;stroke:#ffff00;stroke-width:0.76871747;stroke-miterlimit:4;stroke-dasharray:none;stroke-dashoffset:0;stroke-opacity:1"
     d="m 14.906368,20.354163 c -0.82054,-0.193317 -1.494457,-0.598636 -2.115403,-1.272283 -0.865459,-0.938912 -1.235494,-1.835274 -1.237098,-2.996709 -0.002,-1.442905 0.289611,-2.133564 1.349895,-3.197198 1.036437,-1.039711 1.758758,-1.335431 3.261903,-1.335431 1.132141,0 2.27529,0.527707 3.113843,1.43743 0.922064,1.000321 1.118584,1.597868 1.064672,3.237288 -0.04496,1.367228 -0.05635,1.410216 -0.57166,2.157919 -1.137304,1.650201 -3.007409,2.406898 -4.866152,1.968984 z"
     id="path2577"
     inkscape:connector-curvature="0" />
  <path
     style="opacity:0.65399996;fill:#ffff00;fill-opacity:1;stroke:#ffff00;stroke-width:0.76871747;stroke-miterlimit:4;stroke-dasharray:none;stroke-dashoffset:0;stroke-opacity:1"
     d=""
     id="path2579"
     inkscape:connector-curvature="0" />
  <path
     style="opacity:0.65399996;fill:#ffff00;fill-opacity:1;stroke:#ffff00;stroke-width:0.76871747;stroke-miterlimit:4;stroke-dasharray:none;stroke-dashoffset:0;stroke-opacity:1"
     d=""
     id="path2581"
     inkscape:connector-curvature="0" />
  <path
     style="opacity:0.65399996;fill:#ffff00;fill-opacity:1;stroke:#ffff00;stroke-width:0.76871747;stroke-miterlimit:4;stroke-dasharray:none;stroke-dashoffset:0;stroke-opacity:1"
     d="m 14.579549,20.586536 c -1.289126,-0.423212 -2.257739,-1.325784 -2.90012,-2.702388 -0.403152,-0.863944 -0.426722,-0.997632 -0.370531,-2.101695 0.07307,-1.435612 0.435221,-2.237553 1.431192,-3.169167 1.034714,-0.967855 1.659409,-1.234588 3.057184,-1.305362 1.15569,-0.05852 1.22584,-0.04466 2.192761,0.43322 1.176675,0.581545 2.108169,1.53182 2.431385,2.480407 0.135587,0.397924 0.215376,1.091007 0.214544,1.86362 -0.0011,1.005888 -0.05933,1.35365 -0.319554,1.908049 -0.386966,0.824404 -1.618063,2.014961 -2.476006,2.39447 -0.801812,0.354679 -2.475327,0.45673 -3.260855,0.198846 z"
     id="path2583"
     inkscape:connector-curvature="0" />
  <path
     style="opacity:0.65399996;fill:#ffff00;fill-opacity:1;stroke:#ffff00;stroke-width:0.76871747;stroke-miterlimit:4;stroke-dasharray:none;stroke-dashoffset:0;stroke-opacity:1"
     d="m 14.400731,20.554583 c -1.308799,-0.474809 -2.14901,-1.289239 -2.819334,-2.732825 -0.302346,-0.651122 -0.359257,-0.956489 -0.349688,-1.876307 0.01448,-1.391719 0.397386,-2.287056 1.412036,-3.301706 1.010354,-1.010354 1.881594,-1.383087 3.28795,-1.406645 0.985833,-0.01651 1.214966,0.02969 2.014237,0.406201 1.106778,0.521362 1.927337,1.319069 2.396599,2.329857 0.313905,0.676151 0.353857,0.925517 0.341193,2.129605 -0.01182,1.124063 -0.06744,1.467857 -0.316412,1.955882 -0.409251,0.802197 -1.548821,1.910871 -2.372148,2.307833 -0.881871,0.425188 -2.681341,0.519359 -3.594433,0.188105 z"
     id="path2585"
     inkscape:connector-curvature="0" />
  <path
     style="opacity:0.65399996;fill:#ffff00;fill-opacity:1;stroke:#ffff00;stroke-width:0.76871747;stroke-miterlimit:4;stroke-dasharray:none;stroke-dashoffset:0;stroke-opacity:1"
     d="m 14.907922,20.76894 c -1.424574,-0.357225 -2.675091,-1.414981 -3.33363,-2.819768 -0.30686,-0.65459 -0.360733,-0.95176 -0.360733,-1.98985 0,-1.061489 0.04932,-1.320769 0.37888,-1.991876 0.441391,-0.898834 1.629327,-2.053046 2.536375,-2.464372 0.464261,-0.210531 0.901985,-0.27823 1.830508,-0.283106 1.046204,-0.0055 1.330144,0.04507 1.98985,0.354324 0.981716,0.460211 1.853517,1.264663 2.358648,2.176433 0.374692,0.676327 0.397265,0.805674 0.397265,2.276394 0,1.815522 -0.09366,2.061454 -1.24452,3.268015 -0.466102,0.488659 -1.013688,0.893836 -1.507489,1.115441 -0.874226,0.392329 -2.259557,0.55536 -3.045154,0.358365 z"
     id="path2587"
     inkscape:connector-curvature="0" />
  <path
     style="opacity:0.65399996;fill:#00ffff;fill-opacity:1;stroke:#00ffff;stroke-width:0.76871747;stroke-miterlimit:4;stroke-dasharray:none;stroke-dashoffset:0;stroke-opacity:1"
     d="m 14.611042,22.794514 c -1.13484,-0.22253 -2.54663,-1.010076 -3.475075,-1.938522 C 9.5580887,19.278114 8.8411328,17.176207 9.1523854,15.040705 9.645796,11.655417 12.564401,9.1118644 15.955444,9.1118644 c 1.833861,0 3.327411,0.5647879 4.661392,1.7627116 2.543531,2.284109 3.017674,6.126738 1.110512,9 -1.505671,2.268389 -4.394383,3.453675 -7.116306,2.919938 z m 3.574066,-1.931129 c 0.942516,-0.431498 2.206286,-1.664865 2.663044,-2.598978 0.295535,-0.604395 0.331509,-0.854537 0.331509,-2.305085 0,-1.552026 -0.01877,-1.661487 -0.40678,-2.371814 -0.586247,-1.073249 -1.417755,-1.845509 -2.582838,-2.398805 -0.992577,-0.471373 -1.037843,-0.479359 -2.400847,-0.423567 -1.191691,0.04878 -1.494336,0.111112 -2.12872,0.438435 -0.943446,0.48679 -2.044544,1.613128 -2.512988,2.570593 -0.483456,0.98815 -0.607619,2.545398 -0.290049,3.637801 0.491947,1.692237 1.929411,3.189046 3.542561,3.688813 1.037152,0.321318 2.807207,0.210305 3.785108,-0.237393 z"
     id="path4423"
     inkscape:connector-curvature="0" />
  <path
     style="opacity:0.65399996;fill:#00ffff;fill-opacity:1;stroke:#00ffff;stroke-width:0.76871747;stroke-miterlimit:4;stroke-dasharray:none;stroke-dashoffset:0;stroke-opacity:1"
     d="M 14.379373,22.749856 C 12.769454,22.359349 11.05157,21.126127 10.141141,19.707347 8.823242,17.653579 8.7268068,14.924572 9.8941958,12.719075 10.751204,11.099968 12.601098,9.6577144 14.332203,9.2590224 c 0.916484,-0.2110761 2.6994,-0.1761893 3.534712,0.069165 1.743673,0.5121641 3.479165,1.8995026 4.229348,3.3809096 0.844155,1.666973 1.035459,3.677254 0.511402,5.373952 -1.051661,3.404885 -4.759952,5.508101 -8.228292,4.666807 z m 3.009088,-1.642453 c 1.496554,-0.384904 2.818911,-1.544675 3.528533,-3.094695 0.322931,-0.705374 0.350716,-0.899749 0.308766,-2.160018 -0.04014,-1.205803 -0.09681,-1.484982 -0.438279,-2.158876 -0.532738,-1.051376 -1.448356,-1.928448 -2.615694,-2.505573 -0.952043,-0.470685 -1.004051,-0.48032 -2.309604,-0.427882 -1.739711,0.06988 -2.506653,0.42497 -3.738721,1.731027 -1.112823,1.179651 -1.385773,1.89174 -1.381266,3.603529 0.0029,1.105754 0.04528,1.304749 0.451274,2.119305 1.222229,2.452225 3.597112,3.561341 6.194991,2.893183 z"
     id="path4425"
     inkscape:connector-curvature="0" />
  <path
     style="opacity:0.65399996;fill:#00ffff;fill-opacity:1;stroke:#00ffff;stroke-width:0.76871747;stroke-miterlimit:4;stroke-dasharray:none;stroke-dashoffset:0;stroke-opacity:1"
     d="M 14.211841,22.728061 C 12.43854,22.251161 10.72911,20.907475 9.8949156,19.334772 7.4134774,14.656525 10.686487,9.1216428 15.959322,9.0794483 c 3.424983,-0.027407 6.172536,2.2330017 6.867543,5.6499187 0.714697,3.513718 -1.555808,7.066689 -5.122589,8.016021 -0.921803,0.245347 -2.545668,0.23729 -3.492435,-0.01733 z m 2.56104,-1.554336 c 1.251343,-0.198033 2.161784,-0.684392 3.023517,-1.615167 1.146877,-1.238764 1.36428,-1.802797 1.36428,-3.539508 0,-1.319917 -0.0346,-1.519445 -0.389101,-2.244024 -0.520595,-1.064058 -1.488,-2.003725 -2.610119,-2.535279 -0.833318,-0.394748 -1.02771,-0.432399 -2.202136,-0.426531 -1.635021,0.0082 -2.49885,0.367465 -3.640764,1.514311 -1.199538,1.204719 -1.443982,1.819526 -1.443982,3.631795 0,1.354029 0.03451,1.561788 0.374306,2.253715 0.862821,1.756939 2.594518,2.96088 4.439254,3.086337 0.111864,0.0076 0.6,-0.04894 1.084745,-0.125649 z"
     id="path4427"
     inkscape:connector-curvature="0" />
  <path
     style="opacity:0.65399996;fill:#00ffff;fill-opacity:1;stroke:#00ffff;stroke-width:0.76871747;stroke-miterlimit:4;stroke-dasharray:none;stroke-dashoffset:0;stroke-opacity:1"
     d="M 14.535593,22.875475 C 12.37842,22.395728 10.688506,21.065772 9.7102746,19.077966 8.3668767,16.348126 8.8674063,13.230213 10.992195,11.092594 c 1.374584,-1.3828855 3.11864,-2.1163228 5.032448,-2.1163228 1.960288,0 3.688857,0.77144 5.101373,2.2766828 1.308311,1.394198 1.885554,2.856437 1.882544,4.768754 -0.003,1.93593 -0.64677,3.487683 -2.032289,4.899016 -1.726858,1.759032 -4.092442,2.476989 -6.440678,1.954751 z m 3.497305,-2.342406 c 0.805304,-0.362379 2.113071,-1.654931 2.51017,-2.480964 0.248223,-0.516347 0.29739,-0.853864 0.296285,-2.033898 -0.0011,-1.211555 -0.04861,-1.516374 -0.33044,-2.121707 -0.430532,-0.924715 -1.336061,-1.815148 -2.40285,-2.362789 -0.811072,-0.416367 -0.929846,-0.439031 -2.145441,-0.409374 -1.610764,0.0393 -2.419176,0.37421 -3.448753,1.428766 -1.037458,1.06263 -1.343955,1.77643 -1.410237,3.284304 -0.04557,1.036639 -0.0087,1.336999 0.230557,1.877858 0.623364,1.409219 1.723813,2.519949 2.967825,2.995553 0.775842,0.296616 2.903905,0.195284 3.732884,-0.177749 z"
     id="path4429"
     inkscape:connector-curvature="0" />
  <path
     style="opacity:0.65399996;fill:#00ffff;fill-opacity:1;stroke:#00ffff;stroke-width:0.76871747;stroke-miterlimit:4;stroke-dasharray:none;stroke-dashoffset:0;stroke-opacity:1"
     d="M 15.398085,6.6831767 C 15.11493,6.4538921 15.072446,6.2889493 15.029938,5.2538774 c -0.05406,-1.3164555 0.101931,-1.860881 0.597959,-2.0868866 0.356426,-0.1623987 0.672601,-0.094579 1.043289,0.2237871 0.197077,0.1692594 0.237289,0.437497 0.237289,1.5828728 0,1.2662159 -0.02568,1.4032056 -0.313824,1.6738999 -0.386954,0.3635242 -0.777277,0.3751455 -1.196566,0.035626 z"
     id="path4431"
     inkscape:connector-curvature="0" />
  <path
     style="opacity:0.65399996;fill:#00ffff;fill-opacity:1;stroke:#00ffff;stroke-width:0.76871747;stroke-miterlimit:4;stroke-dasharray:none;stroke-dashoffset:0;stroke-opacity:1"
     d="M 15.330481,6.5970453 C 14.99928,6.2658435 14.987052,6.196699 15.03156,4.9066988 c 0.04968,-1.4399354 0.149629,-1.6688116 0.798037,-1.8274744 0.240996,-0.058971 0.455382,0.00256 0.711865,0.2043085 0.357033,0.2808422 0.367013,0.3271384 0.367013,1.7025796 0,1.2330966 -0.03468,1.4485636 -0.271187,1.6850739 -0.37008,0.3700804 -0.892208,0.3404578 -1.306807,-0.074141 z"
     id="path4433"
     inkscape:connector-curvature="0" />
  <path
     style="opacity:0.65399996;fill:#00ffff;fill-opacity:1;stroke:#00ffff;stroke-width:0.76871747;stroke-miterlimit:4;stroke-dasharray:none;stroke-dashoffset:0;stroke-opacity:1"
     d="M 22.874576,9.8178652 C 22.463784,9.6897714 22.19661,9.3321467 22.19661,8.9103745 c 0,-0.3578889 0.171907,-0.5973348 1.017512,-1.4172718 0.896141,-0.8689398 1.061922,-0.9761129 1.38983,-0.8984892 0.443396,0.1049622 0.846895,0.5431042 0.846895,0.9196053 0,0.2982211 -1.780478,2.2134806 -2.145749,2.3081811 -0.124922,0.032388 -0.318657,0.030347 -0.430522,-0.00453 z"
     id="path4435"
     inkscape:connector-curvature="0" />
  <path
     style="opacity:0.65399996;fill:#00ffff;fill-opacity:1;stroke:#00ffff;stroke-width:0.76871747;stroke-miterlimit:4;stroke-dasharray:none;stroke-dashoffset:0;stroke-opacity:1"
     d="M 22.644442,9.7631252 C 22.287397,9.5906197 22.05896,9.0115402 22.200041,8.6365855 c 0.168402,-0.4475691 1.974216,-2.1009923 2.294633,-2.1009923 0.379791,0 0.956173,0.5832963 0.956173,0.9676425 0,0.3452466 -1.997563,2.4279842 -2.314329,2.4130111 -0.10678,-0.00505 -0.328214,-0.073952 -0.492076,-0.1531216 z"
     id="path4437"
     inkscape:connector-curvature="0" />
  <path
     style="opacity:0.65399996;fill:#00ffff;fill-opacity:1;stroke:#00ffff;stroke-width:0.76871747;stroke-miterlimit:4;stroke-dasharray:none;stroke-dashoffset:0;stroke-opacity:1"
     d="m 25.389395,16.655959 c -0.418794,-0.418794 -0.436135,-0.748011 -0.0643,-1.220724 0.271273,-0.344868 0.329762,-0.357269 1.685073,-0.357269 1.364744,0 1.412128,0.01027 1.692739,0.367013 0.201749,0.256483 0.263279,0.470868 0.204308,0.711864 -0.158663,0.648409 -0.387539,0.748357 -1.827474,0.798038 -1.29,0.04451 -1.359145,0.03228 -1.690346,-0.298922 z"
     id="path4439"
     inkscape:connector-curvature="0" />
  <path
     style="opacity:0.65399996;fill:#00ffff;fill-opacity:1;stroke:#00ffff;stroke-width:0.76871747;stroke-miterlimit:4;stroke-dasharray:none;stroke-dashoffset:0;stroke-opacity:1"
     d="m 25.376888,16.643452 c -0.417746,-0.417746 -0.424798,-0.889433 -0.019,-1.270664 0.279501,-0.262577 0.463796,-0.294822 1.685074,-0.294822 1.319881,0 1.381777,0.01338 1.652277,0.357269 0.369053,0.469175 0.354803,0.801622 -0.05179,1.208217 -0.307096,0.307095 -0.433336,0.332819 -1.633283,0.332819 -1.199946,0 -1.326186,-0.02572 -1.633281,-0.332819 z"
     id="path4441"
     inkscape:connector-curvature="0" />
  <path
     style="opacity:0.65399996;fill:#00ffff;fill-opacity:1;stroke:#00ffff;stroke-width:0.76871747;stroke-miterlimit:4;stroke-dasharray:none;stroke-dashoffset:0;stroke-opacity:1"
     d="M 23.122385,24.457276 C 22.099902,23.434794 21.938926,22.92887 22.467797,22.4 c 0.490048,-0.490048 0.899376,-0.351954 1.909098,0.644068 1.06673,1.052258 1.222408,1.435714 0.800589,1.97197 -0.506911,0.644434 -0.980731,0.515607 -2.055099,-0.558762 z"
     id="path4443"
     inkscape:connector-curvature="0" />
  <path
     style="opacity:0.65399996;fill:#00ffff;fill-opacity:1;stroke:#00ffff;stroke-width:0.76871747;stroke-miterlimit:4;stroke-dasharray:none;stroke-dashoffset:0;stroke-opacity:1"
     d="M 23.132579,24.479449 C 22.299521,23.6752 22.19661,23.519504 22.19661,23.063409 c 0,-0.574988 0.359988,-0.934595 0.935583,-0.934595 0.468698,0 2.318654,1.853628 2.318654,2.323256 0,0.480007 -0.468721,0.930981 -0.967618,0.930981 -0.327395,0 -0.611693,-0.190199 -1.35065,-0.903602 z"
     id="path4445"
     inkscape:connector-curvature="0" />
  <path
     style="opacity:0.65399996;fill:#00ffff;fill-opacity:1;stroke:#00ffff;stroke-width:0.76871747;stroke-miterlimit:4;stroke-dasharray:none;stroke-dashoffset:0;stroke-opacity:1"
     d="m 15.33627,28.623322 c -0.205403,-0.226753 -0.267693,-0.539246 -0.30415,-1.525847 -0.04087,-1.106036 -0.01405,-1.281118 0.247129,-1.613152 0.355775,-0.452294 0.961823,-0.497488 1.358039,-0.101272 0.404557,0.404556 0.404557,2.849681 0,3.254237 -0.354484,0.354484 -0.973278,0.347842 -1.301018,-0.01397 z"
     id="path4447"
     inkscape:connector-curvature="0" />
  <path
     style="opacity:0.65399996;fill:#00ffff;fill-opacity:1;stroke:#00ffff;stroke-width:0.76871747;stroke-miterlimit:4;stroke-dasharray:none;stroke-dashoffset:0;stroke-opacity:1"
     d="m 15.291197,28.551206 c -0.233835,-0.297274 -0.281028,-0.54924 -0.281028,-1.50044 0,-1.529283 0.214551,-1.932792 1.029833,-1.936825 0.722841,-0.0036 0.868473,0.310502 0.868473,1.873007 0,1.198363 -0.03555,1.414703 -0.271187,1.65034 -0.390172,0.390172 -1.002259,0.351029 -1.346091,-0.08608 z"
     id="path4449"
     inkscape:connector-curvature="0" />
  <path
     style="opacity:0.65399996;fill:#00ffff;fill-opacity:1;stroke:#00ffff;stroke-width:0.76871747;stroke-miterlimit:4;stroke-dasharray:none;stroke-dashoffset:0;stroke-opacity:1"
     d="m 6.8745763,25.111864 c -0.504622,-0.504622 -0.3571411,-0.911311 0.7217058,-1.990158 1.092439,-1.092439 1.4592014,-1.219087 1.9665228,-0.679069 0.5098251,0.542685 0.3877939,0.888748 -0.6914172,1.960757 -1.0733771,1.066213 -1.4909231,1.214359 -1.9968114,0.70847 z"
     id="path4451"
     inkscape:connector-curvature="0" />
  <path
     style="opacity:0.65399996;fill:#00ffff;fill-opacity:1;stroke:#00ffff;stroke-width:0.76871747;stroke-miterlimit:4;stroke-dasharray:none;stroke-dashoffset:0;stroke-opacity:1"
     d="M 6.8277949,25.135086 C 6.365214,24.62394 6.5348083,24.170335 7.5830471,23.115053 c 1.0674513,-1.074623 1.4419483,-1.209017 1.977826,-0.709771 0.5559509,0.517948 0.4057664,0.998505 -0.6383717,2.042643 -0.7948762,0.794876 -1.0052541,0.935126 -1.4027135,0.935126 -0.2807893,0 -0.5572364,-0.09906 -0.691993,-0.247965 z"
     id="path4453"
     inkscape:connector-curvature="0" />
  <path
     style="opacity:0.65399996;fill:#00ffff;fill-opacity:1;stroke:#00ffff;stroke-width:0.76871747;stroke-miterlimit:4;stroke-dasharray:none;stroke-dashoffset:0;stroke-opacity:1"
     d="m 3.4352351,16.695243 c -0.4371116,-0.343832 -0.4762545,-0.955918 -0.086083,-1.34609 0.2342054,-0.234206 0.4519774,-0.271187 1.5969484,-0.271187 1.5578398,0 1.9297082,0.165076 1.926399,0.855146 -0.00398,0.829782 -0.4001556,1.043159 -1.9368253,1.043159 -0.9512001,0 -1.203166,-0.04719 -1.5004391,-0.281028 z"
     id="path4455"
     inkscape:connector-curvature="0" />
  <path
     style="opacity:0.65399996;fill:#00ffff;fill-opacity:1;stroke:#00ffff;stroke-width:0.76871747;stroke-miterlimit:4;stroke-dasharray:none;stroke-dashoffset:0;stroke-opacity:1"
     d="M 3.4500727,16.706915 C 2.9981309,16.351417 2.9530741,15.745231 3.3491525,15.349153 c 0.2362342,-0.236235 0.4519774,-0.271187 1.6739,-0.271187 1.5687044,0 1.8515238,0.137477 1.8515238,0.900015 0,0.789654 -0.2392235,0.925529 -1.7184715,0.976063 -1.200471,0.04101 -1.3711535,0.01629 -1.7060321,-0.247129 z"
     id="path4457"
     inkscape:connector-curvature="0" />
  <path
     style="opacity:0.65399996;fill:#00ffff;fill-opacity:1;stroke:#00ffff;stroke-width:0.76871747;stroke-miterlimit:4;stroke-dasharray:none;stroke-dashoffset:0;stroke-opacity:1"
     d="M 8.5548198,9.7226324 C 8.3391604,9.6305915 7.8118644,9.1854689 7.3830508,8.7334713 6.4670475,7.7679437 6.3637437,7.2861545 6.9704025,6.8089566 7.5066583,6.3871378 7.890115,6.5428153 8.9423729,7.6095461 9.9038203,8.5842176 10.037116,8.9308605 9.6583852,9.4715746 9.3960433,9.8461201 9.0360523,9.9280171 8.5548198,9.7226324 Z"
     id="path4459"
     inkscape:connector-curvature="0" />
  <path
     style="opacity:0.65399996;fill:#00ffff;fill-opacity:1;stroke:#00ffff;stroke-width:0.76871747;stroke-miterlimit:4;stroke-dasharray:none;stroke-dashoffset:0;stroke-opacity:1"
     d="M 8.5694915,9.7954731 C 8.420339,9.7348446 7.9169492,9.2869351 7.4508475,8.8001186 6.4681764,7.7737749 6.3502853,7.2967409 6.9606588,6.816621 7.5360244,6.3640384 7.7983687,6.4621194 8.8647348,7.5284855 c 0.7954506,0.7954506 0.9928923,1.0743873 0.9928923,1.4027136 0,0.6345652 -0.6991768,1.1036779 -1.2881356,0.864274 z"
     id="path4461"
     inkscape:connector-curvature="0" />
</svg>
