<?xml version="1.0" encoding="UTF-8" standalone="no"?>
<!-- Generated by IcoMoon.io -->

<svg
   xmlns:dc="http://purl.org/dc/elements/1.1/"
   xmlns:cc="http://creativecommons.org/ns#"
   xmlns:rdf="http://www.w3.org/1999/02/22-rdf-syntax-ns#"
   xmlns:svg="http://www.w3.org/2000/svg"
   xmlns="http://www.w3.org/2000/svg"
   xmlns:sodipodi="http://sodipodi.sourceforge.net/DTD/sodipodi-0.dtd"
   xmlns:inkscape="http://www.inkscape.org/namespaces/inkscape"
   version="1.1"
   width="37"
   height="35"
   viewBox="0 0 37 35"
   id="svg2621"
   sodipodi:docname="weather.svg"
   inkscape:version="0.92.4 (5da689c313, 2019-01-14)">
  <metadata
     id="metadata2627">
    <rdf:RDF>
      <cc:Work
         rdf:about="">
        <dc:format>image/svg+xml</dc:format>
        <dc:type
           rdf:resource="http://purl.org/dc/dcmitype/StillImage" />
        <dc:title>weather</dc:title>
      </cc:Work>
    </rdf:RDF>
  </metadata>
  <defs
     id="defs2625" />
  <sodipodi:namedview
     pagecolor="#ffffff"
     bordercolor="#666666"
     borderopacity="1"
     objecttolerance="10"
     gridtolerance="10"
     guidetolerance="10"
     inkscape:pageopacity="0"
     inkscape:pageshadow="2"
     inkscape:window-width="1366"
     inkscape:window-height="715"
     id="namedview2623"
     showgrid="false"
     inkscape:zoom="7.375"
     inkscape:cx="16"
     inkscape:cy="16"
     inkscape:window-x="-8"
     inkscape:window-y="-8"
     inkscape:window-maximized="1"
     inkscape:current-layer="svg2621" />
  <title
     id="title2617">weather</title>
  <g
     id="g5144"
     transform="translate(2.3050847,-1.220339)">
    <path
       inkscape:connector-curvature="0"
       id="path2619"
       d="M 25,7 C 24.668,7 24.34,7.023 24.013,7.07 22.146,4.526 19.199,3 16,3 12.801,3 9.855,4.526 7.987,7.07 7.66,7.023 7.332,7 7,7 3.141,7 0,10.141 0,14 0,17.859 3.141,21 7,21 7.856,21 8.693,20.844 9.482,20.542 11.292,22.12 13.594,23 16,23 18.409,23 20.708,22.12 22.518,20.542 23.307,20.844 24.144,21 25,21 c 3.859,0 7,-3.141 7,-7 0,-3.859 -3.141,-7 -7,-7 z m 0,12 c -0.607,0 -1.201,-0.109 -1.766,-0.325 l -1.125,-0.432 -0.906,0.792 c -1.453,1.268 -3.301,1.966 -5.203,1.966 -1.902,0 -3.75,-0.698 -5.203,-1.966 L 9.891,18.243 8.766,18.675 C 8.203,18.891 7.607,19.001 7,19.001 c -2.758,0 -5,-2.244 -5,-5 0,-2.756 2.242,-5 5,-5 0.237,0 0.469,0.017 0.703,0.05 L 8.888,9.223 9.598,8.257 C 11.118,6.188 13.451,5.002 16,5.002 c 2.551,0 4.883,1.185 6.401,3.254 l 0.711,0.967 1.187,-0.172 c 0.232,-0.033 0.464,-0.05 0.701,-0.05 2.758,0 5,2.244 5,5 0,2.756 -2.242,5 -5,5 z M 6,23 c -1.106,0 -2,0.895 -2,2 0,1.105 0.894,2 2,2 1.106,0 2,-0.895 2,-2 0,-1.105 -0.894,-2 -2,-2 z m 10,2 c -1.105,0 -2,0.895 -2,2 0,1.105 0.895,2 2,2 1.105,0 2,-0.895 2,-2 0,-1.105 -0.895,-2 -2,-2 z m 10,-2 c -1.105,0 -2,0.895 -2,2 0,1.105 0.895,2 2,2 1.105,0 2,-0.895 2,-2 0,-1.105 -0.895,-2 -2,-2 z m -4,8 c -1.105,0 -2,0.895 -2,2 0,1.105 0.895,2 2,2 1.105,0 2,-0.895 2,-2 0,-1.105 -0.895,-2 -2,-2 z m -12,0 c -1.105,0 -2,0.895 -2,2 0,1.105 0.895,2 2,2 1.105,0 2,-0.895 2,-2 0,-1.105 -0.895,-2 -2,-2 z" />
    <path
       inkscape:connector-curvature="0"
       id="path3813"
       d="M 14.215385,20.710446 C 13.048482,20.427986 11.87709,19.82118 10.83406,18.958845 L 9.9121878,18.196677 8.8378968,18.561745 C 7.9277988,18.871017 7.6024096,18.917269 6.7089216,18.864369 5.3850522,18.785986 4.5946667,18.445079 3.6370717,17.539426 2.5685255,16.528839 2.1302582,15.502885 2.129443,14.010169 2.1288909,12.999312 2.1806282,12.74928 2.5503006,11.976271 3.0560018,10.918818 3.8938244,10.061204 4.9075628,9.5633254 5.5947298,9.2258362 5.7868054,9.1964229 7.3176435,9.1942603 L 8.9810498,9.1919105 9.7583215,8.2076743 C 10.989735,6.6483721 12.285846,5.7862158 14.09368,5.3238497 c 3.149955,-0.8056232 6.564287,0.5000571 8.446395,3.2300007 l 0.448701,0.6508287 1.705612,-0.00403 c 1.539939,-0.00364 1.771466,0.02824 2.383578,0.3282391 0.853668,0.4183855 1.955188,1.5104848 2.350275,2.3301728 1.525379,3.164709 -0.674675,6.850932 -4.184806,7.011705 -0.842577,0.03859 -1.215487,-0.01807 -2.077908,-0.315741 -1.161946,-0.401049 -1.009256,-0.436681 -2.087584,0.487167 -0.800713,0.686006 -2.271029,1.431727 -3.302094,1.674769 -1.066897,0.25149 -2.505471,0.248859 -3.560464,-0.0065 z"
       style="opacity:0.65399996;fill:#ffffff;fill-opacity:1;stroke:#00ffff;stroke-width:0.76871747;stroke-miterlimit:4;stroke-dasharray:none;stroke-dashoffset:0;stroke-opacity:1" />
    <path
       inkscape:connector-curvature="0"
       id="path3815"
       d="M 14.738983,22.871374 C 13.162467,22.618706 11.799911,22.073957 10.408548,21.140065 L 9.4679429,20.508725 8.637173,20.717075 C 4.7446711,21.693277 0.76769169,18.996358 0.14657082,14.959322 -0.18075809,12.831816 0.62833584,10.541524 2.2371509,9.0415449 3.6841748,7.6924118 5.1463736,7.0952748 7.0047592,7.0945355 L 7.959322,7.0941557 9.179661,5.9052312 c 2.003462,-1.9518876 4.029413,-2.7852767 6.779661,-2.7888602 1.821477,-0.00237 2.799963,0.2303035 4.519094,1.0746067 1.028467,0.5051024 1.480585,0.8345115 2.419149,1.7625685 l 1.154289,1.1413691 h 0.862314 c 3.205736,0 5.964079,2.1033643 6.780389,5.1703627 0.822277,3.08941 -0.735657,6.485721 -3.625225,7.903031 -1.569282,0.769719 -3.041499,0.941046 -4.708982,0.547999 L 22.49019,20.5112 21.705912,21.06134 c -0.967862,0.678916 -2.23291,1.27629 -3.305912,1.561099 -0.836003,0.221903 -2.937924,0.364825 -3.661017,0.248935 z m 3.124054,-1.747788 c 1.166139,-0.301029 2.300464,-0.865905 3.373828,-1.680112 l 0.938559,-0.711951 1.062954,0.302663 C 25.36,19.63829 27.460946,19.132203 28.807456,17.692677 30.982754,15.367106 30.834499,12.141051 28.453444,9.9893318 27.380076,9.0193466 26.818753,8.8250716 24.871593,8.7496475 l -1.664,-0.064456 L 22.51821,7.818832 C 20.847402,5.7190991 18.143418,4.5165329 15.496157,4.6958541 13.022237,4.8634335 10.982659,5.9447151 9.4423548,7.9052759 L 8.8290869,8.6858681 7.1508332,8.7505195 C 5.6696471,8.8075791 5.3829246,8.8590348 4.7090668,9.1887227 3.6889847,9.6878024 2.7234887,10.682045 2.1731863,11.800106 c -0.4177171,0.848686 -0.4506652,1.012278 -0.4445786,2.207408 0.00569,1.117756 0.057769,1.403521 0.3884716,2.131727 0.4632792,1.020137 1.7788609,2.345427 2.7453619,2.765621 1.0155858,0.441535 2.6268753,0.50084 3.8136636,0.140364 0.5238388,-0.159112 1.0042769,-0.289294 1.0676404,-0.289294 0.063364,0 0.5425168,0.321459 1.0647848,0.714354 1.10135,0.828529 2.230678,1.393793 3.306267,1.65489 1.035824,0.251444 2.770882,0.250707 3.74824,-0.0016 z"
       style="opacity:0.65399996;fill:#00ffff;fill-opacity:1;stroke:#00ffff;stroke-width:0.76871747;stroke-miterlimit:4;stroke-dasharray:none;stroke-dashoffset:0;stroke-opacity:1" />
    <path
       inkscape:connector-curvature="0"
       id="path3817"
       d="M 14.114887,22.764804 C 12.854785,22.500498 11.275438,21.812483 10.328309,21.115246 L 9.5213127,20.521169 8.6725207,20.721292 C 6.1535154,21.315208 3.7166183,20.572534 1.926947,18.665497 1.0298545,17.709574 0.49879563,16.687974 0.22331516,15.388215 -0.03619909,14.163786 -0.02113078,13.564236 0.30079128,12.305533 1.0906629,9.2171649 3.8167558,7.0949153 6.9939855,7.0949153 H 7.9377746 L 8.8306268,6.1751022 C 9.8686804,5.1057033 10.692107,4.5102598 11.873953,3.9743853 c 2.984088,-1.3530499 6.315082,-1.1918466 9.102318,0.4405062 0.522034,0.3057306 1.429431,1.0338076 2.016435,1.6179488 l 1.067283,1.062075 h 0.972026 c 3.815615,0 6.85951,3.0322447 6.85951,6.8332527 0,2.042457 -0.578842,3.487081 -1.966101,4.906831 -1.710426,1.750486 -4.309035,2.489537 -6.628925,1.885282 l -0.787595,-0.205142 -0.631007,0.463203 c -0.870297,0.638855 -2.369161,1.371003 -3.342304,1.632609 -1.148626,0.308778 -3.32154,0.384402 -4.420706,0.153853 z m 3.559358,-1.628357 c 1.125602,-0.238574 2.728788,-1.022052 3.668201,-1.79265 0.394156,-0.323326 0.799134,-0.587865 0.89995,-0.587865 0.100816,0 0.612188,0.13027 1.136382,0.289489 2.572837,0.781475 5.239575,-0.397759 6.443526,-2.849333 0.33652,-0.685249 0.374306,-0.905912 0.374306,-2.185919 0,-1.263862 -0.04115,-1.511552 -0.366512,-2.205864 C 29.381352,10.846687 28.250892,9.6879112 27.290781,9.201386 26.668037,8.885818 26.358557,8.8295466 24.861443,8.7596701 23.323172,8.6878727 23.12538,8.6502396 22.948652,8.3957284 22.481928,7.7235843 21.197112,6.4964076 20.439893,5.9995163 19.421485,5.3312321 17.785405,4.8005893 16.440762,4.702446 15.150911,4.608302 13.734441,4.8954527 12.438669,5.5137609 11.317047,6.0489695 10.607235,6.6187196 9.5767036,7.8109977 L 8.8242103,8.6815982 7.1382857,8.7612579 C 5.5756575,8.8350918 5.3922861,8.8729372 4.6309086,9.2787473 2.5778926,10.372993 1.4624952,12.512843 1.7792518,14.749549 c 0.1745528,1.232566 0.6706285,2.194744 1.5701931,3.045515 1.4684868,1.388833 3.3872291,1.839245 5.3262215,1.250295 0.5240799,-0.159185 1.0164403,-0.289427 1.0941341,-0.289427 0.077694,0 0.5467715,0.306929 1.0423935,0.682065 1.263073,0.956017 2.633359,1.595364 3.858992,1.800532 0.75184,0.125855 2.152246,0.07825 3.003059,-0.102082 z"
       style="opacity:0.65399996;fill:#00ffff;fill-opacity:1;stroke:#00ffff;stroke-width:0.76871747;stroke-miterlimit:4;stroke-dasharray:none;stroke-dashoffset:0;stroke-opacity:1" />
    <path
       inkscape:connector-curvature="0"
       id="path3819"
       d="m 13.925424,22.747315 c -1.127683,-0.246679 -2.6364,-0.930999 -3.704702,-1.68037 L 9.4487252,20.52542 8.7841685,20.725421 C 7.9089684,20.988818 6.0947814,20.980625 5.170373,20.709101 2.6851464,19.979123 0.80588487,18.042748 0.23590283,15.624669 -0.78550159,11.291483 2.4482576,7.0949153 6.8086946,7.0949153 H 7.8667898 L 9.0221696,5.9524686 C 9.9952508,4.99028 10.398344,4.7018624 11.57691,4.1245232 c 1.786694,-0.8752397 3.167726,-1.1672686 4.989806,-1.0551295 2.738565,0.1685438 5.361053,1.4697511 6.937605,3.4422519 l 0.455001,0.5692726 1.094034,0.007 c 1.958061,0.012526 3.586952,0.7104213 4.935195,2.1144763 4.250344,4.4262935 1.130065,11.7310825 -5.00687,11.7214215 -0.562297,-9.49e-4 -1.350059,-0.08883 -1.750581,-0.195432 l -0.728223,-0.193822 -0.695506,0.51947 c -0.884251,0.660442 -1.800162,1.117114 -3.000591,1.496095 -1.255531,0.396374 -3.547524,0.488962 -4.881356,0.19719 z m 4.881356,-2.015748 c 0.853116,-0.345747 2.125368,-1.113616 3.050847,-1.841338 0.337364,-0.265276 0.343193,-0.265211 1.220339,0.01374 0.703262,0.223651 1.141648,0.270175 2.169492,0.230237 1.153425,-0.04482 1.377507,-0.09795 2.142729,-0.508045 1.074079,-0.575617 2.080444,-1.661859 2.486856,-2.684241 0.466223,-1.172844 0.44455,-2.937287 -0.04913,-3.999906 C 29.37678,10.970982 28.322132,9.8398828 27.384518,9.3214998 26.7196,8.9538834 26.551551,8.9236136 24.908475,8.8755039 L 23.145763,8.8238913 22.547657,8.0120454 C 21.057374,5.9891908 18.605089,4.7898305 15.959322,4.7898305 c -2.64487,0 -4.885309,1.1302328 -6.5705796,3.3146567 l -0.5810433,0.7531399 -1.576731,1.07e-4 C 5.7632932,8.8578336 5.5952125,8.8857645 4.8008559,9.2615576 3.7609939,9.753494 2.813493,10.694804 2.2644068,11.781433 c -0.3750385,0.742193 -0.4067797,0.916102 -0.4067797,2.228736 0,1.290594 0.036116,1.49728 0.3862221,2.210274 0.4729084,0.963082 1.4954273,2.010573 2.4357965,2.495282 1.0171303,0.524274 2.936907,0.605724 4.2191944,0.179007 l 0.8970095,-0.298506 0.9800414,0.743472 c 1.958335,1.485619 3.10694,1.867559 5.454617,1.813799 1.422737,-0.03258 1.746342,-0.08558 2.576272,-0.42193 z"
       style="opacity:0.65399996;fill:#00ffff;fill-opacity:1;stroke:#00ffff;stroke-width:0.76871747;stroke-miterlimit:4;stroke-dasharray:none;stroke-dashoffset:0;stroke-opacity:1" />
    <path
       inkscape:connector-curvature="0"
       id="path3821"
       d="M 4.9554257,26.613004 C 3.5024808,25.682191 4.043078,23.325306 5.753749,23.132489 c 2.0549376,-0.231622 2.9703256,2.359108 1.2372616,3.501696 -0.5214903,0.343812 -1.481443,0.333823 -2.0355849,-0.02118 z"
       style="opacity:0.65399996;fill:#00ffff;fill-opacity:1;stroke:#00ffff;stroke-width:0.76871747;stroke-miterlimit:4;stroke-dasharray:none;stroke-dashoffset:0;stroke-opacity:1" />
    <path
       inkscape:connector-curvature="0"
       id="path3823"
       d="m 4.9489557,26.625828 c -1.1690632,-0.712819 -1.1438498,-2.488806 0.046474,-3.273572 0.4748323,-0.313051 1.4025351,-0.335475 1.9596725,-0.04737 1.2098082,0.625616 1.2588756,2.60359 0.082382,3.32094 -0.5686377,0.346719 -1.5198914,0.346719 -2.0885292,0 z"
       style="opacity:0.65399996;fill:#00ffff;fill-opacity:1;stroke:#00ffff;stroke-width:0.76871747;stroke-miterlimit:4;stroke-dasharray:none;stroke-dashoffset:0;stroke-opacity:1" />
    <path
       inkscape:connector-curvature="0"
       id="path3825"
       d="m 8.9624248,34.583738 c -0.935634,-0.625044 -1.1576106,-1.791796 -0.5130962,-2.696933 1.0133167,-1.423072 3.2475094,-0.821679 3.4615064,0.931758 0.18572,1.52174 -1.659321,2.626342 -2.9484102,1.765175 z"
       style="opacity:0.65399996;fill:#00ffff;fill-opacity:1;stroke:#00ffff;stroke-width:0.76871747;stroke-miterlimit:4;stroke-dasharray:none;stroke-dashoffset:0;stroke-opacity:1" />
    <path
       inkscape:connector-curvature="0"
       id="path3827"
       d="M 8.9762712,34.595815 C 8.3466389,34.171442 7.9951434,33.477848 8.0756055,32.818563 c 0.211836,-1.735728 2.3801795,-2.341389 3.4614015,-0.966839 0.598367,0.760702 0.489637,1.851194 -0.255785,2.565354 -0.572407,0.5484 -1.6343166,0.630746 -2.3049508,0.178737 z"
       style="opacity:0.65399996;fill:#00ffff;fill-opacity:1;stroke:#00ffff;stroke-width:0.76871747;stroke-miterlimit:4;stroke-dasharray:none;stroke-dashoffset:0;stroke-opacity:1" />
    <path
       inkscape:connector-curvature="0"
       id="path3829"
       d="m 15.344591,28.814199 c -0.775155,-0.343552 -1.215925,-0.990362 -1.215271,-1.783352 9.4e-4,-1.137844 0.765936,-1.902033 1.904042,-1.902033 1.933904,0 2.581166,2.507386 0.91025,3.526156 -0.434648,0.265008 -1.190521,0.340277 -1.599021,0.159229 z"
       style="opacity:0.65399996;fill:#00ffff;fill-opacity:1;stroke:#00ffff;stroke-width:0.76871747;stroke-miterlimit:4;stroke-dasharray:none;stroke-dashoffset:0;stroke-opacity:1" />
    <path
       inkscape:connector-curvature="0"
       id="path3831"
       d="m 15.075851,28.672801 c -1.699126,-0.908517 -1.072633,-3.548143 0.849015,-3.577194 0.767759,-0.01161 1.410253,0.348705 1.747935,0.980244 0.900762,1.684623 -0.912327,3.497712 -2.59695,2.59695 z"
       style="opacity:0.65399996;fill:#00ffff;fill-opacity:1;stroke:#00ffff;stroke-width:0.76871747;stroke-miterlimit:4;stroke-dasharray:none;stroke-dashoffset:0;stroke-opacity:1" />
    <path
       inkscape:connector-curvature="0"
       id="path3833"
       d="m 20.955426,34.613004 c -1.452945,-0.930813 -0.912348,-3.287698 0.798323,-3.480515 2.054938,-0.231622 2.970326,2.359108 1.237262,3.501696 -0.521491,0.343812 -1.481443,0.333823 -2.035585,-0.02118 z"
       style="opacity:0.65399996;fill:#00ffff;fill-opacity:1;stroke:#00ffff;stroke-width:0.76871747;stroke-miterlimit:4;stroke-dasharray:none;stroke-dashoffset:0;stroke-opacity:1" />
    <path
       inkscape:connector-curvature="0"
       id="path3835"
       d="m 20.948956,34.625828 c -1.169064,-0.712819 -1.14385,-2.488806 0.04647,-3.273572 0.474832,-0.313051 1.402535,-0.335475 1.959673,-0.04737 1.209808,0.625616 1.258875,2.60359 0.08238,3.32094 -0.568638,0.346719 -1.519892,0.346719 -2.088529,0 z"
       style="opacity:0.65399996;fill:#00ffff;fill-opacity:1;stroke:#00ffff;stroke-width:0.76871747;stroke-miterlimit:4;stroke-dasharray:none;stroke-dashoffset:0;stroke-opacity:1" />
    <path
       inkscape:connector-curvature="0"
       id="path3837"
       d="m 24.962425,26.583738 c -0.935634,-0.625044 -1.157611,-1.791796 -0.513096,-2.696933 1.013316,-1.423072 3.247509,-0.821679 3.461506,0.931758 0.18572,1.52174 -1.659321,2.626342 -2.94841,1.765175 z"
       style="opacity:0.65399996;fill:#00ffff;fill-opacity:1;stroke:#00ffff;stroke-width:0.76871747;stroke-miterlimit:4;stroke-dasharray:none;stroke-dashoffset:0;stroke-opacity:1" />
    <path
       inkscape:connector-curvature="0"
       id="path3839"
       d="m 24.976271,26.595815 c -0.629632,-0.424373 -0.981128,-1.117967 -0.900665,-1.777252 0.211835,-1.735728 2.380179,-2.341389 3.461401,-0.966839 0.598367,0.760702 0.489637,1.851194 -0.255785,2.565354 -0.572407,0.5484 -1.634317,0.630746 -2.304951,0.178737 z"
       style="opacity:0.65399996;fill:#ffffff;fill-opacity:1;stroke:#ffffff;stroke-width:0.76871747;stroke-miterlimit:4;stroke-dasharray:none;stroke-dashoffset:0;stroke-opacity:1" />
    <path
       inkscape:connector-curvature="0"
       id="path3841"
       d="m 14.671186,20.374812 c -0.99729,-0.169372 -2.728243,-1.042035 -3.728813,-1.87989 -0.447458,-0.374691 -0.905085,-0.682027 -1.0169493,-0.682968 -0.1118644,-9.42e-4 -0.6915254,0.155595 -1.2881356,0.347859 -1.8412139,0.593351 -3.42936,0.25593 -4.7228168,-1.00342 C 2.932599,16.200411 2.6994019,15.660098 2.6299351,14.180152 2.5759494,13.03002 2.601202,12.86485 2.9354924,12.181585 3.3827111,11.267503 4.2806857,10.347311 5.1024089,9.9610553 5.6289394,9.7135567 5.9655555,9.6711864 7.4053062,9.6711864 H 9.0915338 L 10.08475,8.4959241 c 1.532139,-1.8129645 2.824249,-2.5652212 4.980888,-2.8998351 2.544767,-0.3948341 5.324563,0.8207257 7.015978,3.0679751 l 0.758021,1.0071223 h 1.759689 c 2.004343,0 2.30144,0.090967 3.336522,1.0215946 0.962076,0.864989 1.41497,1.792707 1.484556,3.041007 0.07946,1.425337 -0.289241,2.380754 -1.313642,3.404074 -1.277546,1.276198 -2.814286,1.607455 -4.736221,1.020931 -1.004462,-0.306535 -1.17911,-0.325152 -1.559322,-0.16622 -0.235493,0.09844 -0.507756,0.274949 -0.605029,0.392247 -0.326708,0.393962 -1.849097,1.304379 -2.744096,1.64102 -1.027781,0.386586 -2.676022,0.538315 -3.790908,0.348972 z"
       style="opacity:0.65399996;fill:#ffffff;fill-opacity:1;stroke:#ffffff;stroke-width:0.76871747;stroke-miterlimit:4;stroke-dasharray:none;stroke-dashoffset:0;stroke-opacity:1" />
    <path
       inkscape:connector-curvature="0"
       id="path3843"
       d="M 14.301309,20.323816 C 13.276339,20.075452 12.027855,19.415383 10.958218,18.556337 10.4449,18.144081 9.9962043,17.80678 9.9611178,17.80678 c -0.035087,0 -0.5787433,0.160553 -1.2081262,0.356784 C 6.6957859,18.804968 4.9027188,18.401058 3.6741962,17.019505 2.8066651,16.04391 2.554226,15.368485 2.5494616,14.010169 c -0.0035,-0.99759 0.046067,-1.248902 0.368677,-1.869275 C 3.4250957,11.166026 4.0776414,10.475453 4.9304871,10.011276 5.5913483,9.65159 5.779994,9.6178167 7.4433035,9.5614053 L 9.2416184,9.5004152 9.807232,8.7672748 c 1.594006,-2.0661281 3.402555,-3.0900825 5.74531,-3.2528489 2.552545,-0.1773418 5.223937,1.1411731 6.701253,3.3075281 l 0.463964,0.680363 1.841121,0.061249 c 2.155138,0.071696 2.519717,0.2076442 3.623285,1.351097 0.815148,0.844607 1.046164,1.2645 1.255962,2.28281 0.278566,1.352096 -0.196077,2.872821 -1.22879,3.936961 -1.167515,1.203045 -3.162673,1.6578 -4.779717,1.089437 -1.26973,-0.446288 -1.532943,-0.392805 -2.656739,0.539832 -1.770645,1.469458 -4.314683,2.082753 -6.471572,1.560113 z"
       style="opacity:0.65399996;fill:#ffffff;fill-opacity:1;stroke:#ffffff;stroke-width:0.76871747;stroke-miterlimit:4;stroke-dasharray:none;stroke-dashoffset:0;stroke-opacity:1" />
    <path
       inkscape:connector-curvature="0"
       id="path3845"
       d="M 14.145593,20.585044 C 13.204827,20.320233 11.834777,19.594144 10.80678,18.815565 9.9191525,18.143298 9.9412157,18.145761 8.4366088,18.550965 6.5698053,19.053713 4.8555307,18.602135 3.5525298,17.264394 2.5870967,16.27322 2.4101463,15.809786 2.3557723,14.130077 2.3124131,12.790636 2.3343027,12.641079 2.6709372,11.976763 3.1310522,11.06877 4.1919566,10.004157 4.9872359,9.6523668 5.4550243,9.4454418 6.02015,9.360962 7.3247013,9.3029429 L 9.0452201,9.2264239 9.5192202,8.625584 C 10.255221,7.6926329 11.560453,6.5229475 12.327543,6.1089014 13.258971,5.6061522 14.916717,5.1966102 16.02032,5.1966102 c 2.338476,0 4.649295,1.1709096 6.247978,3.1658964 l 0.68977,0.8607608 1.747819,0.083603 c 2.06385,0.09872 2.441756,0.2298582 3.473013,1.2051776 1.103382,1.043533 1.443637,1.78692 1.515583,3.311229 0.05312,1.125414 0.02493,1.311359 -0.312856,2.064051 -0.440361,0.981255 -1.520011,2.069169 -2.470865,2.489777 -0.977449,0.432373 -2.186686,0.467893 -3.605825,0.10592 l -1.194441,-0.304661 -0.567113,0.425463 c -0.987913,0.741159 -2.32758,1.503887 -3.155887,1.796779 -1.066973,0.377286 -3.223659,0.471058 -4.241903,0.184438 z"
       style="opacity:0.65399996;fill:#ffffff;fill-opacity:1;stroke:#ffffff;stroke-width:0.76871747;stroke-miterlimit:4;stroke-dasharray:none;stroke-dashoffset:0;stroke-opacity:1" />
    <path
       inkscape:connector-curvature="0"
       id="path3847"
       d="M 13.925424,20.599247 C 13.032043,20.315205 11.776588,19.624862 10.819892,18.891596 L 9.9190883,18.201167 8.8835371,18.491743 C 7.410035,18.905208 6.0862598,18.880095 5.0765349,18.419521 4.1325285,17.988924 3.1134327,17.02774 2.6298382,16.111864 2.309724,15.505603 2.2714689,15.283319 2.268135,14.010169 2.2648942,12.772559 2.305934,12.508589 2.5820726,11.99091 3.0068096,11.194653 4.0122727,10.138093 4.7682163,9.6936687 5.3349871,9.3604603 5.5229208,9.3285273 7.1722781,9.2851794 L 8.9615052,9.2381554 9.7915384,8.2346959 C 10.77958,7.0402137 12.058267,6.0906608 13.295409,5.6327212 14.412133,5.2193556 16.484003,5.0743987 17.63302,5.3292431 c 1.736339,0.3851083 3.593924,1.5643749 4.646797,2.9499657 0.32674,0.4299945 0.655245,0.8266365 0.730009,0.8814267 0.07476,0.05479 0.780794,0.100553 1.568954,0.1016949 1.772133,0.00257 2.561266,0.2246204 3.416248,0.9612916 0.856484,0.737965 1.382724,1.527268 1.664512,2.496589 0.639478,2.199725 -0.474442,4.597611 -2.627357,5.655796 -0.834982,0.410404 -2.648923,0.502701 -3.726001,0.189586 -1.091691,-0.317363 -1.303687,-0.278922 -2.196985,0.398383 -0.949132,0.719638 -2.453716,1.480829 -3.319366,1.679318 -0.839685,0.192534 -3.205104,0.165572 -3.864407,-0.04405 z"
       style="opacity:0.65399996;fill:#ffffff;fill-opacity:1;stroke:#ffffff;stroke-width:0.76871747;stroke-miterlimit:4;stroke-dasharray:none;stroke-dashoffset:0;stroke-opacity:1" />
    <path
       inkscape:connector-curvature="0"
       id="path3849"
       d="M 13.857627,20.669452 C 12.759868,20.31413 11.86159,19.820697 10.808438,18.994498 L 9.8715153,18.259482 8.919978,18.590395 C 7.6223132,19.041677 5.8644815,18.98384 4.840678,18.456176 3.9491532,17.996687 2.9525104,16.971396 2.4959678,16.044068 2.1749237,15.391964 2.1288136,15.136531 2.1288136,14.010169 c 0,-1.141538 0.043954,-1.377648 0.386222,-2.07468 C 2.984961,10.978481 3.9811112,9.9535757 4.8636461,9.5190819 5.4286503,9.2409163 5.7562266,9.1904712 7.2478298,9.1519289 L 8.9770156,9.1072479 9.5838929,8.3185653 C 11.222087,6.1896096 13.443599,5.0680965 16.032529,5.0630212 c 2.429627,-0.00476 4.839091,1.2011852 6.30783,3.1570993 l 0.631447,0.8408964 1.781894,0.073538 c 1.573397,0.064933 1.861535,0.1149128 2.462544,0.4271454 0.87989,0.4571147 1.886945,1.5403077 2.343422,2.5205967 0.303789,0.65239 0.360289,0.958083 0.356325,1.927872 -0.0039,0.950843 -0.06707,1.288229 -0.361036,1.927874 -0.467063,1.016284 -1.446186,2.04686 -2.377629,2.502573 -1.061715,0.519448 -2.620354,0.595503 -3.925552,0.191551 -0.53289,-0.164928 -1.051236,-0.249995 -1.192649,-0.195729 -0.137566,0.05279 -0.640676,0.39159 -1.118024,0.752894 -1.063234,0.804759 -1.593782,1.080157 -2.792673,1.449629 -1.19892,0.369481 -3.199575,0.383698 -4.290801,0.03049 z"
       style="opacity:0.65399996;fill:#ffffff;fill-opacity:1;stroke:#ffffff;stroke-width:0.76871747;stroke-miterlimit:4;stroke-dasharray:none;stroke-dashoffset:0;stroke-opacity:1" />
    <path
       inkscape:connector-curvature="0"
       id="path3851"
       d="M 13.718123,20.865553 C 12.882869,20.557704 11.786534,19.96224 10.786794,19.273431 L 9.817656,18.605704 8.9562857,18.840789 c -0.4828594,0.131783 -1.3678309,0.238618 -2.0139128,0.243124 -1.01595,0.0071 -1.2578223,-0.04167 -2.0408757,-0.411436 C 3.8673435,18.184146 2.7641755,17.134489 2.3045738,16.201522 2.0322416,15.648703 1.9932203,15.365568 1.9932203,13.942373 c 0,-1.537679 0.0207,-1.661661 0.3765834,-2.255518 C 2.9200333,10.768695 4.0634218,9.6762759 4.840678,9.3261273 5.3606773,9.0918712 5.89275,8.9992492 7.1242416,8.92861 L 8.7298391,8.836512 10.039496,7.5236778 c 1.797047,-1.8014068 3.024752,-2.4094854 5.377453,-2.6634362 2.387334,-0.2576891 5.203588,0.9732139 6.954617,3.0396629 l 0.774197,0.9136548 1.535989,0.1002765 c 2.076927,0.1355916 2.684657,0.3360229 3.625162,1.1955912 0.934885,0.854432 1.326495,1.452448 1.626163,2.483273 0.837917,2.882331 -1.069862,5.950806 -3.992456,6.421476 -0.869036,0.139954 -2.306967,0.02942 -3.254519,-0.250165 -0.427927,-0.126266 -0.535579,-0.08549 -1.559322,0.590724 -2.19992,1.453101 -3.001782,1.71011 -5.293763,1.696728 -0.98356,-0.0057 -1.8273,-0.07991 -2.114894,-0.18591 z"
       style="opacity:0.65399996;fill:#ffffff;fill-opacity:1;stroke:#ffffff;stroke-width:0.76871747;stroke-miterlimit:4;stroke-dasharray:none;stroke-dashoffset:0;stroke-opacity:1" />
    <path
       inkscape:connector-curvature="0"
       id="path3853"
       d="m 25.450847,26.879089 c -0.541826,-0.168276 -0.790314,-0.373901 -1.134871,-0.939114 -0.365089,-0.598892 -0.366763,-1.245793 -0.0049,-1.889659 0.37019,-0.658664 0.894169,-0.955401 1.687051,-0.955401 2.426682,0 2.663693,3.417087 0.26627,3.838933 -0.223729,0.03937 -0.589831,0.01472 -0.81356,-0.05476 z"
       style="opacity:0.65399996;fill:#00ffff;fill-opacity:1;stroke:#00ffff;stroke-width:0.76871747;stroke-miterlimit:4;stroke-dasharray:none;stroke-dashoffset:0;stroke-opacity:1" />
    <path
       inkscape:connector-curvature="0"
       id="path3855"
       d="m 14.983639,28.660204 c -1.342791,-0.818751 -1.248059,-2.71314 0.170002,-3.399611 1.365361,-0.66096 2.773254,0.250417 2.770889,1.79369 -0.0023,1.470432 -1.669742,2.38099 -2.940891,1.605921 z"
       style="opacity:0.65399996;fill:#00ffff;fill-opacity:1;stroke:#00ffff;stroke-width:0.76871747;stroke-miterlimit:4;stroke-dasharray:none;stroke-dashoffset:0;stroke-opacity:1" />
    <path
       inkscape:connector-curvature="0"
       id="path3857"
       d="m 21.216361,34.760838 c -1.049236,-0.476297 -1.458956,-1.822589 -0.855749,-2.811882 0.517175,-0.848195 1.798873,-1.123667 2.69268,-0.578731 0.594871,0.362681 1.020517,1.304026 0.894169,1.977516 -0.121668,0.648543 -0.770727,1.367975 -1.389124,1.539735 -0.64889,0.180229 -0.670464,0.178193 -1.341976,-0.126638 z"
       style="opacity:0.65399996;fill:#00ffff;fill-opacity:1;stroke:#00ffff;stroke-width:0.76871747;stroke-miterlimit:4;stroke-dasharray:none;stroke-dashoffset:0;stroke-opacity:1" />
    <path
       inkscape:connector-curvature="0"
       id="path3859"
       d="M 9.4508475,34.879089 C 8.9090207,34.710813 8.6605329,34.505188 8.3159755,33.939975 7.9508869,33.341083 7.9492129,32.694182 8.3110855,32.050316 c 0.3701901,-0.658664 0.8941691,-0.955401 1.6870512,-0.955401 2.4288273,0 2.6663033,3.424848 0.2662703,3.840124 -0.223729,0.03871 -0.5898307,0.01353 -0.8135595,-0.05595 z"
       style="opacity:0.65399996;fill:#00ffff;fill-opacity:1;stroke:#00ffff;stroke-width:0.76871747;stroke-miterlimit:4;stroke-dasharray:none;stroke-dashoffset:0;stroke-opacity:1" />
    <path
       inkscape:connector-curvature="0"
       id="path3861"
       d="M 5.2163607,26.76547 C 4.4925816,26.431067 4.095929,25.803659 4.095929,24.99322 c 0,-1.131073 0.7668216,-1.898305 1.8972913,-1.898305 1.9724738,0 2.694185,2.376206 1.0763676,3.543899 -0.5289102,0.381751 -1.2015959,0.427725 -1.8532272,0.126656 z"
       style="opacity:0.65399996;fill:#00ffff;fill-opacity:1;stroke:#00ffff;stroke-width:0.76871747;stroke-miterlimit:4;stroke-dasharray:none;stroke-dashoffset:0;stroke-opacity:1" />
  </g>
</svg>
