<?xml version="1.0" encoding="UTF-8" standalone="no"?>
<!-- Generated by IcoMoon.io -->

<svg
   xmlns:dc="http://purl.org/dc/elements/1.1/"
   xmlns:cc="http://creativecommons.org/ns#"
   xmlns:rdf="http://www.w3.org/1999/02/22-rdf-syntax-ns#"
   xmlns:svg="http://www.w3.org/2000/svg"
   xmlns="http://www.w3.org/2000/svg"
   xmlns:sodipodi="http://sodipodi.sourceforge.net/DTD/sodipodi-0.dtd"
   xmlns:inkscape="http://www.inkscape.org/namespaces/inkscape"
   version="1.1"
   width="32"
   height="32"
   viewBox="0 0 32 32"
   id="svg966"
   sodipodi:docname="windy.svg"
   inkscape:version="0.92.4 (5da689c313, 2019-01-14)">
  <metadata
     id="metadata972">
    <rdf:RDF>
      <cc:Work
         rdf:about="">
        <dc:format>image/svg+xml</dc:format>
        <dc:type
           rdf:resource="http://purl.org/dc/dcmitype/StillImage" />
      </cc:Work>
    </rdf:RDF>
  </metadata>
  <defs
     id="defs970" />
  <sodipodi:namedview
     pagecolor="#ffffff"
     bordercolor="#666666"
     borderopacity="1"
     objecttolerance="10"
     gridtolerance="10"
     guidetolerance="10"
     inkscape:pageopacity="0"
     inkscape:pageshadow="2"
     inkscape:window-width="1366"
     inkscape:window-height="715"
     id="namedview968"
     showgrid="false"
     inkscape:zoom="16.125"
     inkscape:cx="16"
     inkscape:cy="16"
     inkscape:window-x="-8"
     inkscape:window-y="-8"
     inkscape:window-maximized="1"
     inkscape:current-layer="svg966" />
  <title
     id="title962">windy</title>
  <g
     id="g979"
     transform="matrix(0.89041096,0,0,0.86128625,2.9767442,2.4479701)">
    <g
       transform="matrix(0.84883721,0,0,0.87818383,0,0.24363234)"
       id="g975">
      <path
         inkscape:connector-curvature="0"
         d="M 26.065,4.425 C 24.566,2.89 22.495,2 20.332,2 c -2.16,0 -4.23,0.889 -5.729,2.425 -3.301,0.152 -5.939,2.885 -5.939,6.221 0,3.436 2.794,6.232 6.23,6.232 0.365,0 0.725,-0.031 1.079,-0.094 1.296,0.845 2.807,1.302 4.358,1.302 1.553,0 3.066,-0.457 4.361,-1.302 0.357,0.062 0.716,0.094 1.081,0.094 3.434,0 6.227,-2.796 6.227,-6.232 0,-3.336 -2.637,-6.07 -5.935,-6.221 z m -0.292,10.453 c -0.52,0 -1.023,-0.094 -1.5,-0.279 -1.094,0.953 -2.484,1.487 -3.941,1.487 -1.453,0 -2.844,-0.534 -3.937,-1.487 -0.477,0.185 -0.984,0.279 -1.5,0.279 -2.332,0 -4.23,-1.898 -4.23,-4.232 0,-2.331 1.898,-4.229 4.23,-4.229 0.199,0 0.398,0.016 0.595,0.043 C 16.621,4.923 18.399,4 20.332,4 c 1.933,0 3.715,0.923 4.844,2.46 0.195,-0.027 0.395,-0.043 0.598,-0.043 2.332,0 4.227,1.898 4.227,4.229 0,2.333 -1.895,4.232 -4.227,4.232 z M 9,16.043 H 1 c -0.552,0 -1,0.447 -1,1 0,0.553 0.448,1 1,1 h 8 c 0.552,0 1,-0.447 1,-1 0,-0.553 -0.448,-1 -1,-1 z m -8,-2 h 4 c 0.552,0 1,-0.447 1,-1 0,-0.553 -0.448,-1 -1,-1 H 1 c -0.552,0 -1,0.447 -1,1 0,0.553 0.448,1 1,1 z m 2,-4 h 4 c 0.552,0 1,-0.447 1,-1 0,-0.553 -0.448,-1 -1,-1 H 3 c -0.552,0 -1,0.447 -1,1 0,0.553 0.448,1 1,1 z M 14,24 c 0,1.105 0.895,2 2,2 1.105,0 2,-0.895 2,-2 0,-1.105 -2,-4 -2,-4 0,0 -2,2.895 -2,4 z m 8,4 c 0,1.105 0.895,2 2,2 1.105,0 2,-0.895 2,-2 0,-1.105 -2,-4 -2,-4 0,0 -2,2.895 -2,4 z"
         id="path964" />
    </g>
  </g>
  <path
     style="opacity:0.65399996;fill:#ffffff;fill-opacity:1;stroke:#ffffff;stroke-width:0.35158396;stroke-miterlimit:4;stroke-dasharray:none;stroke-dashoffset:0;stroke-opacity:1"
     d="M 17.259657,14.645274 C 16.672404,14.491481 16.217062,14.28166 15.740968,13.945463 l -0.379728,-0.268147 -0.279069,0.08784 c -0.403951,0.127141 -1.256285,0.121926 -1.705427,-0.01043 -1.38306,-0.407582 -2.291046,-1.614231 -2.291046,-3.044638 0,-1.7535331 1.351928,-3.1200662 3.12054,-3.1542526 l 0.472832,-0.00914 0.465116,-0.4669825 c 0.974597,-0.978507 2.114824,-1.4205696 3.471327,-1.3458222 0.442242,0.024369 0.745052,0.082411 1.139795,0.2184728 0.740101,0.2551019 1.15932,0.5188103 1.742828,1.0963195 l 0.498763,0.4936347 0.478893,0.011428 c 1.493113,0.035632 2.716546,1.019788 3.055646,2.4580293 0.372751,1.580969 -0.546222,3.184868 -2.12738,3.712953 -0.50365,0.168212 -1.376356,0.185327 -1.80318,0.03536 l -0.27199,-0.09556 -0.317157,0.236974 c -1.051667,0.785789 -2.497368,1.072374 -3.752074,0.743783 z"
     id="path981"
     inkscape:connector-curvature="0" />
  <path
     style="opacity:0.65399996;fill:#ffffff;fill-opacity:1;stroke:#ffffff;stroke-width:0.35158396;stroke-miterlimit:4;stroke-dasharray:none;stroke-dashoffset:0;stroke-opacity:1"
     d="M 17.551253,16.259936 C 16.887376,16.15444 16.415095,16.003651 15.764341,15.689416 L 15.113178,15.374985 14.244961,15.36404 C 13.254669,15.351557 12.872587,15.257435 12.012403,14.814074 11.149067,14.369088 10.308199,13.430652 9.890994,12.446512 9.4570087,11.422788 9.4672218,9.9836275 9.9160786,8.911756 10.546933,7.4052729 12.064258,6.2579999 13.686822,6.0606376 c 0.321394,-0.039093 0.410117,-0.08073 0.651162,-0.3055859 0.628719,-0.5864902 1.536265,-1.086345 2.456123,-1.352774 0.424586,-0.1229779 0.629634,-0.1418126 1.543877,-0.1418126 0.913058,0 1.120714,0.019024 1.550388,0.1420366 0.758159,0.2170554 1.663856,0.687892 2.269599,1.179877 0.495409,0.4023722 0.563478,0.4377993 0.96124,0.5002939 1.102505,0.1732203 1.928715,0.6081234 2.699791,1.4211246 0.867648,0.9148252 1.229902,1.7715631 1.279061,3.0250008 0.03239,0.825884 -0.08106,1.450782 -0.383236,2.110811 -0.794273,1.734919 -2.59912,2.836575 -4.485517,2.737904 l -0.582569,-0.03047 -0.606309,0.302884 c -1.046446,0.522755 -2.471003,0.77181 -3.489179,0.610011 z m 1.908594,-1.427247 c 0.579356,-0.148164 1.168941,-0.413531 1.588554,-0.714992 0.291792,-0.209633 0.311528,-0.214631 0.563426,-0.142692 0.412441,0.117789 1.371426,0.08383 1.84691,-0.06541 1.104392,-0.346623 2.079559,-1.429208 2.289158,-2.541316 0.348099,-1.8469692 -0.87246,-3.6198645 -2.718828,-3.9491748 -0.260716,-0.0465 -0.581889,-0.085519 -0.713718,-0.086709 C 22.102873,7.3304782 22.017668,7.2756628 21.56491,6.8496124 20.955328,6.2759899 20.540214,6.0175816 19.811548,5.7581473 19.295199,5.5743063 19.222021,5.5646995 18.337984,5.5646995 c -0.884036,0 -0.957214,0.00961 -1.473563,0.1934478 -0.723258,0.2575089 -1.141459,0.5163617 -1.74499,1.0800919 l -0.502377,0.4692469 -0.630032,0.072076 c -0.997479,0.1141119 -1.60187,0.4071494 -2.222619,1.0776326 -0.595935,0.6436812 -0.860484,1.336311 -0.860484,2.2528833 0,0.90584 0.260568,1.597776 0.841579,2.234801 0.679205,0.744688 1.454125,1.088284 2.468455,1.094505 0.324031,0.002 0.704608,-0.02792 0.845726,-0.06646 0.244897,-0.06688 0.271718,-0.05978 0.589147,0.156057 1.118731,0.760668 2.552829,1.025473 3.811021,0.703704 z"
     id="path983"
     inkscape:connector-curvature="0" />
  <path
     style="opacity:0.65399996;fill:#ffffff;fill-opacity:1;stroke:#ffffff;stroke-width:0.35158396;stroke-miterlimit:4;stroke-dasharray:none;stroke-dashoffset:0;stroke-opacity:1"
     d="m 17.407752,16.231625 c -0.635567,-0.10067 -1.371831,-0.349532 -1.922481,-0.64981 l -0.434108,-0.236726 -0.593537,0.03145 c -1.351357,0.0716 -2.595177,-0.416074 -3.548944,-1.391465 C 9.9393684,12.993781 9.510318,11.849666 9.5773719,10.434971 9.6318684,9.2852094 10.025622,8.3835919 10.856968,7.5049485 c 0.701899,-0.7418324 1.476294,-1.1793216 2.43977,-1.3783332 0.262833,-0.05429 0.527892,-0.098956 0.58902,-0.099259 0.06113,-3.039e-4 0.27516,-0.1409422 0.475627,-0.3125313 0.516534,-0.442125 0.832216,-0.6491284 1.417876,-0.9297476 1.348975,-0.6463616 2.95091,-0.7540031 4.388181,-0.2948623 0.760119,0.2428224 1.506846,0.6653989 2.170542,1.2283197 0.301736,0.2559207 0.393793,0.2978136 0.797957,0.3631357 2.341439,0.3784289 3.977237,2.2820472 3.977237,4.6284075 0,1.816402 -1.013025,3.43877 -2.633837,4.21811 -0.710597,0.341679 -1.0799,0.419779 -2.048333,0.433179 -0.850741,0.01177 -0.875235,0.01598 -1.216844,0.20892 -0.531982,0.300466 -1.31254,0.562495 -1.971541,0.661836 -0.704521,0.106203 -1.162021,0.106079 -1.834871,-4.96e-4 z m 1.802564,-1.34113 c 0.544502,-0.100095 1.250568,-0.391213 1.732108,-0.714164 0.405074,-0.271669 0.436587,-0.282118 0.654196,-0.216921 0.282624,0.08468 1.299032,0.08703 1.659701,0.0038 0.522758,-0.120572 1.080099,-0.445693 1.536978,-0.896585 0.943123,-0.930767 1.252774,-2.245253 0.813796,-3.4546218 C 25.127482,8.2907235 24.043379,7.4978789 22.524378,7.3575374 L 22.059609,7.314597 21.577589,6.8611478 C 20.970042,6.2896143 20.532414,6.0234933 19.791987,5.7753292 18.696112,5.4080319 17.45794,5.4672568 16.462379,5.9345928 15.877785,6.2090127 15.514933,6.4599601 15.020155,6.9320299 L 14.617054,7.31663 14.151938,7.3585554 c -1.929579,0.1739316 -3.234589,1.4979877 -3.238251,3.2855126 -6.33e-4,0.309174 0.03172,0.701653 0.07189,0.872176 0.265857,1.128475 1.317744,2.189997 2.422173,2.444358 0.360196,0.08296 1.391306,0.08496 1.685409,0.0033 0.213842,-0.05939 0.255709,-0.04544 0.672237,0.224008 0.516334,0.334015 1.034842,0.556468 1.571527,0.674225 0.474178,0.104041 1.386623,0.117866 1.873391,0.02839 z"
     id="path985"
     inkscape:connector-curvature="0" />
  <path
     style="opacity:0.65399996;fill:#ffffff;fill-opacity:1;stroke:#00ffff;stroke-width:0.35158396;stroke-miterlimit:4;stroke-dasharray:none;stroke-dashoffset:0;stroke-opacity:1"
     d="m 17.335451,16.234879 c -0.62906,-0.120122 -1.214067,-0.321884 -1.78487,-0.61558 l -0.492829,-0.253576 -0.716473,0.01665 c -0.859715,0.01998 -1.446756,-0.108348 -2.204845,-0.481997 -1.232591,-0.607522 -2.1747409,-1.806415 -2.4740746,-3.148281 -0.1274427,-0.571306 -0.1274427,-1.512737 0,-2.0840429 0.4206846,-1.8858629 2.0518786,-3.3731148 3.9612226,-3.6116717 0.323778,-0.040453 0.412801,-0.085109 0.764566,-0.3835202 0.786925,-0.6675696 1.607652,-1.0861341 2.616503,-1.3343975 0.744418,-0.1831901 1.929503,-0.1812738 2.685704,0.00434 1.031259,0.2531321 1.955125,0.7330449 2.687749,1.3961818 0.211258,0.191221 0.374879,0.2889155 0.483882,0.2889155 0.63137,0 1.87874,0.5028652 2.528515,1.0193465 1.703589,1.3541175 2.232961,3.7932165 1.253494,5.7755045 -0.44896,0.908625 -1.193532,1.63124 -2.166476,2.102588 -0.741525,0.359235 -1.308857,0.480157 -2.170542,0.462632 l -0.682171,-0.01388 -0.651163,0.316451 c -0.358139,0.174048 -0.888372,0.374952 -1.178294,0.446454 -0.680409,0.167804 -1.849983,0.214337 -2.459898,0.09787 z m 2.263845,-1.461704 c 0.517131,-0.146119 0.942432,-0.346974 1.436363,-0.678345 0.32837,-0.220299 0.350333,-0.225989 0.589147,-0.152642 0.308217,0.09466 1.08359,0.10635 1.523297,0.02296 0.528483,-0.100225 1.201333,-0.468876 1.631119,-0.893682 1.071332,-1.058917 1.296085,-2.608084 0.576517,-3.9737926 C 24.838273,8.1155459 23.630507,7.3922481 22.508011,7.3922481 h -0.362056 l -0.598697,-0.53304 C 20.825969,6.2170206 20.505745,6.0250112 19.733333,5.7715607 19.209815,5.5997793 19.061286,5.5779277 18.4,5.5753999 c -1.405253,-0.00537 -2.227674,0.3296879 -3.383571,1.3784893 -0.476066,0.4319572 -0.488125,0.4383589 -0.825792,0.4383589 -0.506456,0 -0.943399,0.1078182 -1.465056,0.3615108 -1.996857,0.9711133 -2.427489,3.7354091 -0.828412,5.3177081 0.799931,0.791538 1.992679,1.131038 3.122411,0.888754 0.31201,-0.06691 0.320111,-0.06475 0.710769,0.189773 0.493694,0.321654 1.11343,0.583883 1.677403,0.709759 0.572193,0.127711 1.573088,0.08817 2.191544,-0.08658 z"
     id="path987"
     inkscape:connector-curvature="0" />
  <path
     style="opacity:0.65399996;fill:#ffffff;fill-opacity:1;stroke:#00ffff;stroke-width:0.35158396;stroke-miterlimit:4;stroke-dasharray:none;stroke-dashoffset:0;stroke-opacity:1"
     d="M 16.911628,15.928474 C 16.347797,15.764385 15.923169,15.597898 15.407862,15.338884 15.082258,15.175222 15.009688,15.162308 14.575396,15.190741 12.502208,15.326473 10.603864,14.04628 9.9543334,12.074419 9.8098472,11.635784 9.7906588,11.477689 9.7887399,10.710078 9.7867057,9.896362 9.7985618,9.8077534 9.9776094,9.2985293 10.214143,8.625811 10.480387,8.1772162 10.945527,7.6676855 11.592289,6.9591991 12.552556,6.4351279 13.502233,6.2723485 14.027242,6.1823594 14.126052,6.1335007 14.67907,5.6904401 15.198895,5.2739724 15.974311,4.864414 16.694574,4.625894 c 0.495652,-0.1641387 0.591943,-0.1747036 1.612403,-0.1769109 0.880777,-0.00191 1.155383,0.019083 1.457364,0.111387 0.978702,0.2991513 1.625692,0.6302929 2.325581,1.1902768 0.493091,0.3945238 0.573506,0.4361865 0.946291,0.4902706 0.414919,0.060197 1.080233,0.295865 1.610161,0.5703525 0.611765,0.3168768 1.425782,1.1275048 1.735491,1.7282649 0.401211,0.7782519 0.514259,1.255396 0.514259,2.1705431 0,0.671681 -0.02423,0.883809 -0.145232,1.271317 -0.250921,0.803594 -0.538176,1.27994 -1.126332,1.867762 -0.454304,0.454046 -0.632082,0.58274 -1.181972,0.855629 -0.75351,0.37394 -1.30727,0.495941 -2.266088,0.499252 -0.608321,0.0021 -0.643597,0.0101 -1.209302,0.274194 -1.034628,0.483008 -1.31384,0.546778 -2.505182,0.572163 -0.959498,0.02044 -1.09886,0.0095 -1.550388,-0.121921 z m 2.077519,-0.84838 c 0.65446,-0.0848 1.334292,-0.326536 1.921789,-0.683366 0.48009,-0.291593 0.515805,-0.303089 0.763794,-0.245852 0.389985,0.09001 1.211195,0.0751 1.611894,-0.02927 1.046495,-0.272578 1.980956,-1.069138 2.399392,-2.045309 0.441073,-1.02898 0.313436,-2.3724447 -0.314772,-3.3131937 C 24.771336,7.8647344 23.595395,7.2090913 22.580154,7.2069376 22.24055,7.206217 22.223416,7.1974907 21.773952,6.7963401 21.117756,6.2106788 20.512499,5.8292962 19.913253,5.6238829 19.458651,5.4680517 19.281592,5.4422874 18.524031,5.4217334 17.095186,5.3829663 16.355312,5.6211495 15.336214,6.4479677 14.380359,7.2234747 14.40911,7.2062016 14.07415,7.2062016 c -1.117435,0 -2.439851,0.8377359 -2.943927,1.8649451 -0.314085,0.6400446 -0.408978,1.1033903 -0.373676,1.8245843 0.0358,0.731328 0.177179,1.161557 0.585463,1.781592 0.642263,0.975364 1.725021,1.535641 2.964967,1.534234 0.272868,-3.1e-4 0.599689,-0.02462 0.726269,-0.05402 0.205471,-0.04773 0.275285,-0.02704 0.651163,0.192939 1.166064,0.682437 2.09167,0.886792 3.304738,0.729621 z"
     id="path989"
     inkscape:connector-curvature="0" />
  <path
     style="opacity:0.65399996;fill:#ffffff;fill-opacity:1;stroke:#00ffff;stroke-width:0.35158396;stroke-miterlimit:4;stroke-dasharray:none;stroke-dashoffset:0;stroke-opacity:1"
     d=""
     id="path991"
     inkscape:connector-curvature="0" />
  <path
     style="opacity:0.65399996;fill:#ffffff;fill-opacity:1;stroke:#00ffff;stroke-width:0.35158396;stroke-miterlimit:4;stroke-dasharray:none;stroke-dashoffset:0;stroke-opacity:1"
     d="m 17.407752,15.823192 c -0.423991,-0.05649 -1.318478,-0.359428 -1.844162,-0.624566 -0.327104,-0.164981 -0.422102,-0.181571 -1.178294,-0.20577 -0.963509,-0.03083 -1.376078,-0.125728 -2.082875,-0.479076 -0.924204,-0.462036 -1.669847,-1.287129 -2.092382,-2.31533 -0.163071,-0.39682 -0.180369,-0.512327 -0.201372,-1.344695 -0.026023,-1.0312736 0.02808,-1.3059432 0.413076,-2.0971659 0.173424,-0.3564104 0.357227,-0.5973252 0.786432,-1.0307948 0.482143,-0.4869341 0.64185,-0.6048596 1.147287,-0.8471446 0.339815,-0.1628927 0.829181,-0.3356884 1.161643,-0.4101775 0.604758,-0.1354973 0.682153,-0.1734984 1.298417,-0.6375264 0.560451,-0.422002 1.141902,-0.7303838 1.814105,-0.9621396 0.582921,-0.200974 0.609201,-0.2041397 1.69921,-0.2046857 1.070401,-5.364e-4 1.125952,0.00573 1.674419,0.1890243 0.710601,0.2374724 1.282126,0.5433908 1.981849,1.0608182 0.500686,0.3702444 0.600623,0.4174392 1.195818,0.5647192 0.35721,0.088391 0.892173,0.2781845 1.188807,0.4217633 0.445751,0.2157562 0.637247,0.3590854 1.103635,0.8260398 0.918375,0.9194903 1.206308,1.6467172 1.204875,3.0431337 -7.44e-4,0.72726 -0.01858,0.859667 -0.177136,1.315155 -0.251394,0.722181 -0.452482,1.03429 -1.056702,1.640104 -0.431972,0.433113 -0.632508,0.582249 -1.059906,0.78824 -0.704792,0.339684 -1.143643,0.442804 -2.123283,0.498928 -0.792152,0.04538 -0.846444,0.05751 -1.473616,0.329246 -0.35814,0.15517 -0.744601,0.313338 -0.858803,0.351485 -0.374929,0.125237 -1.948818,0.206656 -2.521042,0.130415 z m 2.140668,-0.655844 c 0.257654,-0.06164 0.775955,-0.268722 1.165533,-0.46567 l 0.70155,-0.354663 0.673396,0.03552 c 0.817923,0.04315 1.297895,-0.03913 1.892496,-0.32441 0.878175,-0.421338 1.661561,-1.259422 1.953683,-2.090093 0.187483,-0.533122 0.234973,-1.535427 0.09999,-2.1102573 C 25.81973,8.9407978 25.268427,8.1611299 24.463599,7.6353679 23.912151,7.2751294 23.379604,7.0862763 22.77866,7.0378513 22.328726,7.001595 22.311831,6.99395 21.879435,6.630954 21.068218,5.9499374 20.443829,5.5771914 19.761692,5.3667098 19.461235,5.2739998 19.189595,5.2531255 18.306977,5.2549209 c -1.021334,0.00208 -1.114073,0.012262 -1.574138,0.1728725 -0.536151,0.187172 -1.059385,0.5041722 -1.778918,1.0777535 -0.5977,0.4764612 -0.6727,0.5146081 -1.011759,0.5146081 -0.445173,0 -1.221213,0.2786474 -1.737213,0.6237692 -1.066656,0.7134229 -1.648347,1.7847866 -1.647917,3.0351458 3.6e-4,1.052129 0.34627,1.892952 1.086151,2.640189 0.781414,0.789183 1.701817,1.119176 2.964809,1.062979 l 0.673109,-0.02995 0.505186,0.267675 c 1.065174,0.564387 1.666065,0.719455 2.645854,0.682798 0.358763,-0.01342 0.861088,-0.07436 1.116279,-0.135412 z"
     id="path993"
     inkscape:connector-curvature="0" />
  <path
     style="opacity:0.65399996;fill:#ffffff;fill-opacity:1;stroke:#00ffff;stroke-width:0.35158396;stroke-miterlimit:4;stroke-dasharray:none;stroke-dashoffset:0;stroke-opacity:1"
     d="M 16.942636,15.515971 C 16.72093,15.452429 16.330233,15.312086 16.074419,15.204096 15.279654,14.868594 15.195368,14.84808 14.431008,14.804109 12.951592,14.719003 12.271602,14.442212 11.385307,13.564353 10.91848,13.101969 10.77367,12.90995 10.552463,12.459996 10.310649,11.968125 10.278675,11.848784 10.222539,11.228584 10.091914,9.7853902 10.378338,8.8897462 11.268434,7.9580932 11.529962,7.6843549 11.874111,7.3773589 12.03321,7.2758801 c 0.366487,-0.2337584 1.085944,-0.5161398 1.680441,-0.6595607 0.351992,-0.084917 0.57186,-0.1889569 0.930233,-0.4401793 0.764625,-0.5360088 1.268484,-0.8202997 1.878469,-1.0598835 0.559725,-0.2198433 0.602221,-0.226696 1.567569,-0.2527722 0.567554,-0.015331 1.144805,0.00159 1.348679,0.039543 0.716228,0.1333188 1.565075,0.5466829 2.558298,1.245816 0.23876,0.1680639 0.587597,0.3510365 0.775194,0.406606 0.786267,0.2329056 1.475043,0.4848562 1.736434,0.6351778 0.379529,0.218261 1.135302,0.9588648 1.432225,1.4034788 0.404561,0.6057928 0.519018,1.086954 0.518091,2.177987 -7.38e-4,0.868524 -0.01213,0.958923 -0.171801,1.36273 -0.24526,0.620273 -0.474451,0.946567 -1.059194,1.507944 -0.831124,0.797913 -1.503896,1.060524 -3.030993,1.183126 -0.736528,0.05913 -0.847045,0.08573 -1.570214,0.377862 -0.906653,0.366256 -1.298015,0.435268 -2.443695,0.430922 -0.623416,-0.0024 -0.940147,-0.03268 -1.24031,-0.118706 z m 2.603491,-0.159053 c 0.222343,-0.05137 0.725191,-0.250322 1.117439,-0.442113 l 0.713178,-0.348712 0.744186,0.01499 c 1.162956,0.02342 1.81535,-0.178864 2.68484,-0.83247 1.243102,-0.934457 1.772737,-2.48415 1.377353,-4.0300877 C 25.809319,8.2569632 24.502771,7.0953407 22.983459,6.8737717 22.339407,6.7798463 22.402446,6.8096304 21.774257,6.3024653 21.159673,5.8062846 20.537558,5.4387717 19.969355,5.2362235 19.540789,5.083452 19.452538,5.0748134 18.337984,5.0765343 c -1.053671,0.00163 -1.220928,0.016434 -1.581395,0.1399953 -0.568513,0.1948763 -0.981512,0.4357711 -1.78428,1.0407379 -0.663601,0.5000908 -0.720144,0.5294673 -1.116279,0.5799548 -1.232935,0.1571379 -2.496085,0.998391 -3.038948,2.023928 -0.8726587,1.6485617 -0.434994,3.7354657 1.025287,4.8888457 0.762621,0.602345 1.324113,0.780564 2.543359,0.807268 l 0.884953,0.01938 0.634427,0.311663 c 1.073912,0.527559 1.543616,0.636342 2.555747,0.591907 0.374556,-0.01644 0.862928,-0.07193 1.085272,-0.123299 z"
     id="path995"
     inkscape:connector-curvature="0" />
  <path
     style="opacity:0.65399996;fill:#ffffff;fill-opacity:1;stroke:#00ffff;stroke-width:0.35158396;stroke-miterlimit:4;stroke-dasharray:none;stroke-dashoffset:0;stroke-opacity:1"
     d="m 3.2518025,16.048176 c -0.3364559,-0.308339 -0.3364559,-0.69344 0,-1.001778 l 0.2316474,-0.212289 h 3.2287966 c 3.5420805,0 3.4927775,-0.0049 3.6867035,0.370063 0.119471,0.23103 0.119471,0.455199 0,0.68623 -0.193926,0.375012 -0.144623,0.370063 -3.6867035,0.370063 H 3.4834499 Z"
     id="path997"
     inkscape:connector-curvature="0" />
  <path
     style="opacity:0.65399996;fill:#ffffff;fill-opacity:1;stroke:#00ffff;stroke-width:0.35158396;stroke-miterlimit:4;stroke-dasharray:none;stroke-dashoffset:0;stroke-opacity:1"
     d="m 3.3718879,15.860016 c -0.1081818,-0.123212 -0.1966941,-0.26394 -0.1966941,-0.312729 0,-0.04879 0.088512,-0.189518 0.1966941,-0.31273 l 0.1966941,-0.224022 3.1986547,0.023 c 1.7592601,0.01265 3.2455423,0.04496 3.3028483,0.0718 0.26039,0.121936 0.261356,0.7619 0.0013,0.883386 -0.05804,0.02712 -1.5449218,0.05966 -3.3041819,0.07231 l -3.1986541,0.02301 z"
     id="path999"
     inkscape:connector-curvature="0" />
  <path
     style="opacity:0.65399996;fill:#ffffff;fill-opacity:1;stroke:#00ffff;stroke-width:0.35158396;stroke-miterlimit:4;stroke-dasharray:none;stroke-dashoffset:0;stroke-opacity:1"
     d="m 3.5047465,15.715404 -0.127881,-0.172968 0.1340519,-0.168117 0.1340518,-0.168117 1.6720891,0.0085 c 0.9196489,0.0047 2.3558099,0.02562 3.1914688,0.04651 l 1.5193799,0.03798 v 0.248062 0.248062 l -1.5193799,0.03798 c -0.8356589,0.02089 -2.2745968,0.04182 -3.1976398,0.04651 l -1.6782599,0.0085 z"
     id="path1001"
     inkscape:connector-curvature="0" />
  <path
     style="opacity:0.65399996;fill:#ffffff;fill-opacity:1;stroke:#00ffff;stroke-width:0.35158396;stroke-miterlimit:4;stroke-dasharray:none;stroke-dashoffset:0;stroke-opacity:1"
     d="m 3.6833182,15.623762 c -0.1941201,-0.233901 -0.011765,-0.246488 2.9480487,-0.203489 1.5611204,0.02268 2.9221215,0.05732 3.0244471,0.07699 0.464504,0.08926 -0.2268084,0.129182 -2.979483,0.172072 -2.5274706,0.03938 -2.9275661,0.03329 -2.9930128,-0.04557 z"
     id="path1003"
     inkscape:connector-curvature="0" />
  <path
     style="opacity:0.65399996;fill:#ffffff;fill-opacity:1;stroke:#00ffff;stroke-width:0.35158396;stroke-miterlimit:4;stroke-dasharray:none;stroke-dashoffset:0;stroke-opacity:1"
     d="m 3.2485685,13.04627 c -0.3356838,-0.313576 -0.314799,-0.764985 0.050709,-1.096029 0.1286433,-0.116513 0.2385419,-0.124977 1.8470604,-0.14225 1.2122479,-0.01302 1.7617902,0.003 1.8871732,0.05491 0.2744941,0.113699 0.4207527,0.34319 0.4207527,0.660195 0,0.232228 -0.034022,0.31093 -0.2108527,0.487761 l -0.210853,0.210848 H 5.2344654 3.4363727 Z"
     id="path1005"
     inkscape:connector-curvature="0" />
  <path
     style="opacity:0.65399996;fill:#ffffff;fill-opacity:1;stroke:#00ffff;stroke-width:0.35158396;stroke-miterlimit:4;stroke-dasharray:none;stroke-dashoffset:0;stroke-opacity:1"
     d="m 3.3720505,12.892127 c -0.1720626,-0.183152 -0.1793018,-0.529544 -0.014758,-0.706161 0.1093259,-0.117347 0.2190467,-0.133029 1.2248062,-0.175058 0.6075977,-0.02539 1.3977463,-0.02978 1.7558858,-0.0098 0.6021957,0.03366 0.6616557,0.04854 0.7906977,0.19783 0.1865871,0.215868 0.1770241,0.449683 -0.027106,0.66275 L 6.9349344,13.035659 H 5.2209131 c -1.7114622,0 -1.7142228,-2.14e-4 -1.8488626,-0.143532 z"
     id="path1007"
     inkscape:connector-curvature="0" />
  <path
     style="opacity:0.65399996;fill:#ffffff;fill-opacity:1;stroke:#00ffff;stroke-width:0.35158396;stroke-miterlimit:4;stroke-dasharray:none;stroke-dashoffset:0;stroke-opacity:1"
     d="m 3.5967124,12.807933 c -0.127104,-0.03407 -0.1963027,-0.222751 -0.1431326,-0.390275 0.0559,-0.176126 0.2752255,-0.200151 1.9194304,-0.210254 1.4383873,-0.0088 1.4592262,-0.0071 1.598365,0.13189 0.1322227,0.132098 0.1350806,0.151353 0.046023,0.310078 l -0.094954,0.169233 -1.6100595,0.0088 c -0.8855327,0.0049 -1.6575853,-0.0039 -1.7156726,-0.01949 z"
     id="path1009"
     inkscape:connector-curvature="0" />
  <path
     style="opacity:0.65399996;fill:#ffffff;fill-opacity:1;stroke:#00ffff;stroke-width:0.35158396;stroke-miterlimit:4;stroke-dasharray:none;stroke-dashoffset:0;stroke-opacity:1"
     d="m 4.4966335,12.6172 c 0.4368694,-0.01068 1.1345438,-0.01064 1.5503876,6.9e-5 0.4158438,0.01071 0.058405,0.01945 -0.7943079,0.01941 C 4.4,12.636641 4.0597641,12.627876 4.4966335,12.6172 Z"
     id="path1011"
     inkscape:connector-curvature="0" />
  <path
     style="opacity:0.65399996;fill:#ffffff;fill-opacity:1;stroke:#00ffff;stroke-width:0.35158396;stroke-miterlimit:4;stroke-dasharray:none;stroke-dashoffset:0;stroke-opacity:1"
     d="m 4.1828866,12.586047 c 0.018979,-0.05707 0.3047658,-0.08199 1.0832542,-0.09446 0.900446,-0.01442 1.0628559,-0.0029 1.09372,0.07752 0.031639,0.08245 -0.1060696,0.09446 -1.0832542,0.09446 -0.8680065,0 -1.1137091,-0.01741 -1.09372,-0.07752 z"
     id="path1013"
     inkscape:connector-curvature="0" />
  <path
     style="opacity:0.65399996;fill:#ffffff;fill-opacity:1;stroke:#00ffff;stroke-width:0.35158396;stroke-miterlimit:4;stroke-dasharray:none;stroke-dashoffset:0;stroke-opacity:1"
     d="m 3.4976744,12.775194 c -0.04093,-0.04093 -0.074419,-0.149141 -0.074419,-0.240469 0,-0.324063 0.066426,-0.336275 1.8291567,-0.336275 1.7365249,0 1.829758,0.0157 1.829758,0.308059 0,0.230163 -0.1882289,0.343555 -0.5630227,0.339172 -0.2708752,-0.0032 -0.3083151,-0.01512 -0.192683,-0.06149 0.078935,-0.03166 0.1271474,-0.08405 0.1071374,-0.116427 -0.021685,-0.03509 0.048678,-0.04506 0.1741783,-0.0247 0.2357584,0.03826 0.342456,-0.05663 0.2240735,-0.199271 -0.086428,-0.10414 -0.4052504,-0.121508 -0.4647006,-0.02532 -0.023028,0.03726 -0.1502807,0.05151 -0.2982336,0.03341 -0.6530229,-0.07992 -1.7275757,-0.106204 -1.6874469,-0.04127 0.024318,0.03935 -0.00974,0.06691 -0.08268,0.06691 -0.068217,0 -0.1375454,-0.02187 -0.1540628,-0.04859 -0.016517,-0.02673 -0.1437459,-0.03775 -0.2827298,-0.02449 -0.1982072,0.0189 -0.2526979,0.04944 -0.2526979,0.141616 0,0.0882 0.04465,0.117517 0.1789577,0.117517 0.098427,0 0.2588919,0.04169 0.3565892,0.09264 0.1755651,0.09156 0.173267,0.09265 -0.1975624,0.09302 -0.2096382,2.14e-4 -0.4080312,-0.03246 -0.4496124,-0.07404 z M 5.8900113,12.30841 C 5.763006,12.295084 5.5397501,12.2949 5.3938873,12.308 c -0.1458628,0.0131 -0.041949,0.024 0.2309189,0.02423 0.2728682,2.25e-4 0.3922105,-0.01049 0.2652051,-0.02382 z"
     id="path1015"
     inkscape:connector-curvature="0" />
  <path
     style="opacity:0.65399996;fill:#ffffff;fill-opacity:1;stroke:#00ffff;stroke-width:0.35158396;stroke-miterlimit:4;stroke-dasharray:none;stroke-dashoffset:0;stroke-opacity:1"
     d="M 5.0666667,10.192268 C 4.4307594,9.9854963 4.3462283,9.1367828 4.9337723,8.8579749 5.1145934,8.7721696 5.3966291,8.7565891 6.7690412,8.7565891 c 1.7946187,0 1.8862445,0.016929 2.1140896,0.3906077 0.1543831,0.2531966 0.153219,0.4558647 -0.0041,0.7138994 C 8.6611489,10.218465 8.5083607,10.245678 6.758581,10.23878 5.8962451,10.23538 5.1348837,10.214449 5.0666667,10.192268 Z"
     id="path1017"
     inkscape:connector-curvature="0" />
  <path
     style="opacity:0.65399996;fill:#ffffff;fill-opacity:1;stroke:#00ffff;stroke-width:0.35158396;stroke-miterlimit:4;stroke-dasharray:none;stroke-dashoffset:0;stroke-opacity:1"
     d="M 5.4697674,10.019874 C 4.9947042,9.9778672 4.9125072,9.9409357 4.8084595,9.7227452 4.6827444,9.459118 4.7363916,9.227108 4.9563968,9.082955 5.10474,8.9857568 5.298773,8.9736434 6.7073501,8.9736434 c 0.8712675,0 1.6561167,0.02027 1.7441092,0.045044 0.2271098,0.063942 0.3969537,0.3995885 0.3129127,0.6183796 -0.1356487,0.3531458 -0.2712599,0.384661 -1.7065683,0.396598 -0.7199316,0.006 -1.4345479,-2.19e-4 -1.5880363,-0.01379 z"
     id="path1019"
     inkscape:connector-curvature="0" />
  <path
     style="opacity:0.65399996;fill:#ffffff;fill-opacity:1;stroke:#00ffff;stroke-width:0.35158396;stroke-miterlimit:4;stroke-dasharray:none;stroke-dashoffset:0;stroke-opacity:1"
     d="M 5.0871855,9.7333333 C 4.9386989,9.6136936 4.911988,9.4658432 5.0128461,9.3218482 5.1024758,9.1938838 5.1449987,9.1906977 6.7632064,9.1906977 c 1.7846438,0 1.8073362,0.00407 1.8073362,0.3240155 0,0.13098 -0.040136,0.1904379 -0.1590759,0.235659 -0.2468156,0.093839 -3.2054903,0.078674 -3.3242812,-0.017039 z"
     id="path1021"
     inkscape:connector-curvature="0" />
  <path
     style="opacity:0.65399996;fill:#ffffff;fill-opacity:1;stroke:#00ffff;stroke-width:0.35158396;stroke-miterlimit:4;stroke-dasharray:none;stroke-dashoffset:0;stroke-opacity:1"
     d="M 6.4127907,9.6408959 C 6.641531,9.6289979 7.0322287,9.6289189 7.2810078,9.64072 7.5297868,9.652521 7.3426358,9.662256 6.8651163,9.662353 6.3875969,9.6624498 6.1840504,9.652793 6.4127907,9.6408959 Z"
     id="path1023"
     inkscape:connector-curvature="0" />
  <path
     style="opacity:0.65399996;fill:#ffffff;fill-opacity:1;stroke:#00ffff;stroke-width:0.35158396;stroke-miterlimit:4;stroke-dasharray:none;stroke-dashoffset:0;stroke-opacity:1"
     d="m 6.2914729,9.8317965 c -0.042636,-0.017204 -0.077519,-0.070815 -0.077519,-0.119135 0,-0.070472 0.1349749,-0.087855 0.6821705,-0.087855 0.6698928,0 0.756617,0.024778 0.607752,0.1736434 -0.073475,0.073475 -1.0466223,0.100241 -1.2124035,0.033347 z"
     id="path1025"
     inkscape:connector-curvature="0" />
  <path
     style="opacity:0.65399996;fill:#ffffff;fill-opacity:1;stroke:#00ffff;stroke-width:0.35158396;stroke-miterlimit:4;stroke-dasharray:none;stroke-dashoffset:0;stroke-opacity:1"
     d="M 5.2980211,9.8279167 C 4.948655,9.7846634 4.7908156,9.3372749 5.0845313,9.2227894 c 0.1912765,-0.074556 1.638619,-0.1120561 2.5120996,-0.065087 0.8021968,0.043136 0.8614445,0.055008 0.950144,0.1903801 0.072887,0.1112396 0.078943,0.1736283 0.026385,0.2718327 -0.070432,0.1316027 -0.1603966,0.1631784 -0.6029261,0.2116135 -0.2252141,0.02465 -0.2580615,0.01295 -0.2503686,-0.089175 0.00749,-0.099448 0.059341,-0.1175474 0.3367426,-0.1175474 0.2874443,0 0.3278881,-0.015426 0.3278881,-0.1250607 0,-0.1226476 -0.03141,-0.1247416 -1.627907,-0.1085271 -1.3983365,0.014202 -1.6279069,0.029652 -1.6279069,0.1095568 0,0.072458 0.099399,0.097051 0.4496124,0.111244 0.3987027,0.016158 0.4496124,0.031957 0.4496124,0.1395349 0,0.1029356 -0.039929,0.1198106 -0.2635659,0.1113893 -0.1449613,-0.00546 -0.3548052,-0.021221 -0.4663198,-0.035027 z"
     id="path1027"
     inkscape:connector-curvature="0" />
  <path
     style="opacity:0.65399996;fill:#ffffff;fill-opacity:1;stroke:#00ffff;stroke-width:0.35158396;stroke-miterlimit:4;stroke-dasharray:none;stroke-dashoffset:0;stroke-opacity:1"
     d="m 14.410442,22.114519 c -0.343523,-0.171185 -0.566294,-0.41369 -0.721702,-0.785633 -0.245483,-0.587524 -0.03827,-1.19279 0.979238,-2.860303 l 0.374407,-0.613588 0.140106,0.175709 c 0.250054,0.313598 0.90974,1.464286 1.133688,1.977488 0.350693,0.803653 0.274353,1.372659 -0.25183,1.877037 -0.44294,0.424585 -1.08373,0.513421 -1.653907,0.22929 z"
     id="path1029"
     inkscape:connector-curvature="0" />
  <path
     style="opacity:0.65399996;fill:#ffffff;fill-opacity:1;stroke:#00ffff;stroke-width:0.35158396;stroke-miterlimit:4;stroke-dasharray:none;stroke-dashoffset:0;stroke-opacity:1"
     d="m 14.656563,22.005014 c -0.329042,-0.119075 -0.668797,-0.442813 -0.785545,-0.748515 -0.145303,-0.38047 -0.08658,-0.700949 0.258369,-1.41002 0.314821,-0.647142 0.876194,-1.601518 0.942029,-1.601518 0.05143,0 0.07597,0.03855 0.564242,0.886158 0.517519,0.898389 0.706044,1.409766 0.672366,1.823795 -0.0639,0.785544 -0.904864,1.320282 -1.651461,1.0501 z"
     id="path1031"
     inkscape:connector-curvature="0" />
  <path
     style="opacity:0.65399996;fill:#ffffff;fill-opacity:1;stroke:#00ffff;stroke-width:0.35158396;stroke-miterlimit:4;stroke-dasharray:none;stroke-dashoffset:0;stroke-opacity:1"
     d="m 14.748823,21.812668 c -0.319843,-0.113874 -0.646973,-0.440389 -0.722598,-0.72124 -0.04801,-0.17828 -0.03621,-0.308272 0.05438,-0.59935 0.108326,-0.348052 0.693718,-1.506099 0.9008,-1.782 l 0.09309,-0.124031 0.09421,0.124031 c 0.05182,0.06822 0.280582,0.48858 0.508368,0.93414 0.356658,0.697642 0.414607,0.856921 0.417409,1.147287 0.004,0.416915 -0.131631,0.690754 -0.440406,0.889032 -0.301446,0.193572 -0.607301,0.238214 -0.905262,0.132131 z"
     id="path1033"
     inkscape:connector-curvature="0" />
  <path
     style="opacity:0.65399996;fill:#ffffff;fill-opacity:1;stroke:#00ffff;stroke-width:0.35158396;stroke-miterlimit:4;stroke-dasharray:none;stroke-dashoffset:0;stroke-opacity:1"
     d="m 14.737695,21.596347 c -0.07008,-0.02838 -0.21971,-0.156716 -0.332507,-0.285184 -0.182778,-0.208173 -0.201999,-0.264526 -0.17672,-0.518107 0.03124,-0.313425 0.783549,-1.898967 0.863141,-1.819141 0.02536,0.02543 0.215003,0.380476 0.421434,0.788986 0.397207,0.78604 0.465465,1.122021 0.295992,1.456943 -0.174642,0.345139 -0.696203,0.528432 -1.07134,0.376503 z"
     id="path1035"
     inkscape:connector-curvature="0" />
  <path
     style="opacity:0.65399996;fill:#ffffff;fill-opacity:1;stroke:#00ffff;stroke-width:0.35158396;stroke-miterlimit:4;stroke-dasharray:none;stroke-dashoffset:0;stroke-opacity:1"
     d="m 14.632302,21.228157 -0.25902,-0.241611 0.104821,-0.332033 c 0.05765,-0.182618 0.213791,-0.555288 0.346978,-0.828156 l 0.242159,-0.496124 0.288144,0.590541 c 0.346566,0.710273 0.405036,0.985976 0.257014,1.211887 -0.104253,0.15911 -0.433554,0.337106 -0.62366,0.337106 -0.05358,0 -0.213976,-0.108724 -0.356436,-0.24161 z"
     id="path1037"
     inkscape:connector-curvature="0" />
  <path
     style="opacity:0.65399996;fill:#ffffff;fill-opacity:1;stroke:#00ffff;stroke-width:0.35158396;stroke-miterlimit:4;stroke-dasharray:none;stroke-dashoffset:0;stroke-opacity:1"
     d="m 14.784429,21.103497 -0.204718,-0.175183 0.22673,-0.566483 c 0.124702,-0.311565 0.239291,-0.566482 0.254643,-0.566482 0.03581,0 0.329836,0.657691 0.398614,0.891642 0.06546,0.222649 -0.01315,0.379421 -0.252255,0.503065 -0.220895,0.114229 -0.178154,0.122975 -0.423014,-0.08656 z"
     id="path1039"
     inkscape:connector-curvature="0" />
  <path
     style="opacity:0.65399996;fill:#ffffff;fill-opacity:1;stroke:#00ffff;stroke-width:0.35158396;stroke-miterlimit:4;stroke-dasharray:none;stroke-dashoffset:0;stroke-opacity:1"
     d="m 14.897812,20.944669 c -0.05999,-0.07229 -0.05355,-0.148512 0.03136,-0.370841 0.122457,-0.320649 0.181751,-0.31474 0.284546,0.02836 0.05751,0.191962 0.05627,0.263593 -0.0059,0.338482 -0.09932,0.119667 -0.212813,0.121132 -0.310023,0.004 z"
     id="path1041"
     inkscape:connector-curvature="0" />
  <path
     style="opacity:0.65399996;fill:#ffffff;fill-opacity:1;stroke:#00ffff;stroke-width:0.35158396;stroke-miterlimit:4;stroke-dasharray:none;stroke-dashoffset:0;stroke-opacity:1"
     d="m 20.505993,25.171907 c -0.824094,-0.394189 -1.05403,-1.168027 -0.635031,-2.137165 0.224061,-0.51825 1.157379,-2.123114 1.234709,-2.123114 0.07902,0 0.732461,1.072928 1.093999,1.796301 0.332469,0.665212 0.355369,0.739436 0.355369,1.151865 0,0.382394 -0.02488,0.481117 -0.187686,0.744695 -0.391577,0.633956 -1.204303,0.881708 -1.86136,0.567418 z"
     id="path1043"
     inkscape:connector-curvature="0" />
  <path
     style="opacity:0.65399996;fill:#ffffff;fill-opacity:1;stroke:#00ffff;stroke-width:0.35158396;stroke-miterlimit:4;stroke-dasharray:none;stroke-dashoffset:0;stroke-opacity:1"
     d="m 20.718454,25.046396 c -0.362061,-0.13467 -0.59308,-0.333471 -0.73986,-0.636678 -0.259405,-0.535861 -0.07382,-1.154207 0.783739,-2.611324 l 0.345835,-0.587625 0.283331,0.45508 c 0.155832,0.250295 0.432541,0.75181 0.614908,1.114479 0.30691,0.610343 0.331577,0.691875 0.331577,1.095954 0,0.397248 -0.01815,0.460231 -0.20155,0.699482 -0.342529,0.446835 -0.944664,0.646685 -1.41798,0.470632 z"
     id="path1045"
     inkscape:connector-curvature="0" />
  <path
     style="opacity:0.65399996;fill:#ffffff;fill-opacity:1;stroke:#00ffff;stroke-width:0.35158396;stroke-miterlimit:4;stroke-dasharray:none;stroke-dashoffset:0;stroke-opacity:1"
     d="m 20.857228,24.874781 c -0.474455,-0.09908 -0.851145,-0.621169 -0.778821,-1.079432 0.05778,-0.366118 0.274818,-0.874357 0.67583,-1.582603 l 0.356468,-0.629574 0.216177,0.358863 c 0.779179,1.293474 0.983386,2.013022 0.691549,2.436759 -0.283307,0.411352 -0.704666,0.591328 -1.161203,0.495987 z"
     id="path1047"
     inkscape:connector-curvature="0" />
  <path
     style="opacity:0.65399996;fill:#ffffff;fill-opacity:1;stroke:#00ffff;stroke-width:0.35158396;stroke-miterlimit:4;stroke-dasharray:none;stroke-dashoffset:0;stroke-opacity:1"
     d="m 20.751531,24.63449 c -0.071,-0.02872 -0.203557,-0.140722 -0.294574,-0.24889 -0.298096,-0.354267 -0.187233,-0.890713 0.408335,-1.97587 l 0.250742,-0.456864 0.269524,0.487133 c 0.563483,1.018428 0.684088,1.60398 0.394287,1.914298 -0.291872,0.312536 -0.684149,0.419422 -1.028314,0.280193 z"
     id="path1049"
     inkscape:connector-curvature="0" />
  <path
     style="opacity:0.65399996;fill:#ffffff;fill-opacity:1;stroke:#00ffff;stroke-width:0.35158396;stroke-miterlimit:4;stroke-dasharray:none;stroke-dashoffset:0;stroke-opacity:1"
     d="m 20.688372,24.297674 c -0.228555,-0.228555 -0.245619,-0.311278 -0.141993,-0.688372 0.07903,-0.287603 0.480696,-1.134661 0.561812,-1.184794 0.08563,-0.05292 0.549189,0.993638 0.589,1.32978 0.04325,0.365203 -0.03047,0.519459 -0.312171,0.653132 -0.313399,0.148718 -0.461518,0.125384 -0.696648,-0.109746 z"
     id="path1051"
     inkscape:connector-curvature="0" />
  <path
     style="opacity:0.65399996;fill:#ffffff;fill-opacity:1;stroke:#00ffff;stroke-width:0.35158396;stroke-miterlimit:4;stroke-dasharray:none;stroke-dashoffset:0;stroke-opacity:1"
     d="m 20.826862,24.145053 c -0.198633,-0.207328 -0.188815,-0.29744 0.104586,-0.959986 0.180414,-0.407402 0.190915,-0.41842 0.264658,-0.277676 0.160974,0.30723 0.342437,0.945605 0.307905,1.083192 -0.03204,0.127673 -0.311197,0.331898 -0.45367,0.331898 -0.02942,0 -0.129986,-0.07984 -0.223479,-0.177428 z"
     id="path1053"
     inkscape:connector-curvature="0" />
  <path
     style="opacity:0.65399996;fill:#ffffff;fill-opacity:1;stroke:#00ffff;stroke-width:0.35158396;stroke-miterlimit:4;stroke-dasharray:none;stroke-dashoffset:0;stroke-opacity:1"
     d="m 20.955588,24.035691 c -0.07756,-0.07756 -0.04204,-0.358211 0.07256,-0.573265 l 0.111317,-0.208891 0.07811,0.278978 c 0.04296,0.153438 0.06816,0.33116 0.05599,0.394938 -0.02229,0.116881 -0.236438,0.189777 -0.317974,0.10824 z"
     id="path1055"
     inkscape:connector-curvature="0" />
  <path
     style="opacity:0.65399996;fill:#ffffff;fill-opacity:1;stroke:#00ffff;stroke-width:0.35158396;stroke-miterlimit:4;stroke-dasharray:none;stroke-dashoffset:0;stroke-opacity:1"
     d="M 5.1596899,9.9556078 C 4.7993999,9.814197 4.6685293,9.379614 4.9182323,9.1537977 5.0399394,9.0437331 5.1639138,9.0356589 6.7321858,9.0356589 c 1.2532167,0 1.7187833,0.020264 1.8221207,0.079309 0.26134,0.1493252 0.26134,0.6224701 0,0.7714081 C 8.4536363,9.943748 7.9810571,9.969139 6.8341085,9.978799 5.9643411,9.986129 5.2108527,9.975689 5.1596899,9.9556078 Z M 6.2278504,9.5521079 c 0.030063,-0.090189 0.6890214,-0.1429194 1.0707203,-0.08568 0.1600183,0.023996 0.2658445,0.068649 0.2445099,0.1031688 -0.023665,0.038291 0.131127,0.054064 0.4174044,0.042532 0.3549709,-0.014299 0.4550189,-0.038784 0.4550189,-0.1113531 0,-0.1286756 -1.0753934,-0.2043348 -2.2894345,-0.1610731 -0.8932809,0.031832 -1.0892453,0.074459 -1.0007268,0.217685 0.058618,0.094846 1.0707483,0.089999 1.1025078,-0.00528 z"
     id="path1057"
     inkscape:connector-curvature="0" />
  <path
     style="opacity:0.65399996;fill:#ffffff;fill-opacity:1;stroke:#00ffff;stroke-width:0.35158396;stroke-miterlimit:4;stroke-dasharray:none;stroke-dashoffset:0;stroke-opacity:1"
     d="M 4.8744186,9.9100775 C 4.6104725,9.6461314 4.5882604,9.3472256 4.8131528,9.0856288 L 4.9627396,8.9116279 6.3790442,8.8906713 C 8.1248301,8.8648394 8.5349617,8.901417 8.7342664,9.1007217 8.9156079,9.2820632 8.9334949,9.6697991 8.7698422,9.8719015 8.6041352,10.076541 8.2624464,10.115248 6.5953488,10.118229 l -1.5100775,0.0027 z m 2.595675,-0.2077519 c -0.087554,-0.087818 -0.1970178,-0.105167 -0.5736434,-0.090918 -0.2559934,0.00968 -0.5212564,0.04313 -0.5894735,0.074323 -0.068217,0.031193 -0.1798449,0.068868 -0.248062,0.083724 -0.068217,0.014856 0.2457365,0.030248 0.6976744,0.034205 0.7824596,0.00685 0.8165377,0.00201 0.7135045,-0.101334 z M 8.5420849,9.3188546 C 8.5196022,9.2824768 8.454017,9.2559504 8.39634,9.2599071 8.301797,9.2663971 8.302157,9.2698971 8.4,9.2954621 c 0.05969,0.015599 0.1085271,0.058873 0.1085271,0.096165 0,0.037292 0.016748,0.051056 0.037218,0.030587 0.02047,-0.02047 0.018823,-0.066981 -0.00366,-0.1033595 z"
     id="path1059"
     inkscape:connector-curvature="0" />
  <path
     style="opacity:0.65399996;fill:#ffffff;fill-opacity:1;stroke:#00ffff;stroke-width:0.35158396;stroke-miterlimit:4;stroke-dasharray:none;stroke-dashoffset:0;stroke-opacity:1"
     d="M 5.0101639,9.7440791 C 4.8187694,9.5166196 4.807393,9.37216 4.9693334,9.2256059 5.1929719,9.0232158 8.4079274,9.0060261 8.2056515,9.2083019 c -0.050564,0.050565 -0.024568,0.1152364 0.097567,0.2427177 0.091574,0.095583 0.2031374,0.1737866 0.2479188,0.1737866 0.044781,0 0.081421,0.026925 0.081421,0.059834 0,0.1043455 -0.2050961,0.1724044 -0.6029029,0.2000668 C 7.655896,9.9106968 7.6448946,9.9072025 7.6785315,9.7731825 7.7042676,9.6706416 7.6721392,9.6078866 7.5544148,9.5307506 7.4270283,9.4472838 7.2816471,9.4311454 6.8202673,9.4492548 6.1553258,9.4753542 5.8645126,9.5841569 5.8876409,9.7981806 c 0.01374,0.1271481 -0.010799,0.1367031 -0.3510763,0.1367031 -0.3323943,0 -0.3805306,-0.017448 -0.5264007,-0.1908046 z"
     id="path1061"
     inkscape:connector-curvature="0" />
  <path
     style="opacity:0.65399996;fill:#ffffff;fill-opacity:1;stroke:#00ffff;stroke-width:0.35158396;stroke-miterlimit:4;stroke-dasharray:none;stroke-dashoffset:0;stroke-opacity:1"
     d="M 5.1599196,9.594043 C 5.0799377,9.5089062 5.03024,9.4235068 5.0494801,9.4042667 5.1007263,9.3530205 6.3421911,9.2362479 6.3846256,9.2786824 6.404451,9.2985079 6.35323,9.314833 6.2708011,9.3149605 6.0750102,9.3152633 5.7178295,9.5348419 5.7178295,9.6549024 c 0,0.1613248 -0.3890482,0.1188855 -0.5579099,-0.060859 z"
     id="path1063"
     inkscape:connector-curvature="0" />
  <path
     style="opacity:0.65399996;fill:#ffffff;fill-opacity:1;stroke:#00ffff;stroke-width:0.35158396;stroke-miterlimit:4;stroke-dasharray:none;stroke-dashoffset:0;stroke-opacity:1"
     d="M 7.774147,9.5007752 7.6365969,9.3147287 7.8089961,9.31816 C 7.9232343,9.32043 8.0300604,9.383199 8.125647,9.5042065 L 8.2698987,9.6868217 H 8.0907979 c -0.1270904,0 -0.2190448,-0.054027 -0.3166509,-0.1860465 z"
     id="path1065"
     inkscape:connector-curvature="0" />
  <path
     style="opacity:0.65399996;fill:#ffffff;fill-opacity:1;stroke:#00ffff;stroke-width:0.35158396;stroke-miterlimit:4;stroke-dasharray:none;stroke-dashoffset:0;stroke-opacity:1"
     d="M 5.0616226,10.116274 C 4.7844835,10.035804 4.6493272,9.8532503 4.617873,9.5169073 4.5928418,9.2492468 4.6085332,9.2043479 4.7860616,9.0356589 L 4.981857,8.8496124 h 1.7929599 1.7929599 l 0.1719255,0.1719521 c 0.1415722,0.141594 0.1719256,0.2261431 0.1719256,0.4788975 0,0.3781204 -0.1472295,0.549774 -0.5359609,0.624874 -0.3581466,0.06919 -3.0700818,0.06178 -3.3140444,-0.0091 z M 5.2207379,9.8193818 C 4.9787164,9.6900173 4.8427207,9.4208452 4.9600855,9.3034804 c 0.1412305,-0.1412305 1.50193,-0.243408 1.50193,-0.1127827 0,0.035578 -0.1916695,0.062306 -0.4496124,0.062698 C 5.152614,9.2547009 4.8932421,9.3646478 5.1307725,9.627116 5.2962329,9.8099477 5.6746762,9.7929266 5.8031339,9.5968753 5.9243318,9.411904 6.605652,9.1945071 6.4930233,9.3767442 c -0.024182,0.039127 0.124746,0.062016 0.4035177,0.062016 0.2430151,0 0.5000564,0.031154 0.571203,0.06923 0.1092037,0.058444 0.1233647,0.053613 0.090893,-0.031008 -0.021156,-0.055131 -0.020608,-0.1002378 0.00122,-0.1002378 0.07632,0 0.2665027,0.2060096 0.2665027,0.2886814 0,0.086183 0.1677774,0.110327 0.3311158,0.047648 0.079783,-0.030616 0.075168,-0.066322 -0.032061,-0.248062 C 8.0102127,9.269765 7.9760324,9.2527132 7.6998599,9.2527132 c -0.1651606,0 -0.3175393,-0.027907 -0.3386196,-0.062016 -0.049008,-0.079297 0.3055693,-0.081329 0.5776063,-0.00331 0.1125819,0.032288 0.2472957,0.042358 0.2993639,0.022377 C 8.5015955,9.1086949 8.0396631,9.0684883 6.6050669,9.0676163 5.0603407,9.0666774 5.0416014,9.0682236 4.9461522,9.2044965 c -0.053097,0.075806 -0.09654,0.1976243 -0.09654,0.2707065 0,0.2067403 0.2322826,0.4596807 0.4221382,0.4596807 0.1604951,0 0.1590801,-0.0032 -0.051013,-0.1155019 z M 5.925695,9.8402778 C 5.896099,9.7631518 5.870677,9.7599098 5.7881065,9.8227298 c -0.055707,0.042382 -0.1129127,0.084955 -0.1271246,0.094606 -0.014212,0.00965 0.047703,0.017548 0.1375886,0.017548 0.1210062,0 0.1540047,-0.024557 0.1271245,-0.094606 z m 2.0802329,0.01205 C 7.9170953,9.8124621 7.7932656,9.7379845 7.7307508,9.6868217 c -0.1020745,-0.083539 -0.109812,-0.082729 -0.07589,0.00795 0.020775,0.055534 0.00647,0.1322778 -0.0318,0.1705426 -0.05142,0.05142 0.010524,0.068258 0.2374043,0.064536 0.2866006,-0.0047 0.296256,-0.00985 0.1454628,-0.077519 z M 7.4232558,9.7105264 c -0.1450194,-0.1126913 -0.9720738,-0.094922 -1.1795,0.025342 -0.097615,0.056596 0.023559,0.071195 0.5903527,0.071127 0.6568503,-8.06e-5 0.7033822,-0.0077 0.5891473,-0.096468 z M 8.693624,9.6170543 c 5.209e-4,-0.021318 -0.069986,-0.03876 -0.1566853,-0.03876 -0.1509016,0 -0.1530834,0.00503 -0.051077,0.1177447 0.081944,0.090547 0.1181366,0.0995 0.1566853,0.03876 C 8.670117,9.691357 8.693102,9.638372 8.693624,9.6170543 Z M 8.4775194,9.3147287 c 0.02108,-0.034109 0.00877,-0.062015 -0.027348,-0.062015 -0.036121,0 -0.065675,0.027907 -0.065675,0.062015 0,0.034109 0.012306,0.062015 0.027348,0.062015 0.015041,0 0.044595,-0.027907 0.065675,-0.062015 z"
     id="path1067"
     inkscape:connector-curvature="0" />
  <path
     style="opacity:0.65399996;fill:#ffffff;fill-opacity:1;stroke:#00ffff;stroke-width:0.35158396;stroke-miterlimit:4;stroke-dasharray:none;stroke-dashoffset:0;stroke-opacity:1"
     d="M 3.5738001,12.982474 C 3.3954519,12.949384 3.3116513,12.861321 3.267582,12.660674 3.208587,12.392073 3.28664,12.228387 3.5202631,12.130773 c 0.315295,-0.131739 3.2451737,-0.126059 3.5020732,0.0068 0.2075828,0.107345 0.2796962,0.304957 0.193765,0.530973 -0.1194162,0.314089 -0.1442654,0.318396 -1.8895732,0.32755 -0.8982553,0.0047 -1.6869829,-0.0014 -1.752728,-0.01361 z m 0.7796883,-0.256893 c 0,-0.03411 -0.043507,-0.06202 -0.096683,-0.06202 -0.053176,0 -0.079436,0.02791 -0.058356,0.06202 0.02108,0.03411 0.064588,0.06202 0.096683,0.06202 0.032096,0 0.058356,-0.02791 0.058356,-0.06202 z m 1.9224806,0 c 0,-0.03411 -0.012307,-0.06202 -0.027348,-0.06202 -0.015041,0 -0.044595,0.02791 -0.065675,0.06202 -0.02108,0.03411 -0.00877,0.06202 0.027348,0.06202 0.036122,0 0.065676,-0.02791 0.065676,-0.06202 z M 4.0613798,12.539535 c 0.02646,-0.101185 0.00209,-0.123856 -0.132302,-0.123081 -0.2066382,0.0012 -0.3489542,0.08771 -0.2930529,0.178163 0.075948,0.122887 0.3894308,0.08229 0.4253549,-0.05508 z m 2.7928286,0.03707 c 0.045538,-0.118672 -0.00995,-0.161102 -0.2106764,-0.161102 -0.1393727,0 -0.1640762,0.02229 -0.1374699,0.124031 0.037774,0.144447 0.2963755,0.171983 0.3481463,0.03707 z"
     id="path1071"
     inkscape:connector-curvature="0" />
  <path
     style="opacity:0.65399996;fill:#ffffff;fill-opacity:1;stroke:#00ffff;stroke-width:0.35158396;stroke-miterlimit:4;stroke-dasharray:none;stroke-dashoffset:0;stroke-opacity:1"
     d="m 4.5203624,12.658964 c -0.018501,-0.07075 -0.091523,-0.143771 -0.1622717,-0.162272 -0.070748,-0.0185 -0.1286333,-0.06992 -0.1286333,-0.114261 0,-0.04434 -0.034884,-0.0947 -0.077519,-0.111902 -0.042636,-0.0172 0.4431238,-0.03348 1.0794654,-0.03618 1.1106251,-0.0047 1.1557402,-1.36e-4 1.1259235,0.113883 -0.017084,0.06533 -0.096332,0.135161 -0.1761072,0.155183 -0.079775,0.02002 -0.1627401,0.09215 -0.1843662,0.160291 -0.036253,0.114224 -0.094058,0.123887 -0.7410864,0.123887 -0.6579805,0 -0.7038651,-0.008 -0.7354047,-0.128633 z"
     id="path1073"
     inkscape:connector-curvature="0" />
  <path
     style="opacity:0.65399996;fill:#ffffff;fill-opacity:1;stroke:#00ffff;stroke-width:0.35158396;stroke-miterlimit:4;stroke-dasharray:none;stroke-dashoffset:0;stroke-opacity:1"
     d="m 4.6635659,12.508527 c -0.067798,-0.08169 0.00281,-0.09302 0.5796074,-0.09302 0.5583525,0 0.651459,0.01394 0.6211136,0.09302 -0.027976,0.0729 -0.1533397,0.09302 -0.5796075,0.09302 -0.4078206,0 -0.5632277,-0.02327 -0.6211135,-0.09302 z"
     id="path1075"
     inkscape:connector-curvature="0" />
  <path
     style="opacity:0.65399996;fill:#ffffff;fill-opacity:1;stroke:#00ffff;stroke-width:0.35158396;stroke-miterlimit:4;stroke-dasharray:none;stroke-dashoffset:0;stroke-opacity:1"
     d="m 4.6411394,12.508527 c -0.030408,-0.07924 0.066206,-0.09302 0.6521214,-0.09302 0.604362,0 0.6784503,0.01129 0.6106152,0.09302 -0.058465,0.07045 -0.2167382,0.09302 -0.6521213,0.09302 -0.4538303,0 -0.5824372,-0.01959 -0.6106153,-0.09302 z"
     id="path1077"
     inkscape:connector-curvature="0" />
  <path
     style="opacity:0.65399996;fill:#ffffff;fill-opacity:1;stroke:#00ffff;stroke-width:0.35158396;stroke-miterlimit:4;stroke-dasharray:none;stroke-dashoffset:0;stroke-opacity:1"
     d="m 3.6265703,13.114368 c -0.3241196,-0.02928 -0.513392,-0.239203 -0.513392,-0.569398 0,-0.302684 0.1399045,-0.484354 0.4339865,-0.563542 0.3204898,-0.0863 3.0899181,-0.08648 3.4102484,-2.28e-4 0.434157,0.116906 0.5785385,0.5704 0.2888321,0.907203 -0.1154843,0.134259 -0.2224285,0.179258 -0.5116279,0.21528 -0.3710696,0.04622 -2.6288236,0.05398 -3.1080471,0.01069 z m 0.7101668,-0.39277 c 0.00561,-0.07453 -0.021259,-0.117725 -0.064322,-0.103388 -0.1055502,0.03514 -0.1307349,0.231402 -0.029694,0.231402 0.046405,0 0.088713,-0.05761 0.094016,-0.128014 z m 2.0012474,0.03865 c 0,-0.111154 -0.102462,-0.179349 -0.1890579,-0.12583 -0.044453,0.02747 -0.042051,0.06787 0.00759,0.127691 0.093703,0.112905 0.1814644,0.112005 0.1814644,-0.0019 z m -2.7782946,-0.04707 c -0.1077724,-0.107772 -0.091307,-0.281026 0.034108,-0.358892 0.099211,-0.0616 0.09788,-0.0658 -0.015504,-0.04896 -0.1926006,0.02861 -0.2119326,0.482271 -0.020551,0.482271 0.059395,0 0.059827,-0.01654 0.00195,-0.07442 z m 1.1658915,0.05005 c 0,-0.0134 -0.041861,-0.04044 -0.093023,-0.06007 -0.051163,-0.01963 -0.093023,-0.0087 -0.093023,0.02437 0,0.03304 0.04186,0.06007 0.093023,0.06007 0.051163,0 0.093023,-0.01097 0.093023,-0.02437 z m 1.2677434,-0.03186 c 0.019114,-0.03093 -0.021099,-0.04163 -0.089363,-0.02378 -0.1448054,0.03787 -0.1631099,0.08001 -0.034753,0.08001 0.04915,0 0.1050023,-0.0253 0.124116,-0.05623 z M 7.0821705,12.50853 c 0,-0.08125 -0.022965,-0.161912 -0.051034,-0.179259 -0.028069,-0.01735 -0.048999,0.06195 -0.046512,0.176226 0.00506,0.23226 0.097546,0.235136 0.097546,0.003 z M 4.4775194,12.4496 c 0,-0.04947 0.048837,-0.118387 0.1085271,-0.153153 0.084567,-0.04926 0.041815,-0.06363 -0.19364,-0.0651 -0.2789703,-0.0017 -0.2956332,0.0064 -0.2170543,0.106641 0.1664576,0.21225 0.3021672,0.262376 0.3021672,0.111609 z m 1.7674418,0.04248 c 0.034109,-0.02506 0.1003163,-0.0944 0.1471284,-0.15409 0.078579,-0.100195 0.061916,-0.108382 -0.2170543,-0.106641 -0.2354551,0.0015 -0.2782066,0.01584 -0.19364,0.0651 0.05969,0.03477 0.1085272,0.103685 0.1085272,0.153153 0,0.09799 0.057887,0.113856 0.1550387,0.04248 z"
     id="path1079"
     inkscape:connector-curvature="0" />
  <path
     style="opacity:0.65399996;fill:#ffffff;fill-opacity:1;stroke:#00ffff;stroke-width:0.35158396;stroke-miterlimit:4;stroke-dasharray:none;stroke-dashoffset:0;stroke-opacity:1"
     d="M 4.855686,12.838264 C 4.917084,12.723541 4.90775,12.686375 4.794519,12.594686 4.715834,12.530966 4.6869436,12.470391 4.724248,12.447335 c 0.034842,-0.02153 0.063349,-0.107272 0.063349,-0.19053 0,-0.14788 0.011467,-0.151379 0.496124,-0.151379 0.4846567,0 0.4961241,0.0035 0.4961241,0.151379 0,0.08326 0.030375,0.170152 0.067501,0.193097 0.041098,0.0254 0.010776,0.07 -0.077519,0.114019 -0.079761,0.03976 -0.1450205,0.12729 -0.1450205,0.1945 0,0.159 -0.1134007,0.205539 -0.5138098,0.210864 -0.3181902,0.0042 -0.3256472,4.03e-4 -0.2553108,-0.131021 z"
     id="path1081"
     inkscape:connector-curvature="0" />
  <path
     style="opacity:0.65399996;fill:#ffffff;fill-opacity:1;stroke:#00ffff;stroke-width:0.35158396;stroke-miterlimit:4;stroke-dasharray:none;stroke-dashoffset:0;stroke-opacity:1"
     d="m 4.8130217,12.855782 c 0.1013517,-0.111993 0.099819,-0.124239 -0.030778,-0.245908 -0.113708,-0.105935 -0.1239143,-0.144345 -0.059106,-0.222434 0.043084,-0.05191 0.062135,-0.136603 0.042336,-0.188201 -0.030468,-0.0794 0.048574,-0.09381 0.5143879,-0.09381 0.5088835,0 0.5480795,0.0088 0.5197828,0.117032 -0.016833,0.06437 -2.667e-4,0.135782 0.036814,0.158699 0.1058439,0.06541 0.079337,0.146237 -0.062752,0.191334 -0.1022032,0.03244 -0.1244969,0.07997 -0.1037639,0.221234 l 0.026407,0.179918 h -0.494995 c -0.4824306,0 -0.4922876,-0.003 -0.3883315,-0.117861 z m 0.6567457,-0.153615 c 0,-0.04699 0.04186,-0.120171 0.093023,-0.162632 0.2002246,-0.166172 0.108098,-0.248062 -0.2790698,-0.248062 -0.402996,0 -0.4320017,0.03232 -0.2945736,0.328238 0.060779,0.130872 0.121045,0.167023 0.2790698,0.167402 0.1300842,3.1e-4 0.2015503,-0.02981 0.2015503,-0.08495 z"
     id="path1083"
     inkscape:connector-curvature="0" />
  <path
     style="opacity:0.65399996;fill:#ffffff;fill-opacity:1;stroke:#00ffff;stroke-width:0.35158396;stroke-miterlimit:4;stroke-dasharray:none;stroke-dashoffset:0;stroke-opacity:1"
     d="m 5.0356589,12.667226 c 0,-0.0662 -0.026688,-0.136865 -0.059307,-0.157025 -0.032619,-0.02016 -0.043587,-0.07762 -0.024373,-0.127691 0.041169,-0.107284 0.6418193,-0.131562 0.6418193,-0.02594 0,0.0358 -0.042577,0.14743 -0.094616,0.248062 -0.072601,0.140395 -0.1375342,0.182967 -0.2790697,0.182967 -0.1412408,0 -0.184454,-0.0282 -0.184454,-0.120371 z m 0.3410853,-0.127691 c 0.021824,-0.03531 -0.031584,-0.06202 -0.124031,-0.06202 -0.092447,0 -0.1458549,0.0267 -0.124031,0.06202 0.02108,0.03411 0.076894,0.06201 0.124031,0.06201 0.047137,0 0.1029508,-0.02791 0.124031,-0.06201 z"
     id="path1085"
     inkscape:connector-curvature="0" />
  <path
     style="opacity:0.65399996;fill:#ffffff;fill-opacity:1;stroke:#00ffff;stroke-width:0.35158396;stroke-miterlimit:4;stroke-dasharray:none;stroke-dashoffset:0;stroke-opacity:1"
     d="M 4.2852073,13.15969 C 3.2772702,13.12517 3.2144474,13.10167 3.1118437,12.720625 c -0.084141,-0.312476 0.046808,-0.64784 0.2929086,-0.750146 0.2003051,-0.08327 2.8156615,-0.149844 3.3354167,-0.0849 0.5303021,0.06626 0.7751589,0.395443 0.6265727,0.842365 -0.1224233,0.368229 -0.2709032,0.419678 -1.2768192,0.442424 -0.4945737,0.01118 -1.3066955,0.0064 -1.8047152,-0.01067 z M 4.0563558,12.679091 c -0.036088,-0.588572 -0.030316,-0.573665 -0.2220888,-0.573665 -0.1489301,0 -0.1658481,0.01481 -0.1031882,0.09031 0.041426,0.04992 0.053059,0.125724 0.026007,0.169494 -0.026917,0.04355 -0.052961,0.198264 -0.057875,0.343802 -0.00866,0.256436 -0.003,0.264615 0.1831364,0.264636 0.1903338,2.1e-5 0.1919081,-0.0026 0.1740087,-0.294574 z m 2.9632826,0.189793 c 0.01677,-0.01572 -0.018114,-0.05577 -0.077519,-0.08902 -0.1417333,-0.07932 -0.1490689,-0.476528 -0.00979,-0.529976 0.1369325,-0.05255 -0.010453,-0.142243 -0.2358115,-0.143512 -0.1249726,-7.04e-4 -0.1593124,0.02324 -0.1327162,0.09255 0.019734,0.05143 -0.00217,0.156078 -0.048672,0.232559 -0.046504,0.07648 -0.075553,0.231881 -0.064552,0.345334 0.01993,0.205553 0.020911,0.206127 0.2792843,0.163458 0.1426063,-0.02355 0.2730051,-0.05568 0.2897752,-0.0714 z M 4.6635659,12.752929 c 0,-0.05318 -0.027907,-0.07944 -0.062016,-0.05836 -0.034108,0.02108 -0.062016,0.06459 -0.062016,0.09668 0,0.03209 0.027907,0.05836 0.062016,0.05836 0.034109,0 0.062016,-0.04351 0.062016,-0.09668 z m 1.3023256,0.03467 c 0,-0.03411 -0.027907,-0.06202 -0.062015,-0.06202 -0.034109,0 -0.062016,0.02791 -0.062016,0.06202 0,0.03411 0.027907,0.06202 0.062016,0.06202 0.034108,0 0.062015,-0.02791 0.062015,-0.06202 z m 0.372093,-0.05168 c 0,-0.02842 -0.041861,-0.05168 -0.093023,-0.05168 -0.051163,0 -0.093023,0.02326 -0.093023,0.05168 0,0.02842 0.04186,0.05168 0.093023,0.05168 0.051163,0 0.093023,-0.02326 0.093023,-0.05168 z m -0.9991927,-0.26269 c -0.041157,-0.02544 -0.1129578,-0.03162 -0.1595571,-0.01374 -0.065157,0.025 -0.068136,0.0525 -0.0129,0.119058 0.055635,0.06704 0.091603,0.07013 0.1595571,0.01374 0.066624,-0.05529 0.069727,-0.08394 0.0129,-0.119058 z"
     id="path1087"
     inkscape:connector-curvature="0" />
  <path
     style="opacity:0.65399996;fill:#ffffff;fill-opacity:1;stroke:#00ffff;stroke-width:0.35158396;stroke-miterlimit:4;stroke-dasharray:none;stroke-dashoffset:0;stroke-opacity:1"
     d="m 3.6992106,12.709029 c 0.00491,-0.145538 0.030958,-0.300249 0.057876,-0.343802 0.027051,-0.04377 0.015419,-0.119578 -0.026007,-0.169494 -0.06266,-0.0755 -0.045742,-0.09031 0.1031882,-0.09031 0.1917725,0 0.1860012,-0.01491 0.2220888,0.573665 0.017899,0.29193 0.016325,0.294595 -0.1740087,0.294574 -0.1861352,-2.1e-5 -0.1917954,-0.0082 -0.1831365,-0.264636 z"
     id="path1089"
     inkscape:connector-curvature="0" />
  <path
     style="opacity:0.65399996;fill:#ffffff;fill-opacity:1;stroke:#00ffff;stroke-width:0.35158396;stroke-miterlimit:4;stroke-dasharray:none;stroke-dashoffset:0;stroke-opacity:1"
     d="m 4.2358517,12.548783 -0.012406,-0.42486 0.4216103,-0.03981 c 0.2318857,-0.0219 0.719153,-0.04001 1.0828162,-0.04026 l 0.6612058,-4.41e-4 -0.018224,0.16602 c -0.021967,0.200111 -0.1831158,0.330104 -0.409222,0.330104 -0.2015924,0 -0.3321954,0.140496 -0.2879354,0.309747 0.030336,0.116007 0.00239,0.124361 -0.4160486,0.124361 H 4.8090782 l 0.026496,-0.18053 c 0.020292,-0.138258 -0.00521,-0.197502 -0.1089227,-0.253005 -0.1791088,-0.09586 -0.3955214,0.08214 -0.3553523,0.292268 0.016066,0.08405 -0.00338,0.141267 -0.048019,0.141267 -0.05018,0 -0.079132,-0.14069 -0.087429,-0.42486 z m 1.2845908,-0.03224 c 0.033438,-0.278773 -0.4115472,-0.353755 -0.551167,-0.09287 -0.049571,0.09262 -0.029387,0.149768 0.097839,0.276994 0.1468482,0.146848 0.1717603,0.152726 0.2969777,0.07007 0.075176,-0.04962 0.1455334,-0.164009 0.1563504,-0.254191 z"
     id="path1091"
     inkscape:connector-curvature="0" />
  <path
     style="opacity:0.65399996;fill:#ffffff;fill-opacity:1;stroke:#00ffff;stroke-width:0.35158396;stroke-miterlimit:4;stroke-dasharray:none;stroke-dashoffset:0;stroke-opacity:1"
     d="m 4.2190424,12.540059 c -0.015148,-0.318948 0.00124,-0.441921 0.061999,-0.465116 0.045425,-0.01734 0.5407742,-0.03153 1.1007751,-0.03153 H 6.4 v 0.143186 c 0,0.227749 -0.1373942,0.359373 -0.3965958,0.37994 -0.2554579,0.02027 -0.3648957,0.12534 -0.3109877,0.298579 0.030132,0.09683 -0.017254,0.108527 -0.4397033,0.108527 -0.4489508,0 -0.4713866,-0.0066 -0.433164,-0.127007 0.082907,-0.261216 -0.273218,-0.427523 -0.401641,-0.187563 -0.035186,0.06575 -0.047136,0.163421 -0.026555,0.217055 0.023947,0.06241 0.00337,0.09751 -0.057149,0.09751 -0.073768,0 -0.099099,-0.09537 -0.1151621,-0.433584 z m 1.2751606,0.108003 c 0.088289,-0.141005 -0.016434,-0.317916 -0.2047252,-0.345846 -0.2580203,-0.03827 -0.41635,0.236028 -0.2387506,0.413627 0.1045147,0.104515 0.3600487,0.06546 0.4434758,-0.06778 z M 4.8360623,12.301115 c 0.028022,-0.08406 -0.3948561,-0.101401 -0.4462202,-0.01829 -0.050406,0.08156 -0.00324,0.102208 0.2188295,0.09581 0.1119276,-0.0032 0.2142534,-0.03811 0.2273907,-0.07752 z m 1.3384303,-0.0074 c 0.044346,-0.04434 -0.035091,-0.06427 -0.2562672,-0.06427 -0.268912,0 -0.3143759,0.01605 -0.2822957,0.09965 0.029028,0.07565 0.090755,0.09113 0.2562673,0.06427 0.1199157,-0.01946 0.2469487,-0.0643 0.2822956,-0.09965 z"
     id="path1093"
     inkscape:connector-curvature="0" />
  <path
     style="opacity:0.65399996;fill:#ffffff;fill-opacity:1;stroke:#00ffff;stroke-width:0.35158396;stroke-miterlimit:4;stroke-dasharray:none;stroke-dashoffset:0;stroke-opacity:1"
     d="M 3.5049616,15.752539 C 3.3908189,15.633392 3.3590393,15.553617 3.3937898,15.47347 c 0.045486,-0.104909 0.050475,-0.104139 0.076474,0.0118 0.015297,0.06822 0.073769,0.176594 0.1299375,0.240837 0.098162,0.112273 0.2152312,0.115407 3.0168535,0.08076 1.6031007,-0.01982 2.9984496,-0.06301 3.1007752,-0.09597 l 0.1860465,-0.05993 -0.2170543,-0.01267 -0.2170543,-0.01267 0.1860466,-0.04734 0.1860465,-0.04734 -0.1860465,-0.0155 -0.1860466,-0.0155 0.2170543,-0.04295 0.2170543,-0.04295 -0.1860465,-0.05329 c -0.1023256,-0.02931 -1.53102,-0.05514 -3.1748765,-0.05741 -1.9344029,-0.0027 -2.9676815,-0.02538 -2.9288835,-0.06438 0.064415,-0.06476 5.2826624,-0.05754 6.0270914,0.0083 0.3708716,0.03282 0.4235976,0.05362 0.4552126,0.179584 0.01967,0.07836 0.01817,0.197882 -0.0033,0.265612 -0.05377,0.16942 -0.4484385,0.191678 -3.7428179,0.211077 l -2.6854305,0.01581 z"
     id="path1097"
     inkscape:connector-curvature="0" />
  <path
     style="opacity:0.65399996;fill:#ffffff;fill-opacity:1;stroke:#00ffff;stroke-width:0.35158396;stroke-miterlimit:4;stroke-dasharray:none;stroke-dashoffset:0;stroke-opacity:1"
     d="M 3.3632383,15.819273 C 3.1615474,15.540847 3.1686504,15.491061 3.452918,15.190698 l 0.1614037,-0.170543 1.6874128,0.005 c 2.1871651,0.0065 4.7997385,0.07891 4.8554675,0.134642 0.072,0.072 0.09783,0.628774 0.03359,0.723991 -0.07184,0.10649 -1.9817966,0.180297 -4.8291627,0.186617 l -1.8135645,0.004 z m 5.5233586,-0.222369 c 0.5021132,-0.03737 0.5486912,-0.04968 0.3351085,-0.08853 -0.2765122,-0.0503 -5.4836007,-0.07956 -5.532073,-0.03108 -0.016904,0.0169 -0.012339,0.0605 0.010143,0.09688 0.046958,0.07598 4.2253993,0.0943 5.1868213,0.02274 z"
     id="path1099"
     inkscape:connector-curvature="0" />
  <path
     style="opacity:0.65399996;fill:#ffffff;fill-opacity:1;stroke:#00ffff;stroke-width:0.35158396;stroke-miterlimit:4;stroke-dasharray:none;stroke-dashoffset:0;stroke-opacity:1"
     d="m 4.6509412,15.769739 c -0.9979528,-0.03731 -1.1351432,-0.07412 -1.0933385,-0.293384 0.035221,-0.184734 0.8625133,-0.224661 3.456182,-0.166803 2.2875897,0.05103 2.3182562,0.05342 2.4071204,0.187468 0.086086,0.129857 0.079648,0.138399 -0.1476175,0.195855 -0.2975345,0.07522 -3.3212474,0.125503 -4.6223464,0.07686 z"
     id="path1101"
     inkscape:connector-curvature="0" />
  <path
     style="opacity:0.65399996;fill:#ffffff;fill-opacity:1;stroke:#00ffff;stroke-width:0.35158396;stroke-miterlimit:4;stroke-dasharray:none;stroke-dashoffset:0;stroke-opacity:1"
     d="M 3.3353796,16.043411 C 2.9927101,15.590786 2.9972891,15.39985 3.3591272,15.053187 l 0.1749214,-0.167585 2.5337509,0.01012 c 3.2428182,0.01295 4.0985025,0.05699 4.2154535,0.216929 0.106898,0.146191 0.112355,0.715693 0.0082,0.857795 -0.11447,0.156204 -1.3330985,0.224975 -4.3145981,0.243485 l -2.5006446,0.01552 z m 6.3681261,-0.0097 c -0.041986,-0.01699 -0.1257073,-0.01802 -0.1860465,-0.0023 -0.060339,0.01572 -0.025986,0.02962 0.076339,0.03089 0.1023256,0.0013 0.1516937,-0.0116 0.1097075,-0.02859 z M 3.4232558,15.926973 c 0,-0.01288 -0.048837,-0.06171 -0.1085271,-0.108527 -0.09836,-0.07714 -0.1005536,-0.07495 -0.023414,0.02341 0.081015,0.103303 0.1319414,0.136154 0.1319414,0.08511 z M 6.027907,15.823179 C 4.8852713,15.800379 3.8895903,15.777809 3.8152824,15.773029 3.6397611,15.761739 3.4681849,15.588237 3.5141322,15.4685 c 0.029425,-0.07668 0.019182,-0.07985 -0.05612,-0.01735 -0.080479,0.06679 -0.075268,0.09923 0.041251,0.256833 l 0.1333649,0.180386 2.2363995,-0.01187 2.2363995,-0.01187 z m 3.8914728,-0.03591 c 0.1143292,-0.03064 0.1395352,-0.0809 0.1395352,-0.278223 v -0.240829 l -0.914729,0.01287 c -0.6753224,0.0095 -0.7648394,0.01822 -0.3420284,0.03332 0.5041438,0.018 0.5809246,0.03582 0.641404,0.148826 0.1075782,0.201012 -0.016016,0.266098 -0.5812883,0.306116 -0.5064605,0.03585 -0.5055267,0.03606 0.2043934,0.04566 0.392248,0.0053 0.775969,-0.0072 0.8527131,-0.02775 z M 8.1111248,15.59389 8.9736434,15.54747 8.3534884,15.50815 c -0.894257,-0.0567 -4.279254,-0.06235 -4.4135326,-0.0074 -0.078573,0.03217 -0.00843,0.05774 0.2274861,0.08291 0.5233396,0.05585 2.9774449,0.0622 3.9436829,0.0102 z M 3.3922481,15.206202 c 0.061735,-0.06822 0.098293,-0.124031 0.081239,-0.124031 -0.017054,0 -0.081519,0.05581 -0.1432542,0.124031 -0.061736,0.06822 -0.098293,0.124031 -0.081239,0.124031 0.017054,0 0.081519,-0.05581 0.1432542,-0.124031 z m 4.2170542,0.04205 c 0.2046512,-0.01 -0.5960274,-0.02353 -1.7792857,-0.0301 -1.1832584,-0.0066 -2.1643439,0.009 -2.1801901,0.03456 -0.026202,0.0423 3.0723448,0.03881 3.9594758,-0.0045 z"
     id="path1103"
     inkscape:connector-curvature="0" />
</svg>
